<svg version="1.1" viewBox="0.0 0.0 174.63517060367454 290.28871391076115" fill="none" stroke="none" stroke-linecap="square" stroke-miterlimit="10" xmlns:xlink="http://www.w3.org/1999/xlink" xmlns="http://www.w3.org/2000/svg"><clipPath id="p.0"><path d="m0 0l174.63518 0l0 290.28873l-174.63518 0l0 -290.28873z" clip-rule="nonzero"/></clipPath><g clip-path="url(#p.0)"><path fill="#000000" fill-opacity="0.0" d="m0 0l174.63518 0l0 290.28873l-174.63518 0z" fill-rule="evenodd"/><path fill="#abe9fe" d="m0 0l173.41733 0l0 73.385826l-173.41733 0z" fill-rule="evenodd"/><path stroke="#000000" stroke-width="1.0" stroke-linejoin="round" stroke-linecap="butt" d="m0 0l173.41733 0l0 73.385826l-173.41733 0z" fill-rule="evenodd"/><path fill="#24292e" d="m47.390526 31.446037l0 5.21875l1.34375 0q0.484375 0 0.6875 0.1875q0.203125 0.171875 0.203125 0.484375q0 0.28125 -0.203125 0.46875q-0.203125 0.1875 -0.6875 0.1875l-4.03125 0q-0.484375 0 -0.6875 -0.1875q-0.203125 -0.1875 -0.203125 -0.484375q0 -0.296875 0.203125 -0.46875q0.203125 -0.1875 0.6875 -0.1875l1.34375 0l0 -5.21875l-1.34375 0q-0.484375 0 -0.6875 -0.1875q-0.203125 -0.1875 -0.203125 -0.484375q0 -0.296875 0.203125 -0.484375q0.203125 -0.1875 0.6875 -0.1875l4.03125 0q0.484375 0 0.6875 0.1875q0.203125 0.1875 0.203125 0.484375q0 0.296875 -0.203125 0.484375q-0.203125 0.1875 -0.6875 0.1875l-1.34375 0zm6.998184 1.96875l0 2.671875q0 0.4375 0.171875 0.578125q0.28125 0.203125 0.984375 0.203125q1.015625 0 1.875 -0.4375q0.34375 -0.15625 0.53125 -0.15625q0.25 0 0.4375 0.203125q0.203125 0.1875 0.203125 0.46875q0 0.25 -0.203125 0.4375q-0.328125 0.3125 -1.265625 0.578125q-0.9375 0.25 -1.578125 0.25q-1.25 0 -1.875 -0.53125q-0.609375 -0.546875 -0.609375 -1.328125l0 -2.9375l-0.484375 0q-0.484375 0 -0.6875 -0.1875q-0.203125 -0.1875 -0.203125 -0.484375q0 -0.28125 0.203125 -0.46875q0.203125 -0.1875 0.6875 -0.1875l0.484375 0l0 -1.203125q0 -0.484375 0.171875 -0.6875q0.1875 -0.203125 0.484375 -0.203125q0.296875 0 0.484375 0.203125q0.1875 0.203125 0.1875 0.6875l0 1.203125l2.46875 0q0.484375 0 0.6875 0.1875q0.203125 0.1875 0.203125 0.484375q0 0.28125 -0.203125 0.46875q-0.203125 0.1875 -0.6875 0.1875l-2.46875 0zm11.670059 2.296875l-5.46875 0q0.203125 0.53125 0.734375 0.84375q0.53125 0.3125 1.4375 0.3125q0.75 0 1.96875 -0.3125q0.515625 -0.125 0.703125 -0.125q0.265625 0 0.453125 0.1875q0.1875 0.1875 0.1875 0.46875q0 0.265625 -0.203125 0.4375q-0.265625 0.25 -1.28125 0.46875q-1.0 0.21875 -1.921875 0.21875q-1.609375 0 -2.578125 -0.90625q-0.953125 -0.90625 -0.953125 -2.234375q0 -1.40625 1.03125 -2.28125q1.046875 -0.875 2.40625 -0.875q0.8125 0 1.484375 0.28125q0.6875 0.28125 1.015625 0.609375q0.46875 0.484375 0.78125 1.203125q0.203125 0.484375 0.203125 1.140625l0 0.5625zm-1.46875 -1.328125q-0.3125 -0.578125 -0.8125 -0.859375q-0.484375 -0.28125 -1.171875 -0.28125q-0.671875 0 -1.171875 0.28125q-0.5 0.28125 -0.8125 0.859375l3.96875 0zm4.060684 -2.296875l0 0.375q0.328125 -0.3125 0.59375 -0.4375q0.265625 -0.125 0.609375 -0.125q0.28125 0 0.5625 0.140625q0.296875 0.140625 0.578125 0.4375q0.34375 -0.296875 0.6875 -0.421875q0.359375 -0.140625 0.734375 -0.140625q0.734375 0 1.203125 0.390625q0.609375 0.515625 0.609375 1.359375l0 3.0q0.421875 0 0.625 0.1875q0.203125 0.1875 0.203125 0.484375q0 0.28125 -0.203125 0.46875q-0.203125 0.1875 -0.6875 0.1875l-1.265625 0l0 -4.203125q0 -0.3125 -0.109375 -0.421875q-0.109375 -0.125 -0.34375 -0.125q-0.21875 0 -0.40625 0.109375q-0.25 0.171875 -0.59375 0.625l0 2.6875q0.421875 0 0.625 0.1875q0.203125 0.1875 0.203125 0.484375q0 0.28125 -0.203125 0.46875q-0.203125 0.1875 -0.6875 0.1875l-1.265625 0l0 -4.203125q0 -0.3125 -0.125 -0.421875q-0.109375 -0.125 -0.328125 -0.125q-0.234375 0 -0.46875 0.15625q-0.21875 0.140625 -0.546875 0.578125l0 2.6875q0.421875 0 0.625 0.1875q0.203125 0.1875 0.203125 0.484375q0 0.28125 -0.203125 0.46875q-0.203125 0.1875 -0.6875 0.1875l-1.203125 0q-0.484375 0 -0.6875 -0.1875q-0.203125 -0.1875 -0.203125 -0.484375q0 -0.296875 0.203125 -0.46875q0.203125 -0.1875 0.625 -0.1875l0 -3.25q-0.421875 0 -0.625 -0.1875q-0.203125 -0.1875 -0.203125 -0.484375q0 -0.28125 0.203125 -0.46875q0.203125 -0.1875 0.6875 -0.1875l1.265625 0zm12.154434 -1.640625q0.125 -0.171875 0.265625 -0.25q0.15625 -0.09375 0.3125 -0.09375q0.296875 0 0.484375 0.203125q0.1875 0.203125 0.1875 0.6875l0 1.125q0 0.484375 -0.1875 0.6875q-0.1875 0.203125 -0.484375 0.203125q-0.265625 0 -0.421875 -0.140625q-0.171875 -0.15625 -0.25 -0.5625q-0.03125 -0.28125 -0.171875 -0.421875q-0.265625 -0.296875 -0.75 -0.46875q-0.484375 -0.171875 -0.953125 -0.171875q-0.609375 0 -1.109375 0.265625q-0.5 0.25 -0.890625 0.84375q-0.375 0.578125 -0.375 1.390625l0 0.859375q0 0.96875 0.703125 1.609375q0.703125 0.640625 1.9375 0.640625q0.75 0 1.265625 -0.203125q0.296875 -0.109375 0.625 -0.453125q0.21875 -0.21875 0.328125 -0.28125q0.125 -0.0625 0.265625 -0.0625q0.265625 0 0.46875 0.203125q0.203125 0.203125 0.203125 0.484375q0 0.265625 -0.265625 0.578125q-0.40625 0.453125 -1.03125 0.71875q-0.828125 0.34375 -1.84375 0.34375q-1.1875 0 -2.140625 -0.484375q-0.765625 -0.390625 -1.3125 -1.234375q-0.53125 -0.84375 -0.53125 -1.828125l0 -0.90625q0 -1.046875 0.484375 -1.9375q0.484375 -0.90625 1.34375 -1.390625q0.859375 -0.5 1.8125 -0.5q0.578125 0 1.078125 0.140625q0.515625 0.125 0.953125 0.40625zm9.373184 4.703125q0 0.765625 -0.4375 1.484375q-0.421875 0.71875 -1.265625 1.15625q-0.84375 0.421875 -1.75 0.421875q-0.921875 0 -1.75 -0.421875q-0.828125 -0.421875 -1.265625 -1.140625q-0.4375 -0.71875 -0.4375 -1.515625q0 -0.796875 0.4375 -1.5625q0.4375 -0.78125 1.265625 -1.21875q0.84375 -0.4375 1.75 -0.4375q0.90625 0 1.75 0.453125q0.84375 0.4375 1.265625 1.203125q0.4375 0.765625 0.4375 1.578125zm-1.34375 0q0 -0.640625 -0.453125 -1.171875q-0.640625 -0.734375 -1.65625 -0.734375q-0.90625 0 -1.515625 0.578125q-0.609375 0.578125 -0.609375 1.34375q0 0.625 0.609375 1.171875q0.625 0.53125 1.515625 0.53125q0.890625 0 1.5 -0.53125q0.609375 -0.546875 0.609375 -1.1875zm4.529434 -3.0625l0 0.453125q0.359375 -0.3125 0.796875 -0.46875q0.4375 -0.15625 0.953125 -0.15625q1.1875 0 1.875 0.734375q0.546875 0.578125 0.546875 1.53125l0 2.484375q0.421875 0 0.625 0.1875q0.203125 0.171875 0.203125 0.484375q0 0.28125 -0.203125 0.46875q-0.203125 0.1875 -0.6875 0.1875l-1.203125 0q-0.484375 0 -0.6875 -0.1875q-0.203125 -0.1875 -0.203125 -0.484375q0 -0.296875 0.1875 -0.46875q0.203125 -0.1875 0.640625 -0.1875l0 -2.53125q0 -0.421875 -0.234375 -0.625q-0.3125 -0.265625 -0.921875 -0.265625q-0.46875 0 -0.8125 0.1875q-0.34375 0.171875 -0.875 0.75l0 2.484375q0.5 0 0.65625 0.09375q0.3125 0.1875 0.3125 0.578125q0 0.28125 -0.203125 0.46875q-0.203125 0.1875 -0.6875 0.1875l-1.515625 0q-0.484375 0 -0.6875 -0.1875q-0.203125 -0.1875 -0.203125 -0.484375q0 -0.359375 0.3125 -0.5625q0.15625 -0.09375 0.671875 -0.09375l0 -3.25q-0.421875 0 -0.625 -0.1875q-0.203125 -0.1875 -0.203125 -0.484375q0 -0.28125 0.203125 -0.46875q0.203125 -0.1875 0.6875 -0.1875l1.28125 0zm9.013809 1.328125l0 2.671875q0 0.4375 0.171875 0.578125q0.28125 0.203125 0.984375 0.203125q1.015625 0 1.875 -0.4375q0.34375 -0.15625 0.53125 -0.15625q0.25 0 0.4375 0.203125q0.203125 0.1875 0.203125 0.46875q0 0.25 -0.203125 0.4375q-0.328125 0.3125 -1.265625 0.578125q-0.9375 0.25 -1.578125 0.25q-1.25 0 -1.875 -0.53125q-0.609375 -0.546875 -0.609375 -1.328125l0 -2.9375l-0.484375 0q-0.484375 0 -0.6875 -0.1875q-0.203125 -0.1875 -0.203125 -0.484375q0 -0.28125 0.203125 -0.46875q0.203125 -0.1875 0.6875 -0.1875l0.484375 0l0 -1.203125q0 -0.484375 0.171875 -0.6875q0.1875 -0.203125 0.484375 -0.203125q0.296875 0 0.484375 0.203125q0.1875 0.203125 0.1875 0.6875l0 1.203125l2.46875 0q0.484375 0 0.6875 0.1875q0.203125 0.1875 0.203125 0.484375q0 0.28125 -0.203125 0.46875q-0.203125 0.1875 -0.6875 0.1875l-2.46875 0zm11.670059 2.296875l-5.46875 0q0.203125 0.53125 0.734375 0.84375q0.53125 0.3125 1.4375 0.3125q0.75 0 1.96875 -0.3125q0.515625 -0.125 0.703125 -0.125q0.265625 0 0.453125 0.1875q0.1875 0.1875 0.1875 0.46875q0 0.265625 -0.203125 0.4375q-0.265625 0.25 -1.28125 0.46875q-1.0 0.21875 -1.921875 0.21875q-1.609375 0 -2.578125 -0.90625q-0.953125 -0.90625 -0.953125 -2.234375q0 -1.40625 1.03125 -2.28125q1.046875 -0.875 2.40625 -0.875q0.8125 0 1.484375 0.28125q0.6875 0.28125 1.015625 0.609375q0.46875 0.484375 0.78125 1.203125q0.203125 0.484375 0.203125 1.140625l0 0.5625zm-1.46875 -1.328125q-0.3125 -0.578125 -0.8125 -0.859375q-0.484375 -0.28125 -1.171875 -0.28125q-0.671875 0 -1.171875 0.28125q-0.5 0.28125 -0.8125 0.859375l3.96875 0zm7.123184 0.53125l2.015625 1.75q0.375 0.015625 0.546875 0.203125q0.1875 0.1875 0.1875 0.46875q0 0.28125 -0.203125 0.46875q-0.203125 0.1875 -0.6875 0.1875l-1.515625 0q-0.484375 0 -0.6875 -0.1875q-0.203125 -0.1875 -0.203125 -0.484375q0 -0.234375 0.140625 -0.40625q0.15625 -0.1875 0.40625 -0.25l-1.0 -0.859375l-1.015625 0.859375q0.3125 0.078125 0.4375 0.234375q0.140625 0.15625 0.140625 0.421875q0 0.296875 -0.203125 0.484375q-0.203125 0.1875 -0.6875 0.1875l-1.5 0q-0.484375 0 -0.6875 -0.1875q-0.203125 -0.1875 -0.203125 -0.484375q0 -0.265625 0.171875 -0.453125q0.1875 -0.1875 0.5625 -0.203125l1.96875 -1.75l-1.75 -1.5q-0.34375 -0.015625 -0.53125 -0.203125q-0.171875 -0.1875 -0.171875 -0.46875q0 -0.28125 0.203125 -0.46875q0.203125 -0.1875 0.6875 -0.1875l1.25 0q0.484375 0 0.6875 0.1875q0.203125 0.1875 0.203125 0.46875q0 0.375 -0.359375 0.625l0.8125 0.671875l0.78125 -0.6875q-0.359375 -0.25 -0.359375 -0.578125q0 -0.3125 0.203125 -0.5q0.21875 -0.1875 0.703125 -0.1875l1.234375 0q0.46875 0 0.671875 0.1875q0.21875 0.1875 0.21875 0.484375q0 0.265625 -0.1875 0.453125q-0.171875 0.1875 -0.53125 0.203125l-1.75 1.5zm6.670059 -1.5l0 2.671875q0 0.4375 0.171875 0.578125q0.28125 0.203125 0.984375 0.203125q1.0156326 0 1.8750076 -0.4375q0.34375 -0.15625 0.53125 -0.15625q0.25 0 0.4375 0.203125q0.203125 0.1875 0.203125 0.46875q0 0.25 -0.203125 0.4375q-0.328125 0.3125 -1.265625 0.578125q-0.9375 0.25 -1.5781326 0.25q-1.25 0 -1.875 -0.53125q-0.609375 -0.546875 -0.609375 -1.328125l0 -2.9375l-0.484375 0q-0.484375 0 -0.6875 -0.1875q-0.203125 -0.1875 -0.203125 -0.484375q0 -0.28125 0.203125 -0.46875q0.203125 -0.1875 0.6875 -0.1875l0.484375 0l0 -1.203125q0 -0.484375 0.171875 -0.6875q0.1875 -0.203125 0.484375 -0.203125q0.296875 0 0.484375 0.203125q0.1875 0.203125 0.1875 0.6875l0 1.203125l2.4687576 0q0.484375 0 0.6875 0.1875q0.203125 0.1875 0.203125 0.484375q0 0.28125 -0.203125 0.46875q-0.203125 0.1875 -0.6875 0.1875l-2.4687576 0z" fill-rule="nonzero"/><path fill="#abe9fe" d="m0 107.80577l173.41733 0l0 73.38583l-173.41733 0z" fill-rule="evenodd"/><path stroke="#000000" stroke-width="1.0" stroke-linejoin="round" stroke-linecap="butt" d="m0 107.80577l173.41733 0l0 73.38583l-173.41733 0z" fill-rule="evenodd"/><path fill="#24292e" d="m40.345467 124.65806l-3.234375 0l-0.328125 0.8125l0.328125 0q0.484375 0 0.6875 0.1875q0.203125 0.171875 0.203125 0.484375q0 0.28125 -0.203125 0.46875q-0.203125 0.1875 -0.6875 0.1875l-1.796875 0q-0.484375 0 -0.6875 -0.1875q-0.203125 -0.1875 -0.203125 -0.484375q0 -0.296875 0.21875 -0.484375q0.203125 -0.1875 0.703125 -0.171875l2.09375 -5.21875l-0.875 0q-0.484375 0 -0.6875 -0.1875q-0.203125 -0.1875 -0.203125 -0.484375q0 -0.296875 0.203125 -0.484375q0.203125 -0.1875 0.6875 -0.1875l2.890625 0l2.65625 6.5625q0.46875 0 0.609375 0.09375q0.296875 0.21875 0.296875 0.578125q0 0.28125 -0.203125 0.46875q-0.1875 0.1875 -0.671875 0.1875l-1.796875 0q-0.484375 0 -0.6875 -0.1875q-0.203125 -0.1875 -0.203125 -0.484375q0 -0.296875 0.203125 -0.46875q0.203125 -0.1875 0.6875 -0.1875l0.328125 0l-0.328125 -0.8125zm-0.546875 -1.34375l-1.078125 -2.640625l-1.078125 2.640625l2.15625 0zm8.998184 -2.1875q0.234375 -0.21875 0.5 -0.21875q0.28125 0 0.46875 0.203125q0.1875 0.203125 0.1875 0.671875l0 0.859375q0 0.484375 -0.1875 0.6875q-0.1875 0.203125 -0.484375 0.203125q-0.28125 0 -0.46875 -0.15625q-0.125 -0.125 -0.203125 -0.484375q-0.078125 -0.359375 -0.390625 -0.53125q-0.515625 -0.3125 -1.34375 -0.3125q-0.9375 0 -1.515625 0.5625q-0.5625 0.546875 -0.5625 1.390625q0 0.78125 0.546875 1.234375q0.546875 0.453125 1.8125 0.453125q0.828125 0 1.359375 -0.171875q0.3125 -0.109375 0.59375 -0.359375q0.28125 -0.25 0.5 -0.25q0.28125 0 0.46875 0.203125q0.203125 0.203125 0.203125 0.484375q0 0.4375 -0.59375 0.828125q-0.90625 0.59375 -2.640625 0.59375q-1.546875 0 -2.421875 -0.640625q-1.171875 -0.859375 -1.171875 -2.375q0 -1.421875 0.953125 -2.34375q0.953125 -0.9375 2.484375 -0.9375q0.546875 0 1.015625 0.109375q0.484375 0.09375 0.890625 0.296875zm5.591934 1.09375l0 2.671875q0 0.4375 0.171875 0.578125q0.28125 0.203125 0.984375 0.203125q1.015625 0 1.875 -0.4375q0.34375 -0.15625 0.53125 -0.15625q0.25 0 0.4375 0.203125q0.203125 0.1875 0.203125 0.46875q0 0.25 -0.203125 0.4375q-0.328125 0.3125 -1.265625 0.578125q-0.9375 0.25 -1.578125 0.25q-1.25 0 -1.875 -0.53125q-0.609375 -0.546875 -0.609375 -1.328125l0 -2.9375l-0.484375 0q-0.484375 0 -0.6875 -0.1875q-0.203125 -0.1875 -0.203125 -0.484375q0 -0.28125 0.203125 -0.46875q0.203125 -0.1875 0.6875 -0.1875l0.484375 0l0 -1.203125q0 -0.484375 0.171875 -0.6875q0.1875 -0.203125 0.484375 -0.203125q0.296875 0 0.484375 0.203125q0.1875 0.203125 0.1875 0.6875l0 1.203125l2.46875 0q0.484375 0 0.6875 0.1875q0.203125 0.1875 0.203125 0.484375q0 0.28125 -0.203125 0.46875q-0.203125 0.1875 -0.6875 0.1875l-2.46875 0zm8.810684 -3.859375l0 1.40625l-1.59375 0l0 -1.40625l1.59375 0zm0.171875 2.53125l0 4.578125l1.609375 0q0.46875 0 0.671875 0.1875q0.21875 0.171875 0.21875 0.484375q0 0.28125 -0.21875 0.46875q-0.203125 0.1875 -0.671875 0.1875l-4.546875 0q-0.46875 0 -0.6875 -0.1875q-0.203125 -0.1875 -0.203125 -0.484375q0 -0.296875 0.203125 -0.46875q0.21875 -0.1875 0.6875 -0.1875l1.609375 0l0 -3.25l-1.078125 0q-0.46875 0 -0.6875 -0.1875q-0.203125 -0.1875 -0.203125 -0.484375q0 -0.28125 0.203125 -0.46875q0.203125 -0.1875 0.6875 -0.1875l2.40625 0zm10.810684 3.0625q0 0.765625 -0.4375 1.484375q-0.421875 0.71875 -1.265625 1.15625q-0.84375 0.421875 -1.75 0.421875q-0.921875 0 -1.75 -0.421875q-0.828125 -0.421875 -1.265625 -1.140625q-0.4375 -0.71875 -0.4375 -1.515625q0 -0.796875 0.4375 -1.5625q0.4375 -0.78125 1.265625 -1.21875q0.84375 -0.4375 1.75 -0.4375q0.90625 0 1.75 0.453125q0.84375 0.4375 1.265625 1.203125q0.4375 0.765625 0.4375 1.578125zm-1.34375 0q0 -0.640625 -0.453125 -1.171875q-0.640625 -0.734375 -1.65625 -0.734375q-0.90625 0 -1.515625 0.578125q-0.609375 0.578125 -0.609375 1.34375q0 0.625 0.609375 1.171875q0.625 0.53125 1.515625 0.53125q0.890625 0 1.5 -0.53125q0.609375 -0.546875 0.609375 -1.1875zm4.529434 -3.0625l0 0.453125q0.359375 -0.3125 0.796875 -0.46875q0.4375 -0.15625 0.953125 -0.15625q1.1875 0 1.875 0.734375q0.546875 0.578125 0.546875 1.53125l0 2.484375q0.421875 0 0.625 0.1875q0.203125 0.171875 0.203125 0.484375q0 0.28125 -0.203125 0.46875q-0.203125 0.1875 -0.6875 0.1875l-1.203125 0q-0.484375 0 -0.6875 -0.1875q-0.203125 -0.1875 -0.203125 -0.484375q0 -0.296875 0.1875 -0.46875q0.203125 -0.1875 0.640625 -0.1875l0 -2.53125q0 -0.421875 -0.234375 -0.625q-0.3125 -0.265625 -0.921875 -0.265625q-0.46875 0 -0.8125 0.1875q-0.34375 0.171875 -0.875 0.75l0 2.484375q0.5 0 0.65625 0.09375q0.3125 0.1875 0.3125 0.578125q0 0.28125 -0.203125 0.46875q-0.203125 0.1875 -0.6875 0.1875l-1.515625 0q-0.484375 0 -0.6875 -0.1875q-0.203125 -0.1875 -0.203125 -0.484375q0 -0.359375 0.3125 -0.5625q0.15625 -0.09375 0.671875 -0.09375l0 -3.25q-0.421875 0 -0.625 -0.1875q-0.203125 -0.1875 -0.203125 -0.484375q0 -0.28125 0.203125 -0.46875q0.203125 -0.1875 0.6875 -0.1875l1.28125 0zm11.435684 -1.640625q0.125 -0.171875 0.265625 -0.25q0.15625 -0.09375 0.3125 -0.09375q0.296875 0 0.484375 0.203125q0.1875 0.203125 0.1875 0.6875l0 1.125q0 0.484375 -0.1875 0.6875q-0.1875 0.203125 -0.484375 0.203125q-0.265625 0 -0.421875 -0.140625q-0.171875 -0.15625 -0.25 -0.5625q-0.03125 -0.28125 -0.171875 -0.421875q-0.265625 -0.296875 -0.75 -0.46875q-0.484375 -0.171875 -0.953125 -0.171875q-0.609375 0 -1.109375 0.265625q-0.5 0.25 -0.890625 0.84375q-0.375 0.578125 -0.375 1.390625l0 0.859375q0 0.96875 0.703125 1.609375q0.703125 0.640625 1.9375 0.640625q0.75 0 1.265625 -0.203125q0.296875 -0.109375 0.625 -0.453125q0.21875 -0.21875 0.328125 -0.28125q0.125 -0.0625 0.265625 -0.0625q0.265625 0 0.46875 0.203125q0.203125 0.203125 0.203125 0.484375q0 0.265625 -0.265625 0.578125q-0.40625 0.453125 -1.03125 0.71875q-0.828125 0.34375 -1.84375 0.34375q-1.1875 0 -2.140625 -0.484375q-0.765625 -0.390625 -1.3125 -1.234375q-0.53125 -0.84375 -0.53125 -1.828125l0 -0.90625q0 -1.046875 0.484375 -1.9375q0.484375 -0.90625 1.34375 -1.390625q0.859375 -0.5 1.8125 -0.5q0.578125 0 1.078125 0.140625q0.515625 0.125 0.953125 0.40625zm9.373184 4.703125q0 0.765625 -0.4375 1.484375q-0.421875 0.71875 -1.265625 1.15625q-0.84375 0.421875 -1.75 0.421875q-0.921875 0 -1.75 -0.421875q-0.828125 -0.421875 -1.265625 -1.140625q-0.4375 -0.71875 -0.4375 -1.515625q0 -0.796875 0.4375 -1.5625q0.4375 -0.78125 1.265625 -1.21875q0.84375 -0.4375 1.75 -0.4375q0.90625 0 1.75 0.453125q0.84375 0.4375 1.265625 1.203125q0.4375 0.765625 0.4375 1.578125zm-1.34375 0q0 -0.640625 -0.453125 -1.171875q-0.640625 -0.734375 -1.65625 -0.734375q-0.90625 0 -1.515625 0.578125q-0.609375 0.578125 -0.609375 1.34375q0 0.625 0.609375 1.171875q0.625 0.53125 1.515625 0.53125q0.890625 0 1.5 -0.53125q0.609375 -0.546875 0.609375 -1.1875zm4.529434 -3.0625l0 0.453125q0.359375 -0.3125 0.796875 -0.46875q0.4375 -0.15625 0.953125 -0.15625q1.1875 0 1.875 0.734375q0.546875 0.578125 0.546875 1.53125l0 2.484375q0.421875 0 0.625 0.1875q0.203125 0.171875 0.203125 0.484375q0 0.28125 -0.203125 0.46875q-0.203125 0.1875 -0.6875 0.1875l-1.203125 0q-0.484375 0 -0.6875 -0.1875q-0.203125 -0.1875 -0.203125 -0.484375q0 -0.296875 0.1875 -0.46875q0.203125 -0.1875 0.640625 -0.1875l0 -2.53125q0 -0.421875 -0.234375 -0.625q-0.3125 -0.265625 -0.921875 -0.265625q-0.46875 0 -0.8125 0.1875q-0.34375 0.171875 -0.875 0.75l0 2.484375q0.5 0 0.65625 0.09375q0.3125 0.1875 0.3125 0.578125q0 0.28125 -0.203125 0.46875q-0.203125 0.1875 -0.6875 0.1875l-1.515625 0q-0.484375 0 -0.6875 -0.1875q-0.203125 -0.1875 -0.203125 -0.484375q0 -0.359375 0.3125 -0.5625q0.15625 -0.09375 0.671875 -0.09375l0 -3.25q-0.421875 0 -0.625 -0.1875q-0.203125 -0.1875 -0.203125 -0.484375q0 -0.28125 0.203125 -0.46875q0.203125 -0.1875 0.6875 -0.1875l1.28125 0zm9.013809 1.328125l0 2.671875q0 0.4375 0.171875 0.578125q0.28125 0.203125 0.984375 0.203125q1.015625 0 1.875 -0.4375q0.34375 -0.15625 0.53125 -0.15625q0.25 0 0.4375 0.203125q0.203125 0.1875 0.203125 0.46875q0 0.25 -0.203125 0.4375q-0.328125 0.3125 -1.265625 0.578125q-0.9375 0.25 -1.578125 0.25q-1.25 0 -1.875 -0.53125q-0.609375 -0.546875 -0.609375 -1.328125l0 -2.9375l-0.484375 0q-0.484375 0 -0.6875 -0.1875q-0.203125 -0.1875 -0.203125 -0.484375q0 -0.28125 0.203125 -0.46875q0.203125 -0.1875 0.6875 -0.1875l0.484375 0l0 -1.203125q0 -0.484375 0.171875 -0.6875q0.1875 -0.203125 0.484375 -0.203125q0.296875 0 0.484375 0.203125q0.1875 0.203125 0.1875 0.6875l0 1.203125l2.46875 0q0.484375 0 0.6875 0.1875q0.203125 0.1875 0.203125 0.484375q0 0.28125 -0.203125 0.46875q-0.203125 0.1875 -0.6875 0.1875l-2.46875 0zm11.670059 2.296875l-5.46875 0q0.203125 0.53125 0.734375 0.84375q0.53125 0.3125 1.4375 0.3125q0.75 0 1.96875 -0.3125q0.515625 -0.125 0.703125 -0.125q0.265625 0 0.453125 0.1875q0.1875 0.1875 0.1875 0.46875q0 0.265625 -0.203125 0.4375q-0.265625 0.25 -1.28125 0.46875q-1.0 0.21875 -1.921875 0.21875q-1.609375 0 -2.578125 -0.90625q-0.953125 -0.90625 -0.953125 -2.234375q0 -1.40625 1.03125 -2.28125q1.046875 -0.875 2.40625 -0.875q0.8125 0 1.484375 0.28125q0.6875 0.28125 1.015625 0.609375q0.46875 0.484375 0.78125 1.203125q0.203125 0.484375 0.203125 1.140625l0 0.5625zm-1.46875 -1.328125q-0.3125 -0.578125 -0.8125 -0.859375q-0.484375 -0.28125 -1.171875 -0.28125q-0.671875 0 -1.171875 0.28125q-0.5 0.28125 -0.8125 0.859375l3.96875 0zm7.123184 0.53125l2.0156326 1.75q0.375 0.015625 0.546875 0.203125q0.1875 0.1875 0.1875 0.46875q0 0.28125 -0.203125 0.46875q-0.203125 0.1875 -0.6875 0.1875l-1.515625 0q-0.48438263 0 -0.6875076 -0.1875q-0.203125 -0.1875 -0.203125 -0.484375q0 -0.234375 0.140625 -0.40625q0.15625 -0.1875 0.40625 -0.25l-1.0 -0.859375l-1.015625 0.859375q0.3125 0.078125 0.4375 0.234375q0.140625 0.15625 0.140625 0.421875q0 0.296875 -0.203125 0.484375q-0.203125 0.1875 -0.6875 0.1875l-1.5 0q-0.484375 0 -0.6875 -0.1875q-0.203125 -0.1875 -0.203125 -0.484375q0 -0.265625 0.171875 -0.453125q0.1875 -0.1875 0.5625 -0.203125l1.96875 -1.75l-1.75 -1.5q-0.34375 -0.015625 -0.53125 -0.203125q-0.171875 -0.1875 -0.171875 -0.46875q0 -0.28125 0.203125 -0.46875q0.203125 -0.1875 0.6875 -0.1875l1.25 0q0.484375 0 0.6875 0.1875q0.203125 0.1875 0.203125 0.46875q0 0.375 -0.359375 0.625l0.8125 0.671875l0.78125 -0.6875q-0.359375 -0.25 -0.359375 -0.578125q0 -0.3125 0.203125 -0.5q0.21875 -0.1875 0.7031326 -0.1875l1.234375 0q0.46875 0 0.671875 0.1875q0.21875 0.1875 0.21875 0.484375q0 0.265625 -0.1875 0.453125q-0.171875 0.1875 -0.53125 0.203125l-1.7500076 1.5zm6.6700516 -1.5l0 2.671875q0 0.4375 0.171875 0.578125q0.28125 0.203125 0.984375 0.203125q1.015625 0 1.875 -0.4375q0.34375 -0.15625 0.53125 -0.15625q0.25 0 0.4375 0.203125q0.203125 0.1875 0.203125 0.46875q0 0.25 -0.203125 0.4375q-0.328125 0.3125 -1.265625 0.578125q-0.9375 0.25 -1.578125 0.25q-1.25 0 -1.875 -0.53125q-0.609375 -0.546875 -0.609375 -1.328125l0 -2.9375l-0.484375 0q-0.484375 0 -0.6875 -0.1875q-0.203125 -0.1875 -0.203125 -0.484375q0 -0.28125 0.203125 -0.46875q0.203125 -0.1875 0.6875 -0.1875l0.484375 0l0 -1.203125q0 -0.484375 0.171875 -0.6875q0.1875 -0.203125 0.484375 -0.203125q0.296875 0 0.484375 0.203125q0.1875 0.203125 0.1875 0.6875l0 1.203125l2.46875 0q0.484375 0 0.6875 0.1875q0.203125 0.1875 0.203125 0.484375q0 0.28125 -0.203125 0.46875q-0.203125 0.1875 -0.6875 0.1875l-2.46875 0z" fill-rule="nonzero"/><path fill="#24292e" d="m47.38263 144.69182l-4.453125 0l0 -0.96875l4.453125 0l0 0.96875zm9.227081 1.953125l0 1.75l0.640625 0q0.375 0 0.53125 0.140625q0.171875 0.15625 0.171875 0.40625q0 0.234375 -0.171875 0.375q-0.15625 0.15625 -0.53125 0.15625l-1.890625 0q-0.390625 0 -0.5625 -0.15625q-0.15625 -0.140625 -0.15625 -0.375q0 -0.25 0.171875 -0.40625q0.171875 -0.140625 0.546875 -0.140625l0.1875 0l0 -4.8125l-0.1875 0q-0.390625 0 -0.5625 -0.140625q-0.15625 -0.15625 -0.15625 -0.390625q0 -0.234375 0.15625 -0.375q0.171875 -0.15625 0.5625 -0.15625l1.25 0l0 0.359375q0.375 -0.25 0.765625 -0.375q0.40625 -0.125 0.828125 -0.125q1.09375 0 1.859375 0.75q0.78125 0.734375 0.78125 1.6875q0 1.046875 -0.921875 1.734375q-0.75 0.578125 -1.703125 0.578125q-0.421875 0 -0.828125 -0.109375q-0.390625 -0.125 -0.78125 -0.375zm3.15625 -1.828125q0 -0.21875 -0.171875 -0.5625q-0.171875 -0.34375 -0.546875 -0.578125q-0.359375 -0.234375 -0.859375 -0.234375q-0.796875 0 -1.265625 0.59375q-0.3125 0.421875 -0.3125 0.796875q0 0.421875 0.453125 0.828125q0.453125 0.40625 1.125 0.40625q0.671875 0 1.125 -0.40625q0.453125 -0.40625 0.453125 -0.84375zm5.5197906 2.421875l0 -0.25q-0.40625 0.21875 -0.890625 0.3125q-0.484375 0.109375 -0.875 0.109375q-0.859375 0 -1.390625 -0.453125q-0.53125 -0.453125 -0.53125 -1.0q0 -0.671875 0.671875 -1.25q0.6875 -0.578125 1.890625 -0.578125q0.484375 0 1.125 0.109375l0 -0.25q0 -0.25 -0.203125 -0.390625q-0.203125 -0.15625 -0.78125 -0.15625q-0.484375 0 -1.234375 0.1875q-0.28125 0.0625 -0.4375 0.0625q-0.203125 0 -0.359375 -0.140625q-0.140625 -0.15625 -0.140625 -0.40625q0 -0.125 0.046875 -0.21875q0.046875 -0.109375 0.140625 -0.171875q0.09375 -0.0625 0.390625 -0.140625q0.40625 -0.109375 0.8125 -0.171875q0.40625 -0.0625 0.734375 -0.0625q1.0 0 1.546875 0.4375q0.546875 0.421875 0.546875 1.15625l0 2.203125l0.1875 0q0.390625 0 0.546875 0.15625q0.171875 0.140625 0.171875 0.375q0 0.234375 -0.171875 0.390625q-0.15625 0.140625 -0.546875 0.140625l-1.25 0zm0 -1.90625q-0.640625 -0.125 -1.1875 -0.125q-0.640625 0 -1.109375 0.3125q-0.296875 0.203125 -0.296875 0.40625q0 0.15625 0.140625 0.25q0.265625 0.171875 0.71875 0.171875q0.375 0 0.859375 -0.140625q0.5 -0.15625 0.875 -0.421875l0 -0.453125zm5.1760406 -1.75l0 2.140625q0 0.34375 0.140625 0.453125q0.21875 0.171875 0.78125 0.171875q0.8125 0 1.5 -0.359375q0.265625 -0.125 0.421875 -0.125q0.203125 0 0.359375 0.15625q0.15625 0.15625 0.15625 0.375q0 0.203125 -0.171875 0.359375q-0.25 0.25 -1.0 0.453125q-0.75 0.203125 -1.265625 0.203125q-1.0 0 -1.5 -0.421875q-0.484375 -0.4375 -0.484375 -1.0625l0 -2.34375l-0.390625 0q-0.390625 0 -0.5625 -0.140625q-0.15625 -0.15625 -0.15625 -0.390625q0 -0.234375 0.15625 -0.375q0.171875 -0.15625 0.5625 -0.15625l0.390625 0l0 -0.96875q0 -0.390625 0.140625 -0.546875q0.15625 -0.171875 0.390625 -0.171875q0.234375 0 0.375 0.171875q0.15625 0.15625 0.15625 0.546875l0 0.96875l1.96875 0q0.390625 0 0.546875 0.15625q0.171875 0.140625 0.171875 0.375q0 0.234375 -0.171875 0.390625q-0.15625 0.140625 -0.546875 0.140625l-1.96875 0zm5.5510406 -3.09375l0 2.28125q0.34375 -0.203125 0.671875 -0.296875q0.34375 -0.09375 0.6875 -0.09375q0.5625 0 0.984375 0.1875q0.4375 0.1875 0.71875 0.59375q0.28125 0.390625 0.28125 1.015625l0 2.0q0.40625 0 0.53125 0.078125q0.25 0.15625 0.25 0.453125q0 0.234375 -0.15625 0.390625q-0.15625 0.140625 -0.546875 0.140625l-1.21875 0q-0.375 0 -0.546875 -0.140625q-0.15625 -0.15625 -0.15625 -0.390625q0 -0.296875 0.25 -0.453125q0.125 -0.09375 0.53125 -0.078125l0 -1.9375q0 -0.40625 -0.1875 -0.578125q-0.25 -0.21875 -0.734375 -0.21875q-0.34375 0 -0.625 0.140625q-0.265625 0.140625 -0.734375 0.59375l0 2.0q0.421875 0 0.53125 0.078125q0.25 0.15625 0.25 0.453125q0 0.234375 -0.15625 0.390625q-0.15625 0.140625 -0.546875 0.140625l-1.21875 0q-0.375 0 -0.546875 -0.140625q-0.15625 -0.15625 -0.15625 -0.390625q0 -0.296875 0.25 -0.453125q0.125 -0.09375 0.53125 -0.078125l0 -4.625l-0.1875 0q-0.375 0 -0.546875 -0.140625q-0.15625 -0.15625 -0.15625 -0.390625q0 -0.234375 0.15625 -0.375q0.171875 -0.15625 0.546875 -0.15625l1.25 0zm8.301041 2.734375q0 0.3125 -0.21875 0.515625q-0.203125 0.203125 -0.578125 0.203125q-0.375 0 -0.59375 -0.203125q-0.203125 -0.203125 -0.203125 -0.515625q0 -0.296875 0.203125 -0.5q0.21875 -0.203125 0.59375 -0.203125q0.375 0 0.578125 0.203125q0.21875 0.203125 0.21875 0.5zm0.015625 3.5q0 0.296875 -0.21875 0.5q-0.21875 0.203125 -0.59375 0.203125q-0.375 0 -0.59375 -0.203125q-0.203125 -0.203125 -0.203125 -0.5q0 -0.3125 0.203125 -0.515625q0.21875 -0.203125 0.59375 -0.203125q0.375 0 0.59375 0.203125q0.21875 0.203125 0.21875 0.515625zm13.117706 -2.953125q-0.25 -0.171875 -0.546875 -0.25q-0.28125 -0.078125 -0.59375 -0.078125q-0.609375 0 -0.984375 0.203125q-0.15625 0.09375 -0.15625 0.1875q0 0.125 0.21875 0.234375q0.171875 0.09375 0.734375 0.171875q1.0625 0.140625 1.484375 0.28125q0.546875 0.1875 0.84375 0.578125q0.296875 0.375 0.296875 0.796875q0 0.578125 -0.5 0.953125q-0.734375 0.5625 -1.890625 0.5625q-0.453125 0 -0.84375 -0.078125q-0.390625 -0.078125 -0.71875 -0.234375q-0.078125 0.0625 -0.171875 0.109375q-0.09375 0.03125 -0.1875 0.03125q-0.25 0 -0.40625 -0.15625q-0.140625 -0.171875 -0.140625 -0.5625l0 -0.359375q0 -0.390625 0.140625 -0.546875q0.15625 -0.171875 0.40625 -0.171875q0.1875 0 0.3125 0.109375q0.140625 0.109375 0.203125 0.375q0.25 0.203125 0.59375 0.3125q0.34375 0.109375 0.78125 0.109375q0.734375 0 1.140625 -0.234375q0.203125 -0.109375 0.203125 -0.234375q0 -0.21875 -0.28125 -0.34375q-0.28125 -0.140625 -1.140625 -0.234375q-1.28125 -0.140625 -1.71875 -0.515625q-0.421875 -0.375 -0.421875 -0.9375q0 -0.578125 0.484375 -0.953125q0.65625 -0.515625 1.703125 -0.515625q0.375 0 0.71875 0.078125q0.34375 0.0625 0.65625 0.203125q0.09375 -0.078125 0.171875 -0.109375q0.09375 -0.03125 0.171875 -0.03125q0.21875 0 0.359375 0.171875q0.140625 0.15625 0.140625 0.53125l0 0.265625q0 0.34375 -0.078125 0.46875q-0.171875 0.25 -0.453125 0.25q-0.1875 0 -0.34375 -0.125q-0.140625 -0.125 -0.1875 -0.3125zm4.9885406 -0.1875l0 2.140625q0 0.34375 0.140625 0.453125q0.21875 0.171875 0.78125 0.171875q0.8125 0 1.5 -0.359375q0.265625 -0.125 0.421875 -0.125q0.203125 0 0.359375 0.15625q0.15625 0.15625 0.15625 0.375q0 0.203125 -0.171875 0.359375q-0.25 0.25 -1.0 0.453125q-0.75 0.203125 -1.265625 0.203125q-1.0 0 -1.5 -0.421875q-0.484375 -0.4375 -0.484375 -1.0625l0 -2.34375l-0.390625 0q-0.390625 0 -0.5625 -0.140625q-0.15625 -0.15625 -0.15625 -0.390625q0 -0.234375 0.15625 -0.375q0.171875 -0.15625 0.5625 -0.15625l0.390625 0l0 -0.96875q0 -0.390625 0.140625 -0.546875q0.15625 -0.171875 0.390625 -0.171875q0.234375 0 0.375 0.171875q0.15625 0.15625 0.15625 0.546875l0 0.96875l1.96875 0q0.390625 0 0.546875 0.15625q0.171875 0.140625 0.171875 0.375q0 0.234375 -0.171875 0.390625q-0.15625 0.140625 -0.546875 0.140625l-1.96875 0zm6.4260406 -1.0625l0 0.65625q0.671875 -0.484375 1.0625 -0.640625q0.390625 -0.15625 0.734375 -0.15625q0.515625 0 1.0 0.375q0.34375 0.265625 0.34375 0.53125q0 0.234375 -0.171875 0.390625q-0.15625 0.15625 -0.375 0.15625q-0.203125 0 -0.421875 -0.1875q-0.21875 -0.203125 -0.390625 -0.203125q-0.21875 0 -0.671875 0.28125q-0.4375 0.28125 -1.109375 0.84375l0 1.609375l1.53125 0q0.375 0 0.53125 0.15625q0.171875 0.140625 0.171875 0.375q0 0.234375 -0.171875 0.390625q-0.15625 0.140625 -0.53125 0.140625l-3.21875 0q-0.390625 0 -0.5625 -0.140625q-0.15625 -0.15625 -0.15625 -0.390625q0 -0.234375 0.15625 -0.375q0.171875 -0.15625 0.5625 -0.15625l0.625 0l0 -2.59375l-0.375 0q-0.390625 0 -0.5625 -0.140625q-0.15625 -0.15625 -0.15625 -0.390625q0 -0.234375 0.15625 -0.375q0.171875 -0.15625 0.5625 -0.15625l1.4375 0zm7.0041656 -2.03125l0 1.125l-1.265625 0l0 -1.125l1.265625 0zm0.140625 2.03125l0 3.65625l1.28125 0q0.390625 0 0.546875 0.15625q0.171875 0.140625 0.171875 0.375q0 0.234375 -0.171875 0.390625q-0.15625 0.140625 -0.546875 0.140625l-3.625 0q-0.375 0 -0.546875 -0.140625q-0.15625 -0.15625 -0.15625 -0.390625q0 -0.234375 0.15625 -0.375q0.171875 -0.15625 0.546875 -0.15625l1.28125 0l0 -2.59375l-0.859375 0q-0.375 0 -0.546875 -0.140625q-0.15625 -0.15625 -0.15625 -0.390625q0 -0.234375 0.15625 -0.375q0.171875 -0.15625 0.546875 -0.15625l1.921875 0zm4.8010406 0l0 0.359375q0.28125 -0.25 0.625 -0.375q0.359375 -0.125 0.765625 -0.125q0.953125 0 1.5 0.578125q0.4375 0.46875 0.4375 1.234375l0 1.984375q0.34375 0 0.5 0.15625q0.171875 0.140625 0.171875 0.375q0 0.234375 -0.171875 0.390625q-0.15625 0.140625 -0.546875 0.140625l-0.96875 0q-0.375 0 -0.546875 -0.140625q-0.15625 -0.15625 -0.15625 -0.390625q0 -0.234375 0.15625 -0.375q0.15625 -0.15625 0.5 -0.15625l0 -2.015625q0 -0.34375 -0.1875 -0.515625q-0.25 -0.203125 -0.734375 -0.203125q-0.375 0 -0.65625 0.140625q-0.265625 0.140625 -0.6875 0.609375l0 1.984375q0.40625 0 0.53125 0.078125q0.25 0.15625 0.25 0.453125q0 0.234375 -0.171875 0.390625q-0.15625 0.140625 -0.546875 0.140625l-1.203125 0q-0.390625 0 -0.5625 -0.140625q-0.15625 -0.15625 -0.15625 -0.390625q0 -0.296875 0.25 -0.453125q0.125 -0.078125 0.53125 -0.078125l0 -2.59375q-0.328125 0 -0.5 -0.140625q-0.15625 -0.15625 -0.15625 -0.390625q0 -0.234375 0.15625 -0.375q0.171875 -0.15625 0.5625 -0.15625l1.015625 0zm8.644791 0.3125l0 -0.3125l1.25 0q0.375 0 0.53125 0.15625q0.171875 0.140625 0.171875 0.375q0 0.234375 -0.171875 0.390625q-0.15625 0.140625 -0.53125 0.140625l-0.1875 0l0 3.875q0 0.5625 -0.234375 0.984375q-0.234375 0.421875 -0.734375 0.71875q-0.484375 0.3125 -1.09375 0.3125l-1.203125 0q-0.390625 0 -0.5625 -0.15625q-0.15625 -0.140625 -0.15625 -0.375q0 -0.25 0.15625 -0.40625q0.171875 -0.140625 0.5625 -0.140625l1.171875 0q0.484375 0 0.75 -0.265625q0.28125 -0.265625 0.28125 -0.671875l0 -0.515625q-0.359375 0.234375 -0.734375 0.34375q-0.359375 0.109375 -0.75 0.109375q-1.078125 0 -1.8125 -0.71875q-0.734375 -0.734375 -0.734375 -1.796875q0 -1.0625 0.734375 -1.78125q0.734375 -0.734375 1.8125 -0.734375q0.40625 0 0.765625 0.125q0.375 0.109375 0.71875 0.34375zm-0.015625 2.046875q0 -0.59375 -0.4375 -1.015625q-0.421875 -0.4375 -1.03125 -0.4375q-0.609375 0 -1.046875 0.4375q-0.4375 0.421875 -0.4375 1.015625q0 0.59375 0.4375 1.03125q0.4375 0.421875 1.046875 0.421875q0.609375 0 1.03125 -0.421875q0.4375 -0.4375 0.4375 -1.03125z" fill-rule="nonzero"/><path fill="#24292e" d="m47.38263 163.69182l-4.453125 0l0 -0.96875l4.453125 0l0 0.96875zm10.289581 -1.109375l0 2.140625q0 0.34375 0.140625 0.453125q0.21875 0.171875 0.78125 0.171875q0.8125 0 1.5 -0.359375q0.265625 -0.125 0.421875 -0.125q0.203125 0 0.359375 0.15625q0.15625 0.15625 0.15625 0.375q0 0.203125 -0.171875 0.359375q-0.25 0.25 -1.0 0.453125q-0.75 0.203125 -1.265625 0.203125q-1.0 0 -1.5 -0.421875q-0.484375 -0.4375 -0.484375 -1.0625l0 -2.34375l-0.390625 0q-0.390625 0 -0.5625 -0.140625q-0.15625 -0.15625 -0.15625 -0.390625q0 -0.234375 0.15625 -0.375q0.171875 -0.15625 0.5625 -0.15625l0.390625 0l0 -0.96875q0 -0.390625 0.140625 -0.546875q0.15625 -0.171875 0.390625 -0.171875q0.234375 0 0.375 0.171875q0.15625 0.15625 0.15625 0.546875l0 0.96875l1.96875 0q0.390625 0 0.546875 0.15625q0.171875 0.140625 0.171875 0.375q0 0.234375 -0.171875 0.390625q-0.15625 0.140625 -0.546875 0.140625l-1.96875 0zm9.332291 1.828125l-4.375 0q0.171875 0.421875 0.59375 0.6875q0.421875 0.25 1.140625 0.25q0.59375 0 1.578125 -0.265625q0.40625 -0.09375 0.5625 -0.09375q0.21875 0 0.359375 0.15625q0.140625 0.140625 0.140625 0.375q0 0.203125 -0.15625 0.34375q-0.203125 0.203125 -1.015625 0.375q-0.796875 0.171875 -1.546875 0.171875q-1.28125 0 -2.046875 -0.71875q-0.765625 -0.734375 -0.765625 -1.78125q0 -1.125 0.828125 -1.828125q0.828125 -0.703125 1.90625 -0.703125q0.65625 0 1.203125 0.234375q0.546875 0.21875 0.8125 0.484375q0.375 0.390625 0.609375 0.953125q0.171875 0.390625 0.171875 0.90625l0 0.453125zm-1.1875 -1.0625q-0.234375 -0.453125 -0.640625 -0.671875q-0.390625 -0.234375 -0.9375 -0.234375q-0.53125 0 -0.9375 0.234375q-0.390625 0.21875 -0.640625 0.671875l3.15625 0zm5.7072906 0.4375l1.609375 1.390625q0.296875 0.015625 0.4375 0.171875q0.15625 0.140625 0.15625 0.359375q0 0.234375 -0.171875 0.390625q-0.15625 0.140625 -0.546875 0.140625l-1.21875 0q-0.375 0 -0.546875 -0.140625q-0.15625 -0.15625 -0.15625 -0.40625q0 -0.1875 0.109375 -0.328125q0.125 -0.140625 0.328125 -0.1875l-0.796875 -0.6875l-0.8125 0.6875q0.25 0.0625 0.34375 0.1875q0.109375 0.125 0.109375 0.328125q0 0.25 -0.15625 0.40625q-0.15625 0.140625 -0.546875 0.140625l-1.203125 0q-0.390625 0 -0.5625 -0.140625q-0.15625 -0.15625 -0.15625 -0.390625q0 -0.21875 0.140625 -0.359375q0.15625 -0.15625 0.453125 -0.171875l1.578125 -1.40625l-1.40625 -1.1875q-0.265625 -0.015625 -0.421875 -0.15625q-0.140625 -0.15625 -0.140625 -0.375q0 -0.234375 0.15625 -0.375q0.171875 -0.15625 0.5625 -0.15625l1.0 0q0.390625 0 0.546875 0.15625q0.15625 0.140625 0.15625 0.359375q0 0.3125 -0.28125 0.5l0.640625 0.546875l0.640625 -0.546875q-0.296875 -0.203125 -0.296875 -0.46875q0 -0.25 0.15625 -0.390625q0.171875 -0.15625 0.5625 -0.15625l0.984375 0q0.390625 0 0.546875 0.15625q0.171875 0.140625 0.171875 0.375q0 0.21875 -0.140625 0.375q-0.140625 0.140625 -0.421875 0.15625l-1.40625 1.203125zm5.3322906 -1.203125l0 2.140625q0 0.34375 0.140625 0.453125q0.21875 0.171875 0.78125 0.171875q0.8125 0 1.5 -0.359375q0.265625 -0.125 0.421875 -0.125q0.203125 0 0.359375 0.15625q0.15625 0.15625 0.15625 0.375q0 0.203125 -0.171875 0.359375q-0.25 0.25 -1.0 0.453125q-0.75 0.203125 -1.265625 0.203125q-1.0 0 -1.5 -0.421875q-0.484375 -0.4375 -0.484375 -1.0625l0 -2.34375l-0.390625 0q-0.390625 0 -0.5625 -0.140625q-0.15625 -0.15625 -0.15625 -0.390625q0 -0.234375 0.15625 -0.375q0.171875 -0.15625 0.5625 -0.15625l0.390625 0l0 -0.96875q0 -0.390625 0.140625 -0.546875q0.15625 -0.171875 0.390625 -0.171875q0.234375 0 0.375 0.171875q0.15625 0.15625 0.15625 0.546875l0 0.96875l1.96875 0q0.390625 0 0.546875 0.15625q0.171875 0.140625 0.171875 0.375q0 0.234375 -0.171875 0.390625q-0.15625 0.140625 -0.546875 0.140625l-1.96875 0zm7.4572906 -0.359375q0 0.3125 -0.21875 0.515625q-0.203125 0.203125 -0.578125 0.203125q-0.375 0 -0.59375 -0.203125q-0.203125 -0.203125 -0.203125 -0.515625q0 -0.296875 0.203125 -0.5q0.21875 -0.203125 0.59375 -0.203125q0.375 0 0.578125 0.203125q0.21875 0.203125 0.21875 0.5zm0.015625 3.5q0 0.296875 -0.21875 0.5q-0.21875 0.203125 -0.59375 0.203125q-0.375 0 -0.59375 -0.203125q-0.203125 -0.203125 -0.203125 -0.5q0 -0.3125 0.203125 -0.515625q0.21875 -0.203125 0.59375 -0.203125q0.375 0 0.59375 0.203125q0.21875 0.203125 0.21875 0.515625zm13.117706 -2.953125q-0.25 -0.171875 -0.546875 -0.25q-0.28125 -0.078125 -0.59375 -0.078125q-0.609375 0 -0.984375 0.203125q-0.15625 0.09375 -0.15625 0.1875q0 0.125 0.21875 0.234375q0.171875 0.09375 0.734375 0.171875q1.0625 0.140625 1.484375 0.28125q0.546875 0.1875 0.84375 0.578125q0.296875 0.375 0.296875 0.796875q0 0.578125 -0.5 0.953125q-0.734375 0.5625 -1.890625 0.5625q-0.453125 0 -0.84375 -0.078125q-0.390625 -0.078125 -0.71875 -0.234375q-0.078125 0.0625 -0.171875 0.109375q-0.09375 0.03125 -0.1875 0.03125q-0.25 0 -0.40625 -0.15625q-0.140625 -0.171875 -0.140625 -0.5625l0 -0.359375q0 -0.390625 0.140625 -0.546875q0.15625 -0.171875 0.40625 -0.171875q0.1875 0 0.3125 0.109375q0.140625 0.109375 0.203125 0.375q0.25 0.203125 0.59375 0.3125q0.34375 0.109375 0.78125 0.109375q0.734375 0 1.140625 -0.234375q0.203125 -0.109375 0.203125 -0.234375q0 -0.21875 -0.28125 -0.34375q-0.28125 -0.140625 -1.140625 -0.234375q-1.28125 -0.140625 -1.71875 -0.515625q-0.421875 -0.375 -0.421875 -0.9375q0 -0.578125 0.484375 -0.953125q0.65625 -0.515625 1.703125 -0.515625q0.375 0 0.71875 0.078125q0.34375 0.0625 0.65625 0.203125q0.09375 -0.078125 0.171875 -0.109375q0.09375 -0.03125 0.171875 -0.03125q0.21875 0 0.359375 0.171875q0.140625 0.15625 0.140625 0.53125l0 0.265625q0 0.34375 -0.078125 0.46875q-0.171875 0.25 -0.453125 0.25q-0.1875 0 -0.34375 -0.125q-0.140625 -0.125 -0.1875 -0.3125zm4.9885406 -0.1875l0 2.140625q0 0.34375 0.140625 0.453125q0.21875 0.171875 0.78125 0.171875q0.8125 0 1.5 -0.359375q0.265625 -0.125 0.421875 -0.125q0.203125 0 0.359375 0.15625q0.15625 0.15625 0.15625 0.375q0 0.203125 -0.171875 0.359375q-0.25 0.25 -1.0 0.453125q-0.75 0.203125 -1.265625 0.203125q-1.0 0 -1.5 -0.421875q-0.484375 -0.4375 -0.484375 -1.0625l0 -2.34375l-0.390625 0q-0.390625 0 -0.5625 -0.140625q-0.15625 -0.15625 -0.15625 -0.390625q0 -0.234375 0.15625 -0.375q0.171875 -0.15625 0.5625 -0.15625l0.390625 0l0 -0.96875q0 -0.390625 0.140625 -0.546875q0.15625 -0.171875 0.390625 -0.171875q0.234375 0 0.375 0.171875q0.15625 0.15625 0.15625 0.546875l0 0.96875l1.96875 0q0.390625 0 0.546875 0.15625q0.171875 0.140625 0.171875 0.375q0 0.234375 -0.171875 0.390625q-0.15625 0.140625 -0.546875 0.140625l-1.96875 0zm6.4260406 -1.0625l0 0.65625q0.671875 -0.484375 1.0625 -0.640625q0.390625 -0.15625 0.734375 -0.15625q0.515625 0 1.0 0.375q0.34375 0.265625 0.34375 0.53125q0 0.234375 -0.171875 0.390625q-0.15625 0.15625 -0.375 0.15625q-0.203125 0 -0.421875 -0.1875q-0.21875 -0.203125 -0.390625 -0.203125q-0.21875 0 -0.671875 0.28125q-0.4375 0.28125 -1.109375 0.84375l0 1.609375l1.53125 0q0.375 0 0.53125 0.15625q0.171875 0.140625 0.171875 0.375q0 0.234375 -0.171875 0.390625q-0.15625 0.140625 -0.53125 0.140625l-3.21875 0q-0.390625 0 -0.5625 -0.140625q-0.15625 -0.15625 -0.15625 -0.390625q0 -0.234375 0.15625 -0.375q0.171875 -0.15625 0.5625 -0.15625l0.625 0l0 -2.59375l-0.375 0q-0.390625 0 -0.5625 -0.140625q-0.15625 -0.15625 -0.15625 -0.390625q0 -0.234375 0.15625 -0.375q0.171875 -0.15625 0.5625 -0.15625l1.4375 0zm7.0041656 -2.03125l0 1.125l-1.265625 0l0 -1.125l1.265625 0zm0.140625 2.03125l0 3.65625l1.28125 0q0.390625 0 0.546875 0.15625q0.171875 0.140625 0.171875 0.375q0 0.234375 -0.171875 0.390625q-0.15625 0.140625 -0.546875 0.140625l-3.625 0q-0.375 0 -0.546875 -0.140625q-0.15625 -0.15625 -0.15625 -0.390625q0 -0.234375 0.15625 -0.375q0.171875 -0.15625 0.546875 -0.15625l1.28125 0l0 -2.59375l-0.859375 0q-0.375 0 -0.546875 -0.140625q-0.15625 -0.15625 -0.15625 -0.390625q0 -0.234375 0.15625 -0.375q0.171875 -0.15625 0.546875 -0.15625l1.921875 0zm4.8010406 0l0 0.359375q0.28125 -0.25 0.625 -0.375q0.359375 -0.125 0.765625 -0.125q0.953125 0 1.5 0.578125q0.4375 0.46875 0.4375 1.234375l0 1.984375q0.34375 0 0.5 0.15625q0.171875 0.140625 0.171875 0.375q0 0.234375 -0.171875 0.390625q-0.15625 0.140625 -0.546875 0.140625l-0.96875 0q-0.375 0 -0.546875 -0.140625q-0.15625 -0.15625 -0.15625 -0.390625q0 -0.234375 0.15625 -0.375q0.15625 -0.15625 0.5 -0.15625l0 -2.015625q0 -0.34375 -0.1875 -0.515625q-0.25 -0.203125 -0.734375 -0.203125q-0.375 0 -0.65625 0.140625q-0.265625 0.140625 -0.6875 0.609375l0 1.984375q0.40625 0 0.53125 0.078125q0.25 0.15625 0.25 0.453125q0 0.234375 -0.171875 0.390625q-0.15625 0.140625 -0.546875 0.140625l-1.203125 0q-0.390625 0 -0.5625 -0.140625q-0.15625 -0.15625 -0.15625 -0.390625q0 -0.296875 0.25 -0.453125q0.125 -0.078125 0.53125 -0.078125l0 -2.59375q-0.328125 0 -0.5 -0.140625q-0.15625 -0.15625 -0.15625 -0.390625q0 -0.234375 0.15625 -0.375q0.171875 -0.15625 0.5625 -0.15625l1.015625 0zm8.644791 0.3125l0 -0.3125l1.25 0q0.375 0 0.53125 0.15625q0.171875 0.140625 0.171875 0.375q0 0.234375 -0.171875 0.390625q-0.15625 0.140625 -0.53125 0.140625l-0.1875 0l0 3.875q0 0.5625 -0.234375 0.984375q-0.234375 0.421875 -0.734375 0.71875q-0.484375 0.3125 -1.09375 0.3125l-1.203125 0q-0.390625 0 -0.5625 -0.15625q-0.15625 -0.140625 -0.15625 -0.375q0 -0.25 0.15625 -0.40625q0.171875 -0.140625 0.5625 -0.140625l1.171875 0q0.484375 0 0.75 -0.265625q0.28125 -0.265625 0.28125 -0.671875l0 -0.515625q-0.359375 0.234375 -0.734375 0.34375q-0.359375 0.109375 -0.75 0.109375q-1.078125 0 -1.8125 -0.71875q-0.734375 -0.734375 -0.734375 -1.796875q0 -1.0625 0.734375 -1.78125q0.734375 -0.734375 1.8125 -0.734375q0.40625 0 0.765625 0.125q0.375 0.109375 0.71875 0.34375zm-0.015625 2.046875q0 -0.59375 -0.4375 -1.015625q-0.421875 -0.4375 -1.03125 -0.4375q-0.609375 0 -1.046875 0.4375q-0.4375 0.421875 -0.4375 1.015625q0 0.59375 0.4375 1.03125q0.4375 0.421875 1.046875 0.421875q0.609375 0 1.03125 -0.421875q0.4375 -0.4375 0.4375 -1.03125z" fill-rule="nonzero"/><path fill="#000000" fill-opacity="0.0" d="m86.708664 73.385826l0 34.425194" fill-rule="evenodd"/><path stroke="#000000" stroke-width="1.0" stroke-linejoin="round" stroke-linecap="butt" d="m86.708664 73.385826l0 30.998116" fill-rule="evenodd"/><path fill="#000000" stroke="#000000" stroke-width="1.0" stroke-linecap="butt" d="m86.708664 104.383934l-1.124588 -1.1245804l1.124588 3.0897675l1.1245804 -3.0897675z" fill-rule="evenodd"/><path fill="#abe9fe" d="m0 215.61154l173.41733 0l0 73.38583l-173.41733 0z" fill-rule="evenodd"/><path stroke="#000000" stroke-width="1.0" stroke-linejoin="round" stroke-linecap="butt" d="m0 215.61154l173.41733 0l0 73.38583l-173.41733 0z" fill-rule="evenodd"/><path fill="#24292e" d="m36.001717 252.27634l0 -5.21875l-0.21875 0q-0.484375 0 -0.6875 -0.1875q-0.203125 -0.1875 -0.203125 -0.484375q0 -0.296875 0.203125 -0.484375q0.203125 -0.1875 0.6875 -0.1875l3.34375 0q1.203125 0 1.921875 0.671875q0.734375 0.65625 0.734375 1.578125q0 0.4375 -0.171875 0.828125q-0.15625 0.375 -0.5 0.703125q0.625 0.375 0.9375 0.875q0.3125 0.5 0.3125 1.140625q0 0.515625 -0.21875 0.953125q-0.171875 0.328125 -0.421875 0.515625q-0.328125 0.28125 -0.8125 0.453125q-0.484375 0.171875 -1.203125 0.171875l-3.921875 0q-0.484375 0 -0.6875 -0.1875q-0.203125 -0.1875 -0.203125 -0.484375q0 -0.296875 0.203125 -0.46875q0.21875 -0.1875 0.6875 -0.1875l0.21875 0zm1.328125 -3.28125l1.46875 0q0.78125 0 1.296875 -0.40625q0.359375 -0.265625 0.359375 -0.65625q0 -0.359375 -0.34375 -0.609375q-0.328125 -0.265625 -1.046875 -0.265625l-1.734375 0l0 1.9375zm0 3.28125l2.296875 0q0.828125 0 1.15625 -0.25q0.25 -0.171875 0.25 -0.515625q0 -0.40625 -0.5 -0.796875q-0.5 -0.390625 -1.4375 -0.390625l-1.765625 0l0 1.953125zm12.216934 -4.578125l0 4.578125q0.421875 0 0.625 0.1875q0.203125 0.1875 0.203125 0.484375q0 0.28125 -0.203125 0.46875q-0.203125 0.1875 -0.6875 0.1875l-1.265625 0l0 -0.3125q-0.578125 0.265625 -1.09375 0.390625q-0.515625 0.140625 -0.984375 0.140625q-0.65625 0 -1.140625 -0.28125q-0.484375 -0.28125 -0.765625 -0.765625q-0.203125 -0.34375 -0.203125 -0.875l0 -2.875l-0.21875 0q-0.484375 0 -0.703125 -0.1875q-0.203125 -0.1875 -0.203125 -0.484375q0 -0.28125 0.203125 -0.46875q0.21875 -0.1875 0.703125 -0.1875l1.5625 0l0 3.96875q0 0.421875 0.203125 0.625q0.203125 0.1875 0.625 0.1875q0.40625 0 0.859375 -0.15625q0.46875 -0.15625 1.15625 -0.578125l0 -2.71875l-0.484375 0q-0.484375 0 -0.6875 -0.1875q-0.203125 -0.1875 -0.203125 -0.484375q0 -0.28125 0.203125 -0.46875q0.203125 -0.1875 0.6875 -0.1875l1.8125 0zm4.841934 1.328125l0 2.671875q0 0.4375 0.171875 0.578125q0.28125 0.203125 0.984375 0.203125q1.015625 0 1.875 -0.4375q0.34375 -0.15625 0.53125 -0.15625q0.25 0 0.4375 0.203125q0.203125 0.1875 0.203125 0.46875q0 0.25 -0.203125 0.4375q-0.328125 0.3125 -1.265625 0.578125q-0.9375 0.25 -1.578125 0.25q-1.25 0 -1.875 -0.53125q-0.609375 -0.546875 -0.609375 -1.328125l0 -2.9375l-0.484375 0q-0.484375 0 -0.6875 -0.1875q-0.203125 -0.1875 -0.203125 -0.484375q0 -0.28125 0.203125 -0.46875q0.203125 -0.1875 0.6875 -0.1875l0.484375 0l0 -1.203125q0 -0.484375 0.171875 -0.6875q0.1875 -0.203125 0.484375 -0.203125q0.296875 0 0.484375 0.203125q0.1875 0.203125 0.1875 0.6875l0 1.203125l2.46875 0q0.484375 0 0.6875 0.1875q0.203125 0.1875 0.203125 0.484375q0 0.28125 -0.203125 0.46875q-0.203125 0.1875 -0.6875 0.1875l-2.46875 0zm7.998184 0l0 2.671875q0 0.4375 0.171875 0.578125q0.28125 0.203125 0.984375 0.203125q1.015625 0 1.875 -0.4375q0.34375 -0.15625 0.53125 -0.15625q0.25 0 0.4375 0.203125q0.203125 0.1875 0.203125 0.46875q0 0.25 -0.203125 0.4375q-0.328125 0.3125 -1.265625 0.578125q-0.9375 0.25 -1.578125 0.25q-1.25 0 -1.875 -0.53125q-0.609375 -0.546875 -0.609375 -1.328125l0 -2.9375l-0.484375 0q-0.484375 0 -0.6875 -0.1875q-0.203125 -0.1875 -0.203125 -0.484375q0 -0.28125 0.203125 -0.46875q0.203125 -0.1875 0.6875 -0.1875l0.484375 0l0 -1.203125q0 -0.484375 0.171875 -0.6875q0.1875 -0.203125 0.484375 -0.203125q0.296875 0 0.484375 0.203125q0.1875 0.203125 0.1875 0.6875l0 1.203125l2.46875 0q0.484375 0 0.6875 0.1875q0.203125 0.1875 0.203125 0.484375q0 0.28125 -0.203125 0.46875q-0.203125 0.1875 -0.6875 0.1875l-2.46875 0zm11.795059 1.734375q0 0.765625 -0.4375 1.484375q-0.421875 0.71875 -1.265625 1.15625q-0.84375 0.421875 -1.75 0.421875q-0.921875 0 -1.75 -0.421875q-0.828125 -0.421875 -1.265625 -1.140625q-0.4375 -0.71875 -0.4375 -1.515625q0 -0.796875 0.4375 -1.5625q0.4375 -0.78125 1.265625 -1.21875q0.84375 -0.4375 1.75 -0.4375q0.90625 0 1.75 0.453125q0.84375 0.4375 1.265625 1.203125q0.4375 0.765625 0.4375 1.578125zm-1.34375 0q0 -0.640625 -0.453125 -1.171875q-0.640625 -0.734375 -1.65625 -0.734375q-0.90625 0 -1.515625 0.578125q-0.609375 0.578125 -0.609375 1.34375q0 0.625 0.609375 1.171875q0.625 0.53125 1.515625 0.53125q0.890625 0 1.5 -0.53125q0.609375 -0.546875 0.609375 -1.1875zm4.529434 -3.0625l0 0.453125q0.359375 -0.3125 0.796875 -0.46875q0.4375 -0.15625 0.953125 -0.15625q1.1875 0 1.875 0.734375q0.546875 0.578125 0.546875 1.53125l0 2.484375q0.421875 0 0.625 0.1875q0.203125 0.171875 0.203125 0.484375q0 0.28125 -0.203125 0.46875q-0.203125 0.1875 -0.6875 0.1875l-1.203125 0q-0.484375 0 -0.6875 -0.1875q-0.203125 -0.1875 -0.203125 -0.484375q0 -0.296875 0.1875 -0.46875q0.203125 -0.1875 0.640625 -0.1875l0 -2.53125q0 -0.421875 -0.234375 -0.625q-0.3125 -0.265625 -0.921875 -0.265625q-0.46875 0 -0.8125 0.1875q-0.34375 0.171875 -0.875 0.75l0 2.484375q0.5 0 0.65625 0.09375q0.3125 0.1875 0.3125 0.578125q0 0.28125 -0.203125 0.46875q-0.203125 0.1875 -0.6875 0.1875l-1.515625 0q-0.484375 0 -0.6875 -0.1875q-0.203125 -0.1875 -0.203125 -0.484375q0 -0.359375 0.3125 -0.5625q0.15625 -0.09375 0.671875 -0.09375l0 -3.25q-0.421875 0 -0.625 -0.1875q-0.203125 -0.1875 -0.203125 -0.484375q0 -0.28125 0.203125 -0.46875q0.203125 -0.1875 0.6875 -0.1875l1.28125 0zm11.435684 -1.640625q0.125 -0.171875 0.265625 -0.25q0.15625 -0.09375 0.3125 -0.09375q0.296875 0 0.484375 0.203125q0.1875 0.203125 0.1875 0.6875l0 1.125q0 0.484375 -0.1875 0.6875q-0.1875 0.203125 -0.484375 0.203125q-0.265625 0 -0.421875 -0.140625q-0.171875 -0.15625 -0.25 -0.5625q-0.03125 -0.28125 -0.171875 -0.421875q-0.265625 -0.296875 -0.75 -0.46875q-0.484375 -0.171875 -0.953125 -0.171875q-0.609375 0 -1.109375 0.265625q-0.5 0.25 -0.890625 0.84375q-0.375 0.578125 -0.375 1.390625l0 0.859375q0 0.96875 0.703125 1.609375q0.703125 0.640625 1.9375 0.640625q0.75 0 1.265625 -0.203125q0.296875 -0.109375 0.625 -0.453125q0.21875 -0.21875 0.328125 -0.28125q0.125 -0.0625 0.265625 -0.0625q0.265625 0 0.46875 0.203125q0.203125 0.203125 0.203125 0.484375q0 0.265625 -0.265625 0.578125q-0.40625 0.453125 -1.03125 0.71875q-0.828125 0.34375 -1.84375 0.34375q-1.1875 0 -2.140625 -0.484375q-0.765625 -0.390625 -1.3125 -1.234375q-0.53125 -0.84375 -0.53125 -1.828125l0 -0.90625q0 -1.046875 0.484375 -1.9375q0.484375 -0.90625 1.34375 -1.390625q0.859375 -0.5 1.8125 -0.5q0.578125 0 1.078125 0.140625q0.515625 0.125 0.953125 0.40625zm9.373184 4.703125q0 0.765625 -0.4375 1.484375q-0.421875 0.71875 -1.265625 1.15625q-0.84375 0.421875 -1.75 0.421875q-0.921875 0 -1.75 -0.421875q-0.828125 -0.421875 -1.265625 -1.140625q-0.4375 -0.71875 -0.4375 -1.515625q0 -0.796875 0.4375 -1.5625q0.4375 -0.78125 1.265625 -1.21875q0.84375 -0.4375 1.75 -0.4375q0.90625 0 1.75 0.453125q0.84375 0.4375 1.265625 1.203125q0.4375 0.765625 0.4375 1.578125zm-1.34375 0q0 -0.640625 -0.453125 -1.171875q-0.640625 -0.734375 -1.65625 -0.734375q-0.90625 0 -1.515625 0.578125q-0.609375 0.578125 -0.609375 1.34375q0 0.625 0.609375 1.171875q0.625 0.53125 1.515625 0.53125q0.890625 0 1.5 -0.53125q0.609375 -0.546875 0.609375 -1.1875zm4.529434 -3.0625l0 0.453125q0.359375 -0.3125 0.796875 -0.46875q0.4375 -0.15625 0.953125 -0.15625q1.1875 0 1.875 0.734375q0.546875 0.578125 0.546875 1.53125l0 2.484375q0.421875 0 0.625 0.1875q0.203125 0.171875 0.203125 0.484375q0 0.28125 -0.203125 0.46875q-0.203125 0.1875 -0.6875 0.1875l-1.203125 0q-0.484375 0 -0.6875 -0.1875q-0.203125 -0.1875 -0.203125 -0.484375q0 -0.296875 0.1875 -0.46875q0.203125 -0.1875 0.640625 -0.1875l0 -2.53125q0 -0.421875 -0.234375 -0.625q-0.3125 -0.265625 -0.921875 -0.265625q-0.46875 0 -0.8125 0.1875q-0.34375 0.171875 -0.875 0.75l0 2.484375q0.5 0 0.65625 0.09375q0.3125 0.1875 0.3125 0.578125q0 0.28125 -0.203125 0.46875q-0.203125 0.1875 -0.6875 0.1875l-1.515625 0q-0.484375 0 -0.6875 -0.1875q-0.203125 -0.1875 -0.203125 -0.484375q0 -0.359375 0.3125 -0.5625q0.15625 -0.09375 0.671875 -0.09375l0 -3.25q-0.421875 0 -0.625 -0.1875q-0.203125 -0.1875 -0.203125 -0.484375q0 -0.28125 0.203125 -0.46875q0.203125 -0.1875 0.6875 -0.1875l1.28125 0zm9.013809 1.328125l0 2.671875q0 0.4375 0.171875 0.578125q0.28125 0.203125 0.984375 0.203125q1.015625 0 1.875 -0.4375q0.34375 -0.15625 0.53125 -0.15625q0.25 0 0.4375 0.203125q0.203125 0.1875 0.203125 0.46875q0 0.25 -0.203125 0.4375q-0.328125 0.3125 -1.265625 0.578125q-0.9375 0.25 -1.578125 0.25q-1.25 0 -1.875 -0.53125q-0.609375 -0.546875 -0.609375 -1.328125l0 -2.9375l-0.484375 0q-0.484375 0 -0.6875 -0.1875q-0.203125 -0.1875 -0.203125 -0.484375q0 -0.28125 0.203125 -0.46875q0.203125 -0.1875 0.6875 -0.1875l0.484375 0l0 -1.203125q0 -0.484375 0.171875 -0.6875q0.1875 -0.203125 0.484375 -0.203125q0.296875 0 0.484375 0.203125q0.1875 0.203125 0.1875 0.6875l0 1.203125l2.46875 0q0.484375 0 0.6875 0.1875q0.203125 0.1875 0.203125 0.484375q0 0.28125 -0.203125 0.46875q-0.203125 0.1875 -0.6875 0.1875l-2.46875 0zm11.670059 2.296875l-5.46875 0q0.203125 0.53125 0.734375 0.84375q0.53125 0.3125 1.4375 0.3125q0.75 0 1.96875 -0.3125q0.515625 -0.125 0.703125 -0.125q0.265625 0 0.453125 0.1875q0.1875 0.1875 0.1875 0.46875q0 0.265625 -0.203125 0.4375q-0.265625 0.25 -1.28125 0.46875q-1.0 0.21875 -1.921875 0.21875q-1.609375 0 -2.578125 -0.90625q-0.953125 -0.90625 -0.953125 -2.234375q0 -1.40625 1.03125 -2.28125q1.046875 -0.875 2.40625 -0.875q0.8125 0 1.484375 0.28125q0.6875 0.28125 1.015625 0.609375q0.46875 0.484375 0.78125 1.203125q0.203125 0.484375 0.203125 1.140625l0 0.5625zm-1.46875 -1.328125q-0.3125 -0.578125 -0.8125 -0.859375q-0.484375 -0.28125 -1.171875 -0.28125q-0.671875 0 -1.171875 0.28125q-0.5 0.28125 -0.8125 0.859375l3.96875 0zm7.123184 0.53125l2.0156326 1.75q0.375 0.015625 0.546875 0.203125q0.1875 0.1875 0.1875 0.46875q0 0.28125 -0.203125 0.46875q-0.203125 0.1875 -0.6875 0.1875l-1.515625 0q-0.48438263 0 -0.6875076 -0.1875q-0.203125 -0.1875 -0.203125 -0.484375q0 -0.234375 0.140625 -0.40625q0.15625 -0.1875 0.40625 -0.25l-1.0 -0.859375l-1.015625 0.859375q0.3125 0.078125 0.4375 0.234375q0.140625 0.15625 0.140625 0.421875q0 0.296875 -0.203125 0.484375q-0.203125 0.1875 -0.6875 0.1875l-1.5 0q-0.484375 0 -0.6875 -0.1875q-0.203125 -0.1875 -0.203125 -0.484375q0 -0.265625 0.171875 -0.453125q0.1875 -0.1875 0.5625 -0.203125l1.96875 -1.75l-1.75 -1.5q-0.34375 -0.015625 -0.53125 -0.203125q-0.171875 -0.1875 -0.171875 -0.46875q0 -0.28125 0.203125 -0.46875q0.203125 -0.1875 0.6875 -0.1875l1.25 0q0.484375 0 0.6875 0.1875q0.203125 0.1875 0.203125 0.46875q0 0.375 -0.359375 0.625l0.8125 0.671875l0.78125 -0.6875q-0.359375 -0.25 -0.359375 -0.578125q0 -0.3125 0.203125 -0.5q0.21875 -0.1875 0.7031326 -0.1875l1.234375 0q0.46875 0 0.671875 0.1875q0.21875 0.1875 0.21875 0.484375q0 0.265625 -0.1875 0.453125q-0.171875 0.1875 -0.53125 0.203125l-1.7500076 1.5zm6.6700516 -1.5l0 2.671875q0 0.4375 0.171875 0.578125q0.28125 0.203125 0.984375 0.203125q1.015625 0 1.875 -0.4375q0.34375 -0.15625 0.53125 -0.15625q0.25 0 0.4375 0.203125q0.203125 0.1875 0.203125 0.46875q0 0.25 -0.203125 0.4375q-0.328125 0.3125 -1.265625 0.578125q-0.9375 0.25 -1.578125 0.25q-1.25 0 -1.875 -0.53125q-0.609375 -0.546875 -0.609375 -1.328125l0 -2.9375l-0.484375 0q-0.484375 0 -0.6875 -0.1875q-0.203125 -0.1875 -0.203125 -0.484375q0 -0.28125 0.203125 -0.46875q0.203125 -0.1875 0.6875 -0.1875l0.484375 0l0 -1.203125q0 -0.484375 0.171875 -0.6875q0.1875 -0.203125 0.484375 -0.203125q0.296875 0 0.484375 0.203125q0.1875 0.203125 0.1875 0.6875l0 1.203125l2.46875 0q0.484375 0 0.6875 0.1875q0.203125 0.1875 0.203125 0.484375q0 0.28125 -0.203125 0.46875q-0.203125 0.1875 -0.6875 0.1875l-2.46875 0z" fill-rule="nonzero"/><path fill="#000000" fill-opacity="0.0" d="m86.708664 181.1916l0 34.425186" fill-rule="evenodd"/><path stroke="#000000" stroke-width="1.0" stroke-linejoin="round" stroke-linecap="butt" d="m86.708664 181.1916l0 30.998108" fill-rule="evenodd"/><path fill="#000000" stroke="#000000" stroke-width="1.0" stroke-linecap="butt" d="m86.708664 212.18971l-1.124588 -1.124588l1.124588 3.0897675l1.1245804 -3.0897675z" fill-rule="evenodd"/></g></svg>