<svg id="Capa_1" enable-background="new 0 0 512.008 512.008" height="512" viewBox="0 0 512.008 512.008" width="512" xmlns="http://www.w3.org/2000/svg"><g id="XMLID_1551_"><g id="XMLID_1587_"><g fill="#f2d1a5"><path id="XMLID_2017_" d="m297.037 344.646-56.19-17.751c-11.55-3.649-23.318 4.975-23.318 17.087v.474c0 15.875 9.695 30.14 24.456 35.984l-116.292-3.283v35.758c0 31.932 9.947 63.072 28.459 89.091h160.25c11.42-26.387 17.312-54.834 17.312-83.585v-26.452c0-21.65-14.033-40.802-34.677-47.323z"/><path id="XMLID_2016_" d="m309.041 352.319v-119.64c0-12.522-10.151-22.674-22.674-22.674-12.522 0-22.674 10.151-22.674 22.674v101.433z"/><path id="XMLID_2015_" d="m148.693 415.726c-12.703 0-23-10.297-23-23v-56.645c0-12.703 10.297-23 23-23 12.703 0 23 10.297 23 23v56.645c0 12.703-10.297 23-23 23z"/><path id="XMLID_2013_" d="m194.693 395.02c-12.703 0-23-10.297-23-23v-56.645c0-12.703 10.297-23 23-23 12.703 0 23 10.297 23 23v56.645c0 12.703-10.297 23-23 23z"/><path id="XMLID_2012_" d="m240.693 381.098c-12.703 0-23-10.297-23-23v-56.645c0-12.703 10.297-23 23-23 12.703 0 23 10.297 23 23v56.645c0 12.703-10.297 23-23 23z"/></g><g id="XMLID_1553_"><circle id="XMLID_2001_" cx="286.367" cy="110.005" fill="#ff9d6c" r="100"/><g fill="#ffcab0"><ellipse id="XMLID_2000_" cx="239.21" cy="157.162" rx="32.483" ry="73.402" transform="matrix(.707 -.707 .707 .707 -41.067 215.179)"/><ellipse id="XMLID_1560_" cx="333.524" cy="62.849" rx="32.483" ry="73.402" transform="matrix(.707 -.707 .707 .707 53.246 254.245)"/></g></g></g><g id="XMLID_66_"><path id="XMLID_477_" d="m364.149 32.223c-14.845-14.845-33.481-25.083-53.891-29.605-19.855-4.397-40.497-3.238-59.696 3.354-5.224 1.794-8.004 7.482-6.21 12.706 1.794 5.223 7.484 8.001 12.706 6.21 4.821-1.656 9.703-2.879 14.601-3.703 1.202 23.544 10.024 46.164 25.087 64.299l-34.898 34.899c-18.135-15.065-40.753-23.893-64.3-25.09.824-4.897 2.047-9.779 3.703-14.6 1.794-5.224-.986-10.912-6.21-12.706-5.219-1.79-10.911.986-12.706 6.21-6.594 19.199-7.754 39.843-3.354 59.698 4.522 20.41 14.76 39.046 29.605 53.892 14.211 14.211 31.375 23.707 49.535 28.501-2.809 4.822-4.427 10.419-4.427 16.391v38.447c-3.992-1.718-8.386-2.673-13-2.673-12.93 0-24.14 7.478-29.55 18.333-4.847-2.8-10.462-4.411-16.45-4.411-15.06 0-27.786 10.144-31.729 23.955-4.321-2.081-9.162-3.249-14.271-3.249-18.196 0-33 14.804-33 33v76.833c0 34.204 10.481 67.017 30.311 94.888 1.951 2.742 5.03 4.204 8.157 4.204 2.005 0 4.03-.602 5.788-1.853 4.5-3.202 5.553-9.445 2.352-13.945-15.407-21.655-24.37-46.708-26.23-72.997 3.891 1.617 8.153 2.514 12.623 2.514 15.06 0 27.786-10.144 31.729-23.955 4.321 2.081 9.162 3.249 14.271 3.249 14.488 0 26.816-9.389 31.243-22.399 3.682 2.906 7.828 5.32 12.368 7.117l12.065 4.776c-20.629 11.307-34.647 33.232-34.647 58.37v7.209c0 5.522 4.478 10 10 10s10-4.478 10-10v-7.209c0-25.646 20.864-46.511 46.511-46.511 4.801 0 8.924-3.411 9.823-8.126.899-4.716-1.679-9.405-6.143-11.172l-40.248-15.934c-10.1-3.999-16.906-13.139-17.973-23.762v-4.964c.38-1.922 1.447-3.631 3.074-4.823 2.059-1.508 4.635-1.933 7.067-1.164l22.825 7.211c.037.012.074.024.111.035l33.253 10.506c16.563 5.232 27.69 20.418 27.69 37.786v26.452c0 27.546-5.548 54.332-16.49 79.614-2.193 5.068.138 10.955 5.206 13.149 1.294.56 2.641.825 3.967.825 3.866 0 7.549-2.257 9.183-6.031 12.033-27.805 18.135-57.263 18.135-87.558v-26.452c0-18.741-8.612-35.792-22.674-46.843v-112.442c0-5.971-1.618-11.569-4.427-16.391 18.16-4.794 35.325-14.291 49.535-28.501 42.888-42.889 42.888-112.674 0-155.564zm-7.473 21.616c11.934 14.917 18.425 32.774 19.479 50.899-18.609-.962-36.501-7.74-51.052-19.325zm-65.051-33.769c18.396 1.038 36.165 7.759 50.923 19.612l-31.589 31.589c-11.617-14.591-18.403-32.544-19.334-51.201zm-29.85 128.67c11.586 14.552 18.368 32.448 19.327 51.053-18.125-1.053-35.983-7.544-50.901-19.479zm-45.731 17.446c-11.852-14.757-18.574-32.524-19.613-50.917 18.659.938 36.61 7.716 51.201 19.329zm-54.351 226.54c0 7.168-5.832 13-13 13s-13-5.832-13-13v-15.569-41.075c0-7.168 5.832-13 13-13s13 5.832 13 13zm46-20.706c0 7.168-5.832 13-13 13s-13-5.832-13-13v-56.645c0-7.168 5.832-13 13-13s13 5.832 13 13zm20-54.888v-15.678c0-7.168 5.832-13 13-13s13 5.832 13 13v19.012l-9.834-3.107c-5.382-1.701-10.962-1.744-16.166-.227zm46 9.652v-94.105c0-6.988 5.686-12.674 12.674-12.674s12.674 5.686 12.674 12.674v102.113zm27.379-128.046c-1.219-23.513-10.039-46.099-25.083-64.212l34.897-34.897c18.113 15.045 40.7 23.866 64.213 25.085-2.947 17.928-11.294 35.132-25.093 48.931s-31.005 22.147-48.934 25.093z"/><path id="XMLID_608_" d="m215.66 49.295c2.63 0 5.21-1.07 7.07-2.931 1.859-1.859 2.93-4.439 2.93-7.069s-1.07-5.21-2.93-7.07-4.44-2.93-7.07-2.93c-2.64 0-5.21 1.069-7.08 2.93-1.86 1.86-2.92 4.43-2.92 7.07 0 2.63 1.06 5.21 2.92 7.069 1.86 1.861 4.44 2.931 7.08 2.931z"/></g></g></svg>