<svg width="411" height="284" viewBox="0 0 411 284" fill="none" xmlns="http://www.w3.org/2000/svg">
<mask id="mask0" mask-type="alpha" maskUnits="userSpaceOnUse" x="65" y="28" width="256" height="256">
<circle cx="193" cy="156" r="128" fill="#06A5FA"/>
</mask>
<g mask="url(#mask0)">
<circle cx="193" cy="156" r="128" fill="#06A5FA"/>
<rect x="147.112" y="232.426" width="91.7778" height="95.6667" rx="4" fill="#C4C4C4" stroke="black" stroke-width="8"/>
<path d="M225.887 263.596V287.707" stroke="white" stroke-width="8" stroke-linecap="round"/>
<path d="M130 192.718C130 192.718 130 184 193 184C256 184 256 192.718 256 192.718V243.282C256 243.282 256 252 193 252C130 252 130 243.282 130 243.282V192.718Z" fill="#C4C4C4" stroke="black" stroke-width="8"/>
<path d="M159.595 204C159.595 124.143 94.8574 59.4054 15 59.4054" stroke="#FBA99D" stroke-width="11.5676"/>
<path d="M171.162 204C171.162 117.754 101.246 47.8379 15 47.8379" stroke="#FED585" stroke-width="11.5676"/>
<path d="M182.73 204C182.73 111.365 107.635 36.2703 15 36.2703" stroke="#FEF284" stroke-width="11.5676"/>
<path d="M194.297 204C194.297 104.977 114.023 24.7028 15 24.7028" stroke="#C3E29E" stroke-width="11.5676"/>
<path d="M205.865 204C205.865 98.5882 120.412 13.1351 15 13.1351" stroke="#ABE9FE" stroke-width="11.5676"/>
<path d="M217.432 204C217.432 92.1997 126.8 1.56763 15 1.56763" stroke="#97B0F0" stroke-width="11.5676"/>
<path d="M229 204C229 85.8111 133.189 -10 15 -10" stroke="#C4A6FC" stroke-width="11.5676"/>
<path d="M241 200C241 200 241 204 193 204C145 204 145 200 145 200" stroke="black" stroke-width="8" stroke-linecap="round"/>
<path d="M236.321 213.855L236.321 235.874" stroke="white" stroke-width="8" stroke-linecap="round"/>
</g>
<mask id="path-15-inside-1" fill="white">
<path fill-rule="evenodd" clip-rule="evenodd" d="M226.152 146.363C226.152 146.363 226.152 146.363 226.151 146.363C195.692 146.363 171 121.671 171 91.2119C171 60.7527 195.692 36.0607 226.151 36.0607C228.072 36.0607 229.97 36.1589 231.84 36.3505C244.528 14.6091 268.104 0 295.092 0C330.796 0 360.528 25.5686 366.977 59.3943C367.054 59.3939 367.132 59.3937 367.21 59.3937C391.226 59.3937 410.695 78.8624 410.695 102.878C410.695 126.539 391.798 145.786 368.273 146.35V146.363H226.152V146.363Z"/>
</mask>
<path fill-rule="evenodd" clip-rule="evenodd" d="M226.152 146.363C226.152 146.363 226.152 146.363 226.151 146.363C195.692 146.363 171 121.671 171 91.2119C171 60.7527 195.692 36.0607 226.151 36.0607C228.072 36.0607 229.97 36.1589 231.84 36.3505C244.528 14.6091 268.104 0 295.092 0C330.796 0 360.528 25.5686 366.977 59.3943C367.054 59.3939 367.132 59.3937 367.21 59.3937C391.226 59.3937 410.695 78.8624 410.695 102.878C410.695 126.539 391.798 145.786 368.273 146.35V146.363H226.152V146.363Z" fill="white"/>
<path d="M226.152 146.363H234.152V138.363H226.152V146.363ZM231.84 36.3505L231.025 44.3089L236.152 44.8343L238.75 40.3826L231.84 36.3505ZM366.977 59.3943L359.118 60.8925L360.364 67.4294L367.019 67.3942L366.977 59.3943ZM368.273 146.35L368.081 138.353L360.273 138.54V146.35H368.273ZM368.273 146.363V154.363H376.273V146.363H368.273ZM226.152 146.363H218.152V154.363H226.152V146.363ZM226.152 138.363C226.152 138.363 226.152 138.363 226.152 138.363C226.152 138.363 226.152 138.363 226.152 138.363H226.152H226.152C226.152 138.363 226.152 138.363 226.152 138.363C226.152 138.363 226.152 138.363 226.152 138.363C226.152 138.363 226.152 138.363 226.152 138.363H226.152H226.152C226.152 138.363 226.152 138.363 226.152 138.363C226.152 138.363 226.152 138.363 226.152 138.363C226.152 138.363 226.152 138.363 226.152 138.363C226.152 138.363 226.152 138.363 226.152 138.363H226.152C226.152 138.363 226.152 138.363 226.152 138.363C226.152 138.363 226.152 138.363 226.152 138.363C226.152 138.363 226.152 138.363 226.152 138.363C226.152 138.363 226.152 138.363 226.152 138.363H226.152H226.152C226.152 138.363 226.152 138.363 226.152 138.363C226.152 138.363 226.152 138.363 226.152 138.363C226.152 138.363 226.152 138.363 226.152 138.363H226.152H226.152C226.152 138.363 226.152 138.363 226.152 138.363C226.152 138.363 226.152 138.363 226.152 138.363C226.152 138.363 226.152 138.363 226.152 138.363C226.152 138.363 226.152 138.363 226.152 138.363H226.152H226.152C226.152 138.363 226.152 138.363 226.152 138.363C226.152 138.363 226.152 138.363 226.152 138.363C226.152 138.363 226.152 138.363 226.152 138.363H226.152H226.152C226.152 138.363 226.152 138.363 226.152 138.363C226.152 138.363 226.152 138.363 226.152 138.363C226.152 138.363 226.152 138.363 226.152 138.363C226.152 138.363 226.152 138.363 226.152 138.363H226.152H226.152C226.152 138.363 226.152 138.363 226.152 138.363C226.152 138.363 226.152 138.363 226.152 138.363C226.152 138.363 226.152 138.363 226.152 138.363H226.152H226.152C226.152 138.363 226.152 138.363 226.152 138.363C226.152 138.363 226.152 138.363 226.152 138.363C226.152 138.363 226.152 138.363 226.152 138.363C226.152 138.363 226.152 138.363 226.152 138.363H226.152H226.152C226.152 138.363 226.152 138.363 226.152 138.363C226.152 138.363 226.152 138.363 226.152 138.363C226.152 138.363 226.152 138.363 226.152 138.363C226.152 138.363 226.152 138.363 226.152 138.363H226.152H226.152C226.152 138.363 226.152 138.363 226.152 138.363C226.152 138.363 226.152 138.363 226.152 138.363C226.152 138.363 226.152 138.363 226.152 138.363H226.152H226.152C226.152 138.363 226.152 138.363 226.152 138.363C226.152 138.363 226.152 138.363 226.152 138.363C226.152 138.363 226.152 138.363 226.152 138.363C226.152 138.363 226.152 138.363 226.152 138.363H226.152H226.152C226.152 138.363 226.152 138.363 226.152 138.363C226.152 138.363 226.152 138.363 226.152 138.363C226.152 138.363 226.152 138.363 226.152 138.363C226.152 138.363 226.152 138.363 226.152 138.363H226.152H226.152C226.152 138.363 226.152 138.363 226.152 138.363C226.152 138.363 226.152 138.363 226.152 138.363C226.152 138.363 226.152 138.363 226.152 138.363H226.152H226.152C226.152 138.363 226.152 138.363 226.152 138.363C226.152 138.363 226.152 138.363 226.152 138.363C226.152 138.363 226.152 138.363 226.152 138.363C226.152 138.363 226.152 138.363 226.152 138.363H226.152H226.152C226.152 138.363 226.152 138.363 226.152 138.363C226.152 138.363 226.152 138.363 226.152 138.363C226.152 138.363 226.152 138.363 226.152 138.363C226.152 138.363 226.152 138.363 226.152 138.363H226.152H226.152C226.152 138.363 226.152 138.363 226.152 138.363C226.152 138.363 226.152 138.363 226.152 138.363C226.152 138.363 226.152 138.363 226.152 138.363H226.152H226.152C226.152 138.363 226.152 138.363 226.152 138.363C226.152 138.363 226.152 138.363 226.152 138.363C226.152 138.363 226.152 138.363 226.152 138.363C226.152 138.363 226.152 138.363 226.152 138.363H226.152H226.152C226.152 138.363 226.152 138.363 226.152 138.363C226.152 138.363 226.152 138.363 226.152 138.363C226.152 138.363 226.152 138.363 226.152 138.363C226.152 138.363 226.152 138.363 226.152 138.363H226.152H226.152C226.152 138.363 226.152 138.363 226.152 138.363C226.152 138.363 226.152 138.363 226.152 138.363C226.152 138.363 226.152 138.363 226.152 138.363C226.152 138.363 226.152 138.363 226.152 138.363H226.152H226.152C226.152 138.363 226.152 138.363 226.152 138.363C226.152 138.363 226.152 138.363 226.152 138.363C226.152 138.363 226.152 138.363 226.152 138.363H226.152H226.152C226.152 138.363 226.152 138.363 226.152 138.363C226.152 138.363 226.152 138.363 226.152 138.363C226.152 138.363 226.152 138.363 226.152 138.363C226.152 138.363 226.152 138.363 226.152 138.363H226.152H226.152C226.152 138.363 226.152 138.363 226.152 138.363C226.152 138.363 226.152 138.363 226.152 138.363C226.152 138.363 226.152 138.363 226.152 138.363C226.152 138.363 226.152 138.363 226.152 138.363H226.152H226.152C226.152 138.363 226.152 138.363 226.152 138.363C226.152 138.363 226.152 138.363 226.152 138.363C226.152 138.363 226.152 138.363 226.152 138.363C226.152 138.363 226.152 138.363 226.152 138.363H226.152H226.152C226.152 138.363 226.152 138.363 226.152 138.363C226.152 138.363 226.152 138.363 226.152 138.363C226.152 138.363 226.152 138.363 226.152 138.363H226.152H226.152C226.152 138.363 226.152 138.363 226.152 138.363C226.152 138.363 226.152 138.363 226.152 138.363C226.152 138.363 226.152 138.363 226.152 138.363C226.152 138.363 226.152 138.363 226.152 138.363H226.152H226.152C226.152 138.363 226.152 138.363 226.152 138.363C226.152 138.363 226.152 138.363 226.152 138.363C226.152 138.363 226.152 138.363 226.152 138.363C226.152 138.363 226.152 138.363 226.152 138.363H226.152H226.152C226.152 138.363 226.152 138.363 226.152 138.363C226.152 138.363 226.152 138.363 226.152 138.363C226.152 138.363 226.152 138.363 226.152 138.363H226.152H226.151C226.151 138.363 226.151 138.363 226.151 138.363C226.151 138.363 226.151 138.363 226.151 138.363C226.151 138.363 226.151 138.363 226.151 138.363C226.151 138.363 226.151 138.363 226.151 138.363H226.151H226.151C226.151 138.363 226.151 138.363 226.151 138.363C226.151 138.363 226.151 138.363 226.151 138.363C226.151 138.363 226.151 138.363 226.151 138.363C226.151 138.363 226.151 138.363 226.151 138.363H226.151H226.151C226.151 138.363 226.151 138.363 226.151 138.363C226.151 138.363 226.151 138.363 226.151 138.363C226.151 138.363 226.151 138.363 226.151 138.363H226.151H226.151C226.151 138.363 226.151 138.363 226.151 138.363C226.151 138.363 226.151 138.363 226.151 138.363C226.151 138.363 226.151 138.363 226.151 138.363C226.151 138.363 226.151 138.363 226.151 138.363H226.151H226.151C226.151 138.363 226.151 138.363 226.151 138.363C226.151 138.363 226.151 138.363 226.151 138.363C226.151 138.363 226.151 138.363 226.151 138.363C226.151 138.363 226.151 138.363 226.151 138.363H226.151H226.151C226.151 138.363 226.151 138.363 226.151 138.363C226.151 138.363 226.151 138.363 226.151 138.363C226.151 138.363 226.151 138.363 226.151 138.363H226.151H226.151C226.151 138.363 226.151 138.363 226.151 138.363C226.151 138.363 226.151 138.363 226.151 138.363C226.151 138.363 226.151 138.363 226.151 138.363C226.151 138.363 226.151 138.363 226.151 138.363H226.151H226.151C226.151 138.363 226.151 138.363 226.151 138.363C226.151 138.363 226.151 138.363 226.151 138.363C226.151 138.363 226.151 138.363 226.151 138.363H226.151H226.151C226.151 138.363 226.151 138.363 226.151 138.363C226.151 138.363 226.151 138.363 226.151 138.363C226.151 138.363 226.151 138.363 226.151 138.363C226.151 138.363 226.151 138.363 226.151 138.363H226.151H226.151C226.151 138.363 226.151 138.363 226.151 138.363C226.151 138.363 226.151 138.363 226.151 138.363C226.151 138.363 226.151 138.363 226.151 138.363H226.151H226.151C226.151 138.363 226.151 138.363 226.151 138.363C226.151 138.363 226.151 138.363 226.151 138.363C226.151 138.363 226.151 138.363 226.151 138.363C226.151 138.363 226.151 138.363 226.151 138.363H226.151C226.151 138.363 226.151 138.363 226.151 138.363C226.151 138.363 226.151 138.363 226.151 138.363C226.151 138.363 226.151 138.363 226.151 138.363C226.151 138.363 226.151 138.363 226.151 138.363H226.151H226.151C226.151 138.363 226.151 138.363 226.151 138.363C226.151 138.363 226.151 138.363 226.151 138.363C226.151 138.363 226.151 138.363 226.151 138.363H226.151H226.151C226.151 138.363 226.151 138.363 226.151 138.363C226.151 138.363 226.151 138.363 226.151 138.363V154.363C226.151 154.363 226.151 154.363 226.151 154.363C226.151 154.363 226.151 154.363 226.151 154.363H226.151H226.151C226.151 154.363 226.151 154.363 226.151 154.363C226.151 154.363 226.151 154.363 226.151 154.363C226.151 154.363 226.151 154.363 226.151 154.363H226.151H226.151C226.151 154.363 226.151 154.363 226.151 154.363C226.151 154.363 226.151 154.363 226.151 154.363C226.151 154.363 226.151 154.363 226.151 154.363C226.151 154.363 226.151 154.363 226.151 154.363H226.151C226.151 154.363 226.151 154.363 226.151 154.363C226.151 154.363 226.151 154.363 226.151 154.363C226.151 154.363 226.151 154.363 226.151 154.363C226.151 154.363 226.151 154.363 226.151 154.363H226.151H226.151C226.151 154.363 226.151 154.363 226.151 154.363C226.151 154.363 226.151 154.363 226.151 154.363C226.151 154.363 226.151 154.363 226.151 154.363H226.151H226.151C226.151 154.363 226.151 154.363 226.151 154.363C226.151 154.363 226.151 154.363 226.151 154.363C226.151 154.363 226.151 154.363 226.151 154.363C226.151 154.363 226.151 154.363 226.151 154.363H226.151H226.151C226.151 154.363 226.151 154.363 226.151 154.363C226.151 154.363 226.151 154.363 226.151 154.363C226.151 154.363 226.151 154.363 226.151 154.363H226.151H226.151C226.151 154.363 226.151 154.363 226.151 154.363C226.151 154.363 226.151 154.363 226.151 154.363C226.151 154.363 226.151 154.363 226.151 154.363C226.151 154.363 226.151 154.363 226.151 154.363H226.151H226.151C226.151 154.363 226.151 154.363 226.151 154.363C226.151 154.363 226.151 154.363 226.151 154.363C226.151 154.363 226.151 154.363 226.151 154.363H226.151H226.151C226.151 154.363 226.151 154.363 226.151 154.363C226.151 154.363 226.151 154.363 226.151 154.363C226.151 154.363 226.151 154.363 226.151 154.363C226.151 154.363 226.151 154.363 226.151 154.363H226.151H226.151C226.151 154.363 226.151 154.363 226.151 154.363C226.151 154.363 226.151 154.363 226.151 154.363C226.151 154.363 226.151 154.363 226.151 154.363C226.151 154.363 226.151 154.363 226.151 154.363H226.151H226.151C226.151 154.363 226.151 154.363 226.151 154.363C226.151 154.363 226.151 154.363 226.151 154.363C226.151 154.363 226.151 154.363 226.151 154.363H226.151H226.151C226.151 154.363 226.151 154.363 226.151 154.363C226.151 154.363 226.151 154.363 226.151 154.363C226.151 154.363 226.151 154.363 226.151 154.363C226.151 154.363 226.151 154.363 226.151 154.363H226.151H226.151C226.151 154.363 226.151 154.363 226.151 154.363C226.151 154.363 226.151 154.363 226.151 154.363C226.151 154.363 226.151 154.363 226.151 154.363C226.151 154.363 226.151 154.363 226.151 154.363H226.152H226.152C226.152 154.363 226.152 154.363 226.152 154.363C226.152 154.363 226.152 154.363 226.152 154.363C226.152 154.363 226.152 154.363 226.152 154.363H226.152H226.152C226.152 154.363 226.152 154.363 226.152 154.363C226.152 154.363 226.152 154.363 226.152 154.363C226.152 154.363 226.152 154.363 226.152 154.363C226.152 154.363 226.152 154.363 226.152 154.363H226.152H226.152C226.152 154.363 226.152 154.363 226.152 154.363C226.152 154.363 226.152 154.363 226.152 154.363C226.152 154.363 226.152 154.363 226.152 154.363C226.152 154.363 226.152 154.363 226.152 154.363H226.152H226.152C226.152 154.363 226.152 154.363 226.152 154.363C226.152 154.363 226.152 154.363 226.152 154.363C226.152 154.363 226.152 154.363 226.152 154.363H226.152H226.152C226.152 154.363 226.152 154.363 226.152 154.363C226.152 154.363 226.152 154.363 226.152 154.363C226.152 154.363 226.152 154.363 226.152 154.363C226.152 154.363 226.152 154.363 226.152 154.363H226.152H226.152C226.152 154.363 226.152 154.363 226.152 154.363C226.152 154.363 226.152 154.363 226.152 154.363C226.152 154.363 226.152 154.363 226.152 154.363C226.152 154.363 226.152 154.363 226.152 154.363H226.152H226.152C226.152 154.363 226.152 154.363 226.152 154.363C226.152 154.363 226.152 154.363 226.152 154.363C226.152 154.363 226.152 154.363 226.152 154.363C226.152 154.363 226.152 154.363 226.152 154.363H226.152H226.152C226.152 154.363 226.152 154.363 226.152 154.363C226.152 154.363 226.152 154.363 226.152 154.363C226.152 154.363 226.152 154.363 226.152 154.363H226.152H226.152C226.152 154.363 226.152 154.363 226.152 154.363C226.152 154.363 226.152 154.363 226.152 154.363C226.152 154.363 226.152 154.363 226.152 154.363C226.152 154.363 226.152 154.363 226.152 154.363H226.152H226.152C226.152 154.363 226.152 154.363 226.152 154.363C226.152 154.363 226.152 154.363 226.152 154.363C226.152 154.363 226.152 154.363 226.152 154.363C226.152 154.363 226.152 154.363 226.152 154.363H226.152H226.152C226.152 154.363 226.152 154.363 226.152 154.363C226.152 154.363 226.152 154.363 226.152 154.363C226.152 154.363 226.152 154.363 226.152 154.363C226.152 154.363 226.152 154.363 226.152 154.363H226.152H226.152C226.152 154.363 226.152 154.363 226.152 154.363C226.152 154.363 226.152 154.363 226.152 154.363C226.152 154.363 226.152 154.363 226.152 154.363H226.152H226.152C226.152 154.363 226.152 154.363 226.152 154.363C226.152 154.363 226.152 154.363 226.152 154.363C226.152 154.363 226.152 154.363 226.152 154.363C226.152 154.363 226.152 154.363 226.152 154.363H226.152H226.152C226.152 154.363 226.152 154.363 226.152 154.363C226.152 154.363 226.152 154.363 226.152 154.363C226.152 154.363 226.152 154.363 226.152 154.363C226.152 154.363 226.152 154.363 226.152 154.363H226.152H226.152C226.152 154.363 226.152 154.363 226.152 154.363C226.152 154.363 226.152 154.363 226.152 154.363C226.152 154.363 226.152 154.363 226.152 154.363H226.152H226.152C226.152 154.363 226.152 154.363 226.152 154.363C226.152 154.363 226.152 154.363 226.152 154.363C226.152 154.363 226.152 154.363 226.152 154.363C226.152 154.363 226.152 154.363 226.152 154.363H226.152H226.152C226.152 154.363 226.152 154.363 226.152 154.363C226.152 154.363 226.152 154.363 226.152 154.363C226.152 154.363 226.152 154.363 226.152 154.363C226.152 154.363 226.152 154.363 226.152 154.363H226.152H226.152C226.152 154.363 226.152 154.363 226.152 154.363C226.152 154.363 226.152 154.363 226.152 154.363C226.152 154.363 226.152 154.363 226.152 154.363H226.152H226.152C226.152 154.363 226.152 154.363 226.152 154.363C226.152 154.363 226.152 154.363 226.152 154.363C226.152 154.363 226.152 154.363 226.152 154.363C226.152 154.363 226.152 154.363 226.152 154.363H226.152H226.152C226.152 154.363 226.152 154.363 226.152 154.363C226.152 154.363 226.152 154.363 226.152 154.363C226.152 154.363 226.152 154.363 226.152 154.363C226.152 154.363 226.152 154.363 226.152 154.363H226.152H226.152C226.152 154.363 226.152 154.363 226.152 154.363C226.152 154.363 226.152 154.363 226.152 154.363C226.152 154.363 226.152 154.363 226.152 154.363H226.152H226.152C226.152 154.363 226.152 154.363 226.152 154.363C226.152 154.363 226.152 154.363 226.152 154.363C226.152 154.363 226.152 154.363 226.152 154.363C226.152 154.363 226.152 154.363 226.152 154.363H226.152H226.152C226.152 154.363 226.152 154.363 226.152 154.363C226.152 154.363 226.152 154.363 226.152 154.363C226.152 154.363 226.152 154.363 226.152 154.363H226.152H226.152C226.152 154.363 226.152 154.363 226.152 154.363C226.152 154.363 226.152 154.363 226.152 154.363C226.152 154.363 226.152 154.363 226.152 154.363C226.152 154.363 226.152 154.363 226.152 154.363H226.152H226.152C226.152 154.363 226.152 154.363 226.152 154.363C226.152 154.363 226.152 154.363 226.152 154.363C226.152 154.363 226.152 154.363 226.152 154.363H226.152H226.152C226.152 154.363 226.152 154.363 226.152 154.363C226.152 154.363 226.152 154.363 226.152 154.363C226.152 154.363 226.152 154.363 226.152 154.363C226.152 154.363 226.152 154.363 226.152 154.363H226.152C226.152 154.363 226.152 154.363 226.152 154.363C226.152 154.363 226.152 154.363 226.152 154.363C226.152 154.363 226.152 154.363 226.152 154.363C226.152 154.363 226.152 154.363 226.152 154.363H226.152H226.152C226.152 154.363 226.152 154.363 226.152 154.363C226.152 154.363 226.152 154.363 226.152 154.363C226.152 154.363 226.152 154.363 226.152 154.363H226.152H226.152C226.152 154.363 226.152 154.363 226.152 154.363C226.152 154.363 226.152 154.363 226.152 154.363V138.363ZM226.151 138.363C200.11 138.363 179 117.253 179 91.2119H163C163 126.089 191.274 154.363 226.151 154.363V138.363ZM179 91.2119C179 65.171 200.11 44.0607 226.151 44.0607V28.0607C191.274 28.0607 163 56.3344 163 91.2119H179ZM226.151 44.0607C227.799 44.0607 229.425 44.1449 231.025 44.3089L232.656 28.3922C230.515 28.1728 228.345 28.0607 226.151 28.0607V44.0607ZM238.75 40.3826C250.062 20.997 271.064 8 295.092 8V-8C265.143 -8 238.993 8.22116 224.931 32.3185L238.75 40.3826ZM295.092 8C326.884 8 353.375 30.7689 359.118 60.8925L374.835 57.8962C367.681 20.3684 334.708 -8 295.092 -8V8ZM367.019 67.3942C367.083 67.3939 367.147 67.3937 367.21 67.3937V51.3937C367.118 51.3937 367.026 51.394 366.934 51.3944L367.019 67.3942ZM367.21 67.3937C386.808 67.3937 402.695 83.2807 402.695 102.878H418.695C418.695 74.4442 395.645 51.3937 367.21 51.3937V67.3937ZM402.695 102.878C402.695 122.185 387.274 137.892 368.081 138.353L368.464 154.348C396.321 153.68 418.695 130.893 418.695 102.878H402.695ZM360.273 146.35V146.363H376.273V146.35H360.273ZM368.273 138.363H226.152V154.363H368.273V138.363ZM234.152 146.363V146.363H218.152V146.363H234.152Z" fill="black" mask="url(#path-15-inside-1)"/>
<mask id="path-17-inside-2" fill="white">
<path fill-rule="evenodd" clip-rule="evenodd" d="M25.3835 189.363C25.3834 189.363 25.3832 189.363 25.3831 189.363C11.3644 189.363 0 177.999 0 163.98C0 149.961 11.3644 138.597 25.3831 138.597C26.2672 138.597 27.1407 138.642 28.0015 138.73C33.8408 128.724 44.6916 122 57.1127 122C73.5453 122 87.2294 133.768 90.1973 149.336L90.305 149.336C101.358 149.336 110.319 158.296 110.319 169.349C110.319 180.239 101.621 189.097 90.7938 189.357V189.363H25.3835V189.363Z"/>
</mask>
<path fill-rule="evenodd" clip-rule="evenodd" d="M25.3835 189.363C25.3834 189.363 25.3832 189.363 25.3831 189.363C11.3644 189.363 0 177.999 0 163.98C0 149.961 11.3644 138.597 25.3831 138.597C26.2672 138.597 27.1407 138.642 28.0015 138.73C33.8408 128.724 44.6916 122 57.1127 122C73.5453 122 87.2294 133.768 90.1973 149.336L90.305 149.336C101.358 149.336 110.319 158.296 110.319 169.349C110.319 180.239 101.621 189.097 90.7938 189.357V189.363H25.3835V189.363Z" fill="white"/>
<path d="M25.3835 189.363H33.3835V181.363H25.3835V189.363ZM28.0015 138.73L27.186 146.688L32.3133 147.214L34.9111 142.762L28.0015 138.73ZM90.1973 149.336L82.3389 150.834L83.5817 157.353L90.2184 157.336L90.1973 149.336ZM90.305 149.336V141.336H90.2944L90.2839 141.336L90.305 149.336ZM90.7938 189.357L90.6021 181.359L82.7938 181.546V189.357H90.7938ZM90.7938 189.363V197.363H98.7938V189.363H90.7938ZM25.3835 189.363H17.3835V197.363H25.3835V189.363ZM25.3835 181.363C25.3835 181.363 25.3835 181.363 25.3835 181.363H25.3835C25.3835 181.363 25.3835 181.363 25.3835 181.363C25.3835 181.363 25.3835 181.363 25.3835 181.363H25.3835C25.3835 181.363 25.3835 181.363 25.3835 181.363H25.3835C25.3835 181.363 25.3835 181.363 25.3835 181.363C25.3835 181.363 25.3835 181.363 25.3835 181.363H25.3835C25.3835 181.363 25.3835 181.363 25.3835 181.363C25.3835 181.363 25.3835 181.363 25.3835 181.363H25.3835C25.3835 181.363 25.3835 181.363 25.3835 181.363H25.3835C25.3835 181.363 25.3835 181.363 25.3835 181.363C25.3835 181.363 25.3835 181.363 25.3835 181.363H25.3835C25.3835 181.363 25.3835 181.363 25.3835 181.363C25.3835 181.363 25.3835 181.363 25.3835 181.363H25.3835C25.3835 181.363 25.3835 181.363 25.3835 181.363C25.3835 181.363 25.3835 181.363 25.3835 181.363C25.3835 181.363 25.3835 181.363 25.3835 181.363C25.3835 181.363 25.3835 181.363 25.3835 181.363H25.3835C25.3835 181.363 25.3835 181.363 25.3835 181.363C25.3835 181.363 25.3835 181.363 25.3835 181.363H25.3835C25.3835 181.363 25.3835 181.363 25.3835 181.363C25.3834 181.363 25.3834 181.363 25.3834 181.363C25.3834 181.363 25.3834 181.363 25.3834 181.363C25.3834 181.363 25.3834 181.363 25.3834 181.363H25.3834C25.3834 181.363 25.3834 181.363 25.3834 181.363C25.3834 181.363 25.3834 181.363 25.3834 181.363H25.3834C25.3834 181.363 25.3834 181.363 25.3834 181.363C25.3834 181.363 25.3834 181.363 25.3834 181.363H25.3834C25.3834 181.363 25.3834 181.363 25.3834 181.363H25.3834C25.3834 181.363 25.3834 181.363 25.3834 181.363C25.3834 181.363 25.3834 181.363 25.3834 181.363H25.3834C25.3834 181.363 25.3834 181.363 25.3834 181.363C25.3834 181.363 25.3834 181.363 25.3834 181.363H25.3834C25.3834 181.363 25.3834 181.363 25.3834 181.363H25.3834C25.3834 181.363 25.3834 181.363 25.3834 181.363C25.3834 181.363 25.3834 181.363 25.3834 181.363H25.3834C25.3834 181.363 25.3834 181.363 25.3834 181.363C25.3834 181.363 25.3834 181.363 25.3834 181.363H25.3834C25.3834 181.363 25.3834 181.363 25.3834 181.363C25.3834 181.363 25.3834 181.363 25.3834 181.363H25.3834C25.3834 181.363 25.3834 181.363 25.3834 181.363H25.3834C25.3834 181.363 25.3834 181.363 25.3834 181.363C25.3834 181.363 25.3834 181.363 25.3834 181.363H25.3834C25.3834 181.363 25.3834 181.363 25.3834 181.363C25.3834 181.363 25.3834 181.363 25.3834 181.363H25.3834C25.3834 181.363 25.3834 181.363 25.3834 181.363H25.3834C25.3834 181.363 25.3834 181.363 25.3834 181.363C25.3834 181.363 25.3834 181.363 25.3834 181.363H25.3834C25.3834 181.363 25.3834 181.363 25.3834 181.363C25.3834 181.363 25.3834 181.363 25.3834 181.363H25.3834C25.3834 181.363 25.3834 181.363 25.3834 181.363C25.3834 181.363 25.3834 181.363 25.3834 181.363C25.3834 181.363 25.3834 181.363 25.3834 181.363C25.3834 181.363 25.3834 181.363 25.3834 181.363H25.3834C25.3834 181.363 25.3834 181.363 25.3834 181.363C25.3834 181.363 25.3834 181.363 25.3834 181.363H25.3834C25.3834 181.363 25.3834 181.363 25.3833 181.363C25.3833 181.363 25.3833 181.363 25.3833 181.363C25.3833 181.363 25.3833 181.363 25.3833 181.363C25.3833 181.363 25.3833 181.363 25.3833 181.363H25.3833C25.3833 181.363 25.3833 181.363 25.3833 181.363C25.3833 181.363 25.3833 181.363 25.3833 181.363H25.3833C25.3833 181.363 25.3833 181.363 25.3833 181.363C25.3833 181.363 25.3833 181.363 25.3833 181.363H25.3833C25.3833 181.363 25.3833 181.363 25.3833 181.363H25.3833C25.3833 181.363 25.3833 181.363 25.3833 181.363C25.3833 181.363 25.3833 181.363 25.3833 181.363H25.3833C25.3833 181.363 25.3833 181.363 25.3833 181.363C25.3833 181.363 25.3833 181.363 25.3833 181.363H25.3833C25.3833 181.363 25.3833 181.363 25.3833 181.363H25.3833C25.3833 181.363 25.3833 181.363 25.3833 181.363C25.3833 181.363 25.3833 181.363 25.3833 181.363H25.3833C25.3833 181.363 25.3833 181.363 25.3833 181.363C25.3833 181.363 25.3833 181.363 25.3833 181.363H25.3833C25.3833 181.363 25.3833 181.363 25.3833 181.363C25.3833 181.363 25.3833 181.363 25.3833 181.363H25.3833C25.3833 181.363 25.3833 181.363 25.3833 181.363H25.3833C25.3833 181.363 25.3833 181.363 25.3833 181.363C25.3833 181.363 25.3833 181.363 25.3833 181.363H25.3833C25.3833 181.363 25.3833 181.363 25.3833 181.363C25.3833 181.363 25.3833 181.363 25.3833 181.363H25.3833C25.3833 181.363 25.3833 181.363 25.3833 181.363H25.3833C25.3833 181.363 25.3833 181.363 25.3833 181.363C25.3833 181.363 25.3833 181.363 25.3833 181.363H25.3833C25.3833 181.363 25.3833 181.363 25.3833 181.363C25.3833 181.363 25.3833 181.363 25.3833 181.363H25.3833C25.3833 181.363 25.3833 181.363 25.3833 181.363C25.3833 181.363 25.3833 181.363 25.3833 181.363C25.3833 181.363 25.3833 181.363 25.3833 181.363C25.3833 181.363 25.3833 181.363 25.3833 181.363H25.3833C25.3833 181.363 25.3833 181.363 25.3833 181.363C25.3832 181.363 25.3832 181.363 25.3832 181.363H25.3832C25.3832 181.363 25.3832 181.363 25.3832 181.363C25.3832 181.363 25.3832 181.363 25.3832 181.363C25.3832 181.363 25.3832 181.363 25.3832 181.363C25.3832 181.363 25.3832 181.363 25.3832 181.363H25.3832C25.3832 181.363 25.3832 181.363 25.3832 181.363C25.3832 181.363 25.3832 181.363 25.3832 181.363H25.3832C25.3832 181.363 25.3832 181.363 25.3832 181.363C25.3832 181.363 25.3832 181.363 25.3832 181.363H25.3832C25.3832 181.363 25.3832 181.363 25.3832 181.363H25.3832C25.3832 181.363 25.3832 181.363 25.3832 181.363C25.3832 181.363 25.3832 181.363 25.3832 181.363H25.3832C25.3832 181.363 25.3832 181.363 25.3832 181.363C25.3832 181.363 25.3832 181.363 25.3832 181.363H25.3832C25.3832 181.363 25.3832 181.363 25.3832 181.363H25.3832C25.3832 181.363 25.3832 181.363 25.3832 181.363C25.3832 181.363 25.3832 181.363 25.3832 181.363H25.3832C25.3832 181.363 25.3832 181.363 25.3832 181.363C25.3832 181.363 25.3832 181.363 25.3832 181.363H25.3832C25.3832 181.363 25.3832 181.363 25.3832 181.363C25.3832 181.363 25.3832 181.363 25.3832 181.363H25.3832C25.3832 181.363 25.3832 181.363 25.3832 181.363H25.3832C25.3832 181.363 25.3832 181.363 25.3832 181.363C25.3832 181.363 25.3832 181.363 25.3832 181.363H25.3832C25.3832 181.363 25.3832 181.363 25.3832 181.363C25.3832 181.363 25.3832 181.363 25.3832 181.363H25.3832C25.3832 181.363 25.3832 181.363 25.3832 181.363H25.3832C25.3832 181.363 25.3832 181.363 25.3832 181.363C25.3832 181.363 25.3832 181.363 25.3832 181.363H25.3832C25.3832 181.363 25.3832 181.363 25.3832 181.363C25.3832 181.363 25.3832 181.363 25.3832 181.363H25.3832C25.3832 181.363 25.3832 181.363 25.3832 181.363C25.3832 181.363 25.3832 181.363 25.3832 181.363C25.3832 181.363 25.3832 181.363 25.3832 181.363C25.3832 181.363 25.3832 181.363 25.3832 181.363H25.3832C25.3832 181.363 25.3832 181.363 25.3831 181.363C25.3831 181.363 25.3831 181.363 25.3831 181.363H25.3831C25.3831 181.363 25.3831 181.363 25.3831 181.363C25.3831 181.363 25.3831 181.363 25.3831 181.363C25.3831 181.363 25.3831 181.363 25.3831 181.363C25.3831 181.363 25.3831 181.363 25.3831 181.363H25.3831C25.3831 181.363 25.3831 181.363 25.3831 181.363C25.3831 181.363 25.3831 181.363 25.3831 181.363H25.3831C25.3831 181.363 25.3831 181.363 25.3831 181.363C25.3831 181.363 25.3831 181.363 25.3831 181.363H25.3831C25.3831 181.363 25.3831 181.363 25.3831 181.363H25.3831C25.3831 181.363 25.3831 181.363 25.3831 181.363C25.3831 181.363 25.3831 181.363 25.3831 181.363H25.3831C25.3831 181.363 25.3831 181.363 25.3831 181.363C25.3831 181.363 25.3831 181.363 25.3831 181.363H25.3831C25.3831 181.363 25.3831 181.363 25.3831 181.363H25.3831C25.3831 181.363 25.3831 181.363 25.3831 181.363C25.3831 181.363 25.3831 181.363 25.3831 181.363H25.3831C25.3831 181.363 25.3831 181.363 25.3831 181.363V197.363C25.3831 197.363 25.3831 197.363 25.3831 197.363H25.3831C25.3831 197.363 25.3831 197.363 25.3831 197.363C25.3831 197.363 25.3831 197.363 25.3831 197.363H25.3831C25.3831 197.363 25.3831 197.363 25.3831 197.363H25.3831C25.3831 197.363 25.3831 197.363 25.3831 197.363C25.3831 197.363 25.3831 197.363 25.3831 197.363H25.3831C25.3831 197.363 25.3831 197.363 25.3831 197.363C25.3831 197.363 25.3831 197.363 25.3831 197.363H25.3831C25.3831 197.363 25.3831 197.363 25.3831 197.363H25.3831C25.3831 197.363 25.3831 197.363 25.3831 197.363C25.3831 197.363 25.3831 197.363 25.3831 197.363H25.3831C25.3831 197.363 25.3831 197.363 25.3831 197.363C25.3831 197.363 25.3831 197.363 25.3831 197.363H25.3831C25.3831 197.363 25.3831 197.363 25.3831 197.363C25.3831 197.363 25.3831 197.363 25.3831 197.363C25.3831 197.363 25.3831 197.363 25.3831 197.363C25.3831 197.363 25.3831 197.363 25.3831 197.363H25.3831C25.3831 197.363 25.3831 197.363 25.3831 197.363C25.3832 197.363 25.3832 197.363 25.3832 197.363H25.3832C25.3832 197.363 25.3832 197.363 25.3832 197.363C25.3832 197.363 25.3832 197.363 25.3832 197.363C25.3832 197.363 25.3832 197.363 25.3832 197.363C25.3832 197.363 25.3832 197.363 25.3832 197.363H25.3832C25.3832 197.363 25.3832 197.363 25.3832 197.363C25.3832 197.363 25.3832 197.363 25.3832 197.363H25.3832C25.3832 197.363 25.3832 197.363 25.3832 197.363C25.3832 197.363 25.3832 197.363 25.3832 197.363H25.3832C25.3832 197.363 25.3832 197.363 25.3832 197.363H25.3832C25.3832 197.363 25.3832 197.363 25.3832 197.363C25.3832 197.363 25.3832 197.363 25.3832 197.363H25.3832C25.3832 197.363 25.3832 197.363 25.3832 197.363C25.3832 197.363 25.3832 197.363 25.3832 197.363H25.3832C25.3832 197.363 25.3832 197.363 25.3832 197.363H25.3832C25.3832 197.363 25.3832 197.363 25.3832 197.363C25.3832 197.363 25.3832 197.363 25.3832 197.363H25.3832C25.3832 197.363 25.3832 197.363 25.3832 197.363C25.3832 197.363 25.3832 197.363 25.3832 197.363H25.3832C25.3832 197.363 25.3832 197.363 25.3832 197.363C25.3832 197.363 25.3832 197.363 25.3832 197.363H25.3832C25.3832 197.363 25.3832 197.363 25.3832 197.363H25.3832C25.3832 197.363 25.3832 197.363 25.3832 197.363C25.3832 197.363 25.3832 197.363 25.3832 197.363H25.3832C25.3832 197.363 25.3832 197.363 25.3832 197.363C25.3832 197.363 25.3832 197.363 25.3832 197.363H25.3832C25.3832 197.363 25.3832 197.363 25.3832 197.363H25.3832C25.3832 197.363 25.3832 197.363 25.3832 197.363C25.3832 197.363 25.3832 197.363 25.3832 197.363H25.3832C25.3832 197.363 25.3832 197.363 25.3832 197.363C25.3832 197.363 25.3832 197.363 25.3832 197.363H25.3832C25.3832 197.363 25.3832 197.363 25.3832 197.363C25.3832 197.363 25.3832 197.363 25.3832 197.363C25.3832 197.363 25.3832 197.363 25.3832 197.363C25.3832 197.363 25.3832 197.363 25.3832 197.363H25.3832C25.3832 197.363 25.3832 197.363 25.3833 197.363C25.3833 197.363 25.3833 197.363 25.3833 197.363H25.3833C25.3833 197.363 25.3833 197.363 25.3833 197.363C25.3833 197.363 25.3833 197.363 25.3833 197.363C25.3833 197.363 25.3833 197.363 25.3833 197.363C25.3833 197.363 25.3833 197.363 25.3833 197.363H25.3833C25.3833 197.363 25.3833 197.363 25.3833 197.363C25.3833 197.363 25.3833 197.363 25.3833 197.363H25.3833C25.3833 197.363 25.3833 197.363 25.3833 197.363C25.3833 197.363 25.3833 197.363 25.3833 197.363H25.3833C25.3833 197.363 25.3833 197.363 25.3833 197.363H25.3833C25.3833 197.363 25.3833 197.363 25.3833 197.363C25.3833 197.363 25.3833 197.363 25.3833 197.363H25.3833C25.3833 197.363 25.3833 197.363 25.3833 197.363C25.3833 197.363 25.3833 197.363 25.3833 197.363H25.3833C25.3833 197.363 25.3833 197.363 25.3833 197.363H25.3833C25.3833 197.363 25.3833 197.363 25.3833 197.363C25.3833 197.363 25.3833 197.363 25.3833 197.363H25.3833C25.3833 197.363 25.3833 197.363 25.3833 197.363C25.3833 197.363 25.3833 197.363 25.3833 197.363H25.3833C25.3833 197.363 25.3833 197.363 25.3833 197.363C25.3833 197.363 25.3833 197.363 25.3833 197.363H25.3833C25.3833 197.363 25.3833 197.363 25.3833 197.363H25.3833C25.3833 197.363 25.3833 197.363 25.3833 197.363C25.3833 197.363 25.3833 197.363 25.3833 197.363H25.3833C25.3833 197.363 25.3833 197.363 25.3833 197.363C25.3833 197.363 25.3833 197.363 25.3833 197.363H25.3833C25.3833 197.363 25.3833 197.363 25.3833 197.363H25.3833C25.3833 197.363 25.3833 197.363 25.3833 197.363C25.3833 197.363 25.3833 197.363 25.3833 197.363H25.3833C25.3833 197.363 25.3833 197.363 25.3833 197.363C25.3833 197.363 25.3833 197.363 25.3833 197.363H25.3833C25.3833 197.363 25.3833 197.363 25.3833 197.363C25.3833 197.363 25.3833 197.363 25.3833 197.363C25.3833 197.363 25.3833 197.363 25.3833 197.363C25.3834 197.363 25.3834 197.363 25.3834 197.363H25.3834C25.3834 197.363 25.3834 197.363 25.3834 197.363C25.3834 197.363 25.3834 197.363 25.3834 197.363H25.3834C25.3834 197.363 25.3834 197.363 25.3834 197.363C25.3834 197.363 25.3834 197.363 25.3834 197.363C25.3834 197.363 25.3834 197.363 25.3834 197.363C25.3834 197.363 25.3834 197.363 25.3834 197.363H25.3834C25.3834 197.363 25.3834 197.363 25.3834 197.363C25.3834 197.363 25.3834 197.363 25.3834 197.363H25.3834C25.3834 197.363 25.3834 197.363 25.3834 197.363C25.3834 197.363 25.3834 197.363 25.3834 197.363H25.3834C25.3834 197.363 25.3834 197.363 25.3834 197.363H25.3834C25.3834 197.363 25.3834 197.363 25.3834 197.363C25.3834 197.363 25.3834 197.363 25.3834 197.363H25.3834C25.3834 197.363 25.3834 197.363 25.3834 197.363C25.3834 197.363 25.3834 197.363 25.3834 197.363H25.3834C25.3834 197.363 25.3834 197.363 25.3834 197.363H25.3834C25.3834 197.363 25.3834 197.363 25.3834 197.363C25.3834 197.363 25.3834 197.363 25.3834 197.363H25.3834C25.3834 197.363 25.3834 197.363 25.3834 197.363C25.3834 197.363 25.3834 197.363 25.3834 197.363H25.3834C25.3834 197.363 25.3834 197.363 25.3834 197.363C25.3834 197.363 25.3834 197.363 25.3834 197.363H25.3834C25.3834 197.363 25.3834 197.363 25.3834 197.363H25.3834C25.3834 197.363 25.3834 197.363 25.3834 197.363C25.3834 197.363 25.3834 197.363 25.3834 197.363H25.3834C25.3834 197.363 25.3834 197.363 25.3834 197.363C25.3834 197.363 25.3834 197.363 25.3834 197.363H25.3834C25.3834 197.363 25.3834 197.363 25.3834 197.363H25.3834C25.3834 197.363 25.3834 197.363 25.3834 197.363C25.3834 197.363 25.3834 197.363 25.3834 197.363H25.3834C25.3834 197.363 25.3834 197.363 25.3834 197.363C25.3834 197.363 25.3834 197.363 25.3834 197.363H25.3834C25.3834 197.363 25.3834 197.363 25.3834 197.363C25.3834 197.363 25.3834 197.363 25.3834 197.363C25.3834 197.363 25.3834 197.363 25.3835 197.363C25.3835 197.363 25.3835 197.363 25.3835 197.363H25.3835C25.3835 197.363 25.3835 197.363 25.3835 197.363C25.3835 197.363 25.3835 197.363 25.3835 197.363H25.3835C25.3835 197.363 25.3835 197.363 25.3835 197.363C25.3835 197.363 25.3835 197.363 25.3835 197.363C25.3835 197.363 25.3835 197.363 25.3835 197.363C25.3835 197.363 25.3835 197.363 25.3835 197.363H25.3835C25.3835 197.363 25.3835 197.363 25.3835 197.363C25.3835 197.363 25.3835 197.363 25.3835 197.363H25.3835C25.3835 197.363 25.3835 197.363 25.3835 197.363C25.3835 197.363 25.3835 197.363 25.3835 197.363H25.3835C25.3835 197.363 25.3835 197.363 25.3835 197.363H25.3835C25.3835 197.363 25.3835 197.363 25.3835 197.363C25.3835 197.363 25.3835 197.363 25.3835 197.363H25.3835C25.3835 197.363 25.3835 197.363 25.3835 197.363C25.3835 197.363 25.3835 197.363 25.3835 197.363H25.3835C25.3835 197.363 25.3835 197.363 25.3835 197.363H25.3835C25.3835 197.363 25.3835 197.363 25.3835 197.363C25.3835 197.363 25.3835 197.363 25.3835 197.363H25.3835C25.3835 197.363 25.3835 197.363 25.3835 197.363V181.363ZM25.3831 181.363C15.7827 181.363 8 173.58 8 163.98H-8C-8 182.417 6.94612 197.363 25.3831 197.363V181.363ZM8 163.98C8 154.379 15.7827 146.597 25.3831 146.597V130.597C6.94612 130.597 -8 145.543 -8 163.98H8ZM25.3831 146.597C25.9943 146.597 26.5957 146.628 27.186 146.688L28.8171 130.772C27.6858 130.656 26.5401 130.597 25.3831 130.597V146.597ZM34.9111 142.762C39.3756 135.112 47.6518 130 57.1127 130V114C41.7313 114 28.3059 122.336 21.0919 134.698L34.9111 142.762ZM57.1127 130C69.6334 130 80.0767 138.968 82.3389 150.834L98.0558 147.838C94.3821 128.568 77.4572 114 57.1127 114V130ZM90.2184 157.336L90.3261 157.336L90.2839 141.336L90.1762 141.336L90.2184 157.336ZM90.305 157.336C96.9399 157.336 102.319 162.714 102.319 169.349H118.319C118.319 153.878 105.776 141.336 90.305 141.336V157.336ZM102.319 169.349C102.319 175.885 97.0976 181.204 90.6021 181.359L90.9855 197.355C106.145 196.991 118.319 184.593 118.319 169.349H102.319ZM82.7938 189.357V189.363H98.7938V189.357H82.7938ZM90.7938 181.363H25.3835V197.363H90.7938V181.363ZM33.3835 189.363V189.363H17.3835V189.363H33.3835Z" fill="black" mask="url(#path-17-inside-2)"/>
</svg>
