<svg id="Capa_1" enable-background="new 0 0 512 512" height="512" viewBox="0 0 512 512" width="512" xmlns="http://www.w3.org/2000/svg"><g id="XMLID_1511_"><path id="XMLID_1512_" d="m462 125.958h-412c-22.091 0-40 17.909-40 40v276c0 22.091 17.909 40 40 40h412c22.091 0 40-17.909 40-40v-276c0-22.091-17.909-40-40-40z" fill="#f9f9f9"/><path id="XMLID_1523_" d="m300 181.958h-88v-108c0-24.301 19.699-44 44-44 24.301 0 44 19.699 44 44z" fill="#9bc6ff"/><g id="XMLID_3131_"><circle id="XMLID_3140_" cx="160" cy="331.958" fill="#9bc6ff" r="96"/><path id="XMLID_3139_" d="m181.189 362.958h-42.379c-22.782 0-41.25 18.468-41.25 41.25l.344.958c16.74 14.213 38.414 22.793 62.095 22.793s45.354-8.579 62.095-22.793l.344-.958c.001-22.781-18.467-41.25-41.249-41.25z" fill="#ffcb7c"/><g id="XMLID_3136_"><path id="XMLID_3137_" d="m160 295.141c-17.242 0-31.22 13.977-31.22 31.219v5.378c0 17.242 13.977 31.219 31.219 31.219 17.242 0 31.219-13.977 31.219-31.219v-5.378c.002-17.241-13.976-31.219-31.218-31.219z" fill="#ffbf9e"/></g></g><g id="XMLID_545_"><path id="XMLID_1140_" d="m462 115.958h-152v-41.916c0-29.775-24.225-54-54-54s-54 24.225-54 54v41.917h-152c-27.57 0-50 22.43-50 50v276c0 27.57 22.43 50 50 50h161c5.522 0 10-4.478 10-10s-4.478-10-10-10h-161c-16.542 0-30-13.458-30-30v-276c0-16.542 13.458-30 30-30h152v36h-15.333c-5.522 0-10 4.478-10 10s4.478 10 10 10h138.666c5.522 0 10-4.478 10-10s-4.478-10-10-10h-15.333v-36h152c16.542 0 30 13.458 30 30v276c0 16.542-13.458 30-30 30h-161c-5.522 0-10 4.478-10 10s4.478 10 10 10h161c27.57 0 50-22.43 50-50v-276c0-27.571-22.43-50.001-50-50.001zm-240 56v-97.916c0-18.748 15.252-34 34-34s34 15.252 34 34v97.917h-68z"/><path id="XMLID_1152_" d="m256 64.039c-2.63 0-5.21 1.069-7.07 2.93s-2.93 4.44-2.93 7.07c0 2.64 1.069 5.21 2.93 7.069 1.86 1.87 4.44 2.931 7.07 2.931s5.21-1.061 7.069-2.931c1.86-1.859 2.931-4.439 2.931-7.069s-1.07-5.21-2.931-7.07c-1.859-1.861-4.439-2.93-7.069-2.93z"/><path id="XMLID_1159_" d="m300 406.605h148c5.522 0 10-4.478 10-10s-4.478-10-10-10h-148c-5.522 0-10 4.478-10 10s4.478 10 10 10z"/><path id="XMLID_1165_" d="m300 342.605h148c5.522 0 10-4.478 10-10s-4.478-10-10-10h-148c-5.522 0-10 4.478-10 10s4.478 10 10 10z"/><path id="XMLID_1170_" d="m300 278.605h148c5.522 0 10-4.478 10-10s-4.478-10-10-10h-148c-5.522 0-10 4.478-10 10s4.478 10 10 10z"/><path id="XMLID_1295_" d="m160 225.958c-58.448 0-106 47.552-106 106s47.552 106 106 106 106-47.552 106-106-47.552-106-106-106zm-52.181 174.297c1.95-15.37 15.1-27.297 30.991-27.297h42.379c15.892 0 29.041 11.926 30.991 27.297-14.483 11.092-32.57 17.703-52.181 17.703s-37.697-6.611-52.18-17.703zm73.401-68.516c0 11.7-9.52 21.22-21.22 21.22s-21.22-9.52-21.22-21.22v-5.378c0-11.7 9.52-21.22 21.22-21.22s21.22 9.52 21.22 21.22zm47.106 52.363c-6.16-14.386-18.719-25.402-34.079-29.452 4.401-6.557 6.973-14.438 6.973-22.911v-5.378c0-22.729-18.491-41.22-41.22-41.22s-41.22 18.491-41.22 41.22v5.378c0 8.473 2.572 16.354 6.973 22.911-15.36 4.05-27.919 15.066-34.079 29.452-11.075-14.477-17.674-32.55-17.674-52.144 0-47.421 38.579-86 86-86s86 38.579 86 86c0 19.594-6.599 37.667-17.674 52.144z"/><path id="XMLID_1304_" d="m256 471.958c-2.63 0-5.21 1.069-7.07 2.93s-2.93 4.44-2.93 7.07 1.069 5.21 2.93 7.069c1.86 1.86 4.44 2.931 7.07 2.931s5.21-1.07 7.069-2.931c1.86-1.859 2.931-4.439 2.931-7.069s-1.07-5.21-2.931-7.07c-1.859-1.86-4.439-2.93-7.069-2.93z"/></g></g></svg>