<svg width="164" height="42" viewBox="0 0 164 42" fill="none" xmlns="http://www.w3.org/2000/svg">
<path d="M64.864 22.976C64.864 23.4667 64.7893 23.9147 64.64 24.32C64.5013 24.7147 64.2453 25.056 63.872 25.344C63.5093 25.6213 63.0027 25.84 62.352 26C61.712 26.16 60.896 26.24 59.904 26.24C58.912 26.24 58.0907 26.16 57.44 26C56.7893 25.84 56.2773 25.6213 55.904 25.344C55.5413 25.056 55.2853 24.7147 55.136 24.32C54.9973 23.9147 54.928 23.4667 54.928 22.976V17.52C54.928 17.0293 54.9973 16.5867 55.136 16.192C55.2853 15.7867 55.5413 15.44 55.904 15.152C56.2773 14.864 56.7893 14.64 57.44 14.48C58.0907 14.32 58.912 14.24 59.904 14.24C60.896 14.24 61.712 14.32 62.352 14.48C63.0027 14.64 63.5093 14.864 63.872 15.152C64.2453 15.44 64.5013 15.7867 64.64 16.192C64.7893 16.5867 64.864 17.0293 64.864 17.52V22.976ZM58.56 22.4C58.56 22.6133 58.64 22.7947 58.8 22.944C58.96 23.0827 59.328 23.152 59.904 23.152C60.48 23.152 60.848 23.0827 61.008 22.944C61.168 22.7947 61.248 22.6133 61.248 22.4V18.096C61.248 17.8933 61.168 17.7227 61.008 17.584C60.848 17.4347 60.48 17.36 59.904 17.36C59.328 17.36 58.96 17.4347 58.8 17.584C58.64 17.7227 58.56 17.8933 58.56 18.096V22.4ZM76.8209 26H70.6769C70.4742 26 70.3249 25.9573 70.2289 25.872C70.1435 25.776 70.1009 25.6267 70.1009 25.424V15.056C70.1009 14.8533 70.1435 14.7093 70.2289 14.624C70.3249 14.528 70.4742 14.48 70.6769 14.48H75.7809C76.8262 14.48 77.5995 14.6827 78.1009 15.088C78.6022 15.4827 78.8529 16.096 78.8529 16.928V17.696C78.8529 18.144 78.7729 18.512 78.6129 18.8C78.4635 19.0773 78.2289 19.2853 77.9089 19.424C78.5915 19.488 79.0982 19.7227 79.4289 20.128C79.7595 20.5333 79.9249 21.1253 79.9249 21.904V23.376C79.9249 24.272 79.6689 24.9333 79.1569 25.36C78.6555 25.7867 77.8769 26 76.8209 26ZM73.7009 17.2V18.928H75.0609C75.2635 18.928 75.4129 18.8747 75.5089 18.768C75.6155 18.6613 75.6689 18.5013 75.6689 18.288V17.84C75.6689 17.6267 75.6155 17.4667 75.5089 17.36C75.4129 17.2533 75.2635 17.2 75.0609 17.2H73.7009ZM73.7009 21.392V23.28H75.7809C75.9835 23.28 76.1329 23.2267 76.2289 23.12C76.3355 23.0133 76.3889 22.8533 76.3889 22.64V22.016C76.3889 21.8027 76.3355 21.648 76.2289 21.552C76.1329 21.4453 75.9835 21.392 75.7809 21.392H73.7009ZM93.7746 22.976C93.7746 23.4667 93.7053 23.9147 93.5666 24.32C93.428 24.7147 93.1826 25.056 92.8306 25.344C92.4893 25.6213 92.0146 25.84 91.4066 26C90.7986 26.16 90.0253 26.24 89.0866 26.24C88.1586 26.24 87.3906 26.16 86.7826 26C86.1853 25.84 85.7106 25.6213 85.3586 25.344C85.0173 25.056 84.7773 24.7147 84.6386 24.32C84.5106 23.9147 84.4466 23.4667 84.4466 22.976V20.384C84.4466 20.1813 84.4893 20.0373 84.5746 19.952C84.6706 19.856 84.82 19.808 85.0226 19.808H87.3426C87.5453 19.808 87.6893 19.856 87.7746 19.952C87.8706 20.0373 87.9186 20.1813 87.9186 20.384V22.336C87.9186 22.5493 87.9826 22.7307 88.1106 22.88C88.2493 23.0187 88.564 23.088 89.0546 23.088C89.5133 23.088 89.8013 23.0187 89.9186 22.88C90.0466 22.7307 90.1106 22.5493 90.1106 22.336V15.056C90.1106 14.8533 90.1533 14.7093 90.2386 14.624C90.3346 14.528 90.484 14.48 90.6866 14.48H93.1986C93.4013 14.48 93.5453 14.528 93.6306 14.624C93.7266 14.7093 93.7746 14.8533 93.7746 15.056V22.976ZM107.11 26H99.6862C99.4836 26 99.3342 25.9573 99.2382 25.872C99.1529 25.776 99.1102 25.6267 99.1102 25.424V15.056C99.1102 14.8533 99.1529 14.7093 99.2382 14.624C99.3342 14.528 99.4836 14.48 99.6862 14.48H107.11C107.313 14.48 107.457 14.528 107.542 14.624C107.638 14.7093 107.686 14.8533 107.686 15.056V16.928C107.686 17.1307 107.638 17.28 107.542 17.376C107.457 17.4613 107.313 17.504 107.11 17.504H102.694V18.736H105.814C106.017 18.736 106.161 18.784 106.246 18.88C106.342 18.9653 106.39 19.1093 106.39 19.312V21.024C106.39 21.2267 106.342 21.376 106.246 21.472C106.161 21.5573 106.017 21.6 105.814 21.6H102.694V22.976H107.11C107.313 22.976 107.457 23.024 107.542 23.12C107.638 23.2053 107.686 23.3493 107.686 23.552V25.424C107.686 25.6267 107.638 25.776 107.542 25.872C107.457 25.9573 107.313 26 107.11 26ZM120.365 26H116.461C115.128 26 114.136 25.7333 113.485 25.2C112.845 24.6667 112.525 23.8453 112.525 22.736V17.76C112.525 16.6507 112.845 15.8293 113.485 15.296C114.136 14.752 115.128 14.48 116.461 14.48H120.365C120.568 14.48 120.712 14.528 120.797 14.624C120.893 14.7093 120.941 14.8533 120.941 15.056V16.992C120.941 17.1947 120.893 17.344 120.797 17.44C120.712 17.5253 120.568 17.568 120.365 17.568H117.149C116.818 17.568 116.573 17.6373 116.413 17.776C116.253 17.904 116.173 18.1013 116.173 18.368V22.176C116.173 22.4427 116.253 22.64 116.413 22.768C116.573 22.8853 116.818 22.944 117.149 22.944H120.365C120.568 22.944 120.712 22.992 120.797 23.088C120.893 23.1733 120.941 23.3173 120.941 23.52V25.424C120.941 25.6267 120.893 25.776 120.797 25.872C120.712 25.9573 120.568 26 120.365 26ZM131.388 26H128.796C128.593 26 128.444 25.9573 128.348 25.872C128.262 25.776 128.22 25.6267 128.22 25.424V17.568H125.868C125.665 17.568 125.516 17.5253 125.42 17.44C125.334 17.344 125.292 17.1947 125.292 16.992V15.056C125.292 14.8533 125.334 14.7093 125.42 14.624C125.516 14.528 125.665 14.48 125.868 14.48H134.316C134.518 14.48 134.662 14.528 134.748 14.624C134.844 14.7093 134.892 14.8533 134.892 15.056V16.992C134.892 17.1947 134.844 17.344 134.748 17.44C134.662 17.5253 134.518 17.568 134.316 17.568H131.964V25.424C131.964 25.6267 131.916 25.776 131.82 25.872C131.734 25.9573 131.59 26 131.388 26ZM139.968 26C139.765 26 139.616 25.9573 139.52 25.872C139.434 25.776 139.392 25.6267 139.392 25.424V23.52C139.392 23.3173 139.434 23.1733 139.52 23.088C139.616 22.992 139.765 22.944 139.968 22.944H141.552V17.568H139.968C139.765 17.568 139.616 17.5253 139.52 17.44C139.434 17.344 139.392 17.1947 139.392 16.992V15.056C139.392 14.8533 139.434 14.7093 139.52 14.624C139.616 14.528 139.765 14.48 139.968 14.48H146.784C146.986 14.48 147.13 14.528 147.216 14.624C147.312 14.7093 147.36 14.8533 147.36 15.056V16.992C147.36 17.1947 147.312 17.344 147.216 17.44C147.13 17.5253 146.986 17.568 146.784 17.568H145.232V22.944H146.784C146.986 22.944 147.13 22.992 147.216 23.088C147.312 23.1733 147.36 23.3173 147.36 23.52V25.424C147.36 25.6267 147.312 25.776 147.216 25.872C147.13 25.9573 146.986 26 146.784 26H139.968ZM159.351 26H155.191C154.989 26 154.818 25.9627 154.679 25.888C154.551 25.8133 154.45 25.6747 154.375 25.472L152.807 21.552C152.711 21.3173 152.631 21.1147 152.567 20.944C152.503 20.7627 152.45 20.592 152.407 20.432C152.365 20.272 152.333 20.1067 152.311 19.936C152.301 19.7547 152.295 19.536 152.295 19.28V15.056C152.295 14.8533 152.338 14.7093 152.423 14.624C152.519 14.528 152.669 14.48 152.871 14.48H155.415C155.618 14.48 155.773 14.528 155.879 14.624C155.986 14.7093 156.039 14.8533 156.039 15.056V19.472C156.039 19.5787 156.05 19.6853 156.071 19.792C156.093 19.8987 156.125 20.0107 156.167 20.128L156.919 22.368C156.951 22.4747 156.989 22.5493 157.031 22.592C157.074 22.624 157.138 22.64 157.223 22.64H157.399C157.485 22.64 157.549 22.624 157.591 22.592C157.634 22.5493 157.671 22.4747 157.703 22.368L158.455 20.112C158.498 19.9947 158.53 19.8827 158.551 19.776C158.573 19.6693 158.583 19.5627 158.583 19.456V15.056C158.583 14.8533 158.626 14.7093 158.711 14.624C158.807 14.528 158.957 14.48 159.159 14.48H161.671C161.874 14.48 162.018 14.528 162.103 14.624C162.199 14.7093 162.247 14.8533 162.247 15.056V19.28C162.247 19.536 162.237 19.7547 162.215 19.936C162.205 20.1067 162.178 20.272 162.135 20.432C162.093 20.592 162.039 20.7627 161.975 20.944C161.911 21.1147 161.831 21.3173 161.735 21.552L160.167 25.472C160.093 25.6747 159.986 25.8133 159.847 25.888C159.719 25.9627 159.554 26 159.351 26Z" fill="black"/>
<path d="M12 15.2227L2 21.0004V30.0252C2 31.4538 2.76191 32.774 3.99889 33.4887L12 38.1115V26.7782V15.2227Z" fill="#ABE9FE" stroke="black" stroke-width="3"/>
<path d="M30.0011 33.4882C31.2381 32.7735 32 31.4534 32 30.0248V21L22 26.7778L18.0006 29.0886C17.3815 29.4463 16.6185 29.4463 15.9994 29.0886L12 26.7778V38.1111L14.9989 39.8438C16.2371 40.5592 17.7629 40.5592 19.0011 39.8438L26.8077 35.3333L30.0011 33.4882Z" fill="#FBA99D" stroke="black" stroke-width="3"/>
<path d="M32 20.9998V11.975C32 10.5464 31.2381 9.22623 30.0011 8.51153L22 3.88867V15.222V26.7776L32 20.9998Z" fill="#FEF284" stroke="black" stroke-width="3"/>
<path d="M3.99889 8.51175C2.76191 9.22645 2 10.5466 2 11.9752V21L12 15.2222L15.9994 12.9114C16.6185 12.5537 17.3815 12.5537 18.0006 12.9114L22 15.2222V3.88889L19.0011 2.1562C17.7629 1.44081 16.2371 1.44081 14.9989 2.1562L7.19231 6.66667L3.99889 8.51175Z" fill="#C3E29E" stroke="black" stroke-width="3"/>
</svg>
