<svg width="137" height="32" viewBox="0 0 137 32" fill="none" xmlns="http://www.w3.org/2000/svg">
<path d="M59.256 19.39C58.038 19.39 57.52 18.634 57.52 15.946C57.52 13.622 58.038 12.81 59.256 12.81C60.474 12.81 60.992 13.636 60.992 15.946C60.992 18.648 60.474 19.39 59.256 19.39ZM59.256 21.21C61.426 21.21 62.882 19.698 62.882 15.946C62.882 12.572 61.426 10.99 59.256 10.99C57.086 10.99 55.63 12.572 55.63 15.946C55.63 19.698 57.086 21.21 59.256 21.21ZM65.7676 21H69.8416C70.6676 21 71.4376 20.72 71.9836 20.202C72.5716 19.628 72.8936 18.844 72.8936 17.948C72.8936 17.066 72.5576 16.338 71.9976 15.736C72.3616 15.274 72.5296 14.658 72.5296 14C72.5296 12.404 71.3396 11.2 69.7296 11.2H65.7676V21ZM67.6576 14.938V13.02H69.7296C70.1636 13.02 70.6396 13.314 70.6396 14C70.6396 14.826 70.0096 14.938 69.7296 14.938H67.6576ZM67.6576 19.18V16.758H69.8416C70.4296 16.758 71.0036 17.15 71.0036 17.948C71.0036 18.998 70.1916 19.18 69.8416 19.18H67.6576ZM75.0233 17.682C75.1213 19.628 76.6053 21.21 78.6213 21.21C80.9873 21.21 82.2473 19.656 82.2473 17.528V11.2H76.8713V13.02H80.3573V17.612C80.3573 18.62 79.8393 19.39 78.6213 19.39C77.3893 19.39 76.9273 18.466 76.8293 17.388L75.0233 17.682ZM85.8889 21H92.0909V19.18H87.7789V16.758H91.6989V14.938H87.7789V13.02H92.0909V11.2H85.8889V21ZM100.493 17.388C100.395 18.466 99.9606 19.39 98.7426 19.39C97.5246 19.39 96.9926 18.634 96.9926 15.946C96.9926 13.622 97.5246 12.81 98.7426 12.81C99.9606 12.81 100.395 13.734 100.493 14.812L102.257 14.518C102.145 12.572 100.759 10.99 98.7426 10.99C96.5726 10.99 95.1026 12.572 95.1026 15.946C95.1026 19.698 96.5726 21.21 98.7426 21.21C100.759 21.21 102.145 19.628 102.257 17.682L100.493 17.388ZM107.41 21H109.3V13.02H112.17V11.2H104.54V13.02H107.41V21ZM115.014 21H121.286V19.18H119.102V13.02H121.286V11.2H115.014V13.02H117.212V19.18H115.014V21ZM127.125 21H128.833L131.913 11.2H129.953L127.993 17.948L125.977 11.2H124.003L127.125 21Z" fill="white"/>
<path fill-rule="evenodd" clip-rule="evenodd" d="M0.151422 15.4369C-0.0504739 15.7851 -0.0504739 16.2149 0.151422 16.5631L8.77588 31.4403C8.97671 31.7867 9.34684 32 9.74727 32L35.6206 32C36.0211 32 36.3912 31.7867 36.592 31.4403L45.2165 16.5631C45.4184 16.2149 45.4184 15.7851 45.2165 15.4369L36.592 0.559685C36.3912 0.213256 36.0211 0 35.6206 0L9.74727 0C9.34684 0 8.97671 0.213256 8.77588 0.559685L0.151422 15.4369ZM3.07154 14.8772L10.3942 2.24561L25.0474 2.24561L22.037 7.4386L14.0595 7.4386C13.6591 7.4386 13.2889 7.65185 13.0881 7.99828L9.10034 14.8772L3.07154 14.8772ZM3.07154 17.1228H9.10034L16.423 29.7544H10.3942L3.07154 17.1228ZM18.3717 28.6384L11.0451 16L14.0595 10.8002L21.3861 23.4386L18.3717 28.6384ZM23.3309 22.3158L16.0082 9.68421H22.037L29.3597 22.3158L23.3309 22.3158ZM31.3084 21.1998L23.9818 8.5614L26.9962 3.36157L34.3228 16L31.3084 21.1998ZM36.2676 14.8772L28.9449 2.24561L34.9737 2.24561L42.2964 14.8772H36.2676ZM42.2964 17.1228L34.9737 29.7544L20.3205 29.7544L23.3309 24.5614L31.3084 24.5614C31.7088 24.5614 32.079 24.3481 32.2798 24.0017L36.2676 17.1228H42.2964Z" fill="white"/>
</svg>
