<svg width="488" height="366" viewBox="0 0 488 366" fill="none" xmlns="http://www.w3.org/2000/svg">
<path d="M334.188 129.087H147.812V109.389C147.812 105.204 151.204 101.812 155.389 101.812H326.611C330.796 101.812 334.188 105.204 334.188 109.389V129.087Z" fill="#9DC6FB"/>
<path d="M326.61 101.812H315.246C319.43 101.812 322.822 105.204 322.822 109.389V129.087H334.187V109.389C334.187 105.204 330.795 101.812 326.61 101.812Z" fill="#80B4FB"/>
<path d="M326.611 264.1H155.389C151.204 264.1 147.812 260.709 147.812 256.524V129H334.188V256.524C334.188 260.709 330.796 264.1 326.611 264.1Z" fill="#F4FBFF"/>
<path d="M322.822 129.087V256.611C322.822 260.796 319.43 264.187 315.246 264.187H326.61C330.795 264.187 334.187 260.796 334.187 256.611V129.087H322.822Z" fill="#E4F6FF"/>
<path d="M310.702 110.903C308.191 110.903 306.156 112.938 306.156 115.449C306.156 117.96 308.191 119.995 310.702 119.995C313.213 119.995 315.248 117.96 315.248 115.449C315.248 112.938 313.213 110.903 310.702 110.903Z" fill="black"/>
<path d="M295.55 110.903C293.039 110.903 291.004 112.938 291.004 115.449C291.004 117.96 293.039 119.995 295.55 119.995C298.06 119.995 300.095 117.96 300.095 115.449C300.095 112.938 298.06 110.903 295.55 110.903Z" fill="black"/>
<path d="M280.397 119.995C282.908 119.995 284.943 117.96 284.943 115.449C284.943 112.939 282.908 110.903 280.397 110.903C277.887 110.903 275.852 112.939 275.852 115.449C275.852 117.96 277.887 119.995 280.397 119.995Z" fill="black"/>
<path d="M326.611 99H155.389C149.66 99 145 103.66 145 109.389V213.322C145 214.876 146.259 216.135 147.812 216.135C149.366 216.135 150.625 214.876 150.625 213.322V131.9H331.375V155.591C331.375 157.145 332.634 158.404 334.188 158.404C335.741 158.404 337 157.145 337 155.591V109.389C337 103.66 332.339 99 326.611 99ZM150.625 109.389C150.625 106.762 152.762 104.625 155.389 104.625H326.611C329.238 104.625 331.375 106.762 331.375 109.389V126.275H150.625V109.389Z" fill="black"/>
<path d="M334.188 165.903C332.634 165.903 331.375 167.163 331.375 168.716V256.612C331.375 259.238 329.239 261.375 326.612 261.375H155.388C152.761 261.375 150.625 259.238 150.625 256.612V226.072C150.625 224.519 149.366 223.26 147.812 223.26C146.259 223.26 145 224.519 145 226.072V256.612C145 262.34 149.66 267 155.388 267H326.612C332.34 267 337 262.34 337 256.612V168.716C337 167.163 335.741 165.903 334.188 165.903Z" fill="black"/>
<path d="M243.512 160.125H230.269C225.584 160.125 221.785 163.923 221.785 168.609V181.591H211.984C207.299 181.591 203.5 185.389 203.5 190.075V204.112C203.5 208.798 207.299 212.596 211.984 212.596H221.129C222.369 212.596 223.375 211.591 223.375 210.35V203.258C223.375 197.878 227.736 193.516 233.117 193.516H248.419C250.394 193.516 251.996 191.915 251.996 189.94V168.61C251.996 163.923 248.198 160.125 243.512 160.125Z" fill="#5290DB"/>
<path d="M269.746 180.796H260.601C259.361 180.796 258.355 181.802 258.355 183.042V190.134C258.355 195.515 253.994 199.876 248.613 199.876H233.311C231.336 199.876 229.734 201.477 229.734 203.453V224.783C229.734 229.468 233.533 233.267 238.218 233.267H251.461C256.146 233.267 259.945 229.469 259.945 224.783V211.801H269.746C274.431 211.801 278.23 208.003 278.23 203.317V189.279C278.23 184.595 274.431 180.796 269.746 180.796Z" fill="#FC8C48"/>
<path d="M232.917 174.435C234.893 174.435 236.495 172.834 236.495 170.858C236.495 168.882 234.893 167.28 232.917 167.28C230.942 167.28 229.34 168.882 229.34 170.858C229.34 172.834 230.942 174.435 232.917 174.435Z" fill="#EDF4FC"/>
<path d="M248.816 226.11C250.792 226.11 252.393 224.508 252.393 222.533C252.393 220.557 250.792 218.955 248.816 218.955C246.84 218.955 245.238 220.557 245.238 222.533C245.238 224.508 246.84 226.11 248.816 226.11Z" fill="#EDF4FC"/>
<path d="M221.129 214.471H211.984C206.272 214.471 201.625 209.824 201.625 204.112V190.074C201.625 184.362 206.272 179.715 211.984 179.715H219.911V168.609C219.911 162.897 224.558 158.25 230.27 158.25H243.513C249.225 158.25 253.872 162.897 253.872 168.609V189.939C253.872 192.945 251.426 195.391 248.421 195.391H233.118C228.78 195.391 225.252 198.92 225.252 203.257V210.35C225.251 212.621 223.401 214.471 221.129 214.471ZM211.984 183.465C208.34 183.465 205.375 186.43 205.375 190.074V204.112C205.375 207.756 208.34 210.721 211.984 210.721H221.129C221.333 210.721 221.5 210.554 221.5 210.35V203.257C221.5 196.852 226.711 191.641 233.117 191.641H248.419C249.357 191.641 250.12 190.877 250.12 189.939V168.609C250.12 164.965 247.155 162 243.511 162H230.268C226.624 162 223.659 164.965 223.659 168.609V181.591C223.659 182.626 222.82 183.466 221.784 183.466H211.984V183.465Z" fill="black"/>
<path d="M236.494 183.465H222.184C221.148 183.465 220.309 182.626 220.309 181.59C220.309 180.554 221.148 179.715 222.184 179.715H236.494C237.529 179.715 238.369 180.554 238.369 181.59C238.369 182.626 237.529 183.465 236.494 183.465Z" fill="black"/>
<path d="M251.461 235.142H238.218C232.506 235.142 227.859 230.495 227.859 224.783V203.453C227.859 200.447 230.305 198.001 233.311 198.001H248.613C252.951 198.001 256.479 194.471 256.479 190.134V183.042C256.479 180.77 258.328 178.921 260.601 178.921H269.745C275.457 178.921 280.104 183.568 280.104 189.28V203.318C280.104 209.03 275.457 213.677 269.745 213.677H261.819V224.783C261.819 230.495 257.172 235.142 251.461 235.142ZM233.311 201.752C232.373 201.752 231.609 202.515 231.609 203.453V224.783C231.609 228.428 234.574 231.392 238.218 231.392H251.461C255.105 231.392 258.07 228.428 258.07 224.783V211.802C258.07 210.766 258.909 209.927 259.945 209.927H269.746C273.39 209.927 276.355 206.962 276.355 203.318V189.28C276.355 185.636 273.39 182.671 269.746 182.671H260.601C260.397 182.671 260.23 182.837 260.23 183.042V190.134C260.23 196.54 255.019 201.751 248.613 201.751H233.311V201.752Z" fill="black"/>
<path d="M259.548 213.676H245.238C244.203 213.676 243.363 212.837 243.363 211.801C243.363 210.765 244.203 209.926 245.238 209.926H259.548C260.584 209.926 261.423 210.765 261.423 211.801C261.423 212.837 260.584 213.676 259.548 213.676Z" fill="black"/>
<path d="M232.917 176.31C229.911 176.31 227.465 173.864 227.465 170.858C227.465 167.851 229.911 165.404 232.917 165.404C235.924 165.404 238.37 167.851 238.37 170.858C238.37 173.864 235.924 176.31 232.917 176.31ZM232.917 169.155C231.979 169.155 231.215 169.919 231.215 170.858C231.215 171.797 231.979 172.561 232.917 172.561C233.856 172.561 234.62 171.797 234.62 170.858C234.62 169.919 233.856 169.155 232.917 169.155Z" fill="black"/>
<path d="M248.816 227.985C245.809 227.985 243.363 225.539 243.363 222.533C243.363 219.526 245.809 217.08 248.816 217.08C251.822 217.08 254.268 219.526 254.268 222.533C254.268 225.539 251.822 227.985 248.816 227.985ZM248.816 220.83C247.878 220.83 247.113 221.594 247.113 222.533C247.113 223.471 247.878 224.235 248.816 224.235C249.754 224.235 250.518 223.471 250.518 222.533C250.518 221.594 249.755 220.83 248.816 220.83Z" fill="black"/>
<path d="M208.079 60.1361L222.235 41.8889L230.959 63.2714L208.079 60.1361ZM266.108 61.8718C258.498 57.5156 241.961 51.816 225.15 55.2946L224.339 51.3775C242.379 47.6448 259.916 53.7182 268.095 58.4004L266.108 61.8718Z" fill="black"/>
<path d="M277.1 302.219L262.945 320.467L254.22 299.084L277.1 302.219ZM219.072 300.484C226.682 304.84 243.218 310.539 260.03 307.061L260.84 310.978C242.8 314.711 225.264 308.637 217.085 303.955L219.072 300.484Z" fill="black"/>
<g clip-path="url(#clip0_641:1409)">
<path d="M417.245 298.124H330.58C327.885 298.124 325.699 295.938 325.699 293.242V178.756C325.699 176.06 327.885 173.875 330.58 173.875H404.588L422.127 191.287V293.242C422.127 295.938 419.941 298.124 417.245 298.124Z" fill="#B3DAFE"/>
<path d="M405.84 182.351L414.843 191.288V293.244C414.843 295.94 412.657 298.125 409.962 298.125H417.244C419.94 298.125 422.126 295.94 422.126 293.244V191.288L410.111 179.36L405.84 182.351Z" fill="#8AC9FE"/>
<path d="M404.584 173.875L422.117 191.287L409.762 192.829C405.868 193.315 402.559 190.003 403.048 186.11L404.584 173.875Z" fill="#7BACDF"/>
<path d="M398.724 256.06C382.16 256.06 318.324 256.06 301.762 256.06C301.762 256.06 298.17 264.061 297.875 264.061V279.186L301.762 287.187H398.724L402.61 279.186V264.061C402.314 264.06 398.724 256.06 398.724 256.06Z" fill="#D5E3F4"/>
<path d="M398.726 256.06C397.263 256.06 395.431 256.06 393.297 256.06C393.297 256.06 396.887 264.061 397.183 264.061V279.186L393.297 287.187H398.726L402.612 279.186V264.061C402.316 264.06 398.726 256.06 398.726 256.06Z" fill="#B3CEEC"/>
<path d="M356.059 191.789H341.431C340.598 191.789 339.922 191.114 339.922 190.28V186.528C339.922 185.694 340.598 185.019 341.431 185.019H356.059C356.893 185.019 357.569 185.694 357.569 186.528V190.28C357.569 191.114 356.893 191.789 356.059 191.789Z" fill="#D5E3F4"/>
<path d="M356.059 198.561H341.431C340.598 198.561 339.922 197.885 339.922 197.051V193.299C339.922 192.466 340.598 191.79 341.431 191.79H356.059C356.893 191.79 357.569 192.466 357.569 193.299V197.051C357.569 197.885 356.893 198.561 356.059 198.561Z" fill="#B3CEEC"/>
<path d="M356.059 205.33H341.431C340.598 205.33 339.922 204.654 339.922 203.821V200.069C339.922 199.235 340.598 198.56 341.431 198.56H356.059C356.893 198.56 357.569 199.235 357.569 200.069V203.821C357.569 204.654 356.893 205.33 356.059 205.33Z" fill="#D5E3F4"/>
<path d="M422.125 283.193C421.089 283.193 420.25 284.032 420.25 285.068V293.242C420.25 294.9 418.901 296.249 417.244 296.249H330.578C328.921 296.249 327.572 294.9 327.572 293.242V289.061H398.724C399.442 289.061 400.097 288.651 400.41 288.006L404.297 280.005C404.421 279.749 404.486 279.469 404.486 279.185V264.06C404.486 263.566 404.294 263.117 403.982 262.782C403.5 261.965 401.809 258.354 400.435 255.292C400.132 254.618 399.463 254.184 398.724 254.184H371.355C370.32 254.184 369.48 255.023 369.48 256.059C369.48 257.095 370.32 257.934 371.355 257.934H397.514C397.865 258.705 398.357 259.783 398.857 260.853C399.408 262.032 399.861 262.974 400.204 263.654C400.389 264.02 400.56 264.358 400.736 264.656V278.754L397.551 285.311H302.935L299.75 278.754V264.655C299.927 264.358 300.097 264.02 300.281 263.654C300.624 262.974 301.077 262.032 301.628 260.853C302.128 259.783 302.621 258.705 302.972 257.934H364.106C365.142 257.934 365.981 257.095 365.981 256.059C365.981 255.023 365.142 254.184 364.106 254.184H327.573V178.756C327.573 177.098 328.921 175.75 330.579 175.75H339.69C340.726 175.75 341.565 174.911 341.565 173.875C341.565 172.839 340.726 172 339.69 172H330.579C326.854 172 323.823 175.031 323.823 178.756V254.184H301.761C301.023 254.184 300.353 254.618 300.051 255.292C298.676 258.355 296.984 261.967 296.502 262.783C296.191 263.118 296 263.567 296 264.06V279.186C296 279.469 296.065 279.75 296.189 280.005L300.075 288.006C300.389 288.652 301.044 289.062 301.761 289.062H323.822V293.243C323.822 296.968 326.853 299.999 330.578 299.999H417.244C420.969 299.999 424 296.968 424 293.243V285.068C424 284.032 423.161 283.193 422.125 283.193ZM297.785 262.187C297.801 262.187 297.816 262.186 297.832 262.186C297.816 262.186 297.801 262.187 297.785 262.187Z" fill="black"/>
<path d="M423.447 189.957L405.908 172.544C405.557 172.196 405.082 172 404.587 172H346.941C345.906 172 345.066 172.839 345.066 173.875C345.066 174.911 345.906 175.75 346.941 175.75H402.462L401.191 185.876C400.885 188.31 401.704 190.701 403.438 192.437C404.935 193.934 406.921 194.751 409.002 194.751C409.331 194.751 409.664 194.731 409.997 194.689L420.251 193.41V277.818C420.251 278.854 421.09 279.693 422.126 279.693C423.162 279.693 424.001 278.854 424.001 277.818V191.287C424.001 190.787 423.801 190.309 423.447 189.957ZM409.532 190.968C408.254 191.127 407 190.697 406.09 189.786C405.181 188.875 404.751 187.621 404.911 186.344L405.972 177.892L418.07 189.903L409.532 190.968Z" fill="black"/>
<path d="M335.926 218.207H345.375C346.411 218.207 347.25 217.368 347.25 216.332C347.25 215.296 346.411 214.457 345.375 214.457H335.926C334.89 214.457 334.051 215.296 334.051 216.332C334.051 217.368 334.89 218.207 335.926 218.207Z" fill="black"/>
<path d="M365.883 214.457H351.434C350.398 214.457 349.559 215.296 349.559 216.332C349.559 217.368 350.398 218.207 351.434 218.207H365.883C366.919 218.207 367.758 217.368 367.758 216.332C367.758 215.296 366.919 214.457 365.883 214.457Z" fill="black"/>
<path d="M398.891 214.457H371.941C370.906 214.457 370.066 215.296 370.066 216.332C370.066 217.368 370.906 218.207 371.941 218.207H398.891C399.927 218.207 400.766 217.368 400.766 216.332C400.766 215.296 399.926 214.457 398.891 214.457Z" fill="black"/>
<path d="M411.895 214.457H404.945C403.91 214.457 403.07 215.296 403.07 216.332C403.07 217.368 403.91 218.207 404.945 218.207H411.895C412.931 218.207 413.77 217.368 413.77 216.332C413.77 215.296 412.931 214.457 411.895 214.457Z" fill="black"/>
<path d="M335.926 227.07H357.875C358.911 227.07 359.75 226.231 359.75 225.195C359.75 224.16 358.911 223.32 357.875 223.32H335.926C334.89 223.32 334.051 224.16 334.051 225.195C334.051 226.231 334.89 227.07 335.926 227.07Z" fill="black"/>
<path d="M362.059 225.195C362.059 226.231 362.898 227.07 363.934 227.07H370.883C371.919 227.07 372.758 226.231 372.758 225.195C372.758 224.16 371.919 223.32 370.883 223.32H363.934C362.898 223.32 362.059 224.16 362.059 225.195Z" fill="black"/>
<path d="M401.391 223.32H376.941C375.906 223.32 375.066 224.16 375.066 225.195C375.066 226.231 375.906 227.07 376.941 227.07H401.391C402.427 227.07 403.266 226.231 403.266 225.195C403.266 224.16 402.426 223.32 401.391 223.32Z" fill="black"/>
<path d="M411.895 223.32H407.445C406.41 223.32 405.57 224.16 405.57 225.195C405.57 226.231 406.41 227.07 407.445 227.07H411.895C412.931 227.07 413.77 226.231 413.77 225.195C413.77 224.16 412.931 223.32 411.895 223.32Z" fill="black"/>
<path d="M335.926 235.932H347.875C348.911 235.932 349.75 235.092 349.75 234.057C349.75 233.021 348.911 232.182 347.875 232.182H335.926C334.89 232.182 334.051 233.021 334.051 234.057C334.051 235.092 334.89 235.932 335.926 235.932Z" fill="black"/>
<path d="M377.758 234.057C377.758 233.021 376.919 232.182 375.883 232.182H353.934C352.898 232.182 352.059 233.021 352.059 234.057C352.059 235.092 352.898 235.932 353.934 235.932H375.883C376.919 235.932 377.758 235.092 377.758 234.057Z" fill="black"/>
<path d="M395.766 234.057C395.766 233.021 394.927 232.182 393.891 232.182H381.941C380.906 232.182 380.066 233.021 380.066 234.057C380.066 235.092 380.906 235.932 381.941 235.932H393.891C394.926 235.932 395.766 235.092 395.766 234.057Z" fill="black"/>
<path d="M411.895 232.182H399.945C398.91 232.182 398.07 233.021 398.07 234.057C398.07 235.092 398.91 235.932 399.945 235.932H411.895C412.931 235.932 413.77 235.092 413.77 234.057C413.77 233.021 412.931 232.182 411.895 232.182Z" fill="black"/>
<path d="M335.926 244.794H362.875C363.911 244.794 364.75 243.955 364.75 242.919C364.75 241.883 363.911 241.044 362.875 241.044H335.926C334.89 241.044 334.051 241.883 334.051 242.919C334.051 243.955 334.89 244.794 335.926 244.794Z" fill="black"/>
<path d="M380.258 242.919C380.258 241.883 379.419 241.044 378.383 241.044H368.934C367.898 241.044 367.059 241.883 367.059 242.919C367.059 243.955 367.898 244.794 368.934 244.794H378.383C379.419 244.794 380.258 243.955 380.258 242.919Z" fill="black"/>
<path d="M384.441 241.044C383.406 241.044 382.566 241.883 382.566 242.919C382.566 243.955 383.406 244.794 384.441 244.794H391.391C392.427 244.794 393.266 243.955 393.266 242.919C393.266 241.883 392.427 241.044 391.391 241.044H384.441Z" fill="black"/>
<path d="M397.445 244.794H411.895C412.931 244.794 413.77 243.955 413.77 242.919C413.77 241.883 412.931 241.044 411.895 241.044H397.445C396.41 241.044 395.57 241.883 395.57 242.919C395.57 243.955 396.41 244.794 397.445 244.794Z" fill="black"/>
<path d="M314.324 269.748C313.289 269.748 312.449 270.587 312.449 271.623C312.449 272.659 313.289 273.498 314.324 273.498H317.306C318.342 273.498 319.181 272.659 319.181 271.623C319.181 270.587 318.342 269.748 317.306 269.748H314.324Z" fill="black"/>
<path d="M386.162 273.498C387.198 273.498 388.037 272.659 388.037 271.623C388.037 270.587 387.198 269.748 386.162 269.748H383.18C382.144 269.748 381.305 270.587 381.305 271.623C381.305 272.659 382.144 273.498 383.18 273.498H386.162Z" fill="black"/>
<path d="M367.73 262.046C366.695 262.046 365.855 262.885 365.855 263.921V279.311C365.855 280.224 366.513 281.004 367.412 281.159C367.548 281.183 367.652 281.201 369.353 281.201C370.177 281.201 371.376 281.196 373.135 281.186C374.171 281.181 375.005 280.336 374.999 279.301C374.994 278.269 374.155 277.436 373.125 277.436H373.114C371.906 277.443 370.612 277.448 369.606 277.449V263.921C369.605 262.885 368.766 262.046 367.73 262.046Z" fill="black"/>
<path d="M332.727 277.451C331.182 277.451 329.695 276.828 328.749 275.783C328.054 275.016 326.868 274.958 326.1 275.653C325.333 276.348 325.275 277.534 325.97 278.302C327.615 280.117 330.141 281.201 332.727 281.201C335.949 281.201 338.654 279.147 339.159 276.317C339.539 274.19 338.571 271.409 334.714 269.987C332.813 269.286 331.045 268.522 330.511 268.288C330.066 267.935 330.081 267.441 330.11 267.235C330.151 266.954 330.355 266.266 331.371 265.96C333.569 265.298 335.602 266.905 335.656 266.949C336.449 267.607 337.625 267.502 338.289 266.713C338.955 265.92 338.852 264.737 338.06 264.071C337.915 263.949 334.471 261.11 330.289 262.369C328.181 263.004 326.691 264.665 326.398 266.702C326.124 268.613 326.952 270.451 328.56 271.499C329.055 271.824 332.59 273.2 333.416 273.505C334.103 273.759 335.679 274.476 335.468 275.658C335.31 276.539 334.242 277.451 332.727 277.451Z" fill="black"/>
<path d="M351.448 262.046C346.167 262.046 341.871 266.342 341.871 271.623C341.871 276.903 346.167 281.199 351.448 281.199C353.443 281.199 355.298 280.586 356.833 279.538L357.883 280.588C358.616 281.32 359.803 281.32 360.535 280.588C361.267 279.856 361.267 278.669 360.535 277.936L359.461 276.862C360.449 275.356 361.025 273.555 361.025 271.623C361.025 266.342 356.728 262.046 351.448 262.046ZM351.448 277.449C348.235 277.449 345.621 274.835 345.621 271.622C345.621 268.409 348.235 265.796 351.448 265.796C354.661 265.796 357.275 268.409 357.275 271.622C357.275 272.514 357.073 273.359 356.714 274.115L355.607 273.008C354.875 272.276 353.688 272.276 352.956 273.008C352.223 273.741 352.223 274.928 352.956 275.66L354.103 276.808C353.307 277.218 352.404 277.449 351.448 277.449Z" fill="black"/>
<path d="M356.059 183.144H341.431C339.565 183.144 338.047 184.662 338.047 186.528V190.28C338.047 190.822 338.175 191.335 338.402 191.789C338.175 192.244 338.047 192.757 338.047 193.299V197.051C338.047 197.593 338.175 198.105 338.402 198.56C338.175 199.015 338.047 199.527 338.047 200.07V203.822C338.047 205.688 339.565 207.206 341.431 207.206H356.059C357.925 207.206 359.444 205.688 359.444 203.822V200.07C359.444 199.528 359.316 199.015 359.088 198.56C359.316 198.105 359.444 197.593 359.444 197.051V193.299C359.444 192.757 359.316 192.244 359.088 191.789C359.316 191.335 359.444 190.822 359.444 190.28V186.528C359.444 184.662 357.926 183.144 356.059 183.144ZM341.797 193.664H355.694V196.685H341.797V193.664ZM341.797 186.894H355.694V189.914H341.797V186.894ZM355.694 203.456H341.797V200.435H355.694V203.456Z" fill="black"/>
</g>
<path d="M190.109 94.149C190.109 106.186 180.351 115.943 168.314 115.943C156.277 115.943 146.52 106.186 146.52 94.149C146.52 82.1122 156.277 72.3545 168.314 72.3545C183.318 72.3542 190.109 84.2045 190.109 94.149Z" fill="#64696D"/>
<path d="M168.316 72.3535C166.12 72.3535 164 72.6798 162.001 73.2838C172.244 76.2628 176.955 85.8658 176.955 94.148C176.955 103.892 170.56 112.142 161.738 114.932C163.814 115.588 166.023 115.943 168.316 115.943C180.353 115.943 190.11 106.185 190.11 94.1483C190.11 84.2038 183.32 72.3535 168.316 72.3535Z" fill="#5A6063"/>
<path d="M168.315 105.593C162.005 105.593 156.871 100.459 156.871 94.1484C156.871 87.8379 162.005 82.7041 168.315 82.7041C174.626 82.7041 179.76 87.8379 179.76 94.1484C179.76 100.459 174.626 105.593 168.315 105.593Z" fill="#9C9DA0"/>
<path d="M175 84.8662C176.317 87.8755 176.957 91.1005 176.957 94.148C176.957 97.516 176.192 100.705 174.828 103.552C177.807 101.484 179.762 98.041 179.762 94.148C179.762 90.3307 177.881 86.9465 175 84.8662Z" fill="#8F9093"/>
<path d="M109.48 94.149C109.48 106.186 99.7219 115.943 87.6851 115.943C75.6484 115.943 65.8906 106.186 65.8906 94.149C65.8906 82.1122 75.6484 72.3545 87.6851 72.3545C102.689 72.3542 109.48 84.2045 109.48 94.149Z" fill="#64696D"/>
<path d="M87.6864 105.593C81.3762 105.593 76.2422 100.459 76.2422 94.1484C76.2422 87.8379 81.3762 82.7041 87.6864 82.7041C93.9967 82.7041 99.1307 87.8379 99.1307 94.1484C99.1307 100.459 93.9967 105.593 87.6864 105.593Z" fill="#9C9DA0"/>
<path d="M187.023 134.7C187.023 159.786 160.597 173.646 127.998 173.646C95.3992 173.646 68.9727 159.786 68.9727 134.7C68.9727 109.614 95.3992 77.7158 127.998 77.7158C160.597 77.7158 187.023 109.614 187.023 134.7Z" fill="#FAF9F3"/>
<path d="M128 77.7158C125.742 77.7158 123.516 77.8741 121.324 78.1673C150.779 82.1068 173.673 111.352 173.673 134.7C173.673 158.048 150.779 171.67 121.324 173.445C123.516 173.577 125.742 173.646 128 173.646C160.599 173.646 187.025 159.786 187.025 134.7C187.025 109.614 160.599 77.7158 128 77.7158Z" fill="#EDEDED"/>
<path d="M113 109.216C103.209 102.749 91.3291 115.244 86.2854 122.879C82.1519 129.137 83.8739 137.56 90.1314 141.693C96.3889 145.827 104.812 144.105 108.946 137.847C113.989 130.212 122.79 115.683 113 109.216Z" fill="#64696D"/>
<path d="M143 109.216C152.791 102.749 164.671 115.244 169.715 122.879C173.848 129.137 172.126 137.56 165.869 141.693C159.611 145.827 151.188 144.105 147.054 137.847C142.011 130.212 133.21 115.683 143 109.216Z" fill="#64696D"/>
<path d="M104.449 130.486C100.542 130.486 97.3633 127.307 97.3633 123.401C97.3633 119.494 100.542 116.315 104.449 116.315C108.355 116.315 111.534 119.494 111.534 123.401C111.534 127.307 108.355 130.486 104.449 130.486Z" fill="#E6E6E6"/>
<path d="M104.447 126.997C102.465 126.997 100.852 125.384 100.852 123.401C100.852 121.419 102.465 119.806 104.447 119.806C106.43 119.806 108.043 121.419 108.043 123.401C108.043 125.384 106.43 126.997 104.447 126.997Z" fill="#4D4D4D"/>
<path d="M151.554 130.486C147.647 130.486 144.469 127.307 144.469 123.401C144.469 119.494 147.647 116.315 151.554 116.315C155.461 116.315 158.639 119.494 158.639 123.401C158.639 127.307 155.461 130.486 151.554 130.486Z" fill="#E6E6E6"/>
<path d="M139.083 146.032C139.083 149.421 130.936 154.938 128.001 154.938C125.054 154.938 116.918 149.421 116.918 146.032C116.918 142.644 139.083 142.644 139.083 146.032Z" fill="#9C9DA0"/>
<path d="M151.564 126.997C149.582 126.997 147.969 125.384 147.969 123.401C147.969 121.419 149.582 119.806 151.564 119.806C153.547 119.806 155.16 121.419 155.16 123.401C155.16 125.384 153.547 126.997 151.564 126.997Z" fill="#4D4D4D"/>
<path d="M121.796 163.25C121.941 163.25 122.086 163.247 122.232 163.241L125.212 163.126C126.267 163.085 127.226 162.711 128 162.113C128.774 162.711 129.734 163.085 130.788 163.126L133.769 163.241C133.915 163.247 134.06 163.25 134.205 163.25C137.85 163.25 141.221 161.476 143.289 158.447C143.877 157.585 143.655 156.409 142.793 155.821C141.931 155.232 140.755 155.454 140.167 156.316C138.755 158.384 136.42 159.558 133.915 159.465L130.935 159.349C130.349 159.326 129.89 158.849 129.89 158.263V156.497C131.841 155.89 134.071 154.548 135.777 153.269C140.298 149.878 140.973 147.28 140.973 146.034C140.973 143.29 137.228 142.527 135.997 142.276C133.867 141.842 131.027 141.603 128 141.603C124.974 141.603 122.134 141.842 120.004 142.276C118.773 142.527 115.028 143.29 115.028 146.034C115.028 147.28 115.702 149.878 120.22 153.269C121.925 154.548 124.157 155.892 126.11 156.498V158.263C126.11 158.85 125.651 159.326 125.066 159.349L122.086 159.465C119.576 159.558 117.245 158.384 115.834 156.316C115.245 155.454 114.07 155.232 113.207 155.821C112.345 156.409 112.124 157.585 112.712 158.447C114.78 161.476 118.15 163.25 121.796 163.25ZM122.488 150.246C120.343 148.636 119.274 147.265 118.933 146.494C120.08 145.985 123.286 145.382 128 145.382C132.714 145.382 135.919 145.985 137.067 146.494C136.725 147.264 135.655 148.635 133.508 150.245C130.958 152.158 128.714 153.05 128 153.05C127.284 153.049 125.037 152.158 122.488 150.246Z" fill="black"/>
<path d="M187.039 136.358C186.003 136.25 185.072 137.005 184.964 138.043C183.9 148.287 177.769 156.872 167.235 162.868C157.163 168.6 143.229 171.757 128 171.757C112.771 171.757 98.8379 168.6 88.7661 162.869C78.2314 156.873 72.1001 148.29 71.0351 138.046C70.9271 137.008 70.0009 136.253 68.9601 136.362C67.9219 136.47 67.1681 137.399 67.2759 138.437C68.4724 149.945 75.2571 159.529 86.8969 166.154C97.6829 172.292 111.896 175.537 128 175.537C144.104 175.537 158.318 172.292 169.104 166.153C180.744 159.528 187.529 149.943 188.724 138.433C188.831 137.395 188.077 136.466 187.039 136.358Z" fill="black"/>
<path d="M114.042 107.639C109.091 104.369 103.13 104.907 96.8031 109.195C90.5161 113.456 85.9568 119.949 84.7093 121.838C80.0083 128.955 81.9739 138.57 89.0906 143.271C91.7096 145.001 94.6663 145.828 97.5926 145.828C102.618 145.828 107.552 143.388 110.523 138.89C113.305 134.679 116.708 129.14 118.348 123.633C119.841 118.62 120.306 111.777 114.042 107.639ZM107.37 136.806C105.125 140.205 101.397 142.05 97.5986 142.049C95.3878 142.049 93.1526 141.424 91.1741 140.117C85.7963 136.564 84.3111 129.299 87.8634 123.921C89.0139 122.179 93.2123 116.195 98.9241 112.324C101.882 110.319 104.616 109.316 107.104 109.316C108.846 109.316 110.468 109.808 111.959 110.793C119.818 115.984 113.104 128.125 107.37 136.806Z" fill="black"/>
<path d="M158.409 145.827C161.335 145.827 164.293 144.999 166.911 143.27C174.028 138.569 175.993 128.954 171.292 121.837C170.045 119.948 165.486 113.455 159.199 109.194C152.872 104.906 146.911 104.368 141.959 107.638C135.696 111.776 136.161 118.62 137.654 123.632C139.294 129.138 142.697 134.678 145.478 138.888C148.45 143.387 153.383 145.827 158.409 145.827ZM144.043 110.792C145.597 109.766 147.234 109.32 148.9 109.32C156.342 109.32 164.364 118.206 168.138 123.92C171.691 129.298 170.206 136.564 164.828 140.116C159.45 143.668 152.185 142.183 148.632 136.805C142.898 128.125 136.184 115.984 144.043 110.792Z" fill="black"/>
<path d="M72.8085 112.569C70.065 118.063 68.2168 123.729 67.4695 129.194C67.328 130.228 68.0518 131.181 69.0858 131.322C69.1727 131.334 69.259 131.34 69.3443 131.34C70.2743 131.34 71.0848 130.653 71.214 129.706C72.498 120.316 77.3025 110.252 84.4263 101.692C84.4778 101.63 84.529 101.568 84.5807 101.507C84.7645 101.288 84.9505 101.07 85.1373 100.853C85.2993 100.665 85.4615 100.478 85.6255 100.292C85.7162 100.189 85.8073 100.086 85.8985 99.9839C89.563 95.8806 93.7298 92.2141 98.158 89.2181C98.1772 89.2051 98.1947 89.1901 98.2132 89.1766C98.48 88.9969 98.7472 88.8186 99.0163 88.6434C99.0828 88.5999 99.1493 88.5569 99.216 88.5136C99.535 88.3074 99.8553 88.1039 100.177 87.9041C100.211 87.8831 100.245 87.8621 100.279 87.8414C100.624 87.6281 100.971 87.4184 101.319 87.2126C101.337 87.2019 101.355 87.1911 101.374 87.1804C101.73 86.9701 102.089 86.7639 102.449 86.5616C102.469 86.5504 102.489 86.5394 102.509 86.5281C102.862 86.3304 103.216 86.1364 103.572 85.9464C103.612 85.9251 103.653 85.9041 103.693 85.8831C104.026 85.7061 104.361 85.5324 104.696 85.3624C104.774 85.3231 104.852 85.2846 104.93 85.2459C105.227 85.0974 105.524 84.9509 105.822 84.8079C105.959 84.7426 106.096 84.6794 106.232 84.6154C106.473 84.5024 106.714 84.3896 106.956 84.2801C113.736 81.2176 120.871 79.6066 128 79.6066C135.135 79.6066 142.279 81.2209 149.065 84.2896C149.068 84.2909 149.07 84.2924 149.073 84.2936C152.094 85.6634 155.026 87.3164 157.83 89.2106C157.834 89.2134 157.838 89.2164 157.841 89.2191C162.269 92.2146 166.435 95.8806 170.1 99.9831C170.191 100.086 170.283 100.19 170.374 100.293C170.537 100.478 170.699 100.665 170.86 100.851C171.047 101.069 171.234 101.287 171.418 101.506C171.468 101.567 171.519 101.627 171.569 101.688C178.694 110.248 183.499 120.311 184.785 129.7C184.926 130.734 185.881 131.458 186.913 131.316C187.947 131.175 188.671 130.221 188.529 129.187C187.781 123.725 185.933 118.062 183.191 112.57C188.734 108.087 192 101.318 192 94.1484C192 88.3544 189.915 82.5771 186.28 78.2984C183.243 74.7244 177.662 70.4639 168.316 70.4639C160.669 70.4639 153.628 74.0791 149.171 80.2119C142.333 77.3354 135.169 75.8261 128 75.8261C120.906 75.8261 113.817 77.3054 107.044 80.1236C102.758 73.8801 95.9475 70.4641 87.6842 70.4641C74.6248 70.4639 64 81.0886 64 94.1484C64 101.317 67.2658 108.087 72.8085 112.569ZM166.615 91.2154C166.559 91.1671 166.504 91.1189 166.449 91.0709C166.174 90.8331 165.898 90.5979 165.62 90.3649C165.501 90.2644 165.382 90.1634 165.261 90.0639C165.08 89.9136 164.897 89.7654 164.714 89.6171C163.717 88.8066 162.706 88.0281 161.679 87.2854C163.447 85.5761 165.82 84.5941 168.315 84.5941C173.584 84.5941 177.87 88.8801 177.87 94.1486C177.87 96.5181 177.012 98.7434 175.47 100.476C172.798 97.1214 169.824 94.0134 166.615 91.2154ZM168.315 74.2434C174.569 74.2434 179.785 76.4916 183.399 80.7454C186.463 84.3516 188.22 89.2369 188.22 94.1484C188.22 99.9249 185.698 105.394 181.382 109.156C180.274 107.227 179.067 105.35 177.774 103.533C180.254 101.047 181.65 97.7176 181.65 94.1481C181.65 86.7959 175.668 80.8141 168.316 80.8141C164.567 80.8141 161.021 82.4021 158.511 85.1294C156.608 83.9139 154.663 82.8129 152.685 81.8271C156.446 77.0431 162.147 74.2434 168.315 74.2434ZM92.541 88.6199C92.309 88.7991 92.0772 88.9789 91.8475 89.1614C91.7577 89.2329 91.6683 89.3056 91.5788 89.3779C91.2675 89.6274 90.9582 89.8799 90.651 90.1351C90.6185 90.1621 90.5863 90.1891 90.554 90.2164C86.8968 93.2664 83.523 96.7154 80.5287 100.474C78.9877 98.7424 78.13 96.5176 78.13 94.1484C78.13 88.8801 82.4163 84.5939 87.6845 84.5939C90.1798 84.5939 92.5532 85.5759 94.3207 87.2851C93.7225 87.7181 93.1295 88.1639 92.541 88.6199ZM87.6845 74.2434C94.3932 74.2434 99.946 76.8794 103.537 81.7149C103.47 81.7484 103.403 81.7836 103.335 81.8174C103.036 81.9664 102.737 82.1169 102.439 82.2714C102.435 82.2736 102.431 82.2759 102.426 82.2781C100.754 83.1456 99.1065 84.0964 97.4888 85.1296C94.9788 82.4024 91.4328 80.8144 87.6842 80.8144C80.3317 80.8144 74.3503 86.7961 74.3503 94.1484C74.3503 97.7176 75.7458 101.047 78.225 103.533C76.9328 105.35 75.726 107.226 74.6178 109.156C70.3025 105.394 67.7795 99.9246 67.7795 94.1484C67.7795 83.1726 76.7087 74.2434 87.6845 74.2434Z" fill="black"/>
<path d="M104.446 114.437C99.5027 114.437 95.4805 118.459 95.4805 123.403C95.4805 128.347 99.5027 132.369 104.446 132.369C109.39 132.369 113.412 128.347 113.412 123.403C113.412 118.459 109.39 114.437 104.446 114.437ZM104.446 128.589C101.587 128.589 99.2602 126.262 99.2602 123.403C99.2602 120.543 101.587 118.216 104.446 118.216C107.306 118.216 109.633 120.543 109.633 123.403C109.633 126.262 107.306 128.589 104.446 128.589Z" fill="black"/>
<path d="M160.518 123.402C160.518 118.458 156.496 114.436 151.552 114.436C146.608 114.436 142.586 118.458 142.586 123.402C142.586 128.346 146.608 132.368 151.552 132.368C156.496 132.368 160.518 128.346 160.518 123.402ZM146.366 123.402C146.366 120.542 148.692 118.215 151.552 118.215C154.412 118.215 156.738 120.542 156.738 123.402C156.738 126.261 154.412 128.588 151.552 128.588C148.692 128.588 146.366 126.261 146.366 123.402Z" fill="black"/>
<path d="M294.626 63.378C294.338 63.3233 294.023 63.2872 293.68 63.2698C293.34 63.2409 293.004 63.2188 292.673 63.2035C292.436 63.1943 292.206 63.1804 291.983 63.1618C291.771 63.1454 291.578 63.1266 291.403 63.1053C291.275 63.3432 291.151 63.5524 291.033 63.7328C290.916 63.9132 290.793 64.0867 290.666 64.2534C290.537 64.4316 290.412 64.6167 290.292 64.8086C290.186 64.9911 290.076 65.191 289.963 65.4081C289.813 65.5704 289.683 65.7245 289.571 65.8703C289.474 66.0069 289.383 66.1686 289.3 66.3556C289.129 66.502 288.991 66.6665 288.884 66.8491C288.78 67.0201 288.698 67.1715 288.637 67.303L288.528 67.4971C288.446 67.5531 288.395 67.603 288.375 67.6468C288.357 67.6792 288.321 67.7082 288.269 67.734C288.233 67.8585 288.169 67.9774 288.076 68.091C288.042 68.1441 288.013 68.1984 287.991 68.2538C287.971 68.2977 287.958 68.3311 287.954 68.3541C287.932 68.4692 287.889 68.5386 287.825 68.5622C287.825 68.6219 287.813 68.6853 287.789 68.7522C287.766 68.8075 287.744 68.8629 287.721 68.9183C287.661 69.0499 287.628 69.157 287.624 69.2398C287.65 69.2924 287.671 69.3382 287.688 69.3771C287.716 69.4182 287.73 69.4686 287.731 69.5284C287.791 69.5876 287.837 69.6262 287.87 69.6443C287.909 69.6876 287.971 69.741 288.054 69.8046L288.176 70.0068C288.171 70.3516 288.068 70.6066 287.87 70.7716C287.656 70.9575 287.341 71.0111 286.927 70.9323L286.72 70.8929C286.673 70.8244 286.647 70.7717 286.642 70.735C286.557 70.683 286.487 70.64 286.434 70.606C286.381 70.572 286.338 70.5161 286.305 70.4383C286.169 70.3408 286.059 70.2602 285.975 70.1966L285.836 70.0808C285.86 69.9541 285.874 69.885 285.876 69.8735C285.815 69.7546 285.773 69.6274 285.751 69.492C285.741 69.3588 285.736 69.2267 285.737 69.0957C285.734 68.9877 285.724 68.8844 285.707 68.7857C285.701 68.6892 285.682 68.6021 285.649 68.5243C285.753 67.8522 285.924 67.3001 286.161 66.868C286.398 66.436 286.638 66.0223 286.88 65.627C287.016 65.4143 287.152 65.2015 287.288 64.9888C287.426 64.7645 287.553 64.5323 287.671 64.2922L287.859 64.1491C287.974 63.9802 288.066 63.8426 288.134 63.7362C288.216 63.6205 288.297 63.5048 288.379 63.3891C288.429 63.3151 288.472 63.2457 288.508 63.181C288.558 63.107 288.6 63.0434 288.634 62.9902C288.565 62.9771 288.5 62.9708 288.441 62.9714C288.383 62.9604 288.324 62.9552 288.265 62.9558C288.193 62.9542 288.128 62.9537 288.068 62.9542C288.011 62.9433 287.953 62.9323 287.895 62.9214C287.815 62.9061 287.758 62.8894 287.726 62.8713C287.588 62.9048 287.445 62.9073 287.295 62.8788L287.122 62.846C287.088 62.8394 287.053 62.8329 287.019 62.8263C286.998 62.8104 286.976 62.8003 286.953 62.7959C286.838 62.774 286.743 62.7738 286.667 62.7952C286.529 62.7689 286.396 62.7437 286.27 62.7197L286.097 62.6868C286.074 62.6824 286.044 62.6827 286.007 62.6877C285.973 62.6811 285.944 62.6756 285.921 62.6713C285.84 62.6559 285.755 62.6338 285.665 62.6047C285.578 62.5642 285.487 62.5053 285.395 62.428C285.292 62.2176 285.218 62.1022 285.174 62.0819L285.058 61.8452C285.06 61.7739 285.055 61.7073 285.043 61.6453C285.033 61.5719 285.024 61.4927 285.016 61.4077C284.992 61.2838 284.969 61.1542 284.947 61.0188C284.939 60.8741 284.952 60.7096 284.987 60.5254C285.016 60.4355 285.052 60.3708 285.096 60.3313C285.139 60.2919 285.175 60.257 285.205 60.2269L285.306 59.9777L285.527 60.0376L286.011 60.1296C286.379 60.1996 286.755 60.2593 287.14 60.3085C287.526 60.3462 287.924 60.3861 288.334 60.4281C288.568 60.4489 288.803 60.4696 289.038 60.4904C289.284 60.5133 289.536 60.5374 289.793 60.5625C289.859 60.4677 289.924 60.3786 289.987 60.2952L290.176 60.2417C290.386 60.2696 290.524 60.3257 290.592 60.4101C290.673 60.4852 290.737 60.557 290.783 60.6255C291.041 60.6506 291.299 60.6758 291.556 60.7009C291.828 60.7167 292.1 60.7268 292.374 60.7311C292.776 60.7479 293.177 60.7705 293.577 60.7989C293.989 60.8295 294.379 60.8798 294.748 60.9498C294.909 60.9805 295.063 61.0158 295.211 61.0558C295.358 61.0957 295.493 61.1393 295.615 61.1864L295.765 61.3401C295.786 61.4157 295.82 61.4878 295.867 61.5563C295.925 61.627 295.983 61.6977 296.041 61.7684C296.155 61.9213 296.265 62.0972 296.37 62.2962C296.476 62.4951 296.479 62.7583 296.381 63.0856C296.263 63.2062 296.179 63.2737 296.128 63.2879L295.933 63.4656L295.764 63.4155C295.695 63.4024 295.629 63.4018 295.567 63.4139C295.508 63.4145 295.447 63.4208 295.385 63.4329C295.334 63.4472 295.284 63.4614 295.234 63.4757C295.185 63.4784 295.131 63.4801 295.072 63.4807C294.968 63.461 294.882 63.4446 294.812 63.4314C294.757 63.409 294.695 63.3912 294.626 63.378ZM300.23 71.5471C300.123 71.7297 299.982 71.9115 299.804 72.0924C299.64 72.264 299.451 72.4129 299.236 72.5391C299.035 72.6559 298.815 72.7453 298.577 72.8074C298.338 72.8694 298.097 72.8832 297.853 72.8487C297.71 72.7857 297.614 72.7257 297.565 72.6687C297.526 72.6254 297.48 72.581 297.429 72.5356C297.399 72.506 297.368 72.4821 297.336 72.4641C297.317 72.4367 297.297 72.415 297.276 72.3991L297.086 72.2734L297.197 72.062C297.238 71.9743 297.245 71.9041 297.22 71.8515C297.196 71.7874 297.141 71.6994 297.055 71.5876C297.027 71.5465 296.999 71.5054 296.971 71.4643C296.943 71.4232 296.921 71.3832 296.904 71.3443L296.673 70.9603L297.163 70.9281C297.466 70.9023 297.675 70.8348 297.791 70.7256C297.919 70.6187 298 70.4134 298.034 70.1097C297.812 70.0198 297.618 69.9769 297.45 69.9808C297.294 69.9868 297.131 69.9976 296.961 70.013C296.743 70.0312 296.52 70.0425 296.292 70.0469C296.078 70.0421 295.845 70.0156 295.592 69.9674C295.5 69.9499 295.413 69.9335 295.333 69.9181C295.254 69.8913 295.17 69.8634 295.08 69.8344L294.914 69.767C294.915 69.636 294.905 69.5625 294.884 69.5466C294.866 69.5192 294.847 69.4918 294.828 69.4644C294.782 69.3959 294.733 69.309 294.681 69.2038C294.643 69.0892 294.656 68.9604 294.719 68.8173C294.681 68.7028 294.666 68.5926 294.674 68.4868C294.579 68.6118 294.5 68.7459 294.437 68.889L294.335 69.0485L294.156 69.0502C294.13 69.0573 294.108 69.0828 294.087 69.1267C294.069 69.159 294.058 69.1867 294.054 69.2098L293.912 69.4869C293.884 69.5056 293.857 69.5242 293.829 69.5429C293.804 69.55 293.778 69.5629 293.75 69.5815C293.708 69.6808 293.659 69.7789 293.605 69.8759C293.551 69.973 293.498 70.0643 293.446 70.1498C293.36 70.2885 293.279 70.4283 293.205 70.5693C293.144 70.7008 293.106 70.8368 293.091 70.9771L292.986 71.154C292.916 71.2121 292.841 71.2576 292.763 71.2905C292.688 71.3119 292.612 71.3333 292.537 71.3547C292.509 71.3734 292.47 71.3898 292.42 71.4041C292.383 71.4091 292.352 71.4151 292.327 71.4222L292.239 71.6023L292.025 71.5975C291.894 71.5964 291.799 71.5962 291.739 71.5967C291.691 71.5995 291.632 71.5943 291.563 71.5812L291.394 71.5311C291.287 71.4034 291.204 71.3042 291.146 71.2335C291.09 71.1513 291.022 71.0726 290.94 70.9976C290.863 70.8397 290.825 70.7252 290.827 70.6539C290.828 70.5826 290.829 70.5171 290.828 70.4574C290.819 70.3839 290.818 70.3242 290.827 70.2781C290.824 70.2299 290.813 70.1921 290.795 70.1647L290.61 69.9147L290.829 69.7954L290.902 69.5052C291.244 68.9618 291.593 68.4437 291.949 67.9507C292.317 67.46 292.692 66.9588 293.076 66.4473C293.203 66.2806 293.325 66.1128 293.44 65.9439C293.567 65.7772 293.694 65.6105 293.821 65.4438C293.817 65.4071 293.818 65.3657 293.827 65.3197C293.836 65.2736 293.857 65.224 293.891 65.1708C294.055 64.9992 294.192 64.8462 294.301 64.7119C294.412 64.566 294.523 64.4202 294.634 64.2743C294.764 64.0961 294.892 63.9237 295.019 63.757C295.158 63.5925 295.32 63.4266 295.507 63.2593L295.807 63.191C295.843 63.1861 295.886 63.1822 295.934 63.1794C295.984 63.1652 296.038 63.1635 296.096 63.1745L296.348 63.2582C296.699 63.1699 297.021 63.0163 297.313 62.7975C297.607 62.5671 297.917 62.2861 298.243 61.9543L298.461 61.7454L298.659 61.9262C298.71 61.9717 298.784 62.0216 298.881 62.0758C298.981 62.1185 299.085 62.1681 299.193 62.2245C299.392 62.31 299.577 62.399 299.751 62.4916C299.924 62.5842 300.057 62.699 300.15 62.836C300.185 63.0333 300.199 63.1792 300.193 63.2734C300.187 63.3677 300.186 63.4631 300.192 63.5596C300.189 63.7619 300.181 63.9631 300.167 64.1631C300.164 64.3654 300.145 64.5885 300.111 64.8325C300.131 65.0391 300.14 65.2436 300.137 65.4459C300.148 65.6389 300.153 65.8365 300.15 66.0387C300.155 66.326 300.161 66.6075 300.168 66.8832C300.178 67.1474 300.207 67.4034 300.255 67.6512C300.347 67.6687 300.403 67.6854 300.424 67.7013C300.486 67.6892 300.547 67.6829 300.607 67.6823C300.678 67.6839 300.755 67.6867 300.838 67.6905L301.031 67.7093L301.067 67.8951C301.068 67.9549 301.114 68.0234 301.207 68.1007C301.355 68.1406 301.457 68.196 301.516 68.2667C301.576 68.3258 301.629 68.3897 301.676 68.4582C301.713 68.513 301.753 68.5563 301.794 68.5881L302.034 68.7409L301.846 68.9737C301.692 69.159 301.487 69.3288 301.231 69.4829C300.988 69.6277 300.723 69.7382 300.434 69.8145C300.432 69.8858 300.425 69.956 300.412 70.025C300.412 70.0848 300.418 70.1514 300.428 70.2248C300.425 70.4271 300.415 70.6341 300.399 70.8457C300.383 71.0573 300.342 71.2702 300.277 71.4846L300.23 71.5471ZM295.807 67.6107C296.157 67.6533 296.472 67.6894 296.753 67.7189C297.047 67.7391 297.374 67.7475 297.732 67.7441C297.717 67.3834 297.699 67.0101 297.677 66.6242C297.657 66.2268 297.63 65.834 297.597 65.4459L297.46 65.5989C297.184 65.7969 296.908 66.0247 296.632 66.2825C296.368 66.5424 296.136 66.7905 295.936 67.0268C295.847 67.1173 295.759 67.2078 295.67 67.2983C295.581 67.3888 295.498 67.4803 295.421 67.573C295.492 67.5746 295.556 67.5809 295.614 67.5918C295.683 67.605 295.747 67.6113 295.807 67.6107ZM305.689 73.8913C305.347 73.9336 304.976 73.9704 304.576 74.0018C304.177 74.0332 303.787 74.0128 303.407 73.9405C302.831 73.8311 302.404 73.6007 302.125 73.2494C302.091 73.1118 302.056 73.0156 302.019 72.9608C301.993 72.9082 301.967 72.8556 301.941 72.803C301.929 72.741 301.926 72.6629 301.932 72.5686C301.825 72.3812 301.75 72.1762 301.709 71.9537C301.67 71.7196 301.654 71.4899 301.661 71.2646C301.682 71.03 301.72 70.7986 301.775 70.5706C301.842 70.3447 301.924 70.1336 302.021 69.9373C302.053 69.8957 302.073 69.8518 302.082 69.8058C302.102 69.7619 302.123 69.7123 302.146 69.6569C302.227 69.4815 302.307 69.3118 302.386 69.1478C302.476 68.9861 302.58 68.8507 302.696 68.7415C302.669 68.6292 302.691 68.5141 302.761 68.3962C302.831 68.2783 302.905 68.173 302.982 68.0803C303.227 67.6735 303.429 67.3303 303.59 67.0507C303.764 66.7617 303.937 66.4785 304.109 66.2011C304.403 65.7202 304.685 65.243 304.954 64.7692C305.223 64.2955 305.482 63.7782 305.732 63.2174C305.835 63.1773 305.912 63.1502 305.962 63.1359C306.036 63.126 306.097 63.1197 306.145 63.1169C306.332 63.2599 306.555 63.4095 306.811 63.5657C307.07 63.7103 307.291 63.8001 307.476 63.8351C307.557 63.9102 307.606 63.9672 307.622 64.0061C307.641 64.0335 307.659 64.0609 307.678 64.0883C307.776 64.2621 307.856 64.4383 307.917 64.617C307.981 64.7842 307.972 64.9911 307.889 65.2378C307.8 65.3283 307.738 65.3702 307.704 65.3637C307.603 65.583 307.502 65.7667 307.402 65.9147C307.314 66.0649 307.22 66.2141 307.12 66.3621C307.007 66.5195 306.899 66.6779 306.797 66.8375C306.695 66.997 306.597 67.1991 306.503 67.4436C306.446 67.4924 306.402 67.5376 306.37 67.5793C306.35 67.6232 306.323 67.6717 306.289 67.7249C306.255 67.7781 306.214 67.8359 306.166 67.8984C306.132 67.9516 306.082 67.9957 306.016 68.0308C305.924 68.3236 305.821 68.5544 305.705 68.7233C305.601 68.8944 305.491 69.0643 305.376 69.2332C305.174 69.5408 304.984 69.8506 304.805 70.1626C304.638 70.4767 304.503 70.8446 304.399 71.2662C304.461 71.2541 304.515 71.2524 304.561 71.2612C304.618 71.2721 304.67 71.282 304.716 71.2907C304.82 71.3104 304.937 71.3507 305.069 71.4115C305.449 71.293 305.844 71.2547 306.254 71.2968C306.675 71.3411 307.088 71.3958 307.493 71.4609C307.654 71.4915 307.815 71.5222 307.976 71.5528C308.138 71.5835 308.289 71.6004 308.432 71.6036C308.525 71.6809 308.581 71.7275 308.602 71.7434C308.637 71.7499 308.683 71.7587 308.74 71.7696C308.821 71.785 308.889 71.8039 308.944 71.8263C309.058 71.9792 309.173 72.0965 309.289 72.1781C309.405 72.2598 309.527 72.3368 309.657 72.4091C309.774 72.4792 309.885 72.554 309.99 72.6334C310.108 72.7036 310.215 72.7956 310.313 72.9096L310.293 73.6752C310.353 73.7941 310.375 73.8697 310.357 73.9021C310.339 73.9942 310.303 74.0589 310.248 74.0962L310.247 74.2927C310.067 74.2944 309.939 74.3117 309.861 74.3446C309.795 74.3797 309.727 74.4206 309.659 74.4672C309.565 74.4612 309.494 74.4538 309.448 74.4451C309.414 74.4385 309.379 74.4319 309.345 74.4254C309.184 74.3947 308.982 74.3863 308.741 74.4001C308.45 74.2374 308.138 74.1243 307.804 74.0608C307.677 74.0367 307.544 74.0173 307.403 74.0025C307.263 73.9878 307.123 73.973 306.982 73.9583C306.84 73.955 306.693 73.9449 306.541 73.928C306.4 73.9132 306.255 73.8916 306.106 73.8632L305.689 73.8913ZM321.054 76.3654C320.497 76.2834 320.01 76.1788 319.592 76.0518C319.187 75.9269 318.799 75.7399 318.429 75.4905C318.408 75.4747 318.39 75.4415 318.376 75.3911C318.362 75.3406 318.345 75.3017 318.327 75.2743C318.264 75.2267 318.18 75.1987 318.074 75.1905C317.982 75.173 317.904 75.1462 317.839 75.11C317.756 75.0465 317.628 74.9328 317.457 74.7689C317.287 74.5936 317.133 74.433 316.993 74.2872C316.817 74.0866 316.652 73.8882 316.498 73.6921C316.345 73.4959 316.216 73.2925 316.113 73.0821C316.087 73.0294 316.046 72.9977 315.988 72.9867C315.933 72.9643 315.884 72.9371 315.843 72.9054C315.469 73.0491 315.138 73.2545 314.849 73.5216C314.559 73.7886 314.28 74.0636 314.012 74.3466C313.743 74.6295 313.467 74.893 313.182 75.137C312.897 75.3811 312.562 75.544 312.176 75.6258C312.073 75.6061 311.984 75.5713 311.91 75.5215C311.836 75.4716 311.77 75.4113 311.712 75.3406C311.651 75.2814 311.591 75.2222 311.531 75.1631C311.47 75.1039 311.402 75.0551 311.326 75.0168C311.352 74.8786 311.347 74.7465 311.312 74.6204C311.288 74.4966 311.257 74.3773 311.219 74.2628C311.192 74.1504 311.176 74.046 311.171 73.9495C311.168 73.8415 311.209 73.748 311.296 73.6691C311.24 73.5869 311.15 73.4923 311.028 73.3855C311.11 73.3295 311.151 73.2717 311.15 73.2119C311.161 73.1544 311.16 73.0946 311.148 73.0327C311.136 72.9707 311.125 72.903 311.115 72.8296C311.117 72.7583 311.147 72.6925 311.207 72.6322C311.264 72.6432 311.335 72.6448 311.42 72.6371C311.369 72.5319 311.344 72.4735 311.346 72.462C311.362 72.4411 311.356 72.4102 311.328 72.3691C311.318 72.2956 311.338 72.2575 311.386 72.2547C311.436 72.2405 311.487 72.2262 311.537 72.2119C311.69 71.6566 311.888 71.1514 312.129 70.6963C312.371 70.2412 312.627 69.8067 312.896 69.3928C313.166 68.9788 313.431 68.558 313.691 68.1303C313.963 67.7048 314.206 67.2383 314.422 66.7306C314.573 66.628 314.699 66.497 314.801 66.3374C314.915 66.18 315.028 66.0227 315.141 65.8653C315.266 65.7101 315.396 65.5618 315.53 65.4203C315.678 65.2695 315.86 65.1609 316.075 65.0945C316.234 65.1367 316.369 65.2101 316.481 65.3148C316.594 65.4079 316.744 65.4663 316.931 65.4898C316.954 65.5539 316.972 65.6169 316.984 65.6789C317.008 65.743 317.037 65.8082 317.072 65.8745L317.341 65.872C317.448 65.9997 317.532 66.1529 317.594 66.3316C317.669 66.5009 317.707 66.6752 317.709 66.8545C317.711 67.0337 317.673 67.1996 317.596 67.352C317.522 67.4929 317.39 67.593 317.199 67.6522C317.2 67.712 317.191 67.7581 317.173 67.7904C317.169 67.8134 317.159 67.8354 317.143 67.8562C317.127 67.877 317.117 67.899 317.112 67.922C317.108 67.945 317.119 67.9828 317.144 68.0354C316.881 68.1644 316.663 68.3733 316.488 68.6622C316.314 68.9512 316.198 69.2154 316.141 69.455C316.305 69.3431 316.48 69.2392 316.665 69.1432C316.864 69.0379 317.062 68.9383 317.259 68.8445C317.467 68.7529 317.663 68.6649 317.846 68.5804C318.041 68.4981 318.218 68.4125 318.378 68.3237C318.823 68.0505 319.239 67.8432 319.623 67.7016C320.022 67.5507 320.442 67.3801 320.884 67.1898C320.98 67.1842 321.049 67.1974 321.091 67.2292C321.146 67.2516 321.201 67.2798 321.254 67.3138C321.267 67.2447 321.252 67.2001 321.208 67.1798C321.175 67.1617 321.173 67.1135 321.199 67.0351C321.381 67.0219 321.54 66.9985 321.678 66.965C321.818 66.92 321.968 66.883 322.129 66.8539C322.213 66.9772 322.29 67.1052 322.36 67.2378C322.432 67.3589 322.547 67.4463 322.704 67.5C322.737 67.6376 322.788 67.7486 322.855 67.833C322.925 67.9058 322.994 67.9787 323.064 68.0516C323.134 68.1245 323.189 68.2067 323.232 68.2982C323.285 68.392 323.302 68.5263 323.28 68.7011C323.219 68.773 323.151 68.8495 323.076 68.9306C323.012 69.014 322.945 69.1146 322.875 69.2324C322.606 69.3959 322.334 69.5352 322.062 69.6504C321.801 69.7678 321.536 69.8784 321.265 69.9821C320.995 70.0858 320.719 70.1884 320.437 70.2899C320.156 70.3914 319.863 70.5206 319.559 70.6774C319.486 70.7471 319.397 70.8077 319.291 70.8592C319.2 70.9015 319.102 70.9484 318.996 70.9999C318.893 71.04 318.795 71.0869 318.701 71.1407C318.607 71.1944 318.529 71.263 318.465 71.3463C318.428 71.3512 318.393 71.3504 318.358 71.3439C318.324 71.3373 318.288 71.3365 318.251 71.3414C318.202 71.4155 318.132 71.4678 318.043 71.4986C317.965 71.5315 317.907 71.586 317.868 71.6622C317.971 72.0635 318.142 72.3882 318.381 72.6365C318.62 72.8847 318.903 73.0877 319.231 73.2455C319.561 73.3917 319.927 73.5089 320.328 73.5971C320.73 73.6737 321.151 73.7536 321.588 73.8368C321.636 73.834 321.658 73.8143 321.653 73.7775C321.662 73.7315 321.694 73.7197 321.749 73.7421C322.008 73.8868 322.196 74.0597 322.313 74.2608C322.432 74.4504 322.58 74.6455 322.756 74.8461C322.65 75.2792 322.449 75.6167 322.152 75.8585C321.856 76.1004 321.489 76.2693 321.054 76.3654ZM337.028 68.9532C337.501 69.1027 337.914 69.2826 338.267 69.493C338.621 69.7034 338.908 69.9489 339.129 70.2295C339.259 70.5523 339.372 70.896 339.47 71.2605C339.579 71.6272 339.639 72.0024 339.65 72.3862C339.674 72.7606 339.644 73.1366 339.56 73.5143C339.488 73.8942 339.334 74.2646 339.099 74.6254C338.686 74.9763 338.213 75.2383 337.679 75.4111C337.159 75.5746 336.607 75.6844 336.024 75.7405C335.44 75.7967 334.839 75.8254 334.218 75.8267C333.609 75.8301 333.012 75.8358 332.426 75.8437C332.387 76.1107 332.333 76.3927 332.265 76.6898C332.21 76.9777 332.125 77.2658 332.011 77.5541C331.91 77.8332 331.782 78.101 331.625 78.3576C331.469 78.6142 331.283 78.8412 331.067 79.0386C330.871 79.0014 330.665 78.9861 330.449 78.9928C330.231 79.011 330.038 79.022 329.87 79.0259C329.798 78.9645 329.732 78.9042 329.672 78.845C329.621 78.7996 329.539 78.7601 329.426 78.7267C329.471 78.616 329.464 78.4954 329.405 78.3649C329.349 78.223 329.292 78.081 329.236 77.939C329.179 77.7971 329.145 77.6653 329.132 77.5436C329.131 77.4241 329.209 77.3256 329.367 77.2483C329.302 77.1524 329.281 77.0411 329.305 76.9145C329.412 76.7916 329.517 76.6148 329.621 76.384C329.736 76.1554 329.833 75.9292 329.911 75.7055C330.003 75.4725 330.056 75.256 330.07 75.0559C330.084 74.8558 329.997 74.69 329.807 74.5585C329.823 74.5377 329.848 74.5305 329.883 74.5371C329.917 74.5437 329.953 74.5445 329.99 74.5395C329.911 74.4529 329.872 74.3441 329.873 74.2131C329.885 74.0843 329.866 73.9673 329.814 73.862C329.848 73.8089 329.875 73.7603 329.896 73.7165C329.916 73.6726 329.959 73.663 330.026 73.6876C330.031 73.4739 330.068 73.2781 330.138 73.1005C330.219 72.9251 330.315 72.7644 330.426 72.6186C330.54 72.4612 330.669 72.3129 330.815 72.1736C330.961 72.0343 331.101 71.8939 331.235 71.7525C331.318 71.7563 331.362 71.7765 331.367 71.8133C331.383 71.8522 331.425 71.8541 331.491 71.819C331.662 71.7323 331.789 71.6311 331.871 71.5154C331.952 71.3997 332.009 71.2613 332.039 71.1001C332.166 70.8737 332.31 70.6505 332.471 70.4307C332.634 70.1993 332.804 69.9931 332.982 69.8121C333.159 69.6312 333.344 69.4754 333.536 69.3449C333.739 69.2166 333.941 69.1296 334.14 69.0841C334.3 68.9952 334.493 68.9244 334.717 68.8717C334.944 68.8075 335.183 68.7754 335.434 68.7753C335.686 68.7637 335.933 68.7809 336.175 68.8269C336.431 68.8635 336.657 68.9303 336.853 69.0273C336.906 69.0612 336.937 69.0552 336.946 69.0091C336.966 68.9653 336.993 68.9466 337.028 68.9532ZM335.535 72.9458C335.847 72.8739 336.171 72.834 336.506 72.8263C336.855 72.8092 337.159 72.7178 337.417 72.5522C337.303 72.3992 337.123 72.2516 336.875 72.1091C336.63 71.9552 336.354 71.8371 336.048 71.755C335.741 71.6729 335.419 71.6415 335.082 71.6608C334.758 71.6707 334.461 71.7574 334.191 71.9209C334.083 72.115 333.994 72.271 333.923 72.3888C333.855 72.4952 333.765 72.6271 333.651 72.7844C333.663 72.8464 333.689 72.899 333.729 72.9423C333.782 72.9763 333.815 73.0242 333.827 73.0862C334.118 72.9983 334.397 72.9739 334.664 73.0127C334.944 73.0422 335.235 73.0199 335.535 72.9458ZM346.821 80.4059C346.715 80.5885 346.573 80.7702 346.395 80.9512C346.231 81.1228 346.042 81.2717 345.827 81.3979C345.626 81.5147 345.406 81.6041 345.168 81.6661C344.929 81.7282 344.688 81.7419 344.444 81.7075C344.301 81.6445 344.205 81.5845 344.156 81.5275C344.117 81.4842 344.072 81.4398 344.021 81.3943C343.99 81.3647 343.959 81.3409 343.927 81.3228C343.908 81.2954 343.888 81.2738 343.868 81.2579L343.677 81.1321L343.788 80.9208C343.829 80.8331 343.836 80.7629 343.811 80.7103C343.787 80.6462 343.732 80.5582 343.646 80.4464C343.618 80.4053 343.59 80.3642 343.562 80.3231C343.534 80.282 343.512 80.242 343.496 80.203L343.264 79.8191L343.754 79.7869C344.057 79.761 344.266 79.6935 344.383 79.5844C344.51 79.4775 344.591 79.2722 344.625 78.9684C344.403 78.8786 344.209 78.8356 344.041 78.8395C343.885 78.8456 343.722 78.8564 343.552 78.8718C343.334 78.8899 343.111 78.9012 342.883 78.9057C342.67 78.9008 342.436 78.8743 342.183 78.8262C342.091 78.8087 342.004 78.7922 341.924 78.7769C341.845 78.7501 341.761 78.7222 341.671 78.6931L341.505 78.6258C341.506 78.4947 341.496 78.4213 341.475 78.4054C341.457 78.378 341.438 78.3506 341.419 78.3232C341.373 78.2547 341.324 78.1678 341.272 78.0626C341.234 77.948 341.247 77.8192 341.31 77.6761C341.272 77.5615 341.257 77.4514 341.265 77.3456C341.17 77.4706 341.091 77.6046 341.028 77.7477L340.926 77.9073L340.747 77.909C340.722 77.9161 340.699 77.9416 340.679 77.9855C340.66 78.0178 340.649 78.0455 340.645 78.0685L340.503 78.3457C340.475 78.3643 340.448 78.383 340.42 78.4016C340.395 78.4088 340.369 78.4217 340.342 78.4403C340.299 78.5395 340.25 78.6377 340.196 78.7347C340.142 78.8318 340.089 78.9231 340.037 79.0086C339.951 79.1473 339.87 79.2871 339.796 79.428C339.735 79.5596 339.697 79.6956 339.683 79.8359L339.577 80.0127C339.507 80.0709 339.432 80.1164 339.355 80.1493C339.279 80.1707 339.203 80.1921 339.128 80.2135C339.1 80.2322 339.061 80.2486 339.011 80.2629C338.974 80.2678 338.943 80.2739 338.918 80.281L338.83 80.4611L338.616 80.4562C338.485 80.4552 338.39 80.4549 338.33 80.4555C338.282 80.4583 338.223 80.4531 338.154 80.44L337.985 80.3898C337.878 80.2622 337.795 80.163 337.737 80.0923C337.681 80.0101 337.613 79.9314 337.531 79.8563C337.454 79.6985 337.416 79.5839 337.418 79.5127C337.42 79.4414 337.42 79.3759 337.419 79.3161C337.41 79.2427 337.409 79.1829 337.418 79.1369C337.415 79.0887 337.404 79.0508 337.386 79.0234L337.201 78.7735L337.42 78.6542L337.493 78.3639C337.835 77.8206 338.184 77.3024 338.54 76.8095C338.908 76.3188 339.284 75.8176 339.667 75.306C339.794 75.1393 339.916 74.9716 340.031 74.8027C340.158 74.636 340.285 74.4693 340.413 74.3026C340.408 74.2659 340.41 74.2245 340.418 74.1784C340.427 74.1324 340.448 74.0828 340.482 74.0296C340.646 73.858 340.783 73.705 340.892 73.5706C341.003 73.4248 341.114 73.2789 341.225 73.1331C341.355 72.9549 341.483 72.7824 341.61 72.6157C341.749 72.4512 341.911 72.2854 342.098 72.1181L342.398 72.0498C342.434 72.0448 342.477 72.041 342.525 72.0382C342.575 72.0239 342.629 72.0223 342.687 72.0332L342.939 72.117C343.29 72.0286 343.612 71.8751 343.904 71.6562C344.198 71.4259 344.508 71.1449 344.834 70.8131L345.052 70.6042L345.25 70.785C345.301 70.8305 345.375 70.8804 345.473 70.9346C345.572 70.9773 345.676 71.0269 345.784 71.0833C345.983 71.1688 346.169 71.2578 346.342 71.3504C346.515 71.443 346.648 71.5578 346.742 71.6948C346.776 71.8921 346.79 72.0379 346.784 72.1322C346.778 72.2265 346.777 72.3219 346.783 72.4184C346.78 72.6206 346.772 72.8218 346.758 73.0219C346.755 73.2242 346.736 73.4473 346.702 73.6913C346.722 73.8979 346.731 74.1024 346.728 74.3047C346.739 74.4976 346.744 74.6952 346.741 74.8975C346.746 75.1848 346.752 75.4663 346.759 75.742C346.769 76.0062 346.798 76.2622 346.846 76.51C346.938 76.5275 346.994 76.5442 347.015 76.5601C347.077 76.548 347.138 76.5417 347.198 76.5411C347.269 76.5427 347.346 76.5454 347.429 76.5492L347.622 76.5681L347.658 76.7539C347.659 76.8137 347.706 76.8822 347.798 76.9594C347.946 76.9994 348.048 77.0547 348.107 77.1254C348.167 77.1846 348.22 77.2485 348.267 77.317C348.304 77.3718 348.344 77.4151 348.385 77.4468L348.625 77.5997L348.437 77.8325C348.283 78.0178 348.078 78.1875 347.822 78.3417C347.579 78.4865 347.314 78.597 347.025 78.6733C347.023 78.7446 347.016 78.8147 347.003 78.8838C347.003 78.9436 347.009 79.0102 347.019 79.0836C347.016 79.2859 347.006 79.4928 346.99 79.7044C346.974 79.916 346.933 80.129 346.869 80.3434L346.821 80.4059ZM342.398 76.4695C342.748 76.5121 343.063 76.5482 343.344 76.5777C343.638 76.5979 343.965 76.6063 344.323 76.6029C344.308 76.2422 344.29 75.8689 344.268 75.483C344.248 75.0855 344.221 74.6928 344.188 74.3047L344.051 74.4577C343.775 74.6556 343.499 74.8835 343.223 75.1412C342.959 75.4012 342.727 75.6493 342.527 75.8856C342.438 75.9761 342.35 76.0666 342.261 76.1571C342.172 76.2475 342.089 76.3391 342.012 76.4318C342.083 76.4334 342.147 76.4397 342.205 76.4506C342.274 76.4638 342.338 76.47 342.398 76.4695ZM351.822 79.6034C351.714 79.6067 351.628 79.6558 351.562 79.7506C351.498 79.834 351.434 79.9231 351.368 80.0179C351.314 80.115 351.255 80.2052 351.191 80.2885C351.141 80.3625 351.076 80.3919 350.996 80.3766C350.966 80.4665 350.917 80.5405 350.846 80.5986C350.787 80.6589 350.726 80.725 350.665 80.7969C350.606 80.8572 350.556 80.9312 350.516 81.0189C350.477 81.0951 350.47 81.1952 350.494 81.3191C350.389 81.3706 350.313 81.4575 350.266 81.5798C350.219 81.702 350.167 81.8175 350.11 81.926C350.066 82.0368 350.001 82.1259 349.916 82.1933C349.832 82.2608 349.699 82.2712 349.517 82.2247C349.474 82.2642 349.462 82.2919 349.483 82.3077C349.504 82.3236 349.514 82.3672 349.512 82.4385C349.39 82.3914 349.291 82.3785 349.215 82.3999C349.149 82.435 349.069 82.4496 348.974 82.4436C348.769 82.3329 348.607 82.177 348.491 81.9759C348.385 81.7769 348.295 81.5629 348.219 81.3338C348.157 81.0953 348.101 80.858 348.05 80.6217C348.011 80.3877 347.967 80.1824 347.917 80.0059C347.975 79.8858 348.004 79.766 348.003 79.6465C348.004 79.5155 347.983 79.4043 347.941 79.3127C348.733 78.2227 349.592 77.0619 350.518 75.8304C351.444 74.5989 352.332 73.3781 353.183 72.168C353.428 72.3219 353.664 72.492 353.891 72.6784C354.131 72.8553 354.339 73.0499 354.513 73.262C354.699 73.4762 354.845 73.7127 354.951 73.9714C355.059 74.2186 355.11 74.4848 355.103 74.7698C355.067 74.8345 355.033 74.8578 355.001 74.8397C354.982 74.8123 354.958 74.8137 354.928 74.8439C354.963 74.9102 354.979 74.9549 354.974 74.9779C354.981 75.0031 354.977 75.0261 354.961 75.047C354.957 75.07 354.95 75.1045 354.942 75.1506C354.935 75.1851 354.942 75.2402 354.964 75.3158C354.92 75.2956 354.884 75.2948 354.857 75.3134C354.841 75.3343 354.806 75.3277 354.753 75.2937C354.775 75.4291 354.767 75.5349 354.729 75.6111C354.702 75.6895 354.665 75.76 354.617 75.8225C354.571 75.8735 354.53 75.9371 354.491 76.0133C354.455 76.078 354.443 76.1712 354.456 76.2929C354.421 76.2863 354.39 76.2923 354.363 76.311C354.349 76.3203 354.335 76.3354 354.319 76.3562C354.305 76.3656 354.284 76.3795 354.257 76.3982C354.243 76.4075 354.22 76.4031 354.188 76.3851C354.174 76.6449 354.138 76.9004 354.078 77.1514C354.018 77.4025 353.958 77.6594 353.896 77.922C353.848 78.1752 353.802 78.4469 353.759 78.7369C353.718 79.0154 353.703 79.3108 353.715 79.6233C354.176 79.4603 354.563 79.2119 354.877 78.878C355.202 78.5462 355.485 78.1585 355.724 77.715C355.975 77.2736 356.192 76.7901 356.376 76.2643C356.559 75.7385 356.751 75.2023 356.95 74.6557C357.073 74.5718 357.178 74.4605 357.264 74.3218C357.35 74.1831 357.432 74.0375 357.508 73.8851C357.587 73.7212 357.665 73.563 357.742 73.4106C357.82 73.2466 357.908 73.1022 358.003 72.9771C358.171 73.033 358.304 73.1179 358.402 73.2319C358.513 73.3366 358.611 73.4506 358.695 73.5739C358.781 73.6857 358.873 73.7986 358.97 73.9126C359.07 74.0151 359.204 74.0942 359.372 74.1501C359.473 74.3721 359.564 74.5861 359.644 74.7922C359.724 74.9983 359.762 75.2082 359.757 75.422C359.682 75.5032 359.616 75.598 359.56 75.7066C359.515 75.8173 359.464 75.927 359.408 76.0355C359.351 76.1441 359.284 76.2447 359.207 76.3374C359.132 76.4185 359.036 76.4838 358.919 76.5332C358.828 76.8259 358.729 77.0935 358.624 77.3358C358.532 77.5688 358.434 77.8007 358.33 78.0315C358.238 78.2645 358.15 78.5102 358.065 78.7684C357.982 79.0151 357.917 79.2949 357.869 79.608C357.727 79.8552 357.575 80.1187 357.415 80.3983C357.254 80.6779 357.122 80.9332 357.019 81.164C356.806 81.2786 356.628 81.4297 356.485 81.6172C356.342 81.8048 356.194 81.9912 356.039 82.1765C355.984 82.2138 355.953 82.2199 355.946 82.1946C355.939 82.1694 355.902 82.1445 355.835 82.1198C355.838 82.1681 355.831 82.2026 355.815 82.2235C355.8 82.2443 355.778 82.264 355.75 82.2827C355.737 82.292 355.721 82.3128 355.703 82.3452C355.696 82.3797 355.699 82.428 355.711 82.4899C355.537 82.5283 355.374 82.5988 355.224 82.7014C355.073 82.804 354.913 82.8928 354.743 82.968C354.586 83.0453 354.4 83.0816 354.186 83.0767C353.984 83.074 353.732 82.9845 353.432 82.808C353.026 82.3729 352.681 81.8958 352.398 81.3768C352.126 80.86 351.934 80.2688 351.822 79.6034ZM367.066 80.9272C367.044 80.9826 367.022 81.0322 367.002 81.076C366.984 81.1084 366.966 81.1407 366.948 81.1731C366.93 81.2054 366.915 81.2504 366.904 81.308C366.896 81.354 366.883 81.4173 366.868 81.4979C366.407 82.0424 365.872 82.4715 365.263 82.7853C364.667 83.1012 364.021 83.3602 363.326 83.5621C362.646 83.7548 361.941 83.9189 361.211 84.0545C360.484 84.1787 359.769 84.3291 359.067 84.5058C358.804 84.3842 358.613 84.2286 358.494 84.039C358.387 83.8515 358.312 83.6465 358.271 83.424C358.244 83.1921 358.237 82.9463 358.25 82.6864C358.278 82.4173 358.306 82.1423 358.336 81.8617C358.394 81.7416 358.46 81.6467 358.533 81.5771C358.619 81.4981 358.678 81.3781 358.709 81.2169C358.858 80.9351 359.006 80.659 359.152 80.3887C359.299 80.1184 359.413 79.8358 359.493 79.5408C359.545 79.4553 359.62 79.404 359.719 79.387C359.881 78.8453 359.987 78.287 360.037 77.7119C360.101 77.1276 360.11 76.5747 360.066 76.0534C360.1 75.9405 360.126 75.8621 360.147 75.8182C360.181 75.765 360.188 75.7247 360.17 75.6973C360.176 75.603 360.213 75.5625 360.282 75.5756C360.363 75.5909 360.443 75.6062 360.524 75.6216C360.557 75.4489 360.555 75.2696 360.519 75.0838C360.494 74.9002 360.474 74.6935 360.458 74.4638C360.571 74.3065 360.655 74.1494 360.709 73.9926C360.764 73.8243 360.845 73.6845 360.949 73.5732C361.534 73.8871 362.082 74.2358 362.593 74.6194C363.116 75.0051 363.642 75.3138 364.171 75.5456C364.528 75.9237 364.897 76.304 365.278 76.6865C365.661 77.0575 365.997 77.4554 366.286 77.8801C366.577 78.2933 366.801 78.7474 366.957 79.2424C367.113 79.7374 367.15 80.2989 367.066 80.9272ZM362.793 81.0988C363.052 81.0527 363.307 80.9997 363.557 80.9398C363.818 80.8822 364.059 80.8087 364.279 80.7192C364.512 80.6205 364.726 80.5001 364.92 80.3581C365.114 80.216 365.286 80.034 365.435 79.8119C365.392 79.6606 365.323 79.5222 365.228 79.3967C365.135 79.2597 365.039 79.1342 364.942 79.0202C364.846 78.8947 364.751 78.7692 364.655 78.6437C364.571 78.5204 364.509 78.3773 364.469 78.2145C364.323 78.1631 364.198 78.0976 364.094 78.0181C363.992 77.9272 363.889 77.842 363.785 77.7625C363.695 77.6737 363.591 77.5885 363.476 77.5069C363.372 77.4274 363.24 77.3666 363.081 77.3245C362.852 77.1497 362.639 77.0138 362.443 76.9168C362.258 76.8221 362.123 76.7188 362.037 76.607C361.956 76.5917 361.889 76.5969 361.837 76.6227C361.869 77.082 361.876 77.5129 361.859 77.9153C361.845 78.3061 361.8 78.6973 361.726 79.0887C361.665 79.4708 361.573 79.8589 361.451 80.2531C361.328 80.6473 361.181 81.0727 361.011 81.5294C361.128 81.5398 361.236 81.5365 361.335 81.5194C361.447 81.4931 361.554 81.4657 361.655 81.4371C361.767 81.4108 361.879 81.3902 361.989 81.3753C362.113 81.3512 362.251 81.3476 362.402 81.3645C362.45 81.302 362.507 81.2532 362.573 81.2181C362.651 81.1852 362.724 81.1454 362.793 81.0988ZM375.867 85.9287C375.761 86.1112 375.619 86.293 375.441 86.474C375.277 86.6456 375.088 86.7945 374.873 86.9206C374.672 87.0375 374.452 87.1269 374.214 87.1889C373.975 87.2509 373.734 87.2647 373.49 87.2303C373.347 87.1673 373.251 87.1073 373.202 87.0503C373.163 87.007 373.118 86.9626 373.067 86.9171C373.036 86.8875 373.005 86.8637 372.973 86.8456C372.954 86.8182 372.934 86.7966 372.914 86.7807L372.723 86.6549L372.835 86.4436C372.875 86.3558 372.882 86.2857 372.857 86.2331C372.833 86.1689 372.778 86.081 372.692 85.9692C372.664 85.9281 372.636 85.887 372.608 85.8459C372.58 85.8047 372.558 85.7647 372.542 85.7258L372.31 85.3419L372.8 85.3097C373.103 85.2838 373.312 85.2163 373.429 85.1072C373.556 85.0002 373.637 84.7949 373.671 84.4912C373.449 84.4014 373.255 84.3584 373.087 84.3623C372.931 84.3684 372.768 84.3791 372.598 84.3945C372.38 84.4127 372.157 84.424 371.929 84.4285C371.716 84.4236 371.482 84.3971 371.229 84.3489C371.137 84.3314 371.05 84.315 370.97 84.2997C370.891 84.2729 370.807 84.2449 370.717 84.2159L370.551 84.1485C370.552 84.0175 370.542 83.9441 370.521 83.9282C370.503 83.9008 370.484 83.8734 370.466 83.846C370.419 83.7775 370.37 83.6906 370.318 83.5854C370.28 83.4708 370.293 83.342 370.356 83.1989C370.318 83.0843 370.303 82.9741 370.311 82.8683C370.216 82.9934 370.137 83.1274 370.074 83.2705L369.972 83.4301L369.793 83.4318C369.768 83.4389 369.745 83.4644 369.725 83.5083C369.706 83.5406 369.695 83.5683 369.691 83.5913L369.549 83.8685C369.521 83.8871 369.494 83.9058 369.466 83.9244C369.441 83.9315 369.415 83.9444 369.388 83.9631C369.345 84.0623 369.296 84.1605 369.242 84.2575C369.188 84.3545 369.135 84.4458 369.083 84.5314C368.997 84.6701 368.916 84.8099 368.842 84.9508C368.781 85.0824 368.743 85.2183 368.729 85.3587L368.623 85.5355C368.553 85.5936 368.478 85.6392 368.401 85.6721C368.325 85.6935 368.249 85.7149 368.174 85.7363C368.146 85.7549 368.107 85.7714 368.057 85.7857C368.02 85.7906 367.989 85.7966 367.964 85.8038L367.876 85.9839L367.662 85.979C367.531 85.978 367.436 85.9777 367.376 85.9783C367.328 85.9811 367.269 85.9759 367.2 85.9627L367.031 85.9126C366.924 85.7849 366.841 85.6857 366.783 85.615C366.727 85.5328 366.659 85.4542 366.578 85.3791C366.5 85.2213 366.462 85.1067 366.464 85.0354C366.466 84.9642 366.466 84.8987 366.465 84.8389C366.456 84.7655 366.455 84.7057 366.464 84.6597C366.461 84.6114 366.45 84.5736 366.432 84.5462L366.247 84.2963L366.466 84.177L366.539 83.8867C366.881 83.3434 367.23 82.8252 367.586 82.3323C367.954 81.8415 368.33 81.3404 368.713 80.8288C368.84 80.6621 368.962 80.4943 369.077 80.3255C369.204 80.1588 369.331 79.9921 369.459 79.8254C369.454 79.7887 369.456 79.7473 369.464 79.7012C369.473 79.6552 369.494 79.6056 369.528 79.5524C369.692 79.3807 369.829 79.2278 369.938 79.0934C370.049 78.9476 370.16 78.8017 370.271 78.6559C370.401 78.4777 370.529 78.3052 370.656 78.1385C370.795 77.974 370.957 77.8082 371.144 77.6409L371.444 77.5725C371.48 77.5676 371.523 77.5638 371.571 77.561C371.621 77.5467 371.675 77.5451 371.733 77.556L371.986 77.6398C372.336 77.5514 372.658 77.3978 372.95 77.179C373.244 76.9487 373.554 76.6676 373.88 76.3359L374.098 76.127L374.296 76.3078C374.347 76.3533 374.422 76.4031 374.519 76.4574C374.618 76.5001 374.722 76.5497 374.83 76.6061C375.029 76.6916 375.215 76.7806 375.388 76.8732C375.561 76.9657 375.694 77.0805 375.788 77.2176C375.822 77.4149 375.836 77.5607 375.83 77.655C375.824 77.7493 375.823 77.8447 375.829 77.9411C375.826 78.1434 375.818 78.3446 375.804 78.5447C375.801 78.747 375.782 78.9701 375.748 79.214C375.768 79.4207 375.777 79.6252 375.774 79.8274C375.785 80.0204 375.79 80.218 375.787 80.4203C375.792 80.7075 375.798 80.989 375.805 81.2648C375.815 81.529 375.844 81.785 375.892 82.0327C375.984 82.0503 376.04 82.067 376.061 82.0828C376.123 82.0708 376.184 82.0644 376.244 82.0639C376.315 82.0655 376.392 82.0682 376.475 82.072L376.668 82.0909L376.704 82.2767C376.705 82.3364 376.752 82.4049 376.844 82.4822C376.992 82.5222 377.095 82.5775 377.153 82.6482C377.213 82.7074 377.266 82.7712 377.313 82.8397C377.35 82.8946 377.39 82.9378 377.432 82.9696L377.671 83.1225L377.483 83.3553C377.329 83.5406 377.124 83.7103 376.868 83.8644C376.625 84.0092 376.36 84.1198 376.071 84.1961C376.069 84.2673 376.062 84.3375 376.049 84.4066C376.049 84.4663 376.055 84.5329 376.065 84.6064C376.062 84.8087 376.052 85.0156 376.036 85.2272C376.02 85.4388 375.979 85.6518 375.915 85.8662L375.867 85.9287ZM371.444 81.9923C371.794 82.0349 372.109 82.071 372.39 82.1005C372.684 82.1207 373.011 82.1291 373.369 82.1257C373.354 81.765 373.336 81.3917 373.314 81.0057C373.294 80.6083 373.267 80.2156 373.234 79.8275L373.097 79.9804C372.821 80.1784 372.545 80.4063 372.269 80.664C372.005 80.9239 371.773 81.1721 371.573 81.4084C371.484 81.4989 371.396 81.5894 371.307 81.6798C371.218 81.7703 371.135 81.8619 371.058 81.9546C371.129 81.9562 371.193 81.9625 371.251 81.9734C371.32 81.9865 371.384 81.9928 371.444 81.9923ZM378.139 79.8119C378.266 79.5854 378.432 79.4023 378.637 79.2624C378.854 79.1248 379.077 79.0181 379.307 78.9424C379.549 78.8573 379.794 78.7964 380.039 78.7596C380.285 78.7228 380.517 78.6953 380.735 78.6771C381.233 78.569 381.757 78.4778 382.308 78.4036C382.872 78.3201 383.438 78.2607 384.006 78.2255C384.585 78.1924 385.165 78.2133 385.747 78.2882C386.332 78.3516 386.923 78.5356 387.521 78.8402C387.534 78.9619 387.565 79.0811 387.614 79.1978C387.663 79.3146 387.713 79.4313 387.762 79.5481C387.823 79.667 387.872 79.7838 387.91 79.8983C387.95 80.0014 387.966 80.1058 387.958 80.2116C388.054 80.3371 388.124 80.4697 388.169 80.6095C388.216 80.7378 388.198 80.8954 388.115 81.0823C387.982 81.1525 387.85 81.217 387.72 81.2757C387.603 81.3251 387.476 81.3665 387.339 81.4C386.932 81.2154 386.507 81.0987 386.063 81.0501C385.619 81.0015 385.222 80.9558 384.872 80.9132C384.788 80.7899 384.672 80.714 384.522 80.6855C384.384 80.6593 384.23 80.6538 384.06 80.6692C383.901 80.6868 383.737 80.7033 383.567 80.7187C383.409 80.7363 383.263 80.7205 383.129 80.6712C382.996 80.7414 382.841 80.7773 382.661 80.779C382.496 80.7714 382.313 80.7605 382.113 80.7463C382.09 80.8017 382.094 80.8442 382.124 80.8738C382.157 80.8919 382.156 80.9275 382.122 80.9807C382.176 81.0744 382.251 81.1484 382.348 81.2026C382.457 81.259 382.565 81.3155 382.674 81.3719C382.794 81.4305 382.894 81.4974 382.976 81.5724C383.059 81.636 383.107 81.7286 383.12 81.8503C383.292 81.8831 383.434 81.9519 383.546 82.0566C383.657 82.1612 383.742 82.2788 383.801 82.4092C383.859 82.5397 383.893 82.6773 383.901 82.822C383.923 82.9574 383.924 83.0769 383.904 83.1805C383.922 83.2792 383.954 83.3271 384.002 83.3244C384.051 83.3216 384.098 83.3545 384.145 83.423C384.151 83.5792 384.208 83.751 384.315 83.9385C384.425 84.1144 384.502 84.3021 384.548 84.5017C384.516 84.7939 384.484 85.0562 384.452 85.2886C384.422 85.5095 384.339 85.7264 384.203 85.9391C383.949 86.3322 383.635 86.6662 383.261 86.9409C382.898 87.2179 382.496 87.4515 382.054 87.6419C381.626 87.8229 381.176 87.964 380.703 88.065C380.231 88.166 379.775 88.2404 379.337 88.2883C379.293 88.268 379.247 88.2592 379.199 88.262C379.15 88.2648 379.144 88.2338 379.181 88.1691C379.073 88.2322 378.96 88.2643 378.84 88.2654C378.732 88.2687 378.616 88.2526 378.491 88.217C378.365 88.1929 378.234 88.162 378.098 88.1242C377.973 88.0886 377.851 88.0714 377.732 88.0725C377.666 87.9766 377.607 87.8818 377.553 87.7881C377.509 87.7081 377.48 87.6072 377.468 87.4855C377.41 87.4746 377.387 87.4403 377.398 87.3828C377.42 87.3274 377.408 87.2953 377.362 87.2866C377.453 87.1846 377.494 87.1267 377.485 87.113C377.489 87.09 377.475 87.0694 377.443 87.0514C377.422 87.0355 377.401 87.0196 377.38 87.0037C377.362 86.9763 377.361 86.9464 377.379 86.9141C377.443 86.8307 377.48 86.7304 377.49 86.6131C377.503 86.4843 377.515 86.3554 377.528 86.2266C377.541 86.0978 377.569 85.978 377.614 85.8672C377.671 85.7587 377.774 85.683 377.926 85.6402C378.308 85.7607 378.679 85.8192 379.038 85.8158C379.41 85.8031 379.764 85.7572 380.101 85.6781C380.439 85.5991 380.761 85.5052 381.068 85.3966C381.386 85.2902 381.695 85.1999 381.996 85.1258C382.05 85.0287 382.113 84.9511 382.183 84.893C382.265 84.8371 382.347 84.7869 382.427 84.7425C382.507 84.698 382.582 84.6468 382.653 84.5886C382.723 84.5305 382.78 84.4518 382.823 84.3526C382.85 84.2742 382.835 84.2237 382.78 84.2013C382.738 84.1695 382.724 84.1191 382.737 84.05L382.557 83.9621C382.362 83.7939 382.135 83.6432 381.874 83.5101C381.615 83.3654 381.397 83.2227 381.221 83.0819C381.082 83.1269 380.957 83.1211 380.849 83.0647C380.752 83.0105 380.62 82.9497 380.454 82.8823C380.067 82.7849 379.695 82.6723 379.337 82.5447C378.991 82.4193 378.666 82.25 378.36 82.0369C378.348 81.9749 378.329 81.9176 378.304 81.865C378.278 81.8124 378.217 81.7889 378.12 81.7944C378.069 81.6891 378.016 81.5897 377.962 81.4959C377.911 81.3907 377.866 81.2808 377.828 81.1663C377.877 81.0325 377.917 80.9206 377.946 80.8307C377.977 80.7293 377.961 80.6249 377.898 80.5175C377.972 80.3766 378.03 80.2622 378.07 80.1745C378.111 80.0868 378.134 79.9659 378.139 79.8119Z" fill="#333333"/>
<path d="M141.753 292.02C141.382 292.462 140.946 292.779 140.445 292.97C139.946 293.149 139.408 293.28 138.832 293.361C138.258 293.431 137.658 293.478 137.033 293.502C136.42 293.529 135.816 293.599 135.222 293.713C135.061 293.682 134.916 293.66 134.787 293.648C134.67 293.637 134.551 293.633 134.432 293.634C134.326 293.626 134.219 293.623 134.111 293.627C134.005 293.618 133.888 293.608 133.759 293.595C133.715 293.575 133.684 293.581 133.666 293.614C133.65 293.634 133.629 293.654 133.601 293.673C133.399 293.67 133.217 293.653 133.056 293.623C132.906 293.594 132.78 293.57 132.676 293.551C132.538 293.524 132.391 293.514 132.235 293.52C132.088 293.54 131.958 293.533 131.845 293.5C130.99 293.29 130.369 292.855 129.981 292.197C129.607 291.53 129.488 290.684 129.623 289.66C129.645 289.604 129.64 289.568 129.608 289.55C129.587 289.534 129.567 289.512 129.549 289.485C129.571 289.37 129.601 289.274 129.639 289.198C129.689 289.124 129.714 289.021 129.715 288.89C130.135 288.314 130.586 287.791 131.069 287.322C131.554 286.842 132.101 286.445 132.709 286.131C132.803 286.078 132.885 286.022 132.956 285.963C133.026 285.905 133.091 285.846 133.151 285.786C133.221 285.728 133.296 285.682 133.373 285.649C133.453 285.605 133.547 285.581 133.655 285.578C133.95 285.347 134.286 285.149 134.663 284.982C135.041 284.815 135.434 284.663 135.841 284.526C136.251 284.377 136.655 284.233 137.051 284.094C137.461 283.945 137.841 283.767 138.19 283.559C138.306 283.641 138.395 283.675 138.457 283.663C138.519 283.651 138.582 283.663 138.647 283.7C138.695 283.888 138.781 284.029 138.906 284.125C139.042 284.222 139.172 284.324 139.295 284.431C139.432 284.529 139.553 284.641 139.66 284.769C139.767 284.897 139.839 285.053 139.875 285.239C139.806 285.226 139.766 285.248 139.755 285.306C139.758 285.354 139.765 285.409 139.777 285.471C139.791 285.522 139.787 285.574 139.765 285.63C139.756 285.676 139.711 285.691 139.631 285.676C139.631 285.736 139.659 285.777 139.715 285.799C139.784 285.812 139.813 285.848 139.802 285.905C139.791 285.963 139.765 286.006 139.724 286.034C139.694 286.064 139.683 286.121 139.691 286.206C139.432 286.312 139.146 286.407 138.832 286.49C138.529 286.576 138.207 286.67 137.866 286.772C137.538 286.865 137.19 286.971 136.821 287.092C136.466 287.203 136.111 287.345 135.756 287.516C135.402 287.687 135.036 287.886 134.659 288.112C134.284 288.327 133.917 288.562 133.559 288.816C133.2 289.07 132.857 289.338 132.529 289.622C132.203 289.894 131.917 290.174 131.671 290.461C131.683 290.523 131.698 290.573 131.714 290.612C131.744 290.642 131.765 290.687 131.777 290.749C132.141 290.843 132.481 290.907 132.796 290.943C133.125 290.97 133.444 291.048 133.753 291.179C133.792 291.162 133.822 291.132 133.842 291.088C133.862 291.044 133.898 291.015 133.948 291.001C134.618 291.057 135.247 291.069 135.838 291.038C136.43 290.996 137.036 290.95 137.653 290.9C137.568 290.848 137.487 290.803 137.411 290.765C137.348 290.717 137.285 290.675 137.22 290.639C137.173 290.571 137.182 290.525 137.246 290.501C137.324 290.468 137.39 290.433 137.445 290.396C137.302 290.273 137.191 290.133 137.114 289.975C137.048 289.819 137.025 289.624 137.046 289.389C137.126 289.345 137.174 289.282 137.189 289.202C137.204 289.121 137.182 289.051 137.122 288.992C137.078 288.972 137.049 288.966 137.035 288.976C137.022 288.985 137.007 289 136.991 289.021C136.986 289.044 136.976 289.066 136.96 289.087C136.947 289.096 136.919 289.085 136.877 289.053C136.909 288.952 136.948 288.87 136.996 288.807C137.055 288.747 137.105 288.673 137.145 288.585L138.488 288.017C138.597 288.133 138.733 288.267 138.895 288.417C139.06 288.555 139.229 288.701 139.403 288.853C139.59 288.996 139.776 289.145 139.962 289.3C140.161 289.445 140.343 289.587 140.507 289.725C140.655 289.825 140.782 289.945 140.886 290.084C140.991 290.223 141.089 290.367 141.18 290.515C141.273 290.652 141.366 290.789 141.46 290.926C141.564 291.066 141.69 291.191 141.836 291.302C141.784 291.447 141.767 291.569 141.784 291.668C141.801 291.767 141.791 291.884 141.753 292.02ZM151.938 287.104C151.934 287.186 151.922 287.25 151.902 287.293C151.896 287.328 151.883 287.361 151.865 287.394C151.859 287.428 151.851 287.469 151.842 287.515C151.836 287.549 151.836 287.609 151.844 287.694C151.528 288.039 151.194 288.256 150.843 288.345C150.506 288.424 150.147 288.463 149.765 288.462C149.386 288.449 148.994 288.44 148.59 288.435C148.197 288.432 147.788 288.509 147.364 288.667C147.226 288.581 147.088 288.555 146.95 288.588C146.824 288.624 146.648 288.609 146.422 288.542C146.34 288.598 146.244 288.633 146.134 288.648C146.026 288.651 145.916 288.66 145.806 288.675C145.833 288.788 145.829 288.9 145.796 289.013C145.776 289.117 145.777 289.206 145.798 289.282C146.195 289.393 146.639 289.472 147.131 289.518C147.635 289.566 148.124 289.629 148.598 289.707C148.599 289.767 148.585 289.806 148.558 289.825C148.533 289.832 148.522 289.859 148.524 289.908C148.594 289.981 148.66 290.071 148.723 290.178C148.789 290.274 148.854 290.37 148.919 290.466C148.984 290.562 149.052 290.646 149.122 290.719C149.205 290.783 149.305 290.82 149.423 290.83C149.451 290.931 149.46 291.04 149.45 291.157C149.453 291.265 149.421 291.372 149.353 291.479C149.145 291.57 148.935 291.668 148.725 291.771C148.516 291.863 148.299 291.94 148.072 292.005C147.856 292.071 147.627 292.117 147.384 292.142C147.154 292.158 146.902 292.134 146.628 292.07C146.57 292.059 146.524 292.05 146.49 292.044C146.467 292.039 146.436 292.016 146.396 291.972C146.293 292.012 146.157 292.004 145.989 291.949C145.832 291.895 145.702 291.888 145.599 291.928C145.484 291.847 145.333 291.794 145.146 291.77C144.974 291.738 144.822 291.685 144.693 291.613C144.463 291.819 144.247 292.047 144.045 292.295C143.842 292.542 143.654 292.811 143.48 293.1C143.86 293.232 144.178 293.316 144.434 293.353C144.701 293.392 144.952 293.421 145.186 293.442C145.423 293.451 145.665 293.467 145.911 293.49C146.159 293.502 146.466 293.548 146.832 293.63C147.087 293.547 147.373 293.518 147.69 293.542C148.021 293.558 148.328 293.544 148.61 293.503C148.696 293.555 148.764 293.633 148.816 293.739C148.87 293.832 148.918 293.925 148.96 294.016C149.016 294.099 149.073 294.175 149.131 294.246C149.189 294.317 149.271 294.356 149.377 294.364C149.414 294.419 149.432 294.482 149.43 294.553C149.442 294.615 149.449 294.676 149.449 294.736C149.45 294.796 149.457 294.851 149.472 294.901C149.5 294.942 149.549 294.964 149.62 294.965C149.375 295.312 149.118 295.567 148.849 295.731C148.593 295.885 148.311 295.987 148.003 296.035C147.696 296.084 147.358 296.104 146.99 296.093C146.634 296.085 146.235 296.081 145.794 296.081C145.686 296.084 145.601 296.062 145.538 296.014C145.473 295.978 145.395 295.951 145.303 295.934C145.027 295.941 144.701 295.932 144.324 295.908C143.946 295.884 143.569 295.831 143.191 295.747C142.814 295.663 142.461 295.542 142.133 295.384C141.803 295.238 141.549 295.035 141.372 294.775C141.295 294.677 141.25 294.572 141.235 294.462C141.234 294.343 141.175 294.242 141.059 294.16C141.076 294.009 141.085 293.837 141.086 293.647C141.086 293.456 141.088 293.259 141.09 293.057C141.095 292.843 141.105 292.636 141.119 292.436C141.145 292.238 141.19 292.062 141.255 291.907C141.323 291.741 141.421 291.599 141.551 291.481C141.693 291.364 141.761 291.222 141.757 291.055C141.817 291.054 141.857 291.032 141.877 290.988C141.9 290.933 141.95 290.918 142.029 290.945C142.137 290.751 142.249 290.57 142.365 290.401C142.48 290.232 142.595 290.069 142.708 289.911C142.833 289.756 142.952 289.6 143.066 289.442C143.193 289.276 143.318 289.091 143.44 288.887C143.307 288.707 143.217 288.523 143.169 288.335C143.135 288.137 143.117 287.949 143.116 287.77C143.116 287.579 143.122 287.39 143.134 287.201C143.148 287.001 143.145 286.797 143.125 286.591C143.273 286.44 143.437 286.328 143.618 286.255C143.813 286.173 144.015 286.116 144.223 286.084C144.432 286.052 144.656 286.035 144.895 286.033C145.134 286.03 145.386 286.025 145.65 286.015C146.139 285.953 146.57 285.916 146.942 285.903C147.325 285.892 147.694 285.897 148.049 285.917C148.416 285.927 148.795 285.945 149.183 285.971C149.572 285.997 150.017 286.011 150.518 286.01C150.602 286.134 150.69 286.204 150.782 286.222C150.848 286.127 150.905 286.108 150.954 286.165C151.016 286.212 151.052 286.183 151.06 286.078C151.138 286.295 151.25 286.489 151.396 286.66C151.556 286.822 151.737 286.97 151.938 287.104ZM161.08 290.309C160.793 290.254 160.477 290.218 160.135 290.201C159.794 290.172 159.459 290.15 159.128 290.135C158.891 290.125 158.661 290.111 158.438 290.093C158.226 290.076 158.033 290.058 157.858 290.036C157.729 290.274 157.606 290.483 157.488 290.664C157.37 290.844 157.248 291.018 157.121 291.184C156.991 291.363 156.867 291.548 156.747 291.74C156.64 291.922 156.531 292.122 156.418 292.339C156.268 292.501 156.137 292.655 156.026 292.801C155.928 292.938 155.838 293.1 155.755 293.287C155.584 293.433 155.445 293.597 155.339 293.78C155.235 293.951 155.152 294.102 155.092 294.234L154.983 294.428C154.901 294.484 154.85 294.534 154.829 294.578C154.811 294.61 154.776 294.639 154.723 294.665C154.688 294.789 154.623 294.908 154.53 295.022C154.496 295.075 154.468 295.129 154.446 295.185C154.425 295.229 154.413 295.262 154.409 295.285C154.387 295.4 154.344 295.47 154.28 295.493C154.28 295.553 154.268 295.616 154.243 295.683C154.221 295.739 154.199 295.794 154.176 295.849C154.115 295.981 154.083 296.088 154.079 296.171C154.105 296.223 154.126 296.269 154.142 296.308C154.17 296.349 154.185 296.4 154.185 296.459C154.246 296.519 154.292 296.557 154.324 296.575C154.364 296.619 154.425 296.672 154.509 296.736L154.631 296.938C154.625 297.283 154.523 297.538 154.325 297.703C154.11 297.889 153.796 297.942 153.382 297.863L153.174 297.824C153.128 297.755 153.102 297.703 153.097 297.666C153.011 297.614 152.942 297.571 152.889 297.537C152.836 297.503 152.793 297.447 152.76 297.369C152.623 297.272 152.513 297.191 152.43 297.128L152.291 297.012C152.315 296.885 152.328 296.816 152.33 296.805C152.269 296.686 152.228 296.558 152.206 296.423C152.196 296.29 152.191 296.158 152.192 296.027C152.189 295.919 152.178 295.815 152.161 295.717C152.156 295.62 152.137 295.533 152.104 295.455C152.208 294.783 152.378 294.231 152.616 293.799C152.853 293.367 153.092 292.953 153.335 292.558C153.47 292.345 153.606 292.133 153.742 291.92C153.88 291.696 154.008 291.463 154.125 291.223L154.313 291.08C154.429 290.911 154.521 290.774 154.589 290.667C154.67 290.551 154.752 290.436 154.834 290.32C154.884 290.246 154.927 290.177 154.963 290.112C155.013 290.038 155.055 289.974 155.088 289.921C155.019 289.908 154.955 289.902 154.895 289.902C154.838 289.891 154.779 289.886 154.719 289.887C154.648 289.885 154.583 289.885 154.523 289.885C154.465 289.874 154.408 289.863 154.35 289.852C154.269 289.837 154.213 289.82 154.181 289.802C154.043 289.836 153.899 289.838 153.75 289.81L153.577 289.777C153.543 289.77 153.508 289.764 153.473 289.757C153.453 289.741 153.431 289.731 153.408 289.727C153.293 289.705 153.197 289.705 153.122 289.726C152.983 289.7 152.851 289.675 152.724 289.651L152.552 289.618C152.529 289.613 152.499 289.614 152.462 289.619C152.428 289.612 152.399 289.607 152.376 289.602C152.295 289.587 152.21 289.565 152.12 289.536C152.032 289.495 151.942 289.436 151.849 289.359C151.746 289.149 151.673 289.033 151.629 289.013L151.513 288.776C151.515 288.705 151.509 288.638 151.497 288.576C151.487 288.503 151.479 288.424 151.471 288.339C151.447 288.215 151.424 288.085 151.402 287.95C151.393 287.805 151.407 287.641 151.442 287.456C151.471 287.367 151.507 287.302 151.55 287.262C151.594 287.223 151.63 287.188 151.66 287.158L151.761 286.909L151.982 286.969L152.465 287.061C152.834 287.131 153.21 287.19 153.594 287.239C153.981 287.277 154.379 287.317 154.788 287.359C155.023 287.38 155.258 287.401 155.492 287.421C155.738 287.444 155.99 287.468 156.248 287.493C156.314 287.399 156.378 287.31 156.442 287.226L156.631 287.173C156.84 287.201 156.979 287.257 157.046 287.341C157.127 287.416 157.191 287.488 157.238 287.556C157.496 287.582 157.753 287.607 158.011 287.632C158.282 287.648 158.555 287.658 158.828 287.662C159.231 287.679 159.632 287.702 160.032 287.73C160.444 287.76 160.834 287.811 161.202 287.881C161.363 287.911 161.518 287.947 161.665 287.987C161.813 288.027 161.948 288.07 162.07 288.117L162.219 288.271C162.241 288.347 162.275 288.419 162.322 288.487C162.38 288.558 162.438 288.629 162.496 288.699C162.61 288.852 162.72 289.028 162.825 289.227C162.93 289.426 162.934 289.689 162.836 290.017C162.718 290.137 162.633 290.205 162.583 290.219L162.388 290.397L162.219 290.346C162.149 290.333 162.084 290.333 162.022 290.345C161.962 290.345 161.901 290.352 161.839 290.364C161.789 290.378 161.739 290.392 161.688 290.407C161.64 290.409 161.586 290.411 161.526 290.412C161.423 290.392 161.336 290.376 161.267 290.362C161.212 290.34 161.15 290.322 161.08 290.309ZM166.404 291.858C166.472 291.692 166.521 291.558 166.552 291.457C166.586 291.344 166.568 291.215 166.5 291.071C166.581 290.896 166.643 290.758 166.686 290.659C166.74 290.562 166.773 290.419 166.785 290.231C166.946 289.951 167.149 289.727 167.396 289.56C167.654 289.394 167.923 289.266 168.203 289.176C168.484 289.075 168.772 289.004 169.066 288.964C169.362 288.913 169.637 288.876 169.892 288.853C169.901 288.807 169.882 288.78 169.836 288.771C169.79 288.762 169.784 288.731 169.818 288.678C170.462 288.681 171.115 288.632 171.778 288.532C172.453 288.434 173.135 288.36 173.824 288.313C174.513 288.265 175.206 288.289 175.904 288.386C176.603 288.471 177.312 288.695 178.03 289.059C178.05 289.205 178.088 289.35 178.145 289.492C178.201 289.634 178.258 289.776 178.314 289.918C178.385 290.05 178.443 290.181 178.49 290.309C178.538 290.437 178.555 290.566 178.542 290.695C178.656 290.848 178.74 291.007 178.792 291.172C178.857 291.327 178.839 291.52 178.735 291.751C178.591 291.819 178.441 291.886 178.285 291.952C178.13 292.018 177.969 292.077 177.804 292.129C177.31 291.904 176.801 291.759 176.276 291.695C175.752 291.631 175.278 291.583 174.855 291.55C174.754 291.388 174.617 291.296 174.442 291.275C174.269 291.242 174.08 291.236 173.873 291.256C173.68 291.267 173.486 291.284 173.291 291.307C173.098 291.318 172.923 291.296 172.766 291.243C172.618 291.334 172.435 291.383 172.219 291.389C172.006 291.384 171.781 291.371 171.547 291.351C171.524 291.406 171.528 291.449 171.558 291.478C171.588 291.508 171.585 291.555 171.549 291.62C171.61 291.739 171.705 291.834 171.835 291.906C171.966 291.967 172.098 292.028 172.229 292.089C172.373 292.152 172.495 292.229 172.597 292.32C172.701 292.399 172.757 292.511 172.766 292.656C172.971 292.707 173.138 292.798 173.268 292.931C173.4 293.051 173.505 293.19 173.582 293.348C173.66 293.506 173.706 293.67 173.722 293.84C173.739 293.998 173.73 294.14 173.695 294.264C173.719 294.388 173.756 294.443 173.806 294.429C173.868 294.416 173.926 294.457 173.98 294.551C173.993 294.732 174.062 294.936 174.186 295.163C174.323 295.38 174.418 295.606 174.468 295.843C174.425 296.192 174.384 296.507 174.343 296.785C174.313 297.066 174.216 297.327 174.05 297.57C173.758 298.04 173.39 298.441 172.944 298.774C172.499 299.107 172.011 299.384 171.48 299.605C170.963 299.816 170.423 299.988 169.861 300.12C169.302 300.24 168.754 300.327 168.219 300.38C168.176 300.36 168.118 300.349 168.047 300.347C167.987 300.348 167.982 300.311 168.032 300.237C167.911 300.31 167.779 300.344 167.636 300.341C167.505 300.34 167.36 300.318 167.201 300.276C167.052 300.248 166.897 300.212 166.738 300.17C166.591 300.13 166.44 300.108 166.286 300.102C166.212 299.993 166.143 299.884 166.08 299.777C166.028 299.671 165.991 299.551 165.969 299.416C165.914 299.393 165.892 299.353 165.903 299.296C165.927 299.229 165.911 299.19 165.853 299.179C165.862 299.133 165.874 299.099 165.89 299.079C165.906 299.058 165.922 299.037 165.938 299.016C165.991 298.99 166.012 298.971 166.003 298.957C166.007 298.934 165.993 298.913 165.961 298.895C165.942 298.868 165.918 298.839 165.888 298.81C165.869 298.782 165.869 298.752 165.887 298.72C165.964 298.627 166.004 298.51 166.008 298.367C166.025 298.215 166.042 298.064 166.059 297.912C166.075 297.76 166.113 297.624 166.172 297.504C166.233 297.372 166.352 297.276 166.531 297.214C166.994 297.35 167.442 297.411 167.874 297.398C168.317 297.387 168.739 297.336 169.138 297.245C169.548 297.156 169.938 297.051 170.307 296.93C170.689 296.8 171.057 296.685 171.41 296.585C171.467 296.477 171.537 296.389 171.621 296.321C171.717 296.256 171.812 296.197 171.906 296.143C172.002 296.078 172.092 296.011 172.176 295.944C172.263 295.865 172.336 295.765 172.394 295.645C172.414 295.601 172.421 295.567 172.414 295.542C172.407 295.516 172.393 295.496 172.372 295.48C172.353 295.452 172.335 295.425 172.316 295.398C172.297 295.37 172.292 295.334 172.301 295.288C172.269 295.269 172.236 295.251 172.204 295.233C172.183 295.217 172.161 295.207 172.138 295.203C171.867 294.996 171.575 294.809 171.261 294.642C170.947 294.475 170.686 294.307 170.48 294.136C170.325 294.202 170.182 294.199 170.053 294.126C169.923 294.054 169.765 293.976 169.578 293.893C169.099 293.778 168.647 293.644 168.223 293.492C167.81 293.342 167.419 293.142 167.049 292.893C167.039 292.82 167.021 292.757 166.995 292.704C166.971 292.64 166.894 292.607 166.763 292.606C166.704 292.476 166.638 292.356 166.563 292.246C166.502 292.127 166.449 291.998 166.404 291.858ZM175.087 300.022C175.122 299.838 175.135 299.673 175.127 299.529C175.132 299.375 175.13 299.231 175.12 299.098C175.121 298.967 175.128 298.831 175.143 298.691C175.158 298.55 175.206 298.393 175.287 298.217C175.272 298.107 175.256 298.003 175.239 297.904C175.224 297.794 175.209 297.683 175.195 297.573C175.316 297.06 175.508 296.613 175.771 296.234C176.037 295.843 176.334 295.5 176.665 295.205C176.998 294.898 177.347 294.631 177.712 294.402C178.08 294.162 178.434 293.931 178.774 293.709C178.821 293.778 178.859 293.797 178.889 293.767C178.932 293.727 179.003 293.729 179.102 293.771C179.127 293.705 179.178 293.625 179.255 293.532C179.333 293.439 179.419 293.361 179.515 293.295C179.625 293.221 179.737 293.164 179.851 293.127C179.966 293.089 180.068 293.084 180.158 293.113C180.315 292.916 180.524 292.759 180.784 292.642C181.059 292.515 181.333 292.394 181.605 292.279C181.877 292.164 182.13 292.027 182.363 291.869C182.596 291.71 182.763 291.491 182.864 291.212L183.209 291.278C183.11 291.044 183.087 290.819 183.14 290.603C183.196 290.375 183.3 290.204 183.453 290.09C183.619 289.966 183.821 289.909 184.058 289.918C184.295 289.928 184.549 290.036 184.819 290.242C184.942 290.289 185.032 290.283 185.092 290.222C185.151 290.162 185.234 290.13 185.342 290.127C185.828 290.458 186.247 290.83 186.597 291.242C186.948 291.655 187.25 292.106 187.503 292.595C187.474 292.626 187.439 292.649 187.4 292.665C187.375 292.672 187.349 292.685 187.322 292.704C187.296 292.711 187.276 292.725 187.26 292.746C187.256 292.769 187.273 292.802 187.313 292.845C187.61 293.415 187.86 294.011 188.064 294.634C188.27 295.246 188.446 295.888 188.592 296.56C188.56 297.043 188.488 297.518 188.375 297.986C188.264 298.442 188.108 298.919 187.906 299.418C187.777 299.596 187.632 299.759 187.473 299.908C187.327 300.047 187.17 300.184 187.001 300.319C186.834 300.443 186.667 300.572 186.498 300.707C186.331 300.83 186.174 300.967 186.026 301.118L186.188 301.864C186.159 301.954 186.157 302.061 186.181 302.185C186.207 302.297 186.232 302.416 186.257 302.539C186.283 302.652 186.298 302.762 186.301 302.87C186.316 302.98 186.3 303.067 186.252 303.129C186.273 303.205 186.344 303.242 186.463 303.241C186.413 303.255 186.37 303.295 186.333 303.359C186.309 303.426 186.362 303.46 186.493 303.461C186.446 303.583 186.367 303.717 186.255 303.863C186.144 304.009 186.012 304.139 185.859 304.253C185.704 304.379 185.526 304.47 185.324 304.527C185.132 304.598 184.926 304.613 184.707 304.571C184.499 304.412 184.337 304.262 184.22 304.121C184.116 303.981 183.986 303.814 183.833 303.617L183.48 301.994C182.567 302.214 181.61 302.354 180.608 302.414C179.609 302.462 178.569 302.414 177.487 302.268C176.942 301.997 176.46 301.679 176.04 301.313C175.621 300.947 175.303 300.516 175.087 300.022ZM180.392 296.307C179.806 296.625 179.254 297.021 178.735 297.495C178.226 297.971 177.783 298.513 177.405 299.121C177.498 299.198 177.618 299.257 177.766 299.297C177.913 299.337 178.047 299.386 178.167 299.445C178.858 299.385 179.564 299.341 180.286 299.311C181.021 299.272 181.735 299.187 182.428 299.056C182.224 298.683 182.03 298.324 181.845 297.979C181.672 297.636 181.545 297.302 181.463 296.976C181.511 296.913 181.555 296.838 181.596 296.751C181.648 296.665 181.706 296.581 181.769 296.497C181.833 296.414 181.911 296.345 182.005 296.292C182.099 296.238 182.215 296.224 182.353 296.25C182.545 296.37 182.778 296.462 183.052 296.526C183.338 296.593 183.591 296.671 183.813 296.761C184.012 296.966 184.175 297.205 184.302 297.48C184.431 297.743 184.56 298.006 184.689 298.269C184.986 298.087 185.253 297.875 185.489 297.634C185.728 297.381 185.928 297.085 186.088 296.746C186.054 296.549 186.007 296.325 185.947 296.075C185.887 295.825 185.809 295.577 185.712 295.332C185.627 295.09 185.515 294.865 185.375 294.66C185.247 294.457 185.09 294.308 184.905 294.213C184.818 294.172 184.751 294.177 184.706 294.228C184.674 294.27 184.604 294.263 184.495 294.206C183.788 294.537 183.082 294.862 182.377 295.181C181.675 295.489 181.013 295.864 180.392 296.307ZM188.807 303.525C188.77 303.471 188.739 303.411 188.715 303.347C188.694 303.271 188.682 303.18 188.678 303.072C188.554 302.845 188.47 302.597 188.427 302.326C188.383 302.055 188.369 301.784 188.384 301.513C188.402 301.23 188.449 300.952 188.525 300.68C188.6 300.409 188.69 300.157 188.793 299.926C188.85 299.818 188.901 299.702 188.949 299.58C189.048 299.372 189.146 299.17 189.243 298.974C189.342 298.766 189.462 298.604 189.604 298.488C189.582 298.353 189.614 298.215 189.7 298.077C189.786 297.938 189.87 297.811 189.951 297.695C189.981 297.665 190.003 297.639 190.019 297.619C190.037 297.586 190.054 297.56 190.07 297.539C190.285 297.162 190.491 296.802 190.688 296.457C190.898 296.104 191.099 295.766 191.292 295.445C191.642 294.856 191.979 294.275 192.302 293.705C192.637 293.136 192.957 292.523 193.261 291.865C193.366 291.813 193.455 291.783 193.529 291.773C193.554 291.766 193.585 291.76 193.621 291.755C193.658 291.75 193.7 291.752 193.746 291.76C193.963 291.933 194.222 292.108 194.523 292.284C194.837 292.451 195.109 292.556 195.339 292.6L195.584 292.915C195.701 293.116 195.792 293.325 195.859 293.54C195.939 293.746 195.927 293.994 195.824 294.285C195.736 294.375 195.666 294.428 195.616 294.442C195.496 294.694 195.376 294.915 195.256 295.107C195.139 295.288 195.022 295.462 194.906 295.631C194.775 295.821 194.649 296.012 194.529 296.204C194.409 296.396 194.292 296.636 194.177 296.924C194.093 296.992 194.034 297.052 194 297.105C193.977 297.16 193.949 297.215 193.915 297.268C193.879 297.333 193.836 297.402 193.786 297.476C193.738 297.538 193.675 297.592 193.595 297.636C193.481 297.985 193.356 298.265 193.22 298.478C193.086 298.679 192.953 298.88 192.819 299.081C192.581 299.454 192.355 299.828 192.14 300.205C191.927 300.57 191.761 301.004 191.642 301.506C191.787 301.498 191.917 301.504 192.032 301.526C192.182 301.555 192.321 301.605 192.451 301.677C192.904 301.549 193.377 301.508 193.87 301.554C194.373 301.602 194.868 301.666 195.354 301.746C195.757 301.823 196.134 301.877 196.486 301.908C196.586 302.01 196.652 302.071 196.685 302.089C196.719 302.095 196.777 302.106 196.857 302.122C196.892 302.128 196.926 302.135 196.961 302.141C196.995 302.148 197.04 302.162 197.096 302.185C197.226 302.377 197.36 302.521 197.496 302.619C197.635 302.705 197.785 302.793 197.947 302.884C198.086 302.97 198.218 303.06 198.343 303.156C198.481 303.242 198.61 303.35 198.728 303.479L198.716 304.39C198.784 304.534 198.808 304.628 198.788 304.672C198.77 304.764 198.732 304.84 198.673 304.9L198.665 305.131C198.437 305.136 198.283 305.16 198.203 305.205C198.126 305.238 198.039 305.287 197.943 305.352C197.814 305.339 197.692 305.322 197.577 305.3C197.347 305.257 197.104 305.246 196.849 305.269C196.528 305.077 196.16 304.941 195.746 304.863C195.584 304.832 195.416 304.806 195.241 304.785C195.078 304.766 194.914 304.752 194.748 304.745C194.571 304.735 194.394 304.725 194.217 304.715C194.042 304.694 193.868 304.667 193.696 304.634C193.553 304.631 193.452 304.629 193.392 304.63C193.332 304.63 193.272 304.637 193.21 304.649C192.794 304.701 192.344 304.747 191.859 304.786C191.386 304.827 190.92 304.804 190.459 304.716C189.78 304.587 189.266 304.311 188.917 303.886C188.891 303.774 188.869 303.698 188.853 303.659C188.836 303.62 188.821 303.576 188.807 303.525Z" fill="#333333"/>
<defs>
<clipPath id="clip0_641:1409">
<rect width="128" height="128" fill="white" transform="translate(296 172)"/>
</clipPath>
</defs>
</svg>
