<svg width="488" height="366" viewBox="0 0 488 366" fill="none" xmlns="http://www.w3.org/2000/svg">
<path d="M317.001 231.077L339.956 228.549L326.29 209.933L317.001 231.077ZM366.907 159.48C363.369 172.595 351.568 199.835 330.181 218.931L332.846 221.915C354.974 202.155 367.095 174.143 370.769 160.522L366.907 159.48Z" fill="black"/>
<path d="M332.51 67.6023C332.426 67.7964 332.308 67.9939 332.153 68.195C332.011 68.3852 331.841 68.5558 331.643 68.707C331.458 68.8473 331.25 68.9626 331.021 69.053C330.792 69.1433 330.554 69.1861 330.308 69.1814C330.158 69.1361 330.056 69.0882 330 69.0375C329.956 68.9993 329.906 68.9607 329.849 68.9217C329.816 68.8959 329.782 68.8761 329.748 68.862C329.726 68.8371 329.704 68.818 329.681 68.8047L329.477 68.7029L329.562 68.4796C329.592 68.3876 329.59 68.3171 329.558 68.268C329.527 68.2072 329.462 68.1265 329.363 68.0259C329.331 67.9884 329.298 67.951 329.265 67.9136C329.232 67.8762 329.205 67.8391 329.184 67.8025L328.909 67.4493L329.39 67.3582C329.688 67.2959 329.888 67.2036 329.99 67.0813C330.104 66.9597 330.16 66.7461 330.156 66.4405C329.926 66.3781 329.727 66.359 329.561 66.3831C329.407 66.408 329.246 66.4383 329.08 66.4742C328.865 66.5185 328.645 66.5567 328.42 66.5886C328.207 66.6096 327.972 66.6114 327.715 66.5942C327.621 66.588 327.534 66.5821 327.452 66.5766C327.371 66.5594 327.284 66.5419 327.191 66.5239L327.018 66.4771C327.003 66.3469 326.985 66.2752 326.962 66.2619C326.94 66.237 326.918 66.212 326.897 66.1871C326.842 66.1247 326.783 66.0444 326.719 65.9462C326.668 65.837 326.664 65.7076 326.71 65.558C326.658 65.4488 326.63 65.3412 326.626 65.2352C326.546 65.3708 326.484 65.5135 326.438 65.6631L326.357 65.8338L326.179 65.8571C326.155 65.8673 326.135 65.8953 326.12 65.9413C326.106 65.9756 326.098 66.0045 326.097 66.0278L325.989 66.3201C325.964 66.342 325.939 66.3638 325.914 66.3856C325.89 66.3957 325.866 66.4117 325.841 66.4335C325.81 66.5372 325.774 66.6405 325.732 66.7433C325.69 66.8462 325.648 66.9433 325.607 67.0345C325.538 67.1825 325.475 67.331 325.418 67.4799C325.374 67.6179 325.353 67.7574 325.355 67.8985L325.272 68.0867C325.209 68.153 325.141 68.2071 325.067 68.2492C324.995 68.2796 324.922 68.31 324.85 68.3403C324.825 68.3622 324.788 68.3832 324.74 68.4034C324.704 68.4128 324.674 68.4225 324.65 68.4326L324.584 68.6221L324.371 68.643C324.241 68.6578 324.147 68.6691 324.087 68.6769C324.04 68.6854 323.981 68.6874 323.911 68.6827L323.737 68.6534C323.615 68.5395 323.521 68.451 323.455 68.3879C323.389 68.313 323.312 68.2432 323.222 68.1785C323.126 68.0312 323.075 67.922 323.068 67.8511C323.061 67.7801 323.054 67.7151 323.046 67.6558C323.027 67.5841 323.019 67.5248 323.022 67.4781C323.014 67.4305 322.999 67.3943 322.977 67.3693L322.763 67.1436L322.966 66.9986L323.004 66.7017C323.278 66.121 323.562 65.5645 323.856 65.0322C324.161 64.5006 324.474 63.9578 324.793 63.4036C324.899 63.2228 324.999 63.0416 325.093 62.86C325.199 62.6792 325.305 62.4983 325.412 62.3175C325.402 62.2817 325.399 62.2404 325.402 62.1936C325.405 62.1468 325.421 62.095 325.448 62.0381C325.59 61.8479 325.707 61.6796 325.799 61.533C325.892 61.3748 325.984 61.2166 326.077 61.0584C326.184 60.8659 326.291 60.6792 326.397 60.4984C326.514 60.3184 326.656 60.134 326.821 59.9454L327.11 59.8415C327.146 59.8321 327.188 59.8232 327.235 59.8146C327.283 59.7943 327.337 59.7862 327.395 59.7901L327.656 59.8428C327.994 59.7127 328.294 59.5214 328.558 59.2689C328.822 59.0047 329.096 58.6883 329.379 58.3197L329.571 58.0859L329.789 58.2415C329.845 58.2805 329.925 58.321 330.028 58.3631C330.131 58.3936 330.241 58.4302 330.355 58.4731C330.562 58.534 330.758 58.5999 330.941 58.6709C331.124 58.7419 331.27 58.8398 331.379 58.9645C331.437 59.1563 331.468 59.2993 331.474 59.3937C331.479 59.488 331.491 59.5827 331.508 59.6778C331.529 59.8789 331.545 60.0797 331.555 60.28C331.577 60.4811 331.586 60.7048 331.581 60.9512C331.626 61.1539 331.66 61.3558 331.681 61.5569C331.716 61.7471 331.744 61.9428 331.765 62.1439C331.805 62.4284 331.845 62.7071 331.886 62.98C331.927 63.2411 331.986 63.4917 332.064 63.7319C332.158 63.7381 332.216 63.7479 332.239 63.7611C332.299 63.7417 332.358 63.728 332.417 63.7203C332.488 63.7133 332.565 63.7067 332.648 63.7004L332.842 63.6958L332.9 63.8759C332.908 63.9352 332.963 63.9975 333.064 64.063C333.215 64.0849 333.324 64.1274 333.39 64.1906C333.457 64.242 333.518 64.299 333.573 64.3613C333.616 64.4112 333.661 64.4495 333.706 64.476L333.962 64.5988L333.804 64.8525C333.673 65.0551 333.49 65.2484 333.254 65.4323C333.031 65.6053 332.781 65.7471 332.503 65.8577C332.51 65.9287 332.512 65.9992 332.507 66.0694C332.515 66.1286 332.528 66.1941 332.547 66.2658C332.568 66.4669 332.584 66.6735 332.593 66.8855C332.602 67.0976 332.588 67.3139 332.55 67.5345L332.51 67.6023ZM327.644 64.2287C327.997 64.2288 328.314 64.2266 328.596 64.222C328.891 64.2065 329.216 64.1754 329.571 64.1287C329.513 63.7725 329.45 63.4041 329.381 63.0237C329.313 62.6316 329.239 62.2449 329.159 61.8637L329.042 62.0321C328.792 62.2619 328.546 62.5215 328.303 62.8106C328.072 63.1005 327.872 63.3748 327.702 63.6336C327.625 63.7341 327.547 63.8347 327.47 63.9352C327.393 64.0357 327.322 64.1367 327.256 64.238C327.327 64.231 327.392 64.2295 327.45 64.2334C327.52 64.2381 327.585 64.2365 327.644 64.2287ZM347.51 70.1216C347.322 70.1207 347.089 70.0992 346.81 70.057C346.542 70.0157 346.288 70.0398 346.047 70.1293C345.429 70.0645 344.803 69.9462 344.168 69.7745C343.534 69.6029 342.954 69.4055 342.428 69.1824C342.32 69.0459 342.211 68.9212 342.101 68.8081C341.992 68.6834 341.84 68.591 341.644 68.5309C341.378 68.2899 341.168 68.0057 341.014 67.6783C340.861 67.3392 340.743 66.9848 340.662 66.6153C340.581 66.2458 340.536 65.8728 340.526 65.4963C340.517 65.1081 340.53 64.739 340.565 64.389C340.775 63.8746 341.051 63.4408 341.392 63.0878C341.745 62.7239 342.104 62.3662 342.468 62.0147C342.625 61.9547 342.74 61.892 342.815 61.8266C342.903 61.7502 342.989 61.6855 343.075 61.6325C343.173 61.5686 343.265 61.5102 343.351 61.4572C343.449 61.3933 343.536 61.3169 343.613 61.2281C343.862 61.1861 344.078 61.1183 344.261 61.0248C344.456 60.9204 344.645 60.8156 344.828 60.7104C345.012 60.5936 345.201 60.4888 345.395 60.3961C345.589 60.3034 345.811 60.236 346.06 60.194C346.161 60.095 346.278 60.0206 346.41 59.9707C346.543 59.9092 346.676 59.8535 346.809 59.8036C346.954 59.7429 347.087 59.6813 347.209 59.619C347.342 59.5575 347.448 59.4706 347.526 59.3583C347.578 59.4558 347.657 59.4963 347.764 59.48C347.872 59.452 347.974 59.4236 348.069 59.3947C348.129 59.387 348.175 59.4018 348.207 59.4392C348.252 59.4774 348.29 59.5152 348.323 59.5527C348.356 59.5901 348.384 59.6154 348.406 59.6287C348.441 59.631 348.472 59.6038 348.5 59.5469C348.558 59.5508 348.574 59.5812 348.546 59.6381C348.519 59.695 348.499 59.7347 348.486 59.7573C348.58 59.7519 348.654 59.7804 348.709 59.8427C348.776 59.8942 348.879 59.9305 349.019 59.9516C349.062 60.0132 349.07 60.0607 349.044 60.0942C349.02 60.1161 349.005 60.162 349 60.2322C349.344 60.3609 349.555 60.5453 349.632 60.7854C349.711 61.0139 349.701 61.2481 349.603 61.4882C349.505 61.7282 349.343 61.9465 349.119 62.1428C348.894 62.3392 348.657 62.4643 348.407 62.518C347.835 62.6324 347.292 62.7663 346.776 62.9198C346.274 63.0623 345.853 63.2983 345.513 63.628C345.227 63.6911 344.968 63.7853 344.737 63.9107C344.518 64.0253 344.303 64.1636 344.093 64.3257C343.895 64.4768 343.702 64.6401 343.514 64.8154C343.338 64.9799 343.151 65.1435 342.952 65.3064C342.953 65.4708 342.915 65.5975 342.839 65.6864C342.775 65.7643 342.71 65.8481 342.646 65.9377C342.657 66.1147 342.688 66.2752 342.737 66.4195C342.787 66.552 342.842 66.6849 342.904 66.8182C343.66 67.1037 344.469 67.3047 345.33 67.4211C346.203 67.5383 347.078 67.632 347.954 67.7024C348.028 67.8248 348.114 67.9422 348.212 68.0545C348.323 68.1558 348.421 68.2681 348.507 68.3913C348.593 68.5028 348.661 68.6306 348.71 68.7749C348.76 68.9074 348.761 69.0719 348.712 69.2683C348.537 69.4327 348.345 69.5843 348.136 69.723C347.927 69.85 347.719 69.9829 347.51 70.1216ZM354.085 70.3327C353.75 70.416 353.387 70.4973 352.994 70.5767C352.601 70.6561 352.211 70.6829 351.826 70.6571C351.241 70.618 350.789 70.4409 350.469 70.1259C350.42 69.9933 350.373 69.9021 350.329 69.8522C350.297 69.8031 350.265 69.754 350.233 69.7049C350.214 69.6448 350.201 69.5677 350.196 69.4733C350.067 69.3003 349.968 69.1057 349.9 68.8898C349.833 68.6622 349.79 68.4361 349.77 68.2116C349.762 67.9762 349.772 67.7419 349.799 67.5088C349.838 67.2766 349.894 67.0571 349.966 66.8506C349.993 66.8054 350.008 66.7594 350.011 66.7126C350.026 66.6666 350.041 66.6148 350.056 66.5571C350.116 66.3732 350.175 66.1951 350.233 66.0228C350.303 65.8513 350.39 65.7044 350.492 65.5821C350.452 65.4737 350.46 65.3568 350.515 65.2313C350.571 65.1058 350.631 64.9924 350.696 64.8911C350.89 64.4577 351.049 64.0926 351.175 63.7956C351.313 63.4877 351.451 63.1857 351.588 62.8895C351.822 62.3767 352.044 61.8689 352.254 61.3661C352.464 60.8634 352.659 60.3186 352.839 59.7316C352.936 59.6794 353.009 59.6432 353.058 59.623C353.129 59.6043 353.189 59.5906 353.236 59.5821C353.44 59.7014 353.678 59.8231 353.952 59.9471C354.226 60.0594 354.457 60.1218 354.644 60.1344C354.734 60.1991 354.789 60.2498 354.81 60.2864C354.832 60.3114 354.854 60.3363 354.876 60.3613C354.994 60.5219 355.095 60.6872 355.177 60.8571C355.26 61.0154 355.276 61.222 355.224 61.4769C355.147 61.5774 355.09 61.6265 355.055 61.6241C354.981 61.8541 354.904 62.0485 354.822 62.2075C354.753 62.3673 354.678 62.5267 354.597 62.6857C354.503 62.8556 354.415 63.0259 354.333 63.1966C354.252 63.3673 354.179 63.5797 354.115 63.8338C354.064 63.8892 354.025 63.9394 353.999 63.9846C353.984 64.0306 353.963 64.0821 353.936 64.139C353.908 64.1958 353.875 64.2582 353.835 64.326C353.808 64.3829 353.763 64.4328 353.702 64.4756C353.646 64.7773 353.571 65.0189 353.477 65.2005C353.394 65.3829 353.306 65.5649 353.211 65.7465C353.048 66.0762 352.897 66.4067 352.757 66.7379C352.629 67.07 352.539 67.4515 352.487 67.8826C352.547 67.8631 352.6 67.8549 352.647 67.8581C352.706 67.862 352.758 67.8655 352.805 67.8686C352.91 67.8757 353.032 67.9014 353.17 67.9459C353.533 67.7823 353.921 67.6967 354.332 67.689C354.755 67.6821 355.172 67.6865 355.582 67.7022C355.746 67.7132 355.91 67.7241 356.073 67.7351C356.237 67.746 356.39 67.7445 356.532 67.7305C356.633 67.796 356.695 67.8354 356.717 67.8487C356.753 67.851 356.799 67.8542 356.858 67.8581C356.94 67.8635 357.009 67.8741 357.067 67.8897C357.199 68.0277 357.327 68.1302 357.452 68.1973C357.576 68.2644 357.707 68.326 357.845 68.3822C357.97 68.4376 358.089 68.4984 358.202 68.5647C358.328 68.6201 358.446 68.6984 358.556 68.7998L358.629 69.5622C358.704 69.6729 358.734 69.7454 358.72 69.7797C358.714 69.8732 358.686 69.9418 358.636 69.9855L358.658 70.1808C358.48 70.2041 358.355 70.2368 358.281 70.2789C358.22 70.3217 358.158 70.3704 358.095 70.425C358.001 70.4304 357.93 70.4316 357.884 70.4284C357.849 70.4261 357.814 70.4237 357.778 70.4214C357.615 70.4104 357.414 70.4263 357.176 70.4692C356.868 70.3428 356.544 70.2683 356.205 70.2456C356.076 70.2369 355.941 70.2338 355.8 70.2361C355.659 70.2384 355.518 70.2407 355.377 70.243C355.235 70.257 355.088 70.2647 354.935 70.2663C354.794 70.2686 354.647 70.2646 354.495 70.2544L354.085 70.3327ZM368.394 70.0045C368.311 70.1986 368.192 70.3962 368.038 70.5973C367.896 70.7874 367.726 70.9581 367.528 71.1093C367.342 71.2495 367.135 71.3648 366.906 71.4552C366.676 71.5456 366.439 71.5884 366.192 71.5836C366.043 71.5384 365.94 71.4904 365.885 71.4397C365.84 71.4015 365.79 71.3629 365.734 71.3239C365.7 71.2982 365.667 71.2783 365.632 71.2643C365.61 71.2393 365.588 71.2202 365.566 71.2069L365.361 71.1052L365.446 70.8819C365.476 70.7899 365.475 70.7193 365.443 70.6702C365.412 70.6094 365.347 70.5287 365.248 70.4281C365.215 70.3907 365.182 70.3533 365.15 70.3158C365.117 70.2784 365.09 70.2414 365.069 70.2047L364.793 69.8515L365.275 69.7605C365.573 69.6982 365.773 69.6059 365.875 69.4835C365.989 69.3619 366.044 69.1484 366.041 68.8428C365.81 68.7804 365.612 68.7612 365.446 68.7853C365.292 68.8102 365.131 68.8406 364.964 68.8764C364.75 68.9208 364.53 68.9589 364.305 68.9908C364.092 69.0118 363.857 69.0137 363.6 68.9965C363.506 68.9902 363.418 68.9843 363.336 68.9789C363.255 68.9617 363.168 68.9441 363.076 68.9262L362.903 68.8793C362.888 68.7492 362.869 68.6774 362.847 68.6642C362.825 68.6392 362.803 68.6143 362.781 68.5893C362.727 68.527 362.667 68.4466 362.603 68.3484C362.552 68.2393 362.549 68.1099 362.594 67.9602C362.543 67.8511 362.515 67.7435 362.51 67.6375C362.431 67.7731 362.368 67.9157 362.323 68.0654L362.241 68.2361L362.063 68.2594C362.039 68.2695 362.02 68.2976 362.005 68.3436C361.991 68.3779 361.983 68.4067 361.981 68.4301L361.874 68.7224C361.849 68.7442 361.824 68.766 361.799 68.7878C361.775 68.798 361.75 68.8139 361.725 68.8358C361.695 68.9394 361.659 69.0427 361.616 69.1456C361.574 69.2485 361.533 69.3455 361.491 69.4367C361.423 69.5848 361.36 69.7333 361.303 69.8821C361.258 70.0201 361.237 70.1596 361.24 70.3007L361.156 70.489C361.093 70.5552 361.025 70.6094 360.952 70.6514C360.879 70.6818 360.807 70.7122 360.734 70.7426C360.709 70.7644 360.673 70.7854 360.624 70.8057C360.589 70.815 360.559 70.8248 360.534 70.8349L360.469 71.0243L360.256 71.0453C360.126 71.0601 360.031 71.0713 359.972 71.0791C359.924 71.0877 359.865 71.0896 359.795 71.0849L359.621 71.0556C359.499 70.9418 359.406 70.8533 359.339 70.7901C359.274 70.7153 359.196 70.6455 359.107 70.5808C359.011 70.4334 358.959 70.3243 358.952 70.2533C358.945 70.1824 358.938 70.1173 358.93 70.0581C358.912 69.9863 358.904 69.9271 358.907 69.8803C358.898 69.8328 358.883 69.7965 358.861 69.7716L358.647 69.5458L358.851 69.4009L358.888 69.1039C359.162 68.5232 359.446 67.9667 359.74 67.4344C360.046 66.9029 360.358 66.36 360.677 65.8059C360.783 65.625 360.883 65.4438 360.978 65.2622C361.084 65.0814 361.19 64.9006 361.296 64.7198C361.287 64.6839 361.284 64.6426 361.287 64.5958C361.29 64.5491 361.305 64.4972 361.332 64.4403C361.474 64.2502 361.591 64.0818 361.683 63.9353C361.776 63.7771 361.869 63.6189 361.962 63.4606C362.069 63.2681 362.175 63.0815 362.281 62.9006C362.399 62.7206 362.54 62.5363 362.706 62.3477L362.995 62.2437C363.03 62.2344 363.072 62.2254 363.12 62.2169C363.168 62.1966 363.221 62.1884 363.28 62.1923L363.541 62.245C363.878 62.1149 364.179 61.9237 364.442 61.6712C364.707 61.407 364.98 61.0906 365.263 60.7219L365.455 60.4881L365.674 60.6437C365.73 60.6827 365.809 60.7233 365.912 60.7654C366.016 60.7958 366.125 60.8325 366.24 60.8754C366.447 60.9362 366.642 61.0022 366.825 61.0732C367.009 61.1441 367.155 61.242 367.264 61.3668C367.321 61.5585 367.353 61.7016 367.358 61.7959C367.364 61.8902 367.375 61.985 367.392 62.0801C367.414 62.2812 367.43 62.4819 367.44 62.6822C367.462 62.8834 367.47 63.1071 367.466 63.3534C367.511 63.5561 367.544 63.758 367.566 63.9591C367.6 64.1493 367.628 64.345 367.65 64.5461C367.69 64.8307 367.73 65.1094 367.77 65.3822C367.811 65.6434 367.871 65.894 367.949 66.1341C368.042 66.1404 368.1 66.1501 368.123 66.1634C368.183 66.1439 368.243 66.1303 368.302 66.1225C368.373 66.1155 368.45 66.1089 368.532 66.1027L368.726 66.0981L368.785 66.2782C368.793 66.3374 368.847 66.3998 368.949 66.4653C369.1 66.4872 369.208 66.5297 369.275 66.5928C369.342 66.6443 369.403 66.7012 369.457 66.7636C369.501 66.8135 369.545 66.8517 369.59 66.8782L369.846 67.0011L369.688 67.2548C369.557 67.4574 369.374 67.6507 369.139 67.8346C368.916 68.0076 368.665 68.1494 368.388 68.26C368.395 68.3309 368.396 68.4015 368.391 68.4716C368.399 68.5309 368.412 68.5963 368.431 68.6681C368.453 68.8692 368.468 69.0758 368.478 69.2878C368.487 69.4998 368.472 69.7161 368.434 69.9367L368.394 70.0045ZM363.529 66.631C363.881 66.6311 364.198 66.6288 364.481 66.6242C364.775 66.6087 365.1 66.5776 365.456 66.531C365.397 66.1747 365.334 65.8064 365.266 65.4259C365.198 65.0338 365.124 64.6472 365.044 64.266L364.927 64.4343C364.676 64.6642 364.43 64.9237 364.188 65.2128C363.957 65.5028 363.756 65.7771 363.586 66.0358C363.509 66.1364 363.432 66.2369 363.355 66.3375C363.278 66.438 363.206 66.5389 363.141 66.6402C363.212 66.6332 363.276 66.6317 363.335 66.6356C363.405 66.6403 363.47 66.6388 363.529 66.631ZM369.912 63.6581C370.01 63.418 370.153 63.2162 370.34 63.0525C370.539 62.8897 370.747 62.7568 370.965 62.654C371.196 62.5402 371.431 62.4503 371.671 62.3841C371.91 62.3179 372.137 62.2626 372.351 62.2182C372.832 62.0508 373.342 61.897 373.879 61.7568C374.43 61.6057 374.985 61.4784 375.543 61.3749C376.114 61.2722 376.693 61.2228 377.28 61.2269C377.868 61.2192 378.477 61.3305 379.107 61.5606C379.135 61.6799 379.18 61.7945 379.243 61.9044C379.306 62.0144 379.369 62.1243 379.432 62.2342C379.507 62.3449 379.57 62.4549 379.622 62.564C379.674 62.6615 379.702 62.7632 379.707 62.8692C379.817 62.9823 379.902 63.1055 379.964 63.2388C380.026 63.3604 380.027 63.519 379.967 63.7147C379.844 63.8004 379.721 63.8803 379.599 63.9543C379.489 64.0174 379.368 64.0739 379.235 64.1237C378.81 63.9895 378.374 63.9251 377.927 63.9304C377.48 63.9358 377.081 63.9384 376.728 63.9383C376.63 63.826 376.505 63.7648 376.353 63.7546C376.213 63.7452 376.059 63.7584 375.892 63.7942C375.737 63.8308 375.576 63.867 375.409 63.9028C375.254 63.9394 375.107 63.9413 374.969 63.9086C374.845 63.9943 374.695 64.0488 374.517 64.0721C374.352 64.0846 374.169 64.0958 373.969 64.1059C373.953 64.1636 373.962 64.2053 373.996 64.231C374.03 64.2451 374.034 64.2805 374.006 64.3374C374.071 64.424 374.155 64.4883 374.258 64.5304C374.372 64.5733 374.487 64.6162 374.601 64.6591C374.728 64.7028 374.836 64.757 374.925 64.8218C375.016 64.8748 375.074 64.9609 375.102 65.0802C375.277 65.092 375.426 65.1431 375.549 65.2335C375.673 65.324 375.771 65.4304 375.845 65.5528C375.919 65.6752 375.969 65.8077 375.995 65.9504C376.033 66.0822 376.048 66.2006 376.041 66.3059C376.07 66.4018 376.108 66.4454 376.156 66.4369C376.204 66.4283 376.255 66.4552 376.309 66.5176C376.334 66.6719 376.411 66.8357 376.54 67.0088C376.671 67.1702 376.77 67.3471 376.84 67.5397C376.843 67.8336 376.843 68.0978 376.839 68.3325C376.836 68.5554 376.78 68.7807 376.671 69.0083C376.467 69.4291 376.195 69.7986 375.857 70.1165C375.53 70.4352 375.159 70.7158 374.743 70.9581C374.34 71.1895 373.91 71.3839 373.454 71.5412C372.997 71.6985 372.553 71.8274 372.124 71.9279C372.078 71.913 372.031 71.9099 371.984 71.9185C371.936 71.927 371.926 71.897 371.954 71.8284C371.855 71.904 371.747 71.9496 371.628 71.9651C371.521 71.9815 371.404 71.9795 371.276 71.9592C371.148 71.9506 371.014 71.9357 370.874 71.9147C370.746 71.8944 370.623 71.892 370.504 71.9075C370.428 71.8202 370.358 71.7333 370.293 71.6467C370.239 71.5727 370.199 71.476 370.171 71.3567C370.113 71.3528 370.086 71.3216 370.09 71.2632C370.105 71.2055 370.09 71.1751 370.043 71.1719C370.121 71.0597 370.154 70.9974 370.143 70.9849C370.145 70.9615 370.129 70.9428 370.094 70.9287C370.072 70.9155 370.049 70.9022 370.027 70.889C370.005 70.864 370.001 70.8344 370.015 70.8001C370.068 70.7097 370.092 70.6056 370.089 70.4879C370.086 70.3585 370.082 70.2291 370.079 70.0997C370.076 69.9703 370.09 69.8479 370.122 69.7326C370.164 69.618 370.258 69.5303 370.403 69.4696C370.798 69.5429 371.173 69.5563 371.528 69.5096C371.896 69.452 372.243 69.3637 372.568 69.2445C372.893 69.1253 373.201 68.9933 373.493 68.8484C373.796 68.7042 374.092 68.5773 374.382 68.4674C374.424 68.3645 374.476 68.28 374.54 68.2137C374.614 68.1483 374.689 68.0887 374.763 68.0349C374.837 67.9811 374.906 67.9211 374.969 67.8549C375.032 67.7886 375.079 67.7037 375.109 67.6C375.126 67.519 375.106 67.4706 375.048 67.455C375.003 67.4285 374.983 67.3802 374.988 67.31L374.798 67.2445C374.585 67.101 374.34 66.9789 374.065 66.8783C373.791 66.766 373.558 66.6505 373.366 66.532C373.233 66.5935 373.109 66.6028 372.994 66.5599C372.891 66.5178 372.753 66.4733 372.58 66.4265C372.184 66.3765 371.801 66.3098 371.431 66.2263C371.072 66.1435 370.729 66.0148 370.4 65.8401C370.38 65.7801 370.355 65.7255 370.323 65.6764C370.291 65.6273 370.227 65.6113 370.132 65.6284C370.068 65.5302 370.004 65.4378 369.939 65.3512C369.875 65.253 369.818 65.1493 369.766 65.0402C369.799 64.9014 369.824 64.7857 369.842 64.6929C369.861 64.5885 369.833 64.4867 369.757 64.3877C369.814 64.2388 369.857 64.1184 369.887 64.0264C369.917 63.9345 369.925 63.8117 369.912 63.6581ZM378.243 64.2158C378.341 63.9758 378.484 63.7739 378.671 63.6102C378.87 63.4474 379.078 63.3145 379.296 63.2117C379.527 63.0979 379.762 63.008 380.002 62.9418C380.241 62.8756 380.468 62.8203 380.682 62.7759C381.163 62.6085 381.673 62.4547 382.21 62.3145C382.761 62.1634 383.315 62.0361 383.874 61.9326C384.445 61.8299 385.024 61.7805 385.611 61.7846C386.199 61.7769 386.808 61.8882 387.438 62.1183C387.466 62.2376 387.511 62.3522 387.574 62.4621C387.637 62.5721 387.7 62.682 387.763 62.7919C387.838 62.9026 387.901 63.0126 387.953 63.1217C388.005 63.2192 388.033 63.3209 388.038 63.4269C388.148 63.54 388.233 63.6632 388.295 63.7965C388.357 63.9181 388.358 64.0767 388.298 64.2724C388.175 64.3581 388.052 64.438 387.93 64.512C387.82 64.5751 387.699 64.6316 387.566 64.6814C387.141 64.5472 386.705 64.4828 386.258 64.4881C385.811 64.4935 385.412 64.4961 385.059 64.496C384.961 64.3837 384.836 64.3225 384.684 64.3123C384.544 64.3029 384.39 64.3161 384.223 64.3519C384.068 64.3885 383.907 64.4247 383.74 64.4605C383.585 64.4971 383.438 64.499 383.3 64.4663C383.176 64.552 383.026 64.6065 382.848 64.6298C382.683 64.6423 382.5 64.6535 382.3 64.6636C382.284 64.7213 382.293 64.763 382.327 64.7887C382.361 64.8028 382.364 64.8382 382.337 64.8951C382.402 64.9817 382.486 65.046 382.589 65.0881C382.703 65.131 382.818 65.1739 382.932 65.2168C383.059 65.2605 383.166 65.3147 383.256 65.3795C383.347 65.4325 383.405 65.5186 383.433 65.6379C383.608 65.6497 383.757 65.7008 383.88 65.7912C384.004 65.8817 384.102 65.9881 384.176 66.1105C384.25 66.2329 384.3 66.3655 384.326 66.5081C384.364 66.6399 384.379 66.7584 384.372 66.8636C384.401 66.9595 384.439 67.0031 384.487 66.9946C384.534 66.986 384.586 67.0129 384.64 67.0753C384.665 67.2297 384.742 67.3934 384.871 67.5665C385.002 67.7279 385.101 67.9048 385.171 68.0974C385.174 68.3913 385.174 68.6555 385.17 68.8902C385.167 69.1131 385.111 69.3384 385.002 69.566C384.798 69.9868 384.526 70.3563 384.188 70.6742C383.861 70.993 383.49 71.2735 383.074 71.5158C382.671 71.7472 382.241 71.9416 381.784 72.0989C381.328 72.2562 380.884 72.3851 380.455 72.4856C380.409 72.4707 380.362 72.4676 380.315 72.4762C380.267 72.4847 380.257 72.4547 380.285 72.3861C380.186 72.4617 380.078 72.5073 379.959 72.5229C379.852 72.5392 379.735 72.5372 379.607 72.5169C379.479 72.5083 379.344 72.4934 379.205 72.4724C379.077 72.4521 378.954 72.4497 378.835 72.4652C378.759 72.3779 378.689 72.291 378.624 72.2044C378.57 72.1304 378.53 72.0337 378.502 71.9144C378.444 71.9105 378.417 71.8793 378.421 71.8209C378.436 71.7632 378.421 71.7328 378.374 71.7296C378.452 71.6174 378.485 71.5551 378.474 71.5426C378.476 71.5192 378.46 71.5005 378.425 71.4864C378.403 71.4732 378.38 71.4599 378.357 71.4467C378.336 71.4217 378.332 71.3921 378.346 71.3578C378.399 71.2674 378.423 71.1633 378.42 71.0456C378.416 70.9162 378.413 70.7868 378.41 70.6574C378.407 70.528 378.421 70.4056 378.453 70.2903C378.495 70.1757 378.589 70.088 378.734 70.0273C379.129 70.1007 379.504 70.114 379.859 70.0673C380.227 70.0098 380.574 69.9214 380.899 69.8022C381.224 69.683 381.532 69.551 381.824 69.4061C382.127 69.2619 382.423 69.135 382.713 69.0251C382.755 68.9222 382.807 68.8377 382.87 68.7714C382.945 68.706 383.02 68.6464 383.094 68.5926C383.168 68.5388 383.237 68.4788 383.3 68.4126C383.363 68.3463 383.41 68.2614 383.44 68.1577C383.457 68.0767 383.437 68.0283 383.379 68.0127C383.334 67.9862 383.314 67.9379 383.319 67.8677L383.129 67.8022C382.916 67.6587 382.671 67.5366 382.396 67.436C382.122 67.3237 381.889 67.2082 381.697 67.0897C381.564 67.1512 381.44 67.1606 381.325 67.1176C381.222 67.0755 381.084 67.0311 380.911 66.9842C380.515 66.9342 380.132 66.8675 379.762 66.784C379.403 66.7012 379.06 66.5725 378.731 66.3978C378.711 66.3378 378.686 66.2832 378.654 66.2341C378.622 66.185 378.558 66.169 378.463 66.1861C378.399 66.0879 378.335 65.9955 378.27 65.9089C378.206 65.8107 378.149 65.707 378.097 65.5979C378.13 65.4591 378.155 65.3434 378.173 65.2506C378.192 65.1462 378.164 65.0444 378.088 64.9454C378.145 64.7965 378.188 64.6761 378.218 64.5841C378.248 64.4922 378.256 64.3694 378.243 64.2158ZM394.907 72.6603C394.81 73.0531 394.593 73.3146 394.256 73.4447C394.103 73.4462 393.986 73.4325 393.906 73.4037C393.837 73.3756 393.763 73.3413 393.684 73.3007C393.582 73.2469 393.49 73.2114 393.409 73.1942L393.226 73.041C393.206 72.981 393.181 72.9205 393.15 72.8597C393.118 72.7989 393.081 72.7377 393.039 72.6761C392.953 72.5529 392.869 72.4005 392.787 72.2189C392.74 71.8751 392.747 71.5937 392.809 71.3747C392.871 71.1439 392.945 70.9198 393.03 70.7024C393.058 70.6338 393.086 70.5652 393.114 70.4966C393.143 70.4163 393.171 70.3419 393.199 70.2733C392.906 70.0893 392.694 69.8401 392.562 69.526C392.431 69.2118 392.363 68.9136 392.358 68.6314C392.408 68.4116 392.484 68.2405 392.586 68.1182C392.689 67.9841 392.802 67.8801 392.924 67.806C393.058 67.7328 393.191 67.6771 393.323 67.639C393.466 67.6016 393.604 67.5697 393.735 67.5432L393.957 67.6461C394.055 67.7584 394.155 67.8473 394.256 67.9128C394.34 67.8832 394.396 67.8341 394.424 67.7655C394.465 67.686 394.5 67.6003 394.53 67.5083C394.572 67.4054 394.614 67.3026 394.656 67.1997C394.71 67.0976 394.77 66.9959 394.835 66.8945C394.834 66.7418 394.866 66.603 394.933 66.4783C394.855 66.4144 394.77 66.3734 394.677 66.3555C394.654 66.3539 394.596 66.3383 394.504 66.3086C394.371 66.194 394.278 66.0997 394.224 66.0256C394.182 65.9406 394.141 65.8615 394.099 65.7882C394.039 65.6315 393.959 65.5029 393.86 65.4023L393.693 65.2678L393.793 65.0982C393.818 65.0764 393.831 65.048 393.834 65.0129C393.836 64.9778 393.816 64.9236 393.774 64.8503C393.759 64.7202 393.765 64.6325 393.792 64.5873L393.838 64.4142C393.941 64.2919 393.992 64.2248 393.993 64.2131L394.161 64.0659C394.399 64.0231 394.631 63.974 394.858 63.9187C395.097 63.8525 395.337 63.7863 395.576 63.7201C395.803 63.6649 396.03 63.6096 396.257 63.5543C396.496 63.4881 396.735 63.4336 396.972 63.3908C397.058 63.3378 397.148 63.3086 397.242 63.3032C397.338 63.2861 397.426 63.2744 397.509 63.2682C397.58 63.2612 397.645 63.2596 397.703 63.2635C397.762 63.2558 397.805 63.2351 397.831 63.2016C397.974 63.1642 398.141 63.1226 398.332 63.0766C398.63 63.0144 399.022 62.9525 399.507 62.891C399.994 62.8179 400.537 62.7721 401.137 62.7535L401.437 62.7559C401.494 62.7715 401.553 62.7813 401.611 62.7852C401.67 62.7774 401.729 62.7755 401.788 62.7794C402.314 62.8146 402.636 62.9948 402.756 63.3199C402.857 63.3854 402.946 63.456 403.023 63.5316C403.1 63.6072 403.172 63.6825 403.237 63.7573C403.269 63.8065 403.301 63.8497 403.334 63.8872C403.379 63.9254 403.412 63.9511 403.435 63.9644C403.613 64.2817 403.659 64.5549 403.574 64.7841C403.458 64.929 403.318 65.0077 403.153 65.0201L402.953 65.1125C402.825 65.0922 402.726 65.0797 402.656 65.075C402.597 65.071 402.533 65.0667 402.463 65.062C402.17 65.0425 401.83 65.0373 401.442 65.0466C401.054 65.0558 400.653 65.0818 400.239 65.1246C399.837 65.1564 399.446 65.2066 399.066 65.2751C398.686 65.3436 398.351 65.421 398.064 65.5075L397.738 65.6442C397.647 65.7673 397.593 65.8694 397.576 65.9505C397.56 66.0199 397.543 66.0893 397.527 66.1586C397.512 66.2046 397.497 66.2506 397.482 66.2966C397.479 66.3434 397.47 66.3956 397.454 66.4533C397.239 66.6855 397.12 66.9712 397.098 67.3103C397.006 67.4451 396.947 67.5468 396.919 67.6154C396.891 67.6723 396.886 67.7483 396.903 67.8434C397.119 67.9518 397.327 68.001 397.528 67.9909C397.728 67.9808 397.929 67.9649 398.13 67.9431C398.402 67.9144 398.679 67.8918 398.962 67.8755C399.257 67.86 399.556 67.8624 399.86 67.8828L400.422 67.9204L400.272 68.0513L400.343 68.3027C400.411 68.3425 400.456 68.369 400.479 68.3822C400.513 68.3963 400.547 68.4162 400.58 68.4419L400.658 68.6056C400.703 68.6321 400.741 68.6758 400.772 68.7366C400.815 68.7982 400.838 68.8879 400.842 69.0056L400.055 69.9747L399.805 70.0284C399.607 70.0034 399.43 70.0151 399.274 70.0633C399.191 70.0812 399.107 70.0992 399.024 70.1171C398.941 70.1233 398.853 70.1232 398.759 70.117C398.522 70.1481 398.321 70.1699 398.156 70.1823C398.003 70.1955 397.843 70.2083 397.678 70.2208C397.466 70.23 397.259 70.2514 397.057 70.2849C396.856 70.3067 396.665 70.3468 396.485 70.4052C396.368 70.3973 396.286 70.3919 396.24 70.3887C396.146 70.3825 396.045 70.3934 395.938 70.4214C395.843 70.4385 395.754 70.456 395.67 70.4739C395.609 70.5168 395.564 70.5667 395.537 70.6236C395.51 70.6688 395.483 70.7198 395.456 70.7767C395.398 70.9373 395.325 71.0674 395.236 71.1672L395.219 71.4303C395.117 71.5409 395.052 71.6306 395.024 71.6992C395.009 71.7568 394.987 71.8141 394.96 71.871C394.934 71.9045 394.914 71.9384 394.9 71.9727C394.887 71.9953 394.879 72.0242 394.877 72.0593C394.959 72.2409 394.969 72.4412 394.907 72.6603ZM411.162 69.0622C411.141 69.2017 411.144 69.337 411.17 69.468C411.197 69.5989 411.229 69.7303 411.267 69.862C411.318 69.9829 411.362 70.1092 411.4 70.2409C411.439 70.3727 411.465 70.5036 411.48 70.6338C411.492 70.7991 411.48 70.9803 411.443 71.1775C411.408 71.363 411.354 71.5474 411.283 71.7305C411.213 71.902 411.126 72.0606 411.022 72.2064C410.919 72.3404 410.801 72.4382 410.668 72.4998C410.49 72.6993 410.28 72.8497 410.039 72.9509C409.797 73.0522 409.571 73.178 409.362 73.3284C409.227 73.4017 409.077 73.4503 408.911 73.4744C408.757 73.4994 408.597 73.5239 408.431 73.548C408.297 73.6095 408.14 73.6754 407.96 73.7455C407.779 73.8039 407.593 73.8619 407.402 73.9195C407.211 73.9655 407.021 73.9997 406.831 74.0223C406.642 74.0331 406.478 74.028 406.339 74.0069C405.979 74.1121 405.629 74.1708 405.288 74.1832C404.957 74.2081 404.573 74.1588 404.135 74.0356C403.71 74.0658 403.319 74.0221 402.963 73.9043C402.619 73.7872 402.313 73.62 402.045 73.4024C401.791 73.1739 401.567 72.9123 401.376 72.6176C401.196 72.312 401.053 71.997 400.946 71.6727C400.897 71 400.96 70.3994 401.137 69.8709C401.314 69.3308 401.546 68.8413 401.834 68.4025C402.134 67.9528 402.467 67.5464 402.832 67.1832C403.197 66.8084 403.551 66.4444 403.891 66.0914C403.96 66.1195 404.013 66.123 404.049 66.102C404.098 66.07 404.142 66.0318 404.18 65.9874C404.219 65.9313 404.258 65.881 404.296 65.8366C404.346 65.793 404.4 65.7673 404.46 65.7595C404.553 65.5896 404.679 65.4688 404.836 65.3971C405.006 65.3145 405.144 65.1945 405.248 65.0371C405.355 65.0207 405.445 64.9915 405.518 64.9495C405.591 64.9074 405.659 64.8591 405.722 64.8045C405.796 64.7508 405.869 64.7028 405.943 64.6608C406.017 64.607 406.101 64.5716 406.196 64.5544L406.209 64.3615C406.426 64.2821 406.585 64.187 406.686 64.0763C406.8 63.9548 406.933 63.811 407.085 63.645C407.191 63.6403 407.274 63.64 407.332 63.6439C407.402 63.6486 407.502 63.6435 407.633 63.6288C407.737 63.4713 407.827 63.354 407.903 63.2769C407.99 63.2005 408.113 63.1206 408.271 63.0373C408.407 63.1168 408.556 63.1738 408.718 63.2081C408.892 63.2432 409.039 63.3294 409.159 63.4667C409.162 63.5844 409.191 63.6803 409.245 63.7543C409.3 63.8167 409.36 63.8795 409.426 63.9426C409.493 63.9941 409.554 64.051 409.609 64.1134C409.675 64.1765 409.716 64.2615 409.732 64.3683C409.778 64.3832 409.808 64.3793 409.821 64.3567C409.846 64.3348 409.882 64.3313 409.928 64.3462C409.952 64.5122 409.985 64.626 410.028 64.6876C410.072 64.7375 410.112 64.84 410.148 64.9952C410.082 65.1082 410.027 65.2278 409.984 65.3541C409.952 65.4695 409.876 65.5525 409.755 65.6031C409.738 65.6842 409.759 65.7325 409.816 65.7481C409.875 65.752 409.908 65.7836 409.916 65.8428C409.92 65.9489 409.898 66.0237 409.848 66.0673C410.098 66.5421 410.317 67.0442 410.504 67.5735C410.693 68.0912 410.912 68.5874 411.162 69.0622ZM408.858 70.5816C408.914 70.4561 408.979 70.3548 409.055 70.2777C409.142 70.2013 409.197 70.0817 409.22 69.9188C409.168 69.8213 409.137 69.7488 409.129 69.7012C409.121 69.642 409.121 69.5539 409.129 69.437C408.896 69.0573 408.7 68.6566 408.54 68.2348C408.381 67.8013 408.197 67.3956 407.987 67.0174C407.961 67.0626 407.917 67.1067 407.855 67.1495C407.793 67.1924 407.73 67.1764 407.664 67.1015C407.635 67.1935 407.589 67.2609 407.527 67.3038C407.467 67.3349 407.401 67.3482 407.331 67.3435C407.262 67.3271 407.187 67.3045 407.107 67.2756C407.039 67.2358 406.977 67.1906 406.922 67.1399C406.565 67.3861 406.208 67.6265 405.852 67.8611C405.495 68.0956 405.171 68.3734 404.88 68.6945C404.832 68.7147 404.801 68.7245 404.79 68.7237C404.779 68.7112 404.743 68.7147 404.683 68.7342C404.575 68.9501 404.444 69.1469 404.292 69.3246C404.151 69.4913 404.01 69.664 403.869 69.8424C403.728 70.0209 403.604 70.2123 403.496 70.4165C403.388 70.6207 403.319 70.8627 403.289 71.1425C403.477 71.3195 403.704 71.4346 403.971 71.4876C404.237 71.5407 404.512 71.565 404.794 71.5604C405.088 71.5566 405.371 71.5403 405.643 71.5115C405.927 71.4718 406.186 71.4598 406.42 71.4755C406.919 71.3914 407.35 71.2676 407.714 71.104C408.078 70.9287 408.459 70.7546 408.858 70.5816ZM414.826 72.7605C414.666 73.2196 414.525 73.5684 414.403 73.8069C414.294 74.0345 414.132 74.2702 413.916 74.5141C413.765 74.4806 413.659 74.4911 413.596 74.5456C413.534 74.6002 413.466 74.6485 413.393 74.6906C413.286 74.7069 413.21 74.7018 413.165 74.6753C413.12 74.6488 413.081 74.6168 413.048 74.5794C413.014 74.5537 412.97 74.5213 412.914 74.4823C412.868 74.4558 412.793 74.439 412.688 74.432C412.671 74.3369 412.647 74.2472 412.618 74.163C412.6 74.0796 412.526 74.0453 412.396 74.0601C412.425 73.9681 412.436 73.8925 412.428 73.8332C412.421 73.7623 412.408 73.7026 412.388 73.6543C412.38 73.5951 412.372 73.5417 412.363 73.4941C412.355 73.4349 412.366 73.3651 412.395 73.2848C412.336 73.2809 412.292 73.2368 412.263 73.1527C412.233 73.0685 412.198 72.9839 412.156 72.8989C412.205 72.6908 412.254 72.4943 412.301 72.3096C412.349 72.1249 412.402 71.9522 412.459 71.7917C412.529 71.6319 412.587 71.4713 412.633 71.31C412.679 71.1486 412.672 70.9779 412.614 70.7978C412.658 70.836 412.694 70.8325 412.72 70.7873C412.748 70.7304 412.77 70.6614 412.787 70.5804C412.805 70.4876 412.817 70.4003 412.822 70.3185C412.829 70.2249 412.828 70.1485 412.82 70.0893C412.957 69.7931 413.072 69.4895 413.163 69.1785C413.267 68.8566 413.358 68.5398 413.438 68.228C413.529 67.917 413.62 67.6118 413.711 67.3125C413.801 67.0132 413.913 66.7388 414.048 66.4894C414.178 66.4746 414.317 66.5016 414.465 66.5702C414.626 66.6279 414.721 66.6989 414.75 66.7831C415.07 66.5696 415.358 66.307 415.613 65.9952C415.87 65.6718 416.132 65.3605 416.398 65.0612C416.665 64.7619 416.953 64.4993 417.261 64.2734C417.582 64.0482 417.972 63.9274 418.431 63.9112C418.653 64.1022 418.898 64.3007 419.166 64.5066C419.447 64.7015 419.671 64.9514 419.838 65.2563C419.929 65.3093 420.001 65.367 420.056 65.4294C420.123 65.4808 420.201 65.5389 420.291 65.6037L420.277 65.8141C420.408 65.9521 420.509 66.1116 420.579 66.2924C420.662 66.4624 420.732 66.6491 420.788 66.8526C420.846 67.0444 420.903 67.242 420.96 67.4455C421.018 67.6372 421.087 67.824 421.169 68.0056C421.142 68.0625 421.127 68.1143 421.124 68.1611C421.121 68.1962 421.124 68.2375 421.133 68.2851C421.153 68.3334 421.168 68.3813 421.176 68.4289C421.185 68.4764 421.18 68.5407 421.163 68.6218C421.094 69.1339 420.896 69.5377 420.571 69.833C420.258 70.1292 419.884 70.3684 419.449 70.5507C419.014 70.7212 418.553 70.8607 418.064 70.9689C417.575 71.0771 417.132 71.2001 416.736 71.338C416.732 71.3848 416.748 71.4093 416.784 71.4117C416.83 71.4148 416.846 71.4452 416.83 71.5029C417.099 71.6971 417.312 71.8522 417.469 71.9684C417.625 72.0846 417.771 72.1825 417.907 72.262C418.054 72.3424 418.208 72.4173 418.368 72.4867C418.54 72.5452 418.776 72.6197 419.075 72.7102C419.374 72.8007 419.604 72.8748 419.765 72.9326C419.938 72.9794 420.093 73.025 420.231 73.0695C420.37 73.1023 420.509 73.1351 420.648 73.1678C420.799 73.1897 421.008 73.2213 421.275 73.2627C421.374 73.375 421.453 73.5095 421.513 73.6662C421.585 73.812 421.628 73.9616 421.641 74.1152C421.655 74.2571 421.652 74.3978 421.631 74.5373C421.61 74.6652 421.562 74.7677 421.487 74.8448C421.496 74.8807 421.518 74.8998 421.553 74.9021C421.601 74.8936 421.648 74.8967 421.694 74.9115C421.62 74.9536 421.558 75.0081 421.506 75.0752C421.455 75.1422 421.403 75.2092 421.352 75.2762C421.301 75.3433 421.244 75.3982 421.182 75.4411C421.12 75.4956 421.036 75.5252 420.93 75.5299C420.558 75.6459 420.102 75.6212 419.561 75.4558C419.019 75.3021 418.338 75.0334 417.518 74.6496C417.108 74.4577 416.773 74.2943 416.512 74.1594C416.263 74.0136 416.043 73.8755 415.852 73.7453C415.674 73.6042 415.507 73.458 415.353 73.3067C415.21 73.1562 415.035 72.9741 414.826 72.7605ZM417.737 66.9125C417.595 67.091 417.438 67.2508 417.264 67.3918C417.102 67.5337 416.939 67.6813 416.776 67.8348C416.626 67.9775 416.485 68.1442 416.355 68.3352C416.226 68.5144 416.129 68.7311 416.065 68.9852C416.477 68.9658 416.912 68.8833 417.368 68.7377C417.825 68.5804 418.257 68.4331 418.666 68.2961C418.643 67.9305 418.534 67.6295 418.339 67.3933C418.155 67.1578 417.954 66.9976 417.737 66.9125ZM338.17 86.6029C338.177 86.6855 338.172 86.7498 338.158 86.7958C338.155 86.8309 338.147 86.8656 338.133 86.8999C338.131 86.935 338.128 86.9759 338.125 87.0227C338.122 87.0577 338.13 87.117 338.148 87.2004C337.876 87.5815 337.571 87.8371 337.233 87.9672C336.908 88.0864 336.556 88.1685 336.178 88.2136C335.799 88.247 335.409 88.2855 335.007 88.329C334.617 88.3734 334.22 88.4995 333.819 88.7076C333.671 88.6389 333.531 88.6295 333.398 88.6794C333.277 88.73 333.101 88.7358 332.868 88.6968C332.793 88.7622 332.702 88.809 332.595 88.837C332.488 88.8534 332.381 88.8755 332.273 88.9036C332.313 89.0119 332.323 89.1242 332.303 89.2403C332.296 89.3456 332.308 89.4344 332.338 89.5069C332.745 89.5694 333.196 89.5937 333.69 89.5798C334.196 89.5667 334.689 89.5703 335.169 89.5907C335.177 89.65 335.168 89.6905 335.143 89.7123C335.119 89.7225 335.112 89.7513 335.12 89.7989C335.198 89.8628 335.275 89.9443 335.35 90.0433C335.427 90.1306 335.503 90.218 335.579 90.3053C335.656 90.3926 335.733 90.4682 335.811 90.5322C335.901 90.5852 336.005 90.6098 336.123 90.6059C336.164 90.7026 336.186 90.8098 336.19 90.9275C336.206 91.0343 336.187 91.1446 336.132 91.2584C335.937 91.3745 335.74 91.4964 335.544 91.6242C335.348 91.7403 335.142 91.8439 334.924 91.9351C334.718 92.027 334.496 92.1002 334.258 92.1547C334.032 92.1983 333.779 92.2049 333.499 92.1744C333.44 92.1705 333.394 92.1673 333.358 92.165C333.335 92.1634 333.301 92.1435 333.257 92.1053C333.159 92.1575 333.024 92.1661 332.85 92.1309C332.688 92.0966 332.558 92.1055 332.46 92.1577C332.336 92.0907 332.179 92.0567 331.992 92.0559C331.816 92.0441 331.66 92.0102 331.523 91.954C331.319 92.187 331.132 92.4388 330.961 92.7092C330.791 92.9797 330.636 93.2688 330.498 93.5767C330.892 93.6618 331.218 93.7071 331.476 93.7126C331.745 93.7189 331.998 93.7182 332.233 93.7105C332.469 93.691 332.711 93.6779 332.958 93.6709C333.206 93.6523 333.517 93.6613 333.89 93.6981C334.133 93.5851 334.413 93.5217 334.731 93.5077C335.061 93.4829 335.364 93.4327 335.639 93.3571C335.731 93.3985 335.808 93.4682 335.872 93.5665C335.937 93.653 335.996 93.7392 336.049 93.8249C336.114 93.8998 336.18 93.9688 336.246 94.032C336.312 94.0951 336.398 94.1244 336.504 94.1197C336.548 94.1696 336.573 94.2301 336.58 94.301C336.6 94.361 336.614 94.4207 336.621 94.4799C336.629 94.5391 336.643 94.5929 336.663 94.6413C336.696 94.6787 336.748 94.6939 336.819 94.6869C336.618 95.061 336.393 95.3455 336.145 95.5403C335.91 95.7242 335.642 95.859 335.343 95.9447C335.044 96.0303 334.711 96.0903 334.344 96.1244C333.99 96.1594 333.593 96.2034 333.155 96.2562C333.048 96.2726 332.961 96.2609 332.893 96.2211C332.825 96.193 332.744 96.1758 332.65 96.1696C332.377 96.21 332.052 96.2411 331.675 96.2629C331.297 96.2846 330.916 96.2767 330.531 96.2392C330.146 96.2016 329.781 96.1244 329.437 96.0073C329.092 95.902 328.815 95.7308 328.608 95.4938C328.52 95.4057 328.462 95.3078 328.434 95.2003C328.418 95.0818 328.348 94.989 328.223 94.9219C328.222 94.7691 328.21 94.598 328.187 94.4086C328.165 94.2192 328.143 94.0239 328.121 93.8228C328.1 93.6099 328.084 93.4034 328.074 93.203C328.076 93.0035 328.1 92.823 328.146 92.6617C328.193 92.4886 328.273 92.3355 328.388 92.2022C328.514 92.0697 328.565 91.9205 328.541 91.7544C328.6 91.7466 328.637 91.7198 328.652 91.6738C328.668 91.6161 328.716 91.5958 328.797 91.613C328.882 91.4072 328.971 91.2136 329.065 91.0319C329.16 90.8503 329.254 90.6746 329.347 90.5047C329.452 90.3356 329.552 90.166 329.645 89.9961C329.752 89.8153 329.853 89.6166 329.95 89.3999C329.796 89.2369 329.684 89.065 329.614 88.8841C329.557 88.6924 329.516 88.5076 329.493 88.3299C329.47 88.1404 329.453 87.9514 329.443 87.7627C329.433 87.5624 329.405 87.3609 329.36 87.1582C329.488 86.9906 329.638 86.8597 329.809 86.7655C329.992 86.6603 330.185 86.5793 330.389 86.5224C330.592 86.4656 330.813 86.4216 331.05 86.3905C331.287 86.3593 331.536 86.3232 331.797 86.2819C332.275 86.1612 332.698 86.0721 333.066 86.0145C333.445 85.9577 333.812 85.9177 334.166 85.8944C334.532 85.8602 334.91 85.8326 335.299 85.8117C335.688 85.7907 336.131 85.7499 336.628 85.6893C336.727 85.8015 336.822 85.8608 336.916 85.8671C336.97 85.765 337.024 85.7393 337.08 85.7899C337.148 85.8297 337.179 85.7966 337.174 85.6906C337.278 85.8972 337.413 86.0765 337.579 86.2286C337.757 86.3697 337.955 86.4945 338.17 86.6029ZM346.465 95.5969C346.382 95.791 346.263 95.9886 346.108 96.1897C345.966 96.3798 345.796 96.5505 345.598 96.7017C345.413 96.8419 345.205 96.9572 344.976 97.0476C344.747 97.138 344.509 97.1808 344.263 97.176C344.113 97.1308 344.011 97.0828 343.955 97.0321C343.911 96.9939 343.861 96.9553 343.805 96.9163C343.771 96.8906 343.737 96.8707 343.703 96.8567C343.681 96.8317 343.659 96.8126 343.636 96.7993L343.432 96.6976L343.517 96.4743C343.547 96.3823 343.546 96.3117 343.514 96.2626C343.483 96.2018 343.417 96.1211 343.319 96.0205C343.286 95.9831 343.253 95.9457 343.22 95.9082C343.188 95.8708 343.161 95.8338 343.14 95.7971L342.864 95.4439L343.346 95.3529C343.643 95.2906 343.843 95.1983 343.946 95.0759C344.059 94.9543 344.115 94.7408 344.112 94.4352C343.881 94.3728 343.683 94.3536 343.517 94.3777C343.362 94.4026 343.202 94.433 343.035 94.4688C342.82 94.5132 342.601 94.5513 342.375 94.5832C342.162 94.6042 341.927 94.6061 341.67 94.5889C341.577 94.5826 341.489 94.5767 341.407 94.5713C341.326 94.5541 341.239 94.5365 341.146 94.5186L340.973 94.4717C340.959 94.3416 340.94 94.2698 340.917 94.2566C340.895 94.2316 340.874 94.2067 340.852 94.1817C340.797 94.1194 340.738 94.039 340.674 93.9408C340.623 93.8317 340.62 93.7023 340.665 93.5526C340.614 93.4435 340.585 93.3359 340.581 93.2299C340.501 93.3655 340.439 93.5081 340.394 93.6578L340.312 93.8285L340.134 93.8518C340.11 93.8619 340.09 93.89 340.076 93.936C340.061 93.9703 340.054 93.9991 340.052 94.0225L339.944 94.3148C339.919 94.3366 339.895 94.3584 339.87 94.3802C339.845 94.3904 339.821 94.4063 339.796 94.4282C339.765 94.5318 339.729 94.6351 339.687 94.738C339.645 94.8409 339.603 94.9379 339.562 95.0291C339.493 95.1772 339.43 95.3257 339.374 95.4745C339.329 95.6125 339.308 95.752 339.31 95.8931L339.227 96.0814C339.164 96.1476 339.096 96.2018 339.023 96.2438C338.95 96.2742 338.878 96.3046 338.805 96.335C338.78 96.3568 338.743 96.3778 338.695 96.3981C338.659 96.4074 338.629 96.4172 338.605 96.4273L338.54 96.6167L338.327 96.6377C338.197 96.6525 338.102 96.6637 338.043 96.6715C337.995 96.6801 337.936 96.682 337.866 96.6773L337.692 96.648C337.57 96.5342 337.476 96.4457 337.41 96.3825C337.345 96.3077 337.267 96.2379 337.177 96.1732C337.082 96.0258 337.03 95.9167 337.023 95.8457C337.016 95.7748 337.009 95.7097 337.001 95.6505C336.982 95.5787 336.975 95.5195 336.978 95.4727C336.969 95.4252 336.954 95.3889 336.932 95.364L336.718 95.1382L336.922 94.9933L336.959 94.6963C337.233 94.1156 337.517 93.5591 337.811 93.0268C338.117 92.4953 338.429 91.9524 338.748 91.3983C338.854 91.2174 338.954 91.0362 339.049 90.8546C339.155 90.6738 339.261 90.493 339.367 90.3122C339.357 90.2763 339.354 90.235 339.357 90.1882C339.361 90.1415 339.376 90.0896 339.403 90.0327C339.545 89.8426 339.662 89.6742 339.754 89.5277C339.847 89.3695 339.94 89.2113 340.032 89.053C340.139 88.8605 340.246 88.6739 340.352 88.493C340.47 88.313 340.611 88.1287 340.776 87.9401L341.065 87.8361C341.101 87.8268 341.143 87.8178 341.19 87.8093C341.239 87.789 341.292 87.7808 341.351 87.7847L341.611 87.8374C341.949 87.7073 342.249 87.5161 342.513 87.2636C342.777 86.9994 343.051 86.683 343.334 86.3143L343.526 86.0805L343.744 86.2361C343.801 86.2751 343.88 86.3157 343.983 86.3578C344.087 86.3882 344.196 86.4249 344.31 86.4678C344.518 86.5286 344.713 86.5946 344.896 86.6655C345.079 86.7365 345.225 86.8344 345.335 86.9592C345.392 87.1509 345.424 87.294 345.429 87.3883C345.435 87.4826 345.446 87.5773 345.463 87.6725C345.485 87.8736 345.501 88.0743 345.511 88.2746C345.532 88.4758 345.541 88.6995 345.536 88.9458C345.581 89.1485 345.615 89.3504 345.637 89.5515C345.671 89.7417 345.699 89.9374 345.721 90.1385C345.76 90.4231 345.8 90.7018 345.841 90.9746C345.882 91.2358 345.942 91.4864 346.02 91.7265C346.113 91.7328 346.171 91.7425 346.194 91.7558C346.254 91.7363 346.313 91.7227 346.373 91.7149C346.444 91.7079 346.52 91.7013 346.603 91.6951L346.797 91.6905L346.856 91.8706C346.863 91.9298 346.918 91.9922 347.019 92.0577C347.17 92.0796 347.279 92.1221 347.345 92.1852C347.412 92.2367 347.473 92.2936 347.528 92.356C347.571 92.4059 347.616 92.4441 347.661 92.4706L347.917 92.5935L347.759 92.8472C347.628 93.0498 347.445 93.2431 347.209 93.427C346.986 93.6 346.736 93.7418 346.459 93.8524C346.466 93.9233 346.467 93.9939 346.462 94.064C346.47 94.1233 346.483 94.1887 346.502 94.2605C346.524 94.4616 346.539 94.6682 346.548 94.8802C346.558 95.0922 346.543 95.3085 346.505 95.5291L346.465 95.5969ZM341.6 92.2234C341.952 92.2235 342.269 92.2212 342.551 92.2166C342.846 92.2011 343.171 92.17 343.527 92.1234C343.468 91.7671 343.405 91.3988 343.336 91.0183C343.269 90.6262 343.195 90.2396 343.114 89.8584L342.997 90.0267C342.747 90.2566 342.501 90.5161 342.258 90.8052C342.027 91.0952 341.827 91.3695 341.657 91.6282C341.58 91.7288 341.503 91.8293 341.425 91.9299C341.348 92.0304 341.277 92.1313 341.211 92.2326C341.282 92.2256 341.347 92.2241 341.405 92.228C341.476 92.2327 341.54 92.2312 341.6 92.2234ZM354.818 97.6712C354.63 97.6704 354.397 97.6489 354.118 97.6067C353.85 97.5653 353.596 97.5894 353.355 97.679C352.737 97.6141 352.111 97.4958 351.476 97.3242C350.842 97.1525 350.262 96.9551 349.736 96.732C349.628 96.5956 349.519 96.4708 349.409 96.3578C349.3 96.233 349.148 96.1406 348.952 96.0805C348.686 95.8396 348.476 95.5554 348.322 95.228C348.169 94.8888 348.051 94.5345 347.97 94.165C347.889 93.7955 347.844 93.4225 347.834 93.0459C347.825 92.6577 347.838 92.2886 347.873 91.9387C348.083 91.4242 348.359 90.9905 348.7 90.6375C349.053 90.2735 349.412 89.9158 349.776 89.5644C349.933 89.5044 350.048 89.4417 350.123 89.3762C350.211 89.2998 350.297 89.2352 350.383 89.1822C350.481 89.1183 350.573 89.0599 350.659 89.0069C350.757 88.943 350.844 88.8666 350.921 88.7778C351.17 88.7357 351.386 88.668 351.569 88.5745C351.764 88.4701 351.953 88.3653 352.136 88.2601C352.32 88.1432 352.509 88.0384 352.703 87.9457C352.897 87.853 353.119 87.7857 353.368 87.7436C353.469 87.6447 353.586 87.5702 353.718 87.5204C353.851 87.4588 353.984 87.4031 354.117 87.3533C354.262 87.2925 354.395 87.231 354.517 87.1687C354.65 87.1071 354.756 87.0202 354.834 86.908C354.886 87.0054 354.965 87.046 355.072 87.0297C355.18 87.0016 355.282 86.9732 355.377 86.9444C355.437 86.9366 355.483 86.9514 355.515 86.9889C355.56 87.0271 355.598 87.0649 355.631 87.1023C355.664 87.1397 355.692 87.1651 355.714 87.1783C355.749 87.1807 355.78 87.1534 355.808 87.0965C355.866 87.1004 355.882 87.1308 355.854 87.1877C355.827 87.2446 355.807 87.2844 355.794 87.307C355.888 87.3016 355.962 87.33 356.017 87.3924C356.084 87.4439 356.187 87.4801 356.327 87.5012C356.37 87.5628 356.378 87.6104 356.352 87.6439C356.327 87.6657 356.313 87.7117 356.308 87.7819C356.652 87.9106 356.863 88.095 356.94 88.3351C357.019 88.5635 357.009 88.7978 356.911 89.0378C356.813 89.2779 356.651 89.4961 356.427 89.6925C356.202 89.8889 355.965 90.0139 355.715 90.0676C355.143 90.1821 354.6 90.316 354.084 90.4694C353.582 90.6119 353.161 90.848 352.821 91.1776C352.535 91.2407 352.276 91.335 352.045 91.4604C351.826 91.5749 351.611 91.7132 351.401 91.8753C351.203 92.0265 351.01 92.1897 350.822 92.3651C350.646 92.5295 350.459 92.6932 350.26 92.856C350.261 93.0205 350.223 93.1472 350.147 93.236C350.083 93.3139 350.018 93.3977 349.954 93.4874C349.965 93.6643 349.996 93.8249 350.045 93.9691C350.095 94.1017 350.15 94.2346 350.212 94.3679C350.968 94.6534 351.777 94.8544 352.638 94.9707C353.511 95.0879 354.386 95.1817 355.262 95.2521C355.336 95.3745 355.422 95.4918 355.52 95.6041C355.631 95.7055 355.729 95.8178 355.815 95.9409C355.901 96.0524 355.969 96.1803 356.018 96.3245C356.068 96.4571 356.069 96.6215 356.02 96.818C355.845 96.9824 355.653 97.134 355.444 97.2727C355.235 97.3997 355.027 97.5325 354.818 97.6712ZM365.843 96.6652C365.846 96.9707 365.794 97.2198 365.688 97.4123C365.581 97.6048 365.441 97.7657 365.268 97.8951C365.095 98.0244 364.9 98.123 364.684 98.1908C364.468 98.2585 364.259 98.3208 364.055 98.3777C363.965 98.3129 363.876 98.2482 363.786 98.1835C363.709 98.1079 363.613 98.0486 363.499 98.0057C363.365 97.7149 363.236 97.4596 363.109 97.2397C362.984 97.0081 362.936 96.7524 362.967 96.4726C362.968 96.4609 362.978 96.397 362.997 96.2809C363.029 96.1655 363.061 96.0384 363.093 95.8997C363.138 95.7617 363.17 95.6347 363.189 95.5185C363.221 95.3915 363.238 95.3221 363.239 95.3104C362.968 95.3158 362.684 95.3555 362.385 95.4294C362.086 95.5034 361.792 95.5953 361.503 95.7052C361.226 95.8158 360.96 95.9272 360.706 96.0393C360.463 96.1523 360.263 96.2505 360.105 96.3338C360.102 96.3689 360.073 96.455 360.017 96.5922C359.961 96.7177 359.894 96.8541 359.813 97.0014C359.734 97.137 359.649 97.2606 359.559 97.372C359.47 97.4835 359.384 97.5364 359.302 97.531C359.311 97.5668 359.327 97.6031 359.348 97.6397C359.369 97.6764 359.366 97.7231 359.338 97.78C359.172 97.8158 359.021 97.8645 358.888 97.9261C358.754 97.9993 358.615 98.0546 358.472 98.092C358.328 98.1411 358.174 98.1601 358.01 98.1492C357.846 98.1382 357.657 98.0668 357.443 97.935C357.448 97.8649 357.422 97.8044 357.367 97.7538C357.312 97.6914 357.251 97.6403 357.183 97.6005C357.128 97.5499 357.078 97.5113 357.033 97.4847C356.988 97.4465 356.967 97.4157 356.968 97.3923C356.909 97.4001 356.888 97.3576 356.906 97.2649C356.924 97.1721 356.973 97.1519 357.051 97.2041C356.934 97.0318 356.861 96.886 356.834 96.7667C356.819 96.6366 356.765 96.4744 356.673 96.2803C356.698 96.2585 356.724 96.2191 356.751 96.1622C356.767 96.1045 356.782 96.0527 356.797 96.0067C356.812 95.9607 356.832 95.9268 356.856 95.905C356.881 95.8832 356.91 95.891 356.943 95.9284C356.927 95.8216 356.933 95.7339 356.961 95.6653C356.989 95.5967 357.016 95.534 357.044 95.4771C357.071 95.4202 357.092 95.3629 357.108 95.3052C357.124 95.2475 357.11 95.1821 357.068 95.1088C357.273 94.8641 357.414 94.5975 357.492 94.3091C357.571 94.009 357.624 93.7366 357.652 93.4918C357.74 93.4154 357.818 93.3032 357.886 93.1551C357.967 93.0078 358.029 92.8593 358.075 92.7097C358.121 92.5483 358.142 92.3971 358.14 92.256C358.15 92.104 358.141 91.9801 358.112 91.8842C358.128 91.8265 358.193 91.8133 358.309 91.8445C358.405 91.4633 358.48 91.0338 358.536 90.556C358.604 90.0673 358.687 89.6089 358.786 89.181C358.886 88.7414 359.029 88.3633 359.215 88.0469C359.401 87.7188 359.679 87.5142 360.049 87.4333C360.102 87.6835 360.176 87.9057 360.268 88.0998C360.373 88.2947 360.483 88.4842 360.6 88.6682C360.73 88.8413 360.853 89.0198 360.97 89.2038C361.098 89.3886 361.213 89.596 361.315 89.826C361.289 90.0473 361.248 90.303 361.194 90.593C361.139 90.8829 361.072 91.178 360.993 91.4781C360.926 91.7789 360.854 92.0677 360.777 92.3444C360.711 92.6219 360.648 92.8585 360.588 93.0541C360.596 93.1134 360.623 93.1504 360.669 93.1653C360.727 93.1809 360.735 93.2343 360.694 93.3254C360.979 93.2741 361.276 93.2293 361.583 93.1912C361.891 93.1531 362.2 93.1092 362.508 93.0594C362.817 93.0095 363.114 92.9531 363.401 92.8901C363.699 92.8161 363.976 92.723 364.23 92.6108C364.319 92.1587 364.425 91.7078 364.549 91.2581C364.673 90.8083 364.716 90.3414 364.678 89.8573C364.74 89.8144 364.791 89.7591 364.83 89.6913C364.87 89.6235 364.932 89.5806 365.015 89.5627C364.972 89.3367 364.964 89.1012 364.992 88.8565C365.02 88.6117 365.077 88.3806 365.162 88.1631C365.258 87.9465 365.382 87.7668 365.532 87.6242C365.695 87.4707 365.884 87.3776 366.097 87.3449C366.213 87.5406 366.311 87.7527 366.389 87.9811C366.469 88.1978 366.548 88.4204 366.627 88.6488C366.718 88.8663 366.809 89.078 366.901 89.2838C367.006 89.4787 367.141 89.6522 367.307 89.8042C367.319 90.1457 367.319 90.498 367.307 90.8613C367.306 91.2253 367.299 91.5948 367.285 91.9697C367.162 92.4078 367.028 92.8334 366.883 93.2465C366.75 93.6487 366.645 94.0821 366.567 94.5466C366.478 94.6347 366.407 94.7356 366.352 94.8494C366.298 94.9632 366.243 95.0828 366.188 95.2083C366.133 95.3221 366.072 95.4355 366.006 95.5485C365.941 95.6499 365.864 95.7387 365.777 95.8151C365.814 95.9585 365.811 96.0934 365.767 96.2196C365.736 96.335 365.762 96.4835 365.843 96.6652ZM384.298 89.6908C384.304 89.7735 384.3 89.8378 384.285 89.8838C384.282 89.9188 384.274 89.9535 384.26 89.9878C384.258 90.0229 384.255 90.0638 384.252 90.1106C384.25 90.1457 384.257 90.2049 384.275 90.2883C384.003 90.6694 383.698 90.925 383.361 91.0551C383.036 91.1743 382.684 91.2564 382.305 91.3015C381.927 91.335 381.537 91.3734 381.134 91.417C380.744 91.4613 380.348 91.5875 379.946 91.7955C379.798 91.7269 379.658 91.7175 379.525 91.7673C379.404 91.818 379.228 91.8238 378.996 91.7847C378.921 91.8502 378.83 91.8969 378.722 91.9249C378.615 91.9413 378.508 91.9635 378.4 91.9915C378.44 92.0999 378.45 92.2121 378.431 92.3283C378.424 92.4335 378.435 92.5224 378.466 92.5949C378.873 92.6573 379.323 92.6816 379.817 92.6677C380.323 92.6546 380.816 92.6583 381.296 92.6787C381.304 92.7379 381.296 92.7785 381.271 92.8003C381.247 92.8104 381.239 92.8392 381.247 92.8868C381.325 92.9507 381.402 93.0322 381.478 93.1312C381.554 93.2186 381.63 93.3059 381.707 93.3932C381.783 93.4805 381.86 93.5562 381.938 93.6201C382.029 93.6732 382.133 93.6977 382.25 93.6939C382.291 93.7905 382.313 93.8977 382.317 94.0154C382.333 94.1222 382.314 94.2325 382.259 94.3463C382.064 94.4624 381.868 94.5844 381.671 94.7122C381.476 94.8283 381.269 94.9319 381.051 95.023C380.846 95.1149 380.623 95.1882 380.385 95.2427C380.159 95.2862 379.906 95.2928 379.626 95.2623C379.568 95.2584 379.521 95.2553 379.486 95.2529C379.462 95.2514 379.428 95.2315 379.384 95.1933C379.287 95.2455 379.151 95.254 378.977 95.2189C378.815 95.1845 378.685 95.1935 378.588 95.2457C378.463 95.1786 378.307 95.1446 378.119 95.1438C377.943 95.1321 377.787 95.0981 377.65 95.042C377.446 95.275 377.259 95.5267 377.089 95.7972C376.918 96.0676 376.763 96.3568 376.625 96.6646C377.019 96.7497 377.345 96.795 377.603 96.8005C377.872 96.8068 378.125 96.8061 378.36 96.7984C378.597 96.779 378.838 96.7658 379.085 96.7589C379.333 96.7402 379.644 96.7493 380.017 96.786C380.26 96.673 380.54 96.6096 380.858 96.5956C381.189 96.5708 381.491 96.5206 381.767 96.4451C381.858 96.4864 381.935 96.5562 381.999 96.6544C382.064 96.741 382.123 96.8271 382.176 96.9129C382.241 96.9877 382.307 97.0567 382.373 97.1199C382.44 97.1831 382.526 97.2123 382.632 97.2077C382.675 97.2576 382.701 97.318 382.708 97.3889C382.727 97.449 382.741 97.5086 382.749 97.5678C382.756 97.6271 382.77 97.6809 382.791 97.7292C382.823 97.7666 382.875 97.7818 382.946 97.7749C382.745 98.149 382.52 98.4334 382.272 98.6282C382.037 98.8121 381.769 98.9469 381.47 99.0326C381.171 99.1183 380.838 99.1782 380.471 99.2124C380.117 99.2474 379.72 99.2913 379.282 99.3442C379.175 99.3605 379.088 99.3488 379.02 99.309C378.952 99.2809 378.871 99.2638 378.777 99.2575C378.504 99.298 378.179 99.3291 377.802 99.3508C377.425 99.3725 377.044 99.3646 376.658 99.3271C376.273 99.2896 375.909 99.2123 375.564 99.0953C375.219 98.9899 374.942 98.8188 374.735 98.5817C374.647 98.4936 374.589 98.3958 374.561 98.2882C374.545 98.1697 374.475 98.0769 374.351 98.0098C374.349 97.8571 374.337 97.6859 374.315 97.4965C374.292 97.3071 374.27 97.1118 374.248 96.9107C374.227 96.6979 374.212 96.4913 374.201 96.291C374.203 96.0914 374.227 95.911 374.273 95.7496C374.32 95.5766 374.4 95.4234 374.515 95.2901C374.641 95.1577 374.693 95.0084 374.668 94.8424C374.728 94.8346 374.765 94.8077 374.779 94.7617C374.795 94.704 374.843 94.6838 374.925 94.7009C375.009 94.4952 375.098 94.3015 375.192 94.1199C375.287 93.9383 375.381 93.7625 375.474 93.5926C375.58 93.4235 375.679 93.254 375.773 93.0841C375.879 92.9032 375.98 92.7045 376.077 92.4878C375.923 92.3248 375.812 92.1529 375.741 91.9721C375.684 91.7803 375.643 91.5955 375.62 91.4178C375.597 91.2284 375.581 91.0393 375.57 90.8507C375.56 90.6503 375.532 90.4488 375.487 90.2461C375.616 90.0786 375.765 89.9477 375.936 89.8534C376.119 89.7482 376.313 89.6672 376.516 89.6103C376.72 89.5535 376.94 89.5095 377.177 89.4784C377.414 89.4473 377.663 89.4111 377.924 89.3699C378.402 89.2492 378.825 89.16 379.193 89.1024C379.572 89.0456 379.939 89.0056 380.293 88.9823C380.659 88.9481 381.037 88.9205 381.426 88.8996C381.815 88.8787 382.258 88.8379 382.756 88.7772C382.854 88.8895 382.95 88.9487 383.043 88.955C383.097 88.8529 383.152 88.8272 383.207 88.8779C383.275 88.9176 383.306 88.8845 383.302 88.7785C383.405 88.9851 383.54 89.1644 383.706 89.3165C383.885 89.4576 384.082 89.5824 384.298 89.6908ZM389.263 96.8412C389.24 97.0041 389.189 97.1592 389.108 97.3065C389.04 97.4429 388.955 97.5781 388.852 97.7122C388.75 97.8345 388.636 97.9561 388.511 98.0769C388.398 98.1868 388.285 98.285 388.174 98.3715C388.199 98.5258 388.191 98.6427 388.15 98.7222C388.122 98.7908 388.109 98.9015 388.11 99.0543C387.904 99.5103 387.614 99.8021 387.241 99.9298C386.88 100.07 386.548 100.019 386.248 99.7752C386.125 99.6731 386.022 99.5487 385.938 99.4021C385.866 99.2447 385.755 99.1433 385.606 99.098C385.654 98.9016 385.65 98.7017 385.593 98.4982C385.536 98.2947 385.467 98.1844 385.386 98.1672C385.368 97.9193 385.333 97.6527 385.281 97.3674C385.23 97.0821 385.184 96.7972 385.145 96.5126C385.106 96.2164 385.072 95.9323 385.043 95.6602C385.027 95.3772 385.032 95.1192 385.06 94.8861C385.079 94.77 385.063 94.6632 385.011 94.5657C384.97 94.4691 384.943 94.3556 384.928 94.2255C384.899 93.9534 384.9 93.6716 384.932 93.3801C384.975 93.0776 385.006 92.7919 385.024 92.523C385.041 92.2658 385.042 91.9898 385.027 91.6952C385.024 91.3896 385.019 91.1016 385.014 90.8311C385.01 90.5489 385.015 90.2967 385.03 90.0746C385.045 89.8407 385.087 89.6614 385.154 89.5367C385.233 89.4011 385.334 89.2963 385.457 89.2223C385.591 89.1373 385.715 89.0458 385.827 88.9476C386.083 88.9882 386.281 89.1071 386.42 89.3044C386.559 89.5016 386.606 89.6809 386.56 89.8423C386.796 90.0107 386.975 90.2224 387.099 90.4774C387.235 90.7214 387.334 90.9981 387.396 91.3076C387.47 91.6062 387.513 91.9262 387.525 92.2676C387.538 92.5974 387.546 92.9267 387.547 93.2557C387.55 93.573 387.553 93.8785 387.556 94.1724C387.56 94.4663 387.59 94.7208 387.646 94.936C388.12 94.3452 388.52 93.8199 388.844 93.3601C389.169 92.8886 389.499 92.4408 389.832 92.0169C390.166 91.5929 390.535 91.1654 390.94 90.7345C391.345 90.3035 391.864 89.8215 392.499 89.2885C392.615 89.308 392.707 89.3377 392.775 89.3775C392.855 89.418 392.923 89.4519 392.98 89.4792C393.037 89.5065 393.105 89.5346 393.185 89.5635C393.266 89.5807 393.378 89.5822 393.52 89.5683C393.559 89.6883 393.588 89.7784 393.607 89.8384C393.628 89.8867 393.642 89.9405 393.649 89.9998C393.67 90.0481 393.689 90.114 393.707 90.1974C393.736 90.2816 393.781 90.402 393.841 90.5587C393.874 90.5962 393.882 90.6437 393.867 90.7014C393.851 90.7591 393.836 90.8167 393.82 90.8744C393.817 90.9212 393.814 90.9563 393.813 90.9797C393.811 91.003 393.841 91.005 393.901 90.9855C393.855 91.1469 393.78 91.2946 393.677 91.4286C393.587 91.5518 393.541 91.7073 393.54 91.8951C393.248 92.2279 392.925 92.5704 392.573 92.9227C392.232 93.2757 391.885 93.64 391.531 94.0156C391.188 94.3921 390.856 94.7926 390.534 95.2174C390.213 95.6304 389.931 96.0696 389.688 96.5349C389.63 96.531 389.582 96.5454 389.545 96.5782C389.519 96.6117 389.493 96.651 389.466 96.6962C389.441 96.7297 389.409 96.7629 389.372 96.7956C389.346 96.8291 389.31 96.8443 389.263 96.8412ZM402.38 90.9013C402.386 90.984 402.382 91.0483 402.367 91.0943C402.365 91.1293 402.357 91.164 402.343 91.1983C402.34 91.2334 402.338 91.2743 402.335 91.3211C402.332 91.3562 402.34 91.4154 402.358 91.4988C402.086 91.8799 401.781 92.1355 401.443 92.2656C401.118 92.3848 400.766 92.467 400.387 92.5121C400.009 92.5455 399.619 92.584 399.217 92.6275C398.826 92.6718 398.43 92.798 398.029 93.006C397.881 92.9374 397.74 92.928 397.608 92.9778C397.487 93.0285 397.31 93.0343 397.078 92.9952C397.003 93.0607 396.912 93.1074 396.804 93.1355C396.698 93.1518 396.591 93.174 396.483 93.202C396.523 93.3104 396.533 93.4226 396.513 93.5388C396.506 93.644 396.518 93.7329 396.548 93.8054C396.955 93.8679 397.406 93.8922 397.9 93.8783C398.406 93.8651 398.899 93.8688 399.379 93.8892C399.387 93.9484 399.378 93.989 399.353 94.0108C399.329 94.0209 399.321 94.0498 399.33 94.0973C399.408 94.1613 399.485 94.2427 399.56 94.3418C399.637 94.4291 399.713 94.5164 399.789 94.6037C399.866 94.6911 399.943 94.7667 400.021 94.8306C400.111 94.8837 400.215 94.9083 400.333 94.9044C400.373 95.0011 400.396 95.1083 400.399 95.226C400.416 95.3328 400.397 95.4431 400.342 95.5569C400.146 95.6729 399.95 95.7949 399.754 95.9227C399.558 96.0388 399.352 96.1424 399.134 96.2335C398.928 96.3255 398.706 96.3987 398.467 96.4532C398.241 96.4968 397.988 96.5033 397.709 96.4728C397.65 96.4689 397.603 96.4658 397.568 96.4634C397.545 96.4619 397.511 96.442 397.467 96.4038C397.369 96.456 397.233 96.4645 397.06 96.4294C396.898 96.3951 396.768 96.404 396.67 96.4562C396.546 96.3891 396.389 96.3552 396.201 96.3543C396.026 96.3426 395.87 96.3086 395.733 96.2525C395.529 96.4855 395.342 96.7372 395.171 97.0077C395 97.2781 394.846 97.5673 394.708 97.8751C395.101 97.9602 395.427 98.0055 395.685 98.0111C395.955 98.0174 396.208 98.0167 396.443 98.0089C396.679 97.9895 396.921 97.9763 397.168 97.9694C397.416 97.9507 397.726 97.9598 398.1 97.9965C398.342 97.8836 398.623 97.8201 398.941 97.8062C399.271 97.7813 399.574 97.7311 399.849 97.6556C399.94 97.6969 400.018 97.7667 400.082 97.8649C400.147 97.9515 400.205 98.0376 400.258 98.1234C400.324 98.1982 400.39 98.2673 400.456 98.3304C400.522 98.3936 400.608 98.4228 400.714 98.4182C400.758 98.4681 400.783 98.5285 400.79 98.5994C400.81 98.6595 400.823 98.7191 400.831 98.7784C400.839 98.8376 400.853 98.8914 400.873 98.9397C400.906 98.9771 400.958 98.9924 401.029 98.9854C400.827 99.3595 400.603 99.6439 400.355 99.8388C400.119 100.023 399.852 100.157 399.553 100.243C399.253 100.329 398.92 100.389 398.554 100.423C398.199 100.458 397.803 100.502 397.365 100.555C397.258 100.571 397.171 100.559 397.103 100.52C397.034 100.491 396.953 100.474 396.86 100.468C396.587 100.508 396.262 100.54 395.885 100.561C395.507 100.583 395.126 100.575 394.741 100.538C394.356 100.5 393.991 100.423 393.647 100.306C393.301 100.2 393.025 100.029 392.818 99.7922C392.73 99.7041 392.672 99.6063 392.644 99.4987C392.628 99.3802 392.558 99.2874 392.433 99.2204C392.432 99.0676 392.42 98.8965 392.397 98.707C392.375 98.5176 392.352 98.3223 392.331 98.1212C392.31 97.9084 392.294 97.7018 392.284 97.5015C392.286 97.3019 392.309 97.1215 392.355 96.9601C392.402 96.7871 392.483 96.6339 392.598 96.5007C392.724 96.3682 392.775 96.2189 392.751 96.0529C392.81 96.0451 392.847 96.0182 392.862 95.9722C392.878 95.9145 392.926 95.8943 393.007 95.9115C393.091 95.7057 393.181 95.512 393.275 95.3304C393.369 95.1488 393.463 94.973 393.557 94.8031C393.662 94.634 393.762 94.4645 393.855 94.2946C393.961 94.1138 394.063 93.915 394.159 93.6983C394.006 93.5354 393.894 93.3635 393.824 93.1826C393.766 92.9908 393.726 92.806 393.703 92.6283C393.68 92.4389 393.663 92.2498 393.652 92.0612C393.642 91.8609 393.615 91.6593 393.57 91.4567C393.698 91.2891 393.848 91.1582 394.019 91.0639C394.202 90.9587 394.395 90.8777 394.599 90.8209C394.802 90.764 395.022 90.72 395.259 90.6889C395.496 90.6578 395.745 90.6216 396.007 90.5804C396.484 90.4597 396.907 90.3705 397.275 90.313C397.655 90.2562 398.022 90.2161 398.376 90.1928C398.742 90.1586 399.12 90.1311 399.509 90.1101C399.898 90.0892 400.341 90.0484 400.838 89.9877C400.936 90.1 401.032 90.1593 401.126 90.1655C401.18 90.0634 401.234 90.0377 401.29 90.0884C401.357 90.1282 401.389 90.095 401.384 89.989C401.488 90.1956 401.623 90.375 401.789 90.527C401.967 90.6682 402.164 90.7929 402.38 90.9013ZM405.107 97.7962C405.001 97.8125 404.92 97.8717 404.867 97.9738C404.813 98.0642 404.76 98.1605 404.706 98.2626C404.664 98.3655 404.617 98.4621 404.564 98.5525C404.523 98.632 404.462 98.6691 404.38 98.6636C404.362 98.7563 404.321 98.8358 404.258 98.9021C404.207 98.9691 404.155 99.042 404.103 99.1207C404.051 99.1877 404.011 99.2672 403.981 99.3592C403.952 99.4395 403.957 99.5396 403.996 99.6597C403.898 99.7236 403.833 99.8191 403.801 99.9461C403.769 100.073 403.731 100.194 403.688 100.309C403.657 100.424 403.604 100.52 403.528 100.597C403.452 100.674 403.322 100.701 403.135 100.677C403.097 100.721 403.089 100.75 403.112 100.763C403.134 100.777 403.149 100.819 403.156 100.89C403.029 100.858 402.929 100.857 402.857 100.887C402.795 100.93 402.717 100.954 402.623 100.96C402.406 100.875 402.227 100.739 402.086 100.554C401.958 100.369 401.842 100.167 401.739 99.949C401.649 99.7198 401.564 99.491 401.486 99.2626C401.419 99.035 401.35 98.8366 401.279 98.6674C401.323 98.5411 401.337 98.4187 401.321 98.3003C401.306 98.1701 401.273 98.0621 401.22 97.9763C401.874 96.7987 402.586 95.5427 403.357 94.2083C404.127 92.874 404.862 91.5549 405.56 90.2509C405.822 90.3742 406.076 90.5146 406.324 90.6721C406.585 90.8187 406.814 90.9868 407.013 91.1762C407.223 91.3665 407.397 91.5836 407.533 91.8277C407.67 92.06 407.753 92.318 407.781 92.6018C407.753 92.6704 407.721 92.6977 407.687 92.6836C407.665 92.6587 407.642 92.6629 407.616 92.6965C407.659 92.7581 407.679 92.8005 407.678 92.8239C407.688 92.8481 407.686 92.8715 407.673 92.8941C407.671 92.9175 407.669 92.9525 407.666 92.9993C407.664 93.0344 407.678 93.0882 407.708 93.1607C407.662 93.1459 407.627 93.1494 407.602 93.1712C407.588 93.1938 407.553 93.1914 407.496 93.1641C407.535 93.2959 407.539 93.4019 407.51 93.4822C407.493 93.5633 407.465 93.6377 407.425 93.7055C407.386 93.7616 407.352 93.8298 407.323 93.9101C407.295 93.9787 407.295 94.0726 407.322 94.1919C407.287 94.1895 407.257 94.1993 407.232 94.2211C407.219 94.232 407.206 94.2488 407.193 94.2714C407.181 94.2823 407.162 94.2986 407.137 94.3205C407.125 94.3314 407.101 94.3298 407.067 94.3158C407.085 94.5753 407.079 94.8334 407.05 95.0898C407.021 95.3463 406.992 95.6086 406.962 95.8767C406.945 96.134 406.933 96.4091 406.925 96.7022C406.918 96.9836 406.939 97.2787 406.989 97.5874C407.426 97.37 407.781 97.0766 408.052 96.7072C408.335 96.3386 408.569 95.9196 408.753 95.4504C408.949 94.982 409.106 94.4757 409.224 93.9317C409.343 93.3876 409.468 92.8322 409.6 92.2655C409.712 92.1674 409.803 92.0442 409.872 91.8961C409.94 91.748 410.003 91.5937 410.061 91.4331C410.12 91.2609 410.178 91.0945 410.235 90.9339C410.294 90.7617 410.363 90.6077 410.443 90.4721C410.616 90.5072 410.759 90.5755 410.869 90.6768C410.992 90.7673 411.103 90.8687 411.201 90.9809C411.3 91.0815 411.405 91.1825 411.516 91.2839C411.627 91.3736 411.77 91.436 411.944 91.4711C412.071 91.6792 412.186 91.8808 412.291 92.0757C412.395 92.2706 412.458 92.4745 412.479 92.6873C412.414 92.7769 412.36 92.879 412.317 92.9936C412.286 93.1089 412.249 93.2239 412.206 93.3385C412.163 93.4531 412.109 93.561 412.044 93.6623C411.979 93.752 411.892 93.8283 411.782 93.8914C411.726 94.1931 411.661 94.4706 411.585 94.7239C411.522 94.9663 411.453 95.2084 411.378 95.45C411.315 95.6924 411.256 95.9469 411.203 96.2135C411.151 96.4684 411.12 96.754 411.111 97.0705C410.999 97.3332 410.881 97.613 410.755 97.91C410.629 98.2069 410.529 98.4762 410.454 98.7179C410.257 98.8573 410.099 99.0288 409.979 99.2322C409.86 99.4356 409.735 99.6387 409.604 99.8413C409.554 99.8849 409.524 99.8947 409.514 99.8705C409.504 99.8463 409.464 99.8261 409.395 99.8097C409.403 99.8572 409.401 99.8923 409.388 99.9149C409.374 99.9375 409.355 99.9597 409.33 99.9815C409.318 99.9925 409.305 100.015 409.29 100.049C409.288 100.084 409.297 100.132 409.316 100.192C409.148 100.251 408.995 100.341 408.858 100.461C408.721 100.581 408.572 100.688 408.413 100.783C408.266 100.879 408.086 100.938 407.873 100.959C407.672 100.98 407.412 100.922 407.092 100.783C406.636 100.4 406.236 99.9682 405.893 99.4872C405.561 99.0069 405.299 98.4432 405.107 97.7962ZM421.98 93.6581C421.688 93.6385 421.371 93.6407 421.028 93.6648C420.687 93.6772 420.351 93.6958 420.02 93.7207C419.784 93.7401 419.554 93.7541 419.33 93.7626C419.118 93.7719 418.924 93.7765 418.748 93.7764C418.649 94.0282 418.552 94.2507 418.457 94.444C418.362 94.6373 418.261 94.8244 418.155 95.0052C418.048 95.1977 417.947 95.3965 417.851 95.6014C417.767 95.7955 417.683 96.0071 417.597 96.2363C417.467 96.4155 417.356 96.5843 417.264 96.7425C417.183 96.8898 417.113 97.0613 417.053 97.2569C416.901 97.4229 416.783 97.6029 416.7 97.797C416.617 97.9794 416.553 98.1396 416.509 98.2775L416.425 98.4833C416.35 98.5488 416.305 98.6045 416.29 98.6505C416.276 98.6848 416.245 98.7179 416.195 98.7499C416.175 98.8777 416.126 99.0036 416.047 99.1275C416.02 99.1844 415.998 99.2417 415.982 99.2994C415.968 99.3453 415.959 99.38 415.958 99.4034C415.95 99.5203 415.916 99.5944 415.855 99.6255C415.863 99.6848 415.858 99.7491 415.842 99.8185C415.826 99.8762 415.811 99.9338 415.795 99.9915C415.751 100.129 415.732 100.24 415.738 100.322C415.77 100.372 415.796 100.414 415.817 100.451C415.85 100.488 415.87 100.537 415.878 100.596C415.945 100.648 415.996 100.68 416.03 100.694C416.074 100.733 416.142 100.778 416.232 100.831L416.378 101.017C416.414 101.36 416.344 101.626 416.167 101.813C415.976 102.024 415.671 102.115 415.25 102.087L415.039 102.073C414.985 102.01 414.953 101.961 414.943 101.925C414.852 101.884 414.778 101.85 414.721 101.822C414.664 101.795 414.615 101.745 414.573 101.671C414.426 101.591 414.307 101.524 414.216 101.471L414.064 101.373C414.073 101.245 414.078 101.174 414.078 101.163C414.004 101.052 413.947 100.931 413.909 100.799C413.882 100.668 413.862 100.537 413.847 100.407C413.831 100.3 413.808 100.199 413.779 100.103C413.762 100.008 413.733 99.9239 413.691 99.8506C413.713 99.1709 413.815 98.6023 413.999 98.1447C414.182 97.6872 414.37 97.2476 414.562 96.8259C414.672 96.5983 414.781 96.3708 414.89 96.1432C415 95.9039 415.099 95.658 415.186 95.4054L415.356 95.2406C415.45 95.059 415.525 94.9113 415.579 94.7975C415.646 94.6728 415.713 94.5481 415.78 94.4234C415.821 94.3439 415.855 94.2699 415.883 94.2013C415.924 94.1218 415.958 94.0536 415.985 93.9967C415.915 93.992 415.85 93.9935 415.791 94.0013C415.733 93.9974 415.674 93.9993 415.614 94.0071C415.544 94.0141 415.478 94.0215 415.419 94.0293C415.361 94.0253 415.302 94.0214 415.244 94.0175C415.162 94.012 415.104 94.0023 415.07 93.9882C414.937 94.0381 414.795 94.0579 414.643 94.0477L414.467 94.036C414.432 94.0337 414.397 94.0313 414.362 94.029C414.34 94.0157 414.317 94.0083 414.293 94.0067C414.176 93.9989 414.082 94.0102 414.009 94.0406C413.869 94.0312 413.734 94.0222 413.606 94.0136L413.43 94.0018C413.407 94.0002 413.377 94.0041 413.341 94.0135C413.306 94.0111 413.277 94.0092 413.254 94.0076C413.172 94.0021 413.085 93.9904 412.992 93.9725C412.9 93.9428 412.803 93.8952 412.702 93.8297C412.574 93.6333 412.487 93.5276 412.441 93.5128L412.297 93.2917C412.29 93.2208 412.277 93.1553 412.258 93.0953C412.239 93.0236 412.221 92.946 412.203 92.8626C412.164 92.7425 412.125 92.6166 412.087 92.4849C412.061 92.3422 412.055 92.1774 412.067 91.9903C412.085 91.8975 412.113 91.8289 412.152 91.7845C412.19 91.7401 412.222 91.7011 412.248 91.6676L412.318 91.408L412.545 91.4408L413.036 91.4737C413.41 91.4988 413.791 91.5125 414.178 91.515C414.566 91.5057 414.966 91.4973 415.378 91.4896C415.613 91.4818 415.849 91.4741 416.084 91.4664C416.331 91.4594 416.584 91.4529 416.843 91.4467C416.897 91.3446 416.95 91.2484 417.003 91.1579L417.184 91.082C417.396 91.0844 417.54 91.1234 417.617 91.199C417.707 91.2638 417.779 91.3273 417.833 91.3897C418.092 91.3835 418.351 91.3774 418.61 91.3712C418.881 91.3541 419.153 91.3312 419.425 91.3024C419.826 91.2706 420.227 91.2446 420.628 91.2244C421.04 91.205 421.434 91.2079 421.808 91.2329C421.971 91.2439 422.129 91.2603 422.28 91.2822C422.431 91.304 422.57 91.331 422.698 91.363L422.865 91.4975C422.895 91.57 422.938 91.6374 422.992 91.6998C423.058 91.763 423.125 91.8261 423.191 91.8893C423.322 92.0273 423.453 92.1887 423.581 92.3735C423.71 92.5583 423.745 92.819 423.687 93.1557C423.584 93.2898 423.509 93.3669 423.46 93.3872L423.289 93.5871L423.114 93.5578C423.044 93.5531 422.979 93.5605 422.919 93.58C422.86 93.5878 422.8 93.6014 422.74 93.6209C422.692 93.6411 422.643 93.6614 422.595 93.6816C422.548 93.6902 422.494 93.6984 422.435 93.7061C422.33 93.6991 422.242 93.6932 422.172 93.6885C422.114 93.6729 422.05 93.6628 421.98 93.6581ZM365.333 116.926C365.04 116.907 364.723 116.909 364.381 116.933C364.039 116.945 363.703 116.964 363.373 116.989C363.137 117.008 362.907 117.022 362.683 117.031C362.471 117.04 362.277 117.045 362.101 117.045C362.002 117.296 361.905 117.519 361.809 117.712C361.714 117.906 361.614 118.093 361.508 118.273C361.401 118.466 361.299 118.665 361.203 118.87C361.12 119.064 361.035 119.275 360.949 119.505C360.82 119.684 360.709 119.853 360.616 120.011C360.536 120.158 360.466 120.33 360.405 120.525C360.253 120.691 360.136 120.871 360.052 121.065C359.97 121.248 359.906 121.408 359.861 121.546L359.777 121.752C359.702 121.817 359.658 121.873 359.643 121.919C359.629 121.953 359.597 121.986 359.548 122.018C359.528 122.146 359.478 122.272 359.399 122.396C359.372 122.453 359.351 122.51 359.335 122.568C359.32 122.614 359.312 122.648 359.31 122.672C359.303 122.789 359.268 122.863 359.207 122.894C359.215 122.953 359.211 123.017 359.195 123.087C359.179 123.144 359.163 123.202 359.148 123.26C359.103 123.398 359.084 123.508 359.09 123.591C359.122 123.64 359.149 123.683 359.17 123.719C359.203 123.757 359.223 123.805 359.231 123.864C359.298 123.916 359.348 123.949 359.383 123.963C359.427 124.001 359.494 124.046 359.585 124.099L359.731 124.285C359.767 124.628 359.696 124.894 359.519 125.082C359.329 125.292 359.023 125.383 358.602 125.355L358.392 125.341C358.337 125.278 358.305 125.229 358.296 125.193C358.205 125.152 358.131 125.118 358.074 125.091C358.017 125.063 357.967 125.013 357.925 124.94C357.778 124.859 357.659 124.793 357.569 124.74L357.417 124.641C357.425 124.513 357.43 124.443 357.431 124.431C357.356 124.32 357.3 124.199 357.261 124.067C357.235 123.936 357.214 123.806 357.2 123.675C357.183 123.569 357.161 123.467 357.132 123.371C357.115 123.276 357.085 123.192 357.043 123.119C357.065 122.439 357.168 121.87 357.351 121.413C357.534 120.955 357.722 120.516 357.915 120.094C358.024 119.867 358.133 119.639 358.243 119.411C358.353 119.172 358.451 118.926 358.539 118.674L358.708 118.509C358.803 118.327 358.877 118.18 358.932 118.066C358.999 117.941 359.066 117.816 359.133 117.692C359.173 117.612 359.208 117.538 359.236 117.469C359.276 117.39 359.31 117.322 359.338 117.265C359.267 117.26 359.203 117.262 359.144 117.27C359.085 117.266 359.026 117.268 358.967 117.275C358.896 117.282 358.831 117.29 358.772 117.297C358.713 117.294 358.655 117.29 358.596 117.286C358.514 117.28 358.456 117.271 358.422 117.256C358.29 117.306 358.147 117.326 357.995 117.316L357.82 117.304C357.785 117.302 357.75 117.3 357.715 117.297C357.692 117.284 357.669 117.277 357.646 117.275C357.529 117.267 357.434 117.278 357.362 117.309C357.221 117.299 357.087 117.29 356.958 117.282L356.783 117.27C356.759 117.268 356.73 117.272 356.694 117.282C356.659 117.279 356.63 117.277 356.606 117.276C356.524 117.27 356.437 117.259 356.344 117.241C356.252 117.211 356.156 117.163 356.054 117.098C355.927 116.901 355.84 116.796 355.794 116.781L355.65 116.56C355.643 116.489 355.63 116.424 355.61 116.364C355.592 116.292 355.573 116.214 355.555 116.131C355.516 116.011 355.478 115.885 355.44 115.753C355.414 115.61 355.407 115.446 355.42 115.259C355.438 115.166 355.466 115.097 355.504 115.053C355.542 115.008 355.574 114.969 355.6 114.936L355.67 114.676L355.897 114.709L356.388 114.742C356.762 114.767 357.143 114.781 357.531 114.783C357.919 114.774 358.319 114.765 358.73 114.758C358.966 114.75 359.201 114.742 359.437 114.735C359.684 114.728 359.937 114.721 360.195 114.715C360.249 114.613 360.303 114.517 360.356 114.426L360.537 114.35C360.748 114.353 360.892 114.392 360.97 114.467C361.059 114.532 361.131 114.596 361.186 114.658C361.445 114.652 361.703 114.646 361.962 114.639C362.233 114.622 362.505 114.599 362.777 114.571C363.179 114.539 363.58 114.513 363.98 114.493C364.393 114.473 364.786 114.476 365.16 114.501C365.324 114.512 365.481 114.529 365.633 114.55C365.784 114.572 365.923 114.599 366.05 114.631L366.217 114.766C366.248 114.838 366.29 114.906 366.345 114.968C366.411 115.031 366.477 115.094 366.543 115.158C366.675 115.296 366.805 115.457 366.934 115.642C367.062 115.826 367.098 116.087 367.04 116.424C366.937 116.558 366.861 116.635 366.813 116.655L366.641 116.855L366.467 116.826C366.397 116.821 366.332 116.829 366.272 116.848C366.212 116.856 366.153 116.87 366.093 116.889C366.044 116.909 365.996 116.93 365.948 116.95C365.9 116.958 365.847 116.967 365.787 116.974C365.682 116.967 365.595 116.961 365.524 116.957C365.467 116.941 365.403 116.931 365.333 116.926ZM369.32 121.051C369.233 121.116 369.157 121.199 369.092 121.3C369.027 121.39 368.962 121.486 368.896 121.587C368.829 121.712 368.757 121.83 368.679 121.942C368.601 122.054 368.506 122.154 368.395 122.24C368.324 122.412 368.257 122.548 368.191 122.65C368.126 122.739 368.025 122.844 367.888 122.964C367.74 123.424 367.431 123.914 366.962 124.435C366.943 124.539 366.901 124.642 366.835 124.743C366.782 124.834 366.723 124.924 366.659 125.013C366.633 125.047 366.607 125.086 366.58 125.131C366.555 125.165 366.535 125.193 366.522 125.216L366.475 125.389C366.41 125.478 366.34 125.556 366.266 125.621C366.191 125.687 366.122 125.747 366.06 125.801C366.034 125.835 365.99 125.879 365.928 125.933L365.658 126.021C364.812 125.847 364.322 125.356 364.188 124.549L364.217 124.374C364.245 124.317 364.266 124.26 364.282 124.202C364.31 124.134 364.338 124.065 364.366 123.997C364.424 123.836 364.487 123.676 364.557 123.516C364.638 123.357 364.747 123.218 364.884 123.098C364.913 123.017 364.974 122.892 365.068 122.722C365.162 122.541 365.321 122.275 365.544 121.926C365.727 121.657 365.87 121.443 365.975 121.286C366.079 121.128 366.164 121.005 366.228 120.915C366.124 120.72 365.995 120.541 365.841 120.378C365.709 120.076 365.593 119.786 365.494 119.509C365.407 119.233 365.341 118.988 365.297 118.774C365.296 118.621 365.287 118.491 365.27 118.384C365.254 118.278 365.238 118.165 365.222 118.046C365.196 117.915 365.175 117.785 365.161 117.655C365.146 117.525 365.143 117.389 365.152 117.249C365.099 117.163 365.07 117.079 365.064 116.996L365.11 116.823C365.151 116.744 365.164 116.639 365.149 116.509C365.135 116.367 365.115 116.225 365.09 116.082C365.074 115.964 365.053 115.833 365.028 115.69C365.014 115.548 365.017 115.408 365.038 115.268C365.06 115.129 365.103 115.002 365.169 114.889C365.248 114.765 365.367 114.662 365.525 114.578L365.824 114.581C365.926 114.646 366.021 114.711 366.111 114.776C366.213 114.83 366.309 114.889 366.398 114.954C366.523 115.021 366.642 115.088 366.755 115.154C366.868 115.22 366.986 115.305 367.108 115.407L367.214 115.66L367.429 115.869L367.417 116.062C367.425 116.109 367.427 116.174 367.421 116.256C367.411 116.408 367.428 116.503 367.473 116.541L367.529 116.756C367.518 116.92 367.525 117.079 367.549 117.233C367.575 117.376 367.601 117.513 367.628 117.644C367.654 117.775 367.68 117.911 367.706 118.054C367.732 118.197 367.727 118.349 367.693 118.511C367.765 118.481 367.827 118.444 367.877 118.4C367.902 118.378 367.926 118.362 367.95 118.352C367.974 118.342 367.999 118.326 368.024 118.304L369.153 116.971L369.129 116.793L369.521 116.467C369.621 116.379 369.714 116.298 369.802 116.221C369.901 116.146 369.983 116.063 370.047 115.973L370.25 115.846C370.663 115.286 371.219 114.96 371.919 114.866L372.166 114.847L372.221 115.08C372.26 115.211 372.345 115.335 372.478 115.449C372.623 115.565 372.775 115.674 372.932 115.779L373.083 115.895C373.134 116.016 373.157 116.105 373.153 116.164C373.149 116.222 373.14 116.274 373.125 116.32L373.183 116.501C373.071 116.775 372.94 116.972 372.791 117.091C372.654 117.211 372.518 117.319 372.382 117.416C372.271 117.502 372.165 117.583 372.066 117.659C371.98 117.724 371.909 117.813 371.855 117.927L371.722 118.059C371.467 118.183 371.297 118.359 371.211 118.588L371.145 118.795L370.934 118.781C370.922 118.78 370.892 118.802 370.842 118.845C370.804 118.878 370.739 118.974 370.646 119.132C370.557 119.243 370.493 119.315 370.456 119.348C370.418 119.381 370.387 119.408 370.362 119.43C370.347 119.476 370.327 119.522 370.3 119.567C370.286 119.601 370.265 119.647 370.238 119.704C370.076 119.845 369.975 119.956 369.934 120.036C369.894 120.103 369.848 120.182 369.795 120.273C369.742 120.363 369.689 120.454 369.636 120.544C369.595 120.624 369.525 120.707 369.425 120.794L369.32 121.051ZM377.931 115.321C378.418 115.412 378.85 115.541 379.226 115.707C379.603 115.873 379.918 116.082 380.171 116.334C380.338 116.639 380.493 116.966 380.634 117.316C380.786 117.667 380.891 118.032 380.948 118.412C381.017 118.781 381.033 119.158 380.996 119.543C380.97 119.929 380.862 120.315 380.671 120.701C380.304 121.1 379.866 121.417 379.357 121.653C378.86 121.878 378.326 122.054 377.754 122.18C377.181 122.306 376.587 122.407 375.972 122.483C375.367 122.56 374.775 122.638 374.194 122.717C374.188 122.986 374.169 123.273 374.137 123.576C374.117 123.868 374.068 124.165 373.989 124.465C373.923 124.754 373.828 125.035 373.704 125.309C373.579 125.582 373.422 125.83 373.231 126.052C373.032 126.039 372.826 126.049 372.612 126.081C372.398 126.126 372.208 126.16 372.042 126.184C371.963 126.132 371.89 126.08 371.823 126.029C371.767 125.99 371.681 125.96 371.565 125.941C371.596 125.825 371.575 125.707 371.501 125.584C371.427 125.45 371.354 125.316 371.281 125.182C371.208 125.048 371.157 124.921 371.13 124.802C371.115 124.683 371.18 124.576 371.328 124.48C371.251 124.393 371.218 124.285 371.226 124.156C371.317 124.022 371.4 123.833 371.475 123.592C371.562 123.351 371.631 123.115 371.681 122.883C371.745 122.641 371.771 122.419 371.761 122.219C371.751 122.019 371.644 121.865 371.44 121.757C371.453 121.735 371.477 121.724 371.512 121.727C371.547 121.729 371.583 121.726 371.619 121.716C371.53 121.64 371.478 121.537 371.463 121.406C371.46 121.277 371.427 121.163 371.363 121.065C371.39 121.008 371.411 120.957 371.426 120.911C371.441 120.865 371.483 120.85 371.552 120.866C371.531 120.653 371.544 120.455 371.592 120.27C371.651 120.086 371.727 119.915 371.82 119.757C371.914 119.587 372.024 119.424 372.152 119.268C372.28 119.112 372.402 118.956 372.518 118.799C372.601 118.793 372.647 118.808 372.656 118.844C372.677 118.88 372.719 118.877 372.78 118.834C372.94 118.728 373.054 118.612 373.121 118.487C373.188 118.362 373.227 118.218 373.238 118.054C373.336 117.814 373.452 117.576 373.585 117.338C373.719 117.088 373.864 116.863 374.018 116.662C374.172 116.461 374.337 116.284 374.512 116.131C374.698 115.979 374.887 115.869 375.08 115.799C375.228 115.692 375.411 115.598 375.627 115.519C375.845 115.428 376.078 115.367 376.327 115.337C376.576 115.295 376.824 115.282 377.069 115.298C377.327 115.304 377.559 115.343 377.766 115.416C377.823 115.443 377.853 115.433 377.856 115.386C377.871 115.34 377.896 115.318 377.931 115.321ZM376.931 119.464C377.232 119.355 377.549 119.277 377.881 119.229C378.225 119.169 378.516 119.042 378.752 118.846C378.62 118.708 378.423 118.584 378.16 118.472C377.898 118.349 377.61 118.265 377.296 118.22C376.982 118.176 376.659 118.184 376.326 118.244C376.005 118.293 375.721 118.415 375.473 118.609C375.389 118.815 375.319 118.981 375.264 119.106C375.209 119.22 375.135 119.362 375.042 119.532C375.061 119.592 375.093 119.641 375.137 119.679C375.194 119.706 375.233 119.75 375.252 119.81C375.53 119.688 375.804 119.63 376.074 119.636C376.356 119.632 376.642 119.574 376.931 119.464ZM390.457 117.164C390.463 117.246 390.459 117.311 390.444 117.357C390.442 117.392 390.433 117.426 390.419 117.461C390.417 117.496 390.414 117.537 390.411 117.583C390.409 117.618 390.417 117.678 390.434 117.761C390.162 118.142 389.857 118.398 389.52 118.528C389.195 118.647 388.843 118.729 388.464 118.774C388.086 118.808 387.696 118.846 387.293 118.89C386.903 118.934 386.507 119.06 386.105 119.268C385.957 119.2 385.817 119.19 385.684 119.24C385.564 119.291 385.387 119.297 385.155 119.257C385.08 119.323 384.989 119.37 384.881 119.398C384.774 119.414 384.667 119.436 384.56 119.464C384.599 119.573 384.609 119.685 384.59 119.801C384.583 119.906 384.594 119.995 384.625 120.068C385.032 120.13 385.482 120.154 385.977 120.14C386.482 120.127 386.975 120.131 387.456 120.151C387.463 120.211 387.455 120.251 387.43 120.273C387.406 120.283 387.398 120.312 387.406 120.36C387.484 120.423 387.561 120.505 387.637 120.604C387.713 120.691 387.79 120.779 387.866 120.866C387.942 120.953 388.019 121.029 388.097 121.093C388.188 121.146 388.292 121.17 388.41 121.167C388.45 121.263 388.472 121.37 388.476 121.488C388.492 121.595 388.473 121.705 388.419 121.819C388.223 121.935 388.027 122.057 387.83 122.185C387.635 122.301 387.428 122.405 387.211 122.496C387.005 122.588 386.783 122.661 386.544 122.715C386.318 122.759 386.065 122.766 385.785 122.735C385.727 122.731 385.68 122.728 385.645 122.726C385.622 122.724 385.588 122.704 385.543 122.666C385.446 122.718 385.31 122.727 385.136 122.692C384.974 122.657 384.844 122.666 384.747 122.718C384.622 122.651 384.466 122.617 384.278 122.617C384.103 122.605 383.946 122.571 383.809 122.515C383.606 122.748 383.419 122.999 383.248 123.27C383.077 123.54 382.923 123.83 382.784 124.137C383.178 124.222 383.504 124.268 383.762 124.273C384.032 124.28 384.284 124.279 384.52 124.271C384.756 124.252 384.997 124.239 385.245 124.232C385.492 124.213 385.803 124.222 386.177 124.259C386.419 124.146 386.699 124.082 387.017 124.068C387.348 124.044 387.651 123.993 387.926 123.918C388.017 123.959 388.095 124.029 388.158 124.127C388.223 124.214 388.282 124.3 388.335 124.386C388.4 124.46 388.466 124.529 388.533 124.593C388.599 124.656 388.685 124.685 388.791 124.68C388.835 124.73 388.86 124.791 388.867 124.862C388.886 124.922 388.9 124.981 388.908 125.041C388.916 125.1 388.93 125.154 388.95 125.202C388.983 125.239 389.034 125.255 389.105 125.248C388.904 125.622 388.679 125.906 388.432 126.101C388.196 126.285 387.929 126.42 387.629 126.505C387.33 126.591 386.997 126.651 386.631 126.685C386.276 126.72 385.88 126.764 385.441 126.817C385.335 126.833 385.247 126.822 385.18 126.782C385.111 126.754 385.03 126.737 384.936 126.73C384.664 126.771 384.338 126.802 383.961 126.824C383.584 126.845 383.203 126.837 382.818 126.8C382.433 126.762 382.068 126.685 381.723 126.568C381.378 126.463 381.102 126.292 380.894 126.054C380.806 125.966 380.748 125.869 380.72 125.761C380.705 125.642 380.635 125.55 380.51 125.483C380.508 125.33 380.496 125.159 380.474 124.969C380.451 124.78 380.429 124.585 380.407 124.383C380.386 124.171 380.371 123.964 380.361 123.764C380.362 123.564 380.386 123.384 380.432 123.222C380.479 123.049 380.56 122.896 380.674 122.763C380.801 122.63 380.852 122.481 380.828 122.315C380.887 122.307 380.924 122.28 380.939 122.234C380.954 122.177 381.003 122.157 381.084 122.174C381.168 121.968 381.257 121.774 381.352 121.593C381.446 121.411 381.54 121.235 381.634 121.065C381.739 120.896 381.838 120.727 381.932 120.557C382.038 120.376 382.139 120.177 382.236 119.961C382.083 119.798 381.971 119.626 381.901 119.445C381.843 119.253 381.802 119.068 381.779 118.891C381.757 118.701 381.74 118.512 381.729 118.323C381.719 118.123 381.691 117.922 381.646 117.719C381.775 117.551 381.925 117.42 382.095 117.326C382.279 117.221 382.472 117.14 382.675 117.083C382.879 117.026 383.099 116.982 383.336 116.951C383.573 116.92 383.822 116.884 384.083 116.843C384.561 116.722 384.984 116.633 385.352 116.575C385.732 116.518 386.098 116.478 386.452 116.455C386.819 116.421 387.196 116.393 387.585 116.372C387.974 116.351 388.417 116.311 388.915 116.25C389.013 116.362 389.109 116.421 389.202 116.428C389.256 116.326 389.311 116.3 389.366 116.351C389.434 116.39 389.466 116.357 389.461 116.251C389.565 116.458 389.699 116.637 389.865 116.789C390.044 116.93 390.241 117.055 390.457 117.164Z" fill="#333333"/>
<path d="M96.9323 170.466V136.333H75.599H54.2656V170.466H75.599H96.9323Z" fill="#EFC062"/>
<path d="M165.198 136.333H143.865H122.531V170.466H165.198V136.333Z" fill="#EFC062"/>
<path d="M96.9323 243V208.866H75.599H54.2656V243H75.599H96.9323Z" fill="#EA7E73"/>
<path d="M199.331 208.866H177.997H156.664V243H177.997H199.331V208.866Z" fill="#EA7E73"/>
<path d="M96.9323 268.6H75.599H54.2656V302.733H96.9323V268.6Z" fill="#F7EEDA"/>
<path d="M199.335 285.666V268.6H178.001H156.668V302.733H199.335V285.666Z" fill="#61DBDB"/>
<path d="M259.066 285.666V302.733H301.733V268.6H259.066V285.666Z" fill="#61DBDB"/>
<path d="M233.467 136.333H212.134H190.801V170.466H233.467V136.333Z" fill="#EFC062"/>
<path d="M259.066 136.333V170.466H301.733V136.333H280.4H259.066Z" fill="#EFC062"/>
<path d="M143.866 55.2666H84.1328V85.1333H113.999H143.866V55.2666Z" fill="#F7EEDA"/>
<path d="M301.733 132.067H284.667V110.733C284.667 108.374 282.755 106.467 280.4 106.467H118.267V89.4H143.867C146.222 89.4 148.133 87.4928 148.133 85.1333V55.2667C148.133 52.9072 146.222 51 143.867 51H84.1333C81.7781 51 79.8667 52.9072 79.8667 55.2667V85.1333C79.8667 87.4928 81.7781 89.4 84.1333 89.4H109.733V106.467H75.6C73.2448 106.467 71.3333 108.374 71.3333 110.733V132.067H54.2667C51.9115 132.067 50 133.974 50 136.333V170.467C50 172.826 51.9115 174.733 54.2667 174.733H71.3333V204.6H54.2667C51.9115 204.6 50 206.507 50 208.867V243C50 245.359 51.9115 247.267 54.2667 247.267H71.3333V264.333H54.2667C51.9115 264.333 50 266.241 50 268.6V302.733C50 305.093 51.9115 307 54.2667 307H96.9333C99.2885 307 101.2 305.093 101.2 302.733V268.6C101.2 266.241 99.2885 264.333 96.9333 264.333H79.8667V247.267H96.9333C99.2885 247.267 101.2 245.359 101.2 243V208.867C101.2 206.507 99.2885 204.6 96.9333 204.6H79.8667V196.067H173.733V204.6H156.667C154.311 204.6 152.4 206.507 152.4 208.867V243C152.4 245.359 154.311 247.267 156.667 247.267H173.733V264.333H156.667C154.311 264.333 152.4 266.241 152.4 268.6V302.733C152.4 305.093 154.311 307 156.667 307H199.333C201.689 307 203.6 305.093 203.6 302.733V289.933H254.8V302.733C254.8 305.093 256.711 307 259.067 307H301.733C304.089 307 306 305.093 306 302.733V268.6C306 266.241 304.089 264.333 301.733 264.333H259.067C256.711 264.333 254.8 266.241 254.8 268.6V281.4H203.6V268.6C203.6 266.241 201.689 264.333 199.333 264.333H182.267V247.267H199.333C201.689 247.267 203.6 245.359 203.6 243V208.867C203.6 206.507 201.689 204.6 199.333 204.6H182.267V191.8C182.267 189.441 180.355 187.533 178 187.533H79.8667V174.733H96.9333C99.2885 174.733 101.2 172.826 101.2 170.467V136.333C101.2 133.974 99.2885 132.067 96.9333 132.067H79.8667V115H139.6V132.067H122.533C120.178 132.067 118.267 133.974 118.267 136.333V170.467C118.267 172.826 120.178 174.733 122.533 174.733H165.2C167.555 174.733 169.467 172.826 169.467 170.467V136.333C169.467 133.974 167.555 132.067 165.2 132.067H148.133V115H207.867V132.067H190.8C188.445 132.067 186.533 133.974 186.533 136.333V170.467C186.533 172.826 188.445 174.733 190.8 174.733H233.467C235.822 174.733 237.733 172.826 237.733 170.467V136.333C237.733 133.974 235.822 132.067 233.467 132.067H216.4V115H276.133V132.067H259.067C256.711 132.067 254.8 133.974 254.8 136.333V170.467C254.8 172.826 256.711 174.733 259.067 174.733H301.733C304.089 174.733 306 172.826 306 170.467V136.333C306 133.974 304.089 132.067 301.733 132.067ZM88.4 59.5333H139.6V80.8667H88.4V59.5333ZM92.6667 298.467H58.5333V272.867H92.6667V298.467ZM92.6667 238.733H58.5333V213.133H92.6667V238.733ZM263.333 272.867H297.467V298.467H263.333V272.867ZM195.067 298.467H160.933V272.867H195.067V298.467ZM195.067 238.733H160.933V213.133H195.067V238.733ZM92.6667 166.2H58.5333V140.6H92.6667V166.2ZM160.933 166.2H126.8V140.6H160.933V166.2ZM229.2 166.2H195.067V140.6H229.2V166.2ZM297.467 166.2H263.333V140.6H297.467V166.2Z" fill="#122333"/>
</svg>
