<svg width="142" height="40" viewBox="0 0 142 40" fill="none" xmlns="http://www.w3.org/2000/svg">
<path d="M4.17887 0.818417L3.19597 23.8915L23.6693 13.2062L4.17887 0.818417ZM32.7201 27.1821C28.1096 25.9035 20.1214 22.1462 13.9849 15.4288L11.0316 18.1266C17.7636 25.4957 26.454 29.5953 31.6511 31.0366L32.7201 27.1821Z" fill="black"/>
<path d="M59.1407 24.3761C58.8488 24.4007 58.5355 24.4506 58.2008 24.5259C57.8651 24.5895 57.5357 24.6584 57.2127 24.7326C56.9821 24.7874 56.7569 24.8357 56.537 24.8778C56.3287 24.9189 56.1375 24.9526 55.9634 24.979C55.9033 25.2428 55.8407 25.4774 55.7757 25.6828C55.7107 25.8882 55.6394 26.0883 55.5617 26.283C55.485 26.4894 55.4146 26.7011 55.3506 26.9182C55.2973 27.1226 55.2454 27.3446 55.195 27.584C55.094 27.7807 55.0095 27.9642 54.9415 28.1346C54.8843 28.2923 54.8406 28.4724 54.8107 28.6748C54.6853 28.8618 54.5959 29.0575 54.5426 29.2619C54.4883 29.4547 54.4495 29.6226 54.4263 29.7657L54.3739 29.9818C54.3098 30.0577 54.2738 30.1196 54.2661 30.1672C54.2574 30.2033 54.2311 30.2408 54.1874 30.2797C54.1865 30.4092 54.1565 30.5411 54.0972 30.6754C54.0788 30.7358 54.0662 30.7956 54.0594 30.855C54.0517 30.9027 54.0488 30.9382 54.0508 30.9616C54.0606 31.0783 54.0378 31.1567 53.9824 31.1967C53.999 31.2541 54.0044 31.3183 53.9986 31.3893C53.9919 31.4487 53.9851 31.5081 53.9784 31.5674C53.9551 31.7105 53.9528 31.8224 53.9714 31.9032C54.0103 31.947 54.043 31.9854 54.0693 32.0184C54.1073 32.0505 54.1346 32.0953 54.1512 32.1527C54.2252 32.1935 54.2802 32.2182 54.3162 32.227C54.3658 32.2581 54.4394 32.293 54.5367 32.3319L54.7091 32.4937C54.796 32.8275 54.7661 33.1005 54.6194 33.3128C54.4629 33.5494 54.1745 33.6854 53.7541 33.7208L53.5439 33.7386C53.4806 33.6851 53.4416 33.6413 53.427 33.6073C53.3306 33.5801 53.2523 33.5573 53.1919 33.5389C53.1316 33.5205 53.0751 33.4782 53.0225 33.412C52.8648 33.3548 52.7372 33.3067 52.6399 33.2679L52.4748 33.1936C52.464 33.0651 52.4581 32.9951 52.4571 32.9834C52.3665 32.8852 52.2925 32.7738 52.2349 32.6493C52.1891 32.5238 52.1491 32.3978 52.1149 32.2713C52.0827 32.1682 52.0451 32.0714 52.0022 31.981C51.971 31.8895 51.929 31.8107 51.8764 31.7446C51.796 31.0693 51.812 30.4917 51.9245 30.0118C52.0369 29.5319 52.1567 29.069 52.2837 28.6232C52.3575 28.3818 52.4312 28.1403 52.5049 27.8989C52.5777 27.6458 52.6383 27.3879 52.6867 27.1251L52.8296 26.9366C52.8956 26.7429 52.947 26.5857 52.9839 26.465C53.0314 26.3316 53.079 26.1982 53.1266 26.0649C53.1547 25.9802 53.1775 25.9018 53.1949 25.8298C53.2231 25.7451 53.2464 25.6725 53.2648 25.6122C53.1947 25.6181 53.131 25.6293 53.0736 25.6459C53.0152 25.6509 52.9573 25.6616 52.8999 25.6782C52.8308 25.6958 52.7676 25.7129 52.7102 25.7295C52.6518 25.7344 52.5934 25.7393 52.535 25.7443C52.4533 25.7511 52.3944 25.7502 52.3584 25.7415C52.2349 25.8107 52.0972 25.8517 51.9454 25.8645L51.7702 25.8793C51.7352 25.8822 51.7002 25.8852 51.6651 25.8881C51.6408 25.8784 51.617 25.8745 51.5936 25.8765C51.4768 25.8864 51.3849 25.9117 51.3178 25.9527C51.1776 25.9645 51.0434 25.9758 50.9149 25.9866L50.7397 26.0014C50.7164 26.0034 50.6877 26.0117 50.6536 26.0263C50.6186 26.0292 50.5894 26.0317 50.5661 26.0337C50.4843 26.0406 50.3962 26.0421 50.3018 26.0383C50.2065 26.0228 50.1038 25.9903 49.9937 25.9408C49.8379 25.7657 49.7361 25.6744 49.6884 25.6666L49.513 25.4697C49.4954 25.4006 49.4725 25.3379 49.4442 25.2815C49.415 25.2134 49.3852 25.1394 49.355 25.0597C49.2984 24.9468 49.2414 24.8281 49.1839 24.7036C49.137 24.5665 49.1057 24.4045 49.09 24.2176C49.0938 24.1232 49.1112 24.0512 49.1423 24.0015C49.1734 23.9519 49.1992 23.9085 49.2196 23.8715L49.25 23.6044L49.4792 23.6027L49.9696 23.5614C50.3433 23.5299 50.7218 23.4862 51.1052 23.4304C51.4876 23.3629 51.8817 23.2944 52.2874 23.2249C52.519 23.1819 52.7506 23.1388 52.9822 23.0958C53.2254 23.0518 53.4745 23.0073 53.7295 22.9623C53.7673 22.8532 53.8057 22.75 53.8445 22.6527L54.0123 22.5503C54.2215 22.5209 54.3699 22.5378 54.4576 22.601C54.5559 22.6515 54.6367 22.7035 54.7 22.757C54.955 22.712 55.2099 22.667 55.4648 22.622C55.7305 22.5643 55.9956 22.5008 56.2602 22.4314C56.6524 22.3396 57.045 22.2536 57.438 22.1734C57.8428 22.0923 58.232 22.036 58.6057 22.0045C58.7692 21.9907 58.9273 21.9832 59.0801 21.9821C59.2329 21.981 59.3745 21.9867 59.5049 21.9992L59.6904 22.1071C59.7314 22.1742 59.7835 22.2345 59.8468 22.288C59.9218 22.3404 59.9968 22.3929 60.0718 22.4454C60.2227 22.5621 60.3756 22.7021 60.5305 22.8654C60.6854 23.0288 60.7596 23.2812 60.7531 23.6228C60.6715 23.7708 60.6083 23.8585 60.5636 23.8858L60.4237 24.1092L60.247 24.1065C60.177 24.1124 60.1137 24.1295 60.0573 24.1578C59.9999 24.1744 59.943 24.1968 59.8866 24.2251C59.8418 24.2524 59.7971 24.2796 59.7523 24.3069C59.7066 24.3225 59.655 24.3387 59.5976 24.3553C59.4925 24.3641 59.405 24.3715 59.3349 24.3774C59.2755 24.3706 59.2108 24.3702 59.1407 24.3761ZM61.1511 30.8571C61.062 31.3351 60.9752 31.7011 60.8908 31.9551C60.8171 32.1966 60.6918 32.4541 60.5149 32.7277C60.3611 32.7172 60.2575 32.7435 60.204 32.8068C60.1506 32.8701 60.0908 32.9281 60.0246 32.9807C59.9215 33.0129 59.8456 33.0193 59.7969 32.9999C59.7483 32.9805 59.7049 32.9547 59.6669 32.9227C59.6299 32.9023 59.5808 32.877 59.5194 32.8469C59.4708 32.8275 59.3939 32.8222 59.2888 32.831C59.2575 32.7396 59.221 32.6545 59.1791 32.5757C59.1488 32.4959 59.0704 32.4731 58.944 32.5073C58.9594 32.4119 58.9589 32.3355 58.9423 32.2781C58.9247 32.209 58.9023 32.1521 58.875 32.1074C58.8584 32.05 58.8423 31.9984 58.8267 31.9527C58.8101 31.8953 58.81 31.8247 58.8265 31.741C58.7681 31.7459 58.7179 31.709 58.676 31.6302C58.6341 31.5514 58.5863 31.4731 58.5327 31.3953C58.55 31.1822 58.5683 30.9807 58.5876 30.7909C58.6069 30.6011 58.633 30.4225 58.666 30.2551C58.7106 30.0867 58.7435 29.9193 58.7648 29.7529C58.786 29.5864 58.7542 29.4186 58.6694 29.2493C58.7191 29.2804 58.7536 29.2716 58.773 29.2229C58.7915 29.1626 58.8031 29.091 58.8079 29.0083C58.8117 28.9139 58.8101 28.8258 58.8032 28.7441C58.7954 28.6507 58.7831 28.5753 58.7665 28.5179C58.8577 28.2044 58.9251 27.8871 58.9686 27.5659C59.0227 27.232 59.0657 26.905 59.0976 26.5848C59.141 26.2636 59.185 25.9483 59.2295 25.6387C59.274 25.3292 59.3438 25.0411 59.4389 24.7744C59.5654 24.7402 59.707 24.7459 59.8637 24.7915C60.0311 24.8244 60.1358 24.8803 60.1777 24.9591C60.4617 24.6999 60.7066 24.397 60.9126 24.0504C61.1176 23.6921 61.3295 23.3449 61.5481 23.009C61.7668 22.673 62.0117 22.3701 62.283 22.1003C62.5659 21.8295 62.9332 21.6515 63.3846 21.5665C63.6329 21.7219 63.9051 21.8813 64.2011 22.0445C64.5078 22.1951 64.7669 22.4084 64.9783 22.6846C65.0757 22.7235 65.156 22.7696 65.2193 22.8231C65.2933 22.8639 65.3795 22.9095 65.4778 22.9601L65.4955 23.1702C65.6465 23.2869 65.7702 23.4293 65.8667 23.5976C65.9739 23.7532 66.0709 23.9273 66.1577 24.1199C66.2435 24.3009 66.3298 24.4877 66.4166 24.6803C66.5024 24.8612 66.5994 25.0353 66.7076 25.2026C66.6891 25.2629 66.6819 25.3165 66.6858 25.3632C66.6888 25.3982 66.6981 25.4386 66.7137 25.4843C66.741 25.5291 66.7624 25.5743 66.778 25.62C66.7937 25.6658 66.7991 25.73 66.7943 25.8127C66.8025 26.3295 66.6682 26.7583 66.3911 27.0991C66.1258 27.439 65.7917 27.7318 65.3891 27.9774C64.9854 28.2114 64.5501 28.4186 64.0831 28.599C63.6162 28.7795 63.1969 28.9677 62.8253 29.1637C62.8293 29.2104 62.8488 29.2323 62.8838 29.2293C62.9305 29.2254 62.9505 29.2531 62.9437 29.3125C63.2387 29.464 63.4724 29.5855 63.6447 29.6768C63.8171 29.7681 63.9763 29.8429 64.1223 29.9011C64.28 29.9584 64.4431 30.0093 64.6115 30.054C64.7906 30.0859 65.0349 30.1241 65.3444 30.1686C65.6539 30.2131 65.8924 30.2518 66.0598 30.2847C66.2379 30.305 66.3985 30.3267 66.5416 30.3499C66.6837 30.3615 66.8258 30.373 66.9679 30.3846C67.1207 30.3835 67.3323 30.3833 67.6029 30.384C67.7168 30.4802 67.8152 30.6013 67.8981 30.7472C67.9916 30.8804 68.0565 31.022 68.0926 31.1718C68.1278 31.31 68.1455 31.4496 68.1456 31.5907C68.1447 31.7202 68.1127 31.8287 68.0495 31.9164C68.0642 31.9504 68.089 31.9659 68.124 31.963C68.1698 31.9474 68.2165 31.9434 68.2642 31.9512C68.198 32.0038 68.1446 32.0671 68.1038 32.1411C68.063 32.2151 68.0222 32.2891 67.9814 32.3631C67.9405 32.4371 67.8929 32.4999 67.8385 32.5516C67.785 32.6149 67.7062 32.6568 67.6021 32.6773C67.2519 32.848 66.797 32.8922 66.2373 32.81C65.6787 32.7394 64.9652 32.5761 64.0968 32.32C63.6627 32.192 63.3064 32.0809 63.028 31.9867C62.7602 31.8799 62.5222 31.7765 62.3138 31.6765C62.1162 31.5638 61.9297 31.4442 61.7544 31.3179C61.5908 31.1905 61.3897 31.037 61.1511 30.8571ZM63.1496 24.6381C63.0369 24.8357 62.9052 25.0173 62.7545 25.1829C62.6155 25.3475 62.4769 25.518 62.3389 25.6942C62.2116 25.8579 62.0979 26.0438 61.9978 26.2522C61.8968 26.4489 61.8338 26.6776 61.8087 26.9385C62.2135 26.8573 62.6304 26.7105 63.0593 26.4979C63.4873 26.2737 63.8929 26.0631 64.2762 25.8661C64.199 25.5081 64.0459 25.227 63.817 25.0228C63.5998 24.8177 63.3773 24.6894 63.1496 24.6381ZM73.0565 27.0667C72.9806 27.1436 72.9179 27.2371 72.8684 27.3471C72.8179 27.4454 72.7679 27.5496 72.7183 27.6596C72.6708 27.793 72.6169 27.921 72.5567 28.0437C72.4964 28.1664 72.4177 28.2789 72.3205 28.3811C72.2769 28.5612 72.2303 28.7063 72.1808 28.8163C72.1303 28.9146 72.0462 29.0334 71.9286 29.1727C71.8511 29.6497 71.6195 30.1807 71.2337 30.766C71.2309 30.8721 71.2047 30.9801 71.1552 31.0901C71.1164 31.1875 71.0717 31.2853 71.0212 31.3837C71.0008 31.4207 70.9809 31.4635 70.9614 31.5122C70.941 31.5492 70.926 31.5799 70.9163 31.6042L70.896 31.7823C70.8455 31.8807 70.7882 31.9678 70.724 32.0438C70.6598 32.1197 70.601 32.1894 70.5476 32.2527C70.5271 32.2897 70.4902 32.3398 70.4367 32.4032L70.1829 32.5304C69.3206 32.4855 68.7626 32.0738 68.5088 31.2955L68.5116 31.1189C68.53 31.0585 68.5426 30.9987 68.5493 30.9393C68.5668 30.8673 68.5842 30.7952 68.6017 30.7232C68.6346 30.5558 68.6734 30.3879 68.718 30.2195C68.7743 30.0501 68.8612 29.8957 68.9789 29.7565C68.9953 29.6728 69.0371 29.5399 69.104 29.3578C69.17 29.1641 69.287 28.8779 69.4551 28.4991C69.5949 28.2051 69.7047 27.9724 69.7843 27.8011C69.864 27.6297 69.929 27.4949 69.9795 27.3965C69.847 27.2195 69.6926 27.062 69.5164 26.924C69.3399 26.6448 69.182 26.3759 69.0426 26.1172C68.9149 25.8574 68.813 25.6249 68.7369 25.4197C68.7124 25.2688 68.6841 25.1419 68.6519 25.0387C68.6197 24.9356 68.5869 24.8267 68.5538 24.7118C68.5079 24.5863 68.4679 24.4604 68.4337 24.3339C68.3995 24.2074 68.3765 24.0741 68.3647 23.934C68.2994 23.8571 68.2575 23.7783 68.239 23.6976L68.2592 23.5195C68.2874 23.4348 68.2843 23.3292 68.2502 23.2027C68.215 23.0646 68.174 22.9269 68.1272 22.7897C68.094 22.6749 68.0539 22.5489 68.0071 22.4117C67.9719 22.2736 67.9543 22.1339 67.9542 21.9928C67.954 21.8517 67.9782 21.7203 68.0268 21.5986C68.086 21.4643 68.1876 21.344 68.3315 21.2378L68.6278 21.1952C68.7379 21.2447 68.842 21.2947 68.9404 21.3452C69.0494 21.3831 69.1531 21.4273 69.2514 21.4778C69.3848 21.5253 69.5123 21.5734 69.634 21.6219C69.7557 21.6705 69.8847 21.736 70.0211 21.8186L70.1643 22.0535L70.4083 22.227L70.4245 22.4197C70.4401 22.4654 70.4514 22.5292 70.4583 22.6109C70.4711 22.7627 70.5023 22.8542 70.552 22.8853L70.6397 23.0895C70.6535 23.253 70.6843 23.4092 70.7321 23.558C70.779 23.6952 70.8253 23.8266 70.8712 23.9521C70.917 24.0776 70.9634 24.2089 71.0102 24.3461C71.0571 24.4832 71.0757 24.6346 71.0661 24.8C71.1332 24.7591 71.1882 24.7133 71.231 24.6626C71.2523 24.6373 71.2742 24.6178 71.2966 24.6042C71.319 24.5905 71.3408 24.5711 71.3622 24.5457L72.2776 23.0574L72.2278 22.8851L72.5661 22.5038C72.6516 22.4025 72.7318 22.3076 72.8067 22.2189C72.8932 22.1293 72.9618 22.0354 73.0123 21.937L73.1931 21.7806C73.5176 21.1653 74.0184 20.7585 74.6956 20.5603L74.9378 20.5046L75.0271 20.7264C75.0846 20.8509 75.1879 20.9599 75.3369 21.0531C75.4975 21.1454 75.6635 21.2314 75.8349 21.3111L76.0014 21.4029C76.0696 21.5147 76.1062 21.5998 76.1111 21.6582C76.116 21.7166 76.1146 21.7697 76.1069 21.8173L76.1917 21.9866C76.1219 22.2747 76.0224 22.4889 75.8931 22.6292C75.7754 22.7685 75.6568 22.8961 75.5372 23.012C75.44 23.1143 75.3481 23.2102 75.2616 23.2998C75.1858 23.3768 75.1294 23.4756 75.0925 23.5963L74.9817 23.7468C74.7483 23.9076 74.6064 24.1077 74.556 24.3471L74.5212 24.5618L74.311 24.5795C74.2993 24.5805 74.2721 24.6063 74.2293 24.6569C74.1973 24.6949 74.1472 24.7991 74.0793 24.9695C74.0074 25.0931 73.9554 25.1739 73.9233 25.2119C73.8912 25.2499 73.8645 25.2816 73.8431 25.3069C73.8354 25.3546 73.8218 25.4028 73.8024 25.4514C73.7936 25.4875 73.7801 25.5356 73.7616 25.596C73.6226 25.7606 73.539 25.8852 73.5109 25.9699C73.4818 26.043 73.4478 26.1281 73.4089 26.2255C73.3701 26.3228 73.3313 26.4202 73.2924 26.5176C73.2643 26.6023 73.2074 26.6952 73.1219 26.7965L73.0565 27.0667ZM85.2683 29.4245C85.3562 29.7699 85.356 30.0463 85.2676 30.2537C85.1909 30.46 85.0631 30.6178 84.8841 30.727C84.7178 30.8468 84.5184 30.9224 84.2858 30.9538C84.0533 30.9852 83.8304 30.9922 83.6173 30.9749C83.4867 30.8212 83.3644 30.6257 83.2503 30.3884C83.1362 30.151 83.0275 29.9073 82.9241 29.6573C82.8197 29.3956 82.7217 29.1393 82.63 28.8883C82.5499 28.6363 82.4782 28.413 82.4148 28.2185C82.4613 28.0734 82.4831 27.9128 82.48 27.7367C82.4876 27.5479 82.4835 27.36 82.4678 27.1732C82.4637 26.9854 82.4538 26.7981 82.4381 26.6112C82.433 26.4117 82.4348 26.2234 82.4434 26.0463C82.4838 25.5489 82.5612 25.072 82.6756 24.6155C82.8017 24.1579 82.8913 23.6859 82.9444 23.1992C82.9589 23.0922 82.9388 22.9939 82.8842 22.9044C82.8413 22.8139 82.8281 22.7268 82.8446 22.6431C82.8523 22.5954 82.8849 22.5633 82.9423 22.5467C82.9987 22.5184 83.0303 22.4746 83.0371 22.4152C83.0613 22.2838 83.0582 22.1782 83.028 22.0985C83.0094 22.0177 83.0244 21.9165 83.073 21.7948C83.1235 21.6965 83.1822 21.5563 83.2492 21.3742C83.3269 21.1795 83.3457 20.9839 83.3056 20.7873C83.4048 20.7084 83.4972 20.6183 83.5827 20.517C83.6682 20.4157 83.7548 20.3261 83.8423 20.2482C83.9405 20.1576 84.0455 20.0782 84.1574 20.0099C84.2809 19.9407 84.4303 19.8987 84.6054 19.884C84.7087 19.9929 84.7779 20.1164 84.8131 20.2546C84.8599 20.3917 84.9009 20.5294 84.9361 20.6676C84.9829 20.8047 85.0409 20.9351 85.1101 21.0586C85.1784 21.1705 85.2855 21.2555 85.4315 21.3138C85.4394 21.4072 85.4492 21.524 85.4611 21.6641C85.4729 21.8042 85.4905 21.9439 85.514 22.083C85.5365 22.2105 85.5702 22.3311 85.6151 22.4449C85.6706 22.5461 85.7466 22.6103 85.843 22.6374C85.68 23.2156 85.5282 23.7871 85.3876 24.3516C85.2587 24.9152 85.1595 25.4822 85.09 26.0526C85.0195 26.6112 84.9903 27.1723 85.0025 27.7358C85.0264 28.2983 85.115 28.8612 85.2683 29.4245ZM96.6601 21.2143C96.3682 21.2389 96.0548 21.2888 95.7201 21.364C95.3844 21.4276 95.0551 21.4965 94.7321 21.5708C94.5015 21.6255 94.2762 21.6739 94.0563 21.7159C93.8481 21.757 93.6569 21.7908 93.4827 21.8172C93.4226 22.081 93.3601 22.3156 93.2951 22.521C93.23 22.7264 93.1587 22.9264 93.081 23.1212C93.0043 23.3275 92.934 23.5393 92.8699 23.7564C92.8166 23.9608 92.7648 24.1827 92.7144 24.4222C92.6133 24.6188 92.5288 24.8024 92.4609 24.9727C92.4036 25.1305 92.36 25.3105 92.33 25.513C92.2046 25.7 92.1153 25.8957 92.062 26.1001C92.0076 26.2928 91.9689 26.4607 91.9456 26.6038L91.8933 26.8199C91.8291 26.8959 91.7932 26.9577 91.7854 27.0054C91.7767 27.0414 91.7505 27.0789 91.7067 27.1179C91.7059 27.2473 91.6758 27.3792 91.6166 27.5136C91.5981 27.5739 91.5855 27.6338 91.5788 27.6931C91.5711 27.7408 91.5682 27.7764 91.5701 27.7997C91.58 27.9165 91.5572 27.9949 91.5017 28.0348C91.5183 28.0922 91.5238 28.1564 91.518 28.2275C91.5112 28.2869 91.5045 28.3462 91.4977 28.4056C91.4745 28.5487 91.4722 28.6606 91.4907 28.7414C91.5297 28.7851 91.5623 28.8235 91.5886 28.8566C91.6266 28.8887 91.6539 28.9334 91.6705 28.9908C91.7445 29.0316 91.7995 29.0564 91.8355 29.0651C91.8852 29.0962 91.9587 29.1312 92.0561 29.17L92.2285 29.3319C92.3154 29.6656 92.2855 29.9386 92.1387 30.1509C91.9823 30.3875 91.6938 30.5236 91.2735 30.559L91.0633 30.5767C91 30.5232 90.961 30.4795 90.9464 30.4454C90.85 30.4183 90.7716 30.3955 90.7113 30.377C90.6509 30.3586 90.5944 30.3163 90.5418 30.2502C90.3841 30.1929 90.2566 30.1449 90.1592 30.106L89.9942 30.0317C89.9834 29.9033 89.9775 29.8332 89.9765 29.8215C89.8859 29.7233 89.8118 29.612 89.7543 29.4875C89.7084 29.362 89.6684 29.236 89.6342 29.1095C89.602 29.0064 89.5645 28.9096 89.5215 28.8191C89.4903 28.7276 89.4484 28.6489 89.3958 28.5827C89.3154 27.9074 89.3314 27.3298 89.4438 26.8499C89.5562 26.37 89.676 25.9072 89.8031 25.4613C89.8768 25.2199 89.9505 24.9785 90.0243 24.7371C90.097 24.484 90.1576 24.226 90.206 23.9632L90.3489 23.7748C90.4149 23.581 90.4663 23.4238 90.5032 23.3031C90.5508 23.1697 90.5983 23.0364 90.6459 22.903C90.674 22.8183 90.6968 22.7399 90.7143 22.6679C90.7424 22.5832 90.7657 22.5107 90.7842 22.4503C90.7141 22.4562 90.6504 22.4675 90.593 22.4841C90.5346 22.489 90.4767 22.4998 90.4193 22.5164C90.3502 22.534 90.287 22.551 90.2296 22.5676C90.1712 22.5726 90.1128 22.5775 90.0544 22.5824C89.9726 22.5893 89.9138 22.5884 89.8778 22.5796C89.7542 22.6489 89.6166 22.6899 89.4647 22.7027L89.2896 22.7174C89.2546 22.7204 89.2195 22.7233 89.1845 22.7263C89.1602 22.7166 89.1363 22.7127 89.113 22.7147C88.9962 22.7245 88.9042 22.7499 88.8371 22.7908C88.697 22.8026 88.5627 22.814 88.4343 22.8248L88.2591 22.8395C88.2357 22.8415 88.207 22.8498 88.173 22.8644C88.138 22.8674 88.1088 22.8698 88.0854 22.8718C88.0037 22.8787 87.9156 22.8802 87.8212 22.8764C87.7258 22.861 87.6231 22.8285 87.5131 22.7789C87.3572 22.6039 87.2554 22.5125 87.2077 22.5048L87.0324 22.3079C87.0148 22.2388 86.9919 22.176 86.9636 22.1196C86.9343 22.0515 86.9046 21.9776 86.8743 21.8978C86.8178 21.785 86.7607 21.6663 86.7032 21.5418C86.6564 21.4046 86.6251 21.2426 86.6093 21.0558C86.6131 20.9614 86.6306 20.8893 86.6617 20.8397C86.6928 20.79 86.7185 20.7467 86.7389 20.7097L86.7693 20.4425L86.9985 20.4408L87.489 20.3995C87.8626 20.368 88.2412 20.3243 88.6246 20.2685C89.007 20.201 89.401 20.1325 89.8068 20.063C90.0384 20.02 90.27 19.977 90.5015 19.9339C90.7448 19.8899 90.9939 19.8454 91.2488 19.8004C91.2867 19.6914 91.325 19.5882 91.3639 19.4908L91.5316 19.3885C91.7408 19.3591 91.8893 19.376 91.9769 19.4392C92.0753 19.4897 92.1561 19.5417 92.2194 19.5951C92.4743 19.5501 92.7293 19.5051 92.9842 19.4601C93.2498 19.4024 93.5149 19.3389 93.7796 19.2696C94.1717 19.1778 94.5643 19.0917 94.9574 19.0116C95.3622 18.9304 95.7514 18.8741 96.1251 18.8426C96.2885 18.8288 96.4467 18.8214 96.5995 18.8203C96.7523 18.8192 96.8939 18.8249 97.0243 18.8374L97.2098 18.9452C97.2507 19.0124 97.3028 19.0726 97.3661 19.1261C97.4411 19.1786 97.5161 19.2311 97.5911 19.2836C97.7421 19.4002 97.895 19.5402 98.0499 19.7035C98.2048 19.8669 98.279 20.1194 98.2725 20.461C98.1908 20.609 98.1277 20.6966 98.0829 20.7239L97.943 20.9474L97.7664 20.9446C97.6963 20.9505 97.6331 20.9676 97.5766 20.9959C97.5192 21.0125 97.4623 21.0349 97.4059 21.0632C97.3612 21.0905 97.3164 21.1178 97.2717 21.1451C97.226 21.1607 97.1744 21.1768 97.117 21.1934C97.0119 21.2023 96.9243 21.2096 96.8543 21.2155C96.7949 21.2088 96.7302 21.2084 96.6601 21.2143ZM111.467 26.7403C111.516 27.042 111.503 27.296 111.426 27.5024C111.349 27.7088 111.235 27.8889 111.083 28.0428C110.932 28.1967 110.754 28.3234 110.551 28.4229C110.348 28.5223 110.15 28.6154 109.957 28.7022C109.859 28.6517 109.76 28.6012 109.662 28.5507C109.574 28.4875 109.471 28.4433 109.351 28.4181C109.175 28.1507 109.009 27.9178 108.851 27.7194C108.692 27.5093 108.607 27.2637 108.595 26.9824C108.594 26.9707 108.594 26.906 108.596 26.7883C108.61 26.6695 108.622 26.5391 108.634 26.397C108.657 26.2539 108.669 26.1235 108.671 26.0058C108.684 25.8753 108.69 25.8043 108.689 25.7926C108.422 25.8386 108.147 25.9206 107.863 26.0386C107.579 26.1566 107.302 26.2917 107.032 26.4438C106.775 26.5948 106.529 26.7449 106.294 26.8941C106.071 27.0422 105.888 27.1694 105.744 27.2756C105.747 27.3106 105.731 27.4002 105.696 27.5442C105.66 27.6766 105.614 27.8217 105.556 27.9794C105.498 28.1254 105.433 28.2602 105.361 28.3839C105.289 28.5076 105.213 28.5728 105.131 28.5797C105.145 28.6138 105.166 28.6473 105.192 28.6804C105.219 28.7135 105.222 28.7602 105.204 28.8205C105.044 28.881 104.903 28.9517 104.781 29.0326C104.659 29.1252 104.53 29.2007 104.394 29.2592C104.259 29.3294 104.11 29.3714 103.946 29.3852C103.783 29.399 103.585 29.3568 103.353 29.2587C103.348 29.1887 103.313 29.1327 103.251 29.091C103.188 29.0375 103.12 28.9962 103.047 28.9671C102.984 28.9253 102.929 28.8947 102.88 28.8752C102.83 28.8442 102.805 28.8169 102.803 28.7936C102.745 28.8102 102.718 28.7713 102.722 28.6769C102.726 28.5825 102.771 28.5552 102.856 28.595C102.714 28.4423 102.621 28.3091 102.576 28.1953C102.542 28.0688 102.464 27.9166 102.343 27.7386C102.365 27.7133 102.385 27.6704 102.403 27.6101C102.41 27.5507 102.417 27.4972 102.425 27.4495C102.433 27.4018 102.447 27.3653 102.468 27.3399C102.49 27.3146 102.52 27.318 102.558 27.3501C102.525 27.2469 102.518 27.1594 102.535 27.0873C102.553 27.0153 102.571 26.9491 102.589 26.8888C102.608 26.8284 102.62 26.7685 102.627 26.7092C102.634 26.6498 102.611 26.587 102.558 26.5209C102.723 26.2483 102.823 25.9635 102.857 25.6667C102.889 25.3581 102.901 25.0808 102.892 24.8346C102.967 24.7459 103.027 24.6232 103.073 24.4665C103.13 24.3088 103.17 24.1526 103.192 23.9978C103.214 23.8314 103.212 23.6786 103.189 23.5394C103.176 23.3876 103.148 23.2665 103.105 23.176C103.112 23.1167 103.175 23.0937 103.294 23.1073C103.331 22.716 103.342 22.28 103.325 21.7993C103.318 21.3059 103.332 20.8402 103.366 20.4022C103.398 19.9526 103.483 19.5574 103.618 19.2166C103.753 18.8642 103.997 18.6202 104.351 18.4846C104.441 18.7239 104.547 18.9326 104.668 19.1105C104.8 19.2875 104.938 19.4582 105.082 19.6225C105.235 19.7742 105.384 19.9322 105.527 20.0966C105.682 20.2599 105.827 20.4476 105.963 20.6596C105.97 20.8825 105.968 21.1414 105.958 21.4362C105.947 21.7311 105.926 22.0328 105.893 22.3414C105.872 22.6489 105.844 22.9453 105.809 23.2305C105.786 23.5146 105.759 23.758 105.729 23.9604C105.746 24.0178 105.778 24.0504 105.826 24.0581C105.885 24.0649 105.901 24.1165 105.874 24.2128C106.148 24.1191 106.435 24.0303 106.734 23.9463C107.032 23.8624 107.331 23.7726 107.628 23.6769C107.926 23.5813 108.212 23.4808 108.485 23.3754C108.769 23.2574 109.028 23.1238 109.263 22.9747C109.283 22.5143 109.32 22.0525 109.375 21.5892C109.43 21.126 109.403 20.6579 109.292 20.185C109.347 20.1334 109.388 20.0711 109.417 19.998C109.447 19.925 109.501 19.8734 109.581 19.8432C109.504 19.6262 109.461 19.3946 109.452 19.1484C109.443 18.9022 109.464 18.6652 109.515 18.4374C109.578 18.2087 109.674 18.0125 109.801 17.8489C109.939 17.6726 110.111 17.5523 110.317 17.4878C110.461 17.6638 110.59 17.8589 110.702 18.0728C110.813 18.2752 110.925 18.4833 111.037 18.6973C111.159 18.8987 111.282 19.0942 111.404 19.2838C111.536 19.4608 111.696 19.612 111.883 19.7374C111.946 20.0731 111.999 20.4214 112.041 20.7824C112.095 21.1424 112.144 21.5088 112.187 21.8815C112.131 22.3331 112.062 22.774 111.981 23.2043C111.91 23.6218 111.871 24.0661 111.864 24.5371C111.79 24.6375 111.735 24.748 111.698 24.8687C111.661 24.9894 111.625 25.1159 111.589 25.2483C111.552 25.369 111.509 25.4902 111.461 25.6119C111.411 25.7219 111.349 25.8213 111.274 25.9099C111.333 26.0461 111.35 26.1799 111.325 26.3113C111.312 26.43 111.359 26.573 111.467 26.7403ZM122.025 17.6302C122.043 17.7109 122.049 17.7752 122.041 17.8229C122.044 17.8579 122.041 17.8934 122.032 17.9294C122.035 17.9645 122.039 18.0053 122.043 18.0521C122.046 18.0871 122.062 18.1445 122.093 18.2243C121.881 18.642 121.618 18.9405 121.304 19.1198C121 19.2865 120.665 19.4207 120.297 19.5222C119.928 19.6121 119.548 19.7088 119.157 19.8123C118.778 19.9149 118.405 20.0991 118.039 20.3652C117.883 20.3196 117.742 20.3314 117.619 20.4006C117.507 20.4688 117.333 20.5011 117.098 20.4974C117.034 20.5734 116.951 20.6333 116.848 20.6772C116.745 20.7094 116.643 20.7475 116.541 20.7914C116.596 20.8925 116.623 21.002 116.621 21.1197C116.63 21.2248 116.655 21.3109 116.696 21.378C117.107 21.3786 117.557 21.3349 118.043 21.2469C118.541 21.1578 119.029 21.0873 119.507 21.0353C119.524 21.0927 119.521 21.1341 119.5 21.1594C119.477 21.173 119.474 21.2027 119.49 21.2484C119.576 21.2999 119.664 21.369 119.754 21.4555C119.843 21.5303 119.931 21.6052 120.02 21.68C120.109 21.7549 120.196 21.8181 120.283 21.8696C120.38 21.9084 120.487 21.9171 120.603 21.8955C120.657 21.985 120.695 22.0877 120.717 22.2035C120.749 22.3066 120.747 22.4185 120.71 22.5392C120.534 22.6834 120.358 22.8334 120.183 22.9893C120.007 23.1335 119.819 23.267 119.617 23.3898C119.428 23.5117 119.219 23.6174 118.991 23.7072C118.774 23.7843 118.525 23.8288 118.244 23.8407C118.186 23.8456 118.139 23.8496 118.104 23.8525C118.081 23.8545 118.044 23.8399 117.994 23.8088C117.906 23.8751 117.773 23.9039 117.596 23.8953C117.43 23.8858 117.303 23.9141 117.215 23.9804C117.082 23.9328 116.922 23.9227 116.736 23.9502C116.561 23.9649 116.401 23.9548 116.257 23.9199C116.091 24.1809 115.944 24.4579 115.816 24.751C115.688 25.044 115.578 25.3531 115.488 25.6782C115.89 25.7032 116.219 25.699 116.475 25.6656C116.743 25.6313 116.992 25.5927 117.224 25.5496C117.454 25.4949 117.691 25.4455 117.935 25.4015C118.177 25.3458 118.485 25.3081 118.86 25.2883C119.083 25.1401 119.35 25.0353 119.663 24.9737C119.986 24.8994 120.277 24.8042 120.538 24.6882C120.634 24.7153 120.722 24.7727 120.8 24.8602C120.877 24.936 120.948 25.0124 121.013 25.0892C121.089 25.1533 121.164 25.2117 121.239 25.2641C121.314 25.3166 121.404 25.3326 121.508 25.3121C121.559 25.3548 121.593 25.4108 121.61 25.4798C121.639 25.5363 121.661 25.5932 121.678 25.6506C121.694 25.708 121.716 25.759 121.743 25.8038C121.781 25.8359 121.835 25.8431 121.904 25.8255C121.761 26.2256 121.582 26.5406 121.366 26.7705C121.161 26.9877 120.917 27.1612 120.634 27.2909C120.351 27.4206 120.031 27.5299 119.674 27.6188C119.328 27.7067 118.943 27.8097 118.518 27.9279C118.415 27.9601 118.327 27.9616 118.254 27.9325C118.182 27.915 118.099 27.9102 118.005 27.9181C117.742 27.9991 117.425 28.0788 117.055 28.157C116.686 28.2352 116.308 28.2847 115.921 28.3054C115.535 28.3262 115.163 28.3047 114.804 28.2408C114.447 28.1886 114.148 28.0609 113.908 27.8577C113.808 27.7838 113.735 27.6958 113.692 27.5937C113.658 27.4789 113.575 27.3977 113.442 27.3501C113.417 27.1993 113.38 27.032 113.329 26.8481C113.278 26.6642 113.227 26.4745 113.175 26.2789C113.122 26.0717 113.076 25.8698 113.036 25.6732C113.007 25.4757 113.004 25.2937 113.025 25.1273C113.045 24.9492 113.102 24.7856 113.195 24.6366C113.3 24.4867 113.328 24.3314 113.28 24.1709C113.337 24.1543 113.37 24.1221 113.377 24.0744C113.384 24.0151 113.429 23.9878 113.512 23.9926C113.564 23.7765 113.623 23.5716 113.689 23.3778C113.755 23.1841 113.822 22.9962 113.889 22.8142C113.967 22.6311 114.04 22.4486 114.107 22.2666C114.185 22.0718 114.255 21.8601 114.318 21.6313C114.142 21.4933 114.005 21.3402 113.909 21.1719C113.823 20.991 113.755 20.8144 113.705 20.6422C113.655 20.4583 113.61 20.2739 113.571 20.0891C113.531 19.8925 113.473 19.6974 113.398 19.5038C113.5 19.3188 113.628 19.1669 113.783 19.048C113.948 18.9165 114.127 18.8073 114.32 18.7205C114.512 18.6337 114.723 18.5572 114.953 18.4908C115.183 18.4244 115.423 18.3512 115.675 18.2711C116.13 18.08 116.534 17.9282 116.89 17.816C117.256 17.7028 117.613 17.608 117.959 17.5318C118.316 17.4429 118.686 17.3589 119.067 17.2797C119.448 17.2005 119.88 17.0935 120.363 16.9588C120.477 17.055 120.581 17.0992 120.674 17.0913C120.712 16.9823 120.762 16.9487 120.824 16.9905C120.897 17.0196 120.924 16.9821 120.903 16.878C121.037 17.0667 121.197 17.2237 121.384 17.3491C121.581 17.4618 121.795 17.5555 122.025 17.6302ZM124.927 25.4826C124.838 25.9605 124.751 26.3265 124.667 26.5806C124.593 26.822 124.468 27.0795 124.291 27.3532C124.137 27.3426 124.033 27.369 123.98 27.4323C123.926 27.4956 123.867 27.5535 123.801 27.6062C123.697 27.6384 123.622 27.6448 123.573 27.6254C123.524 27.6059 123.481 27.5802 123.443 27.5481C123.406 27.5277 123.357 27.5024 123.295 27.4723C123.247 27.4529 123.17 27.4476 123.065 27.4565C123.033 27.365 122.997 27.2799 122.955 27.2011C122.925 27.1214 122.846 27.0986 122.72 27.1327C122.735 27.0374 122.735 26.961 122.718 26.9036C122.701 26.8345 122.678 26.7776 122.651 26.7328C122.634 26.6754 122.618 26.6239 122.603 26.5781C122.586 26.5207 122.586 26.4502 122.602 26.3665C122.544 26.3714 122.494 26.3344 122.452 26.2557C122.41 26.1769 122.362 26.0986 122.309 26.0208C122.326 25.8076 122.344 25.6062 122.364 25.4164C122.383 25.2266 122.409 25.048 122.442 24.8806C122.486 24.7121 122.519 24.5447 122.541 24.3783C122.562 24.2119 122.53 24.044 122.445 23.8748C122.495 23.9059 122.529 23.8971 122.549 23.8484C122.567 23.788 122.579 23.7165 122.584 23.6338C122.588 23.5394 122.586 23.4513 122.579 23.3695C122.571 23.2761 122.559 23.2007 122.542 23.1433C122.634 22.8299 122.701 22.5125 122.744 22.1913C122.799 21.8575 122.842 21.5305 122.873 21.2103C122.917 20.8891 122.961 20.5737 123.005 20.2642C123.05 19.9547 123.12 19.6665 123.215 19.3998C123.341 19.3656 123.483 19.3713 123.64 19.4169C123.807 19.4499 123.912 19.5057 123.954 19.5845C124.238 19.3254 124.483 19.0225 124.689 18.6758C124.894 18.3175 125.105 17.9704 125.324 17.6344C125.543 17.2985 125.788 16.9956 126.059 16.7257C126.342 16.4549 126.709 16.277 127.161 16.1919C127.409 16.3474 127.681 16.5067 127.977 16.6699C128.284 16.8205 128.543 17.0339 128.754 17.3101C128.852 17.3489 128.932 17.395 128.995 17.4485C129.069 17.4893 129.155 17.535 129.254 17.5855L129.271 17.7957C129.422 17.9123 129.546 18.0548 129.643 18.2231C129.75 18.3787 129.847 18.5528 129.934 18.7454C130.019 18.9263 130.106 19.1131 130.192 19.3057C130.278 19.4866 130.375 19.6607 130.483 19.828C130.465 19.8884 130.458 19.9419 130.462 19.9886C130.465 20.0237 130.474 20.064 130.49 20.1098C130.517 20.1545 130.538 20.1997 130.554 20.2455C130.57 20.2912 130.575 20.3554 130.57 20.4381C130.578 20.9549 130.444 21.3837 130.167 21.7246C129.902 22.0645 129.568 22.3572 129.165 22.6029C128.761 22.8368 128.326 23.044 127.859 23.2245C127.392 23.405 126.973 23.5932 126.601 23.7891C126.605 23.8358 126.625 23.8577 126.66 23.8548C126.706 23.8508 126.726 23.8785 126.72 23.9379C127.015 24.0895 127.248 24.2109 127.421 24.3022C127.593 24.3935 127.752 24.4683 127.898 24.5266C128.056 24.5838 128.219 24.6348 128.387 24.6794C128.566 24.7113 128.811 24.7496 129.12 24.794C129.43 24.8385 129.668 24.8772 129.836 24.9101C130.014 24.9304 130.174 24.9522 130.317 24.9754C130.46 24.9869 130.602 24.9985 130.744 25.01C130.897 25.0089 131.108 25.0087 131.379 25.0094C131.493 25.1057 131.591 25.2267 131.674 25.3726C131.768 25.5059 131.832 25.6474 131.869 25.7973C131.904 25.9354 131.921 26.0751 131.921 26.2162C131.921 26.3456 131.889 26.4541 131.825 26.5418C131.84 26.5758 131.865 26.5914 131.9 26.5884C131.946 26.5728 131.992 26.5689 132.04 26.5766C131.974 26.6292 131.92 26.6925 131.88 26.7665C131.839 26.8405 131.798 26.9145 131.757 26.9886C131.716 27.0626 131.669 27.1254 131.614 27.177C131.561 27.2403 131.482 27.2822 131.378 27.3028C131.028 27.4734 130.573 27.5176 130.013 27.4354C129.455 27.3649 128.741 27.2016 127.873 26.9455C127.439 26.8174 127.082 26.7063 126.804 26.6122C126.536 26.5054 126.298 26.4019 126.09 26.3019C125.892 26.1892 125.706 26.0697 125.53 25.9433C125.367 25.816 125.166 25.6624 124.927 25.4826ZM126.925 19.2635C126.813 19.4612 126.681 19.6428 126.53 19.8084C126.391 19.973 126.253 20.1434 126.115 20.3197C125.987 20.4833 125.874 20.6693 125.774 20.8776C125.673 21.0743 125.61 21.3031 125.585 21.5639C125.989 21.4828 126.406 21.3359 126.835 21.1233C127.263 20.8991 127.669 20.6885 128.052 20.4916C127.975 20.1335 127.822 19.8524 127.593 19.6483C127.376 19.4431 127.153 19.3149 126.925 19.2635ZM140.907 16.0389C140.926 16.1197 140.931 16.1839 140.923 16.2316C140.926 16.2666 140.923 16.3022 140.915 16.3382C140.918 16.3732 140.921 16.4141 140.925 16.4608C140.928 16.4958 140.945 16.5532 140.975 16.633C140.763 17.0507 140.5 17.3492 140.186 17.5286C139.882 17.6953 139.547 17.8294 139.179 17.931C138.81 18.0208 138.43 18.1175 138.039 18.2211C137.66 18.3236 137.287 18.5079 136.922 18.7739C136.765 18.7283 136.625 18.7401 136.501 18.8093C136.389 18.8776 136.216 18.9098 135.98 18.9062C135.916 18.9821 135.833 19.0421 135.731 19.086C135.628 19.1182 135.525 19.1562 135.423 19.2001C135.478 19.3013 135.505 19.4107 135.503 19.5285C135.512 19.6336 135.537 19.7197 135.578 19.7868C135.99 19.7874 136.439 19.7437 136.925 19.6556C137.424 19.5666 137.912 19.4961 138.389 19.444C138.406 19.5014 138.404 19.5428 138.382 19.5681C138.36 19.5818 138.356 19.6115 138.372 19.6572C138.459 19.7087 138.547 19.7777 138.636 19.8642C138.725 19.9391 138.814 20.0139 138.902 20.0888C138.991 20.1636 139.079 20.2268 139.165 20.2783C139.263 20.3171 139.369 20.3258 139.485 20.3043C139.54 20.3938 139.578 20.4964 139.599 20.6122C139.631 20.7153 139.629 20.8272 139.592 20.948C139.416 21.0921 139.241 21.2422 139.066 21.3981C138.89 21.5423 138.701 21.6758 138.5 21.7986C138.31 21.9204 138.101 22.0262 137.874 22.1159C137.657 22.193 137.408 22.2375 137.126 22.2495C137.068 22.2544 137.021 22.2583 136.986 22.2613C136.963 22.2632 136.926 22.2487 136.877 22.2176C136.788 22.2838 136.655 22.3127 136.478 22.3041C136.313 22.2945 136.186 22.3228 136.097 22.3891C135.964 22.3415 135.804 22.3315 135.618 22.3589C135.443 22.3737 135.284 22.3636 135.14 22.3287C134.973 22.5897 134.826 22.8667 134.698 23.1597C134.57 23.4528 134.461 23.7619 134.37 24.087C134.772 24.1119 135.101 24.1077 135.357 24.0744C135.625 24.0401 135.874 24.0014 136.106 23.9584C136.337 23.9036 136.574 23.8543 136.817 23.8103C137.059 23.7546 137.368 23.7168 137.742 23.697C137.965 23.5489 138.232 23.444 138.545 23.3824C138.868 23.3081 139.16 23.213 139.42 23.0969C139.517 23.1241 139.604 23.1814 139.682 23.2689C139.759 23.3448 139.83 23.4211 139.895 23.4979C139.971 23.5621 140.047 23.6204 140.122 23.6729C140.197 23.7254 140.286 23.7413 140.39 23.7208C140.441 23.7636 140.475 23.8195 140.493 23.8886C140.521 23.945 140.543 24.0019 140.56 24.0593C140.577 24.1167 140.598 24.1678 140.626 24.2125C140.664 24.2446 140.717 24.2519 140.786 24.2343C140.644 24.6344 140.464 24.9494 140.249 25.1793C140.043 25.3965 139.799 25.5699 139.516 25.6996C139.233 25.8293 138.913 25.9386 138.556 26.0275C138.211 26.1154 137.825 26.2185 137.4 26.3366C137.297 26.3688 137.209 26.3704 137.136 26.3412C137.064 26.3238 136.981 26.319 136.888 26.3269C136.624 26.4079 136.307 26.4875 135.938 26.5657C135.568 26.6439 135.19 26.6934 134.804 26.7142C134.417 26.735 134.045 26.7134 133.687 26.6495C133.33 26.5973 133.031 26.4696 132.79 26.2665C132.69 26.1926 132.618 26.1046 132.574 26.0024C132.541 25.8876 132.457 25.8064 132.324 25.7589C132.299 25.6081 132.262 25.4407 132.211 25.2568C132.16 25.0729 132.109 24.8832 132.057 24.6877C132.005 24.4804 131.958 24.2785 131.918 24.082C131.89 23.8844 131.886 23.7025 131.907 23.536C131.928 23.3579 131.984 23.1944 132.078 23.0454C132.183 22.8954 132.211 22.7402 132.162 22.5796C132.219 22.563 132.252 22.5309 132.26 22.4832C132.266 22.4238 132.311 22.3965 132.394 22.4013C132.446 22.1852 132.505 21.9803 132.571 21.7866C132.637 21.5929 132.704 21.405 132.771 21.2229C132.849 21.0399 132.922 20.8573 132.989 20.6753C133.067 20.4806 133.137 20.2688 133.2 20.0401C133.024 19.9021 132.888 19.7489 132.791 19.5806C132.705 19.3997 132.638 19.2231 132.588 19.0509C132.537 18.867 132.492 18.6827 132.453 18.4978C132.413 18.3012 132.355 18.1062 132.28 17.9126C132.382 17.7276 132.51 17.5756 132.665 17.4568C132.83 17.3252 133.009 17.2161 133.202 17.1293C133.395 17.0425 133.606 16.9659 133.835 16.8995C134.065 16.8331 134.306 16.7599 134.558 16.6799C135.012 16.4887 135.417 16.337 135.772 16.2247C136.139 16.1115 136.495 16.0168 136.842 15.9405C137.199 15.8516 137.568 15.7676 137.949 15.6884C138.331 15.6092 138.763 15.5023 139.245 15.3675C139.359 15.4638 139.463 15.5079 139.556 15.5001C139.594 15.391 139.644 15.3574 139.707 15.3992C139.78 15.4283 139.806 15.3908 139.785 15.2867C139.919 15.4754 140.079 15.6324 140.266 15.7578C140.464 15.8705 140.677 15.9642 140.907 16.0389Z" fill="#333333"/>
</svg>
