<svg width="108" height="42" viewBox="0 0 108 42" fill="none" xmlns="http://www.w3.org/2000/svg">
<rect width="106" height="40" transform="translate(2 1)" fill="white"/>
<path d="M61.072 26H55.68C55.4773 26 55.328 25.9573 55.232 25.872C55.1467 25.776 55.104 25.6267 55.104 25.424V15.056C55.104 14.8533 55.1467 14.7093 55.232 14.624C55.328 14.528 55.4773 14.48 55.68 14.48H61.072C62.4053 14.48 63.392 14.7467 64.032 15.28C64.6827 15.8133 65.008 16.6347 65.008 17.744V22.736C65.008 23.8453 64.6827 24.6667 64.032 25.2C63.392 25.7333 62.4053 26 61.072 26ZM58.736 17.536V22.976H60.64C60.896 22.976 61.0827 22.912 61.2 22.784C61.328 22.656 61.392 22.4587 61.392 22.192V18.304C61.392 18.0373 61.328 17.8453 61.2 17.728C61.0827 17.6 60.896 17.536 60.64 17.536H58.736ZM80.0015 22.976C80.0015 23.4667 79.9268 23.9147 79.7775 24.32C79.6388 24.7147 79.3828 25.056 79.0095 25.344C78.6468 25.6213 78.1402 25.84 77.4895 26C76.8495 26.16 76.0335 26.24 75.0415 26.24C74.0495 26.24 73.2282 26.16 72.5775 26C71.9268 25.84 71.4148 25.6213 71.0415 25.344C70.6788 25.056 70.4228 24.7147 70.2735 24.32C70.1348 23.9147 70.0655 23.4667 70.0655 22.976V17.52C70.0655 17.0293 70.1348 16.5867 70.2735 16.192C70.4228 15.7867 70.6788 15.44 71.0415 15.152C71.4148 14.864 71.9268 14.64 72.5775 14.48C73.2282 14.32 74.0495 14.24 75.0415 14.24C76.0335 14.24 76.8495 14.32 77.4895 14.48C78.1402 14.64 78.6468 14.864 79.0095 15.152C79.3828 15.44 79.6388 15.7867 79.7775 16.192C79.9268 16.5867 80.0015 17.0293 80.0015 17.52V22.976ZM73.6975 22.4C73.6975 22.6133 73.7775 22.7947 73.9375 22.944C74.0975 23.0827 74.4655 23.152 75.0415 23.152C75.6175 23.152 75.9855 23.0827 76.1455 22.944C76.3055 22.7947 76.3855 22.6133 76.3855 22.4V18.096C76.3855 17.8933 76.3055 17.7227 76.1455 17.584C75.9855 17.4347 75.6175 17.36 75.0415 17.36C74.4655 17.36 74.0975 17.4347 73.9375 17.584C73.7775 17.7227 73.6975 17.8933 73.6975 18.096V22.4ZM92.9024 26H88.9984C87.665 26 86.673 25.7333 86.0224 25.2C85.3824 24.6667 85.0624 23.8453 85.0624 22.736V17.76C85.0624 16.6507 85.3824 15.8293 86.0224 15.296C86.673 14.752 87.665 14.48 88.9984 14.48H92.9024C93.105 14.48 93.249 14.528 93.3344 14.624C93.4304 14.7093 93.4784 14.8533 93.4784 15.056V16.992C93.4784 17.1947 93.4304 17.344 93.3344 17.44C93.249 17.5253 93.105 17.568 92.9024 17.568H89.6864C89.3557 17.568 89.1104 17.6373 88.9504 17.776C88.7904 17.904 88.7104 18.1013 88.7104 18.368V22.176C88.7104 22.4427 88.7904 22.64 88.9504 22.768C89.1104 22.8853 89.3557 22.944 89.6864 22.944H92.9024C93.105 22.944 93.249 22.992 93.3344 23.088C93.4304 23.1733 93.4784 23.3173 93.4784 23.52V25.424C93.4784 25.6267 93.4304 25.776 93.3344 25.872C93.249 25.9573 93.105 26 92.9024 26ZM103.829 26H98.7732C98.5706 26 98.4212 25.9573 98.3252 25.872C98.2399 25.776 98.1972 25.6267 98.1972 25.424V23.552C98.1972 23.3493 98.2399 23.2053 98.3252 23.12C98.4212 23.024 98.5706 22.976 98.7732 22.976H103.077C103.216 22.976 103.317 22.9333 103.381 22.848C103.456 22.752 103.493 22.64 103.493 22.512C103.493 22.3307 103.456 22.1973 103.381 22.112C103.317 22.0267 103.216 21.9787 103.077 21.968L100.677 21.632C99.9306 21.5253 99.3279 21.28 98.8692 20.896C98.4212 20.512 98.1972 19.872 98.1972 18.976V17.296C98.1972 16.3893 98.4906 15.696 99.0772 15.216C99.6639 14.7253 100.475 14.48 101.509 14.48H105.989C106.192 14.48 106.336 14.528 106.421 14.624C106.517 14.7093 106.565 14.8533 106.565 15.056V16.96C106.565 17.1627 106.517 17.312 106.421 17.408C106.336 17.4933 106.192 17.536 105.989 17.536H102.261C102.123 17.536 102.016 17.584 101.941 17.68C101.867 17.7653 101.829 17.8773 101.829 18.016C101.829 18.1547 101.867 18.272 101.941 18.368C102.016 18.464 102.123 18.5173 102.261 18.528L104.645 18.848C105.392 18.9547 105.995 19.2 106.453 19.584C106.912 19.968 107.141 20.608 107.141 21.504V23.184C107.141 24.0907 106.843 24.7893 106.245 25.28C105.659 25.76 104.853 26 103.829 26Z" fill="black"/>
<path d="M12 15.2227L2 21.0004V30.0252C2 31.4538 2.76191 32.774 3.99889 33.4887L12 38.1115V26.7782V15.2227Z" fill="#ABE9FE" stroke="black" stroke-width="3"/>
<path d="M30.0011 33.4882C31.2381 32.7735 32 31.4534 32 30.0248V21L22 26.7778L18.0006 29.0886C17.3815 29.4463 16.6185 29.4463 15.9994 29.0886L12 26.7778V38.1111L14.9989 39.8438C16.2371 40.5592 17.7629 40.5592 19.0011 39.8438L26.8077 35.3333L30.0011 33.4882Z" fill="#FBA99D" stroke="black" stroke-width="3"/>
<path d="M32 20.9998V11.975C32 10.5464 31.2381 9.22623 30.0011 8.51153L22 3.88867V15.222V26.7776L32 20.9998Z" fill="#FEF284" stroke="black" stroke-width="3"/>
<path d="M3.99889 8.51175C2.76191 9.22645 2 10.5466 2 11.9752V21L12 15.2222L15.9994 12.9114C16.6185 12.5537 17.3815 12.5537 18.0006 12.9114L22 15.2222V3.88889L19.0011 2.1562C17.7629 1.44081 16.2371 1.44081 14.9989 2.1562L7.19231 6.66667L3.99889 8.51175Z" fill="#C3E29E" stroke="black" stroke-width="3"/>
</svg>
