<svg version="1" xmlns="http://www.w3.org/2000/svg" width="346.667" height="346.667" viewBox="0 0 260.000000 260.000000"><path d="M122.5.8c-3.5.7-8.5 3.3-27 14.1-9.9 5.7-19.6 11.4-21.6 12.5-2 1.2-9.9 5.7-17.5 10.1-15.3 8.8-22.3 14.9-25.7 22.3-2.2 4.7-2.2 4.9-2.2 70.2v65.5l3 5.9c4.4 8.7 9.2 12.4 37.5 28.4 2.5 1.4 14.2 8.2 26 15.1 21 12.2 27.7 15.1 35 15.1 8.7-.1 12.6-1.9 44.5-20.7 5.5-3.2 10.7-6.2 11.5-6.6.8-.4 2.9-1.5 4.5-2.5 1.7-1.1 8.6-5.1 15.5-9.1 13.5-7.7 19.8-13.5 23.4-21.1 2.1-4.4 2.1-5.5 2.1-70V64.5l-3-5.9c-1.6-3.2-4.8-7.5-7.1-9.5-6.6-5.8-78-46.8-83.8-48.1-4.6-1-10.5-1.1-15.1-.2zM138 18.3c4.2 2.1 14 7.6 14.9 8.4.7.5.7 51.5 0 51.9-.4.2-4.2-1.6-8.5-4.1-5.8-3.3-9.3-4.6-13.2-4.9-6.5-.5-5.7-.9-53.2 26.7l-33.5 19.5-.3-23c-.2-21.5-.1-23.4 1.8-27.2 1.1-2.3 3-4.8 4.3-5.7 2.7-2 62.4-36.6 70.2-40.8 6.9-3.7 11.4-3.9 17.5-.8zM174 39c1.4 1.1 2.8 2 3.1 2 1.8 0 33.5 19.5 34.8 21.3 3.9 5.4 4 6.3 4.1 35v28.2l-7.7 4.4c-4.3 2.5-14.3 8.3-22.2 12.9-7.9 4.6-14.9 8.6-15.5 8.8-.9.3-1.2-13.8-1.2-57.1 0-40.1.3-57.5 1-57.5.6 0 2.2.9 3.6 2zm-32.1 52.6l11.6 6.7-.1 31.5c-.1 29.8-.2 31.6-2 32.9-1 .8-6.3 3.9-11.6 6.9l-9.8 5.5-5.7-3.2c-3.2-1.7-7.4-4-9.3-5.1-1.9-1-4.6-2.7-5.9-3.7l-2.4-1.9-.1-31.2c-.1-19.7.3-31.5.9-32 1.2-1 21.9-13 22.4-13 .2 0 5.6 3 12 6.6zm-51.3 73.9c0 31.6-.3 57.5-.7 57.5-.3 0-4.4-2.2-9-4.9C51 200.8 49.4 199.8 47 196.3l-2.5-3.6-.3-29.1-.2-29.1L62.2 124c10-5.8 20.2-11.7 22.7-13.2 2.5-1.4 4.8-2.7 5.1-2.7.4-.1.6 25.8.6 57.4zM214 194.4c-2.1 4.4-5.2 6.8-21 15.7-5.2 3-10.3 5.8-11.2 6.4-47 27.5-46 27-51.8 27-4.8 0-6.6-.7-14-4.9-4.7-2.7-8.7-5.1-8.9-5.3-.7-.5-.7-50.4 0-51.5.4-.6 4 1 8.7 3.7 7.8 4.5 10.3 5.2 18.3 4.7 1.4-.1 14.6-7.2 29.5-15.8 14.8-8.7 28.3-16.5 29.9-17.4 1.7-.9 7.3-4.2 12.5-7.3l9.5-5.6.3 23.1c.2 21.3.1 23.4-1.8 27.2z"/></svg>