<svg width="166" height="193" viewBox="0 0 166 193" fill="none" xmlns="http://www.w3.org/2000/svg">
<path fill-rule="evenodd" clip-rule="evenodd" d="M129.822 10.739C123.757 4.79909 113.922 4.83034 107.898 10.8347C92.7028 25.9818 118.556 51.5859 131.168 57.7019L133.099 42.4994L126.408 38.1127L133.939 23.6848L126.627 22.5599L129.822 10.739Z" fill="#FF5D7D"/>
<path fill-rule="evenodd" clip-rule="evenodd" d="M143.218 18.622L135.25 35.0276L141.312 39.6122L137.162 57.5347C149.889 51.1372 175.161 25.8492 160.098 10.8343C154.042 4.79734 144.132 4.79747 138.075 10.8343C137.761 11.148 137.427 11.4162 137.08 11.6417L135.437 17.4971L143.218 18.622Z" fill="#FF5D7D"/>
<path d="M133.783 41.4548L128.038 37.6885L135.046 24.2638C135.233 23.9064 135.236 23.4807 135.054 23.121C134.872 22.7611 134.527 22.5114 134.128 22.45L128.197 21.5376L131.028 11.0658C131.146 10.6293 131.019 10.163 130.696 9.84668C128.247 7.44878 125.159 5.87647 121.766 5.29999C118.451 4.73651 115.083 5.156 112.029 6.51256C111.398 6.7928 111.114 7.5314 111.394 8.16225C111.674 8.79297 112.413 9.07758 113.044 8.79722C118.175 6.51831 124.259 7.47053 128.418 11.141L125.42 22.2343C125.327 22.5777 125.385 22.9444 125.579 23.2424C125.773 23.5405 126.085 23.7417 126.436 23.7959L132.022 24.6552L125.299 37.5348C125.001 38.1043 125.184 38.8064 125.721 39.1586L131.76 43.1172L130.155 55.7563C125.017 52.8509 117.635 46.8925 111.939 39.4471C107.961 34.2473 101.87 24.2798 105.764 15.9444C106.056 15.319 105.786 14.5751 105.16 14.283C104.535 13.9908 103.791 14.261 103.499 14.8865C101.698 18.7412 101.519 23.1664 102.967 28.0389C104.19 32.1553 106.541 36.5047 109.953 40.9662C116.503 49.5274 125.258 56.2263 130.622 58.8274C130.794 58.911 130.981 58.9527 131.167 58.9527C131.373 58.9527 131.577 58.9022 131.763 58.8018C132.117 58.6101 132.357 58.2596 132.408 57.8602L134.338 42.6577C134.398 42.1836 134.183 41.7169 133.783 41.4548Z" fill="black"/>
<path d="M160.98 9.94989C154.422 3.41254 143.751 3.41254 137.193 9.94989C136.947 10.1953 136.68 10.4121 136.399 10.5945C136.145 10.76 135.959 11.0125 135.877 11.3048L134.234 17.1602C134.137 17.5066 134.194 17.8781 134.39 18.1796C134.586 18.4812 134.903 18.6835 135.259 18.7349L141.347 19.6151L134.126 34.4823C133.865 35.019 134.02 35.6653 134.496 36.0253L139.911 40.1209L135.945 57.2536C135.835 57.7258 136.009 58.2185 136.39 58.5182C136.615 58.6949 136.888 58.7855 137.163 58.7855C137.354 58.7855 137.546 58.7416 137.724 58.6524C142.861 56.0701 149.26 50.9481 154.424 45.2853C158.882 40.3955 164.465 32.9017 165.737 24.9689C166.68 19.0889 165.079 14.0358 160.98 9.94989ZM163.269 24.5729C161.318 36.7377 147.778 49.6533 139.02 55.0562L142.529 39.8949C142.641 39.4144 142.459 38.9136 142.066 38.6161L136.823 34.6509L144.343 19.1689C144.518 18.81 144.51 18.3897 144.323 18.0372C144.136 17.6847 143.792 17.4427 143.398 17.3857L137.026 16.4645L138.164 12.4094C138.442 12.2005 138.708 11.9698 138.958 11.7204C144.543 6.15305 153.631 6.15305 159.216 11.7204C162.713 15.2071 164.077 19.5312 163.269 24.5729Z" fill="black"/>
<path d="M107.899 12.0859C108.589 12.0859 109.149 11.5263 109.149 10.8359C109.149 10.1456 108.589 9.58594 107.899 9.58594H107.898C107.208 9.58594 106.648 10.1456 106.648 10.8359C106.648 11.5263 107.209 12.0859 107.899 12.0859Z" fill="black"/>
<path d="M6.85156 145.341V178.021C6.85156 185.258 32.4361 191.125 63.9963 191.125C95.5566 191.125 121.141 185.258 121.141 178.021V145.341H6.85156Z" fill="#DFEAEF"/>
<path d="M6.85156 112.66V145.341C6.85156 152.577 32.4361 158.444 63.9963 158.444C95.5566 158.444 121.141 152.577 121.141 145.341V112.66H6.85156Z" fill="#DFEAEF"/>
<path d="M6.85156 79.9795V112.66C6.85156 119.897 32.4361 125.763 63.9963 125.763C95.5566 125.763 121.141 119.897 121.141 112.66V79.9795H6.85156Z" fill="#DFEAEF"/>
<path d="M108.085 79.9795V112.66C108.085 119.39 85.954 124.934 57.4688 125.677C59.6117 125.733 61.7892 125.763 63.9972 125.763C95.5575 125.763 121.142 119.896 121.142 112.66V79.9795H108.085Z" fill="#BFCFD6"/>
<path d="M108.085 112.66V145.341C108.085 152.071 85.954 157.615 57.4688 158.358C59.6117 158.414 61.7892 158.444 63.9972 158.444C95.5575 158.444 121.142 152.577 121.142 145.34V112.66H108.085Z" fill="#BFCFD6"/>
<path d="M108.085 145.467V178.147C108.085 184.878 85.954 190.422 57.4688 191.165C59.6117 191.221 61.7892 191.25 63.9972 191.25C95.5575 191.25 121.142 185.384 121.142 178.147V145.467H108.085Z" fill="#BFCFD6"/>
<path d="M63.9966 93.082C95.5569 93.082 121.142 87.2158 121.142 79.9795C121.142 72.7431 95.5569 66.877 63.9966 66.877C32.4362 66.877 6.85156 72.7431 6.85156 79.9795C6.85156 87.2158 32.4362 93.082 63.9966 93.082Z" fill="#9EBECC"/>
<path d="M63.9972 66.876C61.7892 66.876 59.6115 66.9057 57.4688 66.9615C85.9538 67.7045 108.085 73.2487 108.085 79.979C108.085 86.7092 85.9538 92.2535 57.4688 92.9965C59.6117 93.0525 61.7892 93.082 63.9972 93.082C95.5575 93.082 121.142 87.2155 121.142 79.9787C121.142 72.7425 95.5575 66.876 63.9972 66.876Z" fill="#86AEBC"/>
<path d="M98.7034 111.738C101.707 111.738 104.141 109.303 104.141 106.3C104.141 103.297 101.707 100.862 98.7034 100.862C95.7002 100.862 93.2656 103.297 93.2656 106.3C93.2656 109.303 95.7002 111.738 98.7034 111.738Z" fill="#FC9F3D"/>
<path d="M98.7034 143.988C101.707 143.988 104.141 141.553 104.141 138.55C104.141 135.547 101.707 133.112 98.7034 133.112C95.7002 133.112 93.2656 135.547 93.2656 138.55C93.2656 141.553 95.7002 143.988 98.7034 143.988Z" fill="#FC9F3D"/>
<path d="M98.7034 176.288C101.707 176.288 104.141 173.853 104.141 170.85C104.141 167.847 101.707 165.412 98.7034 165.412C95.7002 165.412 93.2656 167.847 93.2656 170.85C93.2656 173.853 95.7002 176.288 98.7034 176.288Z" fill="#FC9F3D"/>
<path d="M102.549 174.694C104.673 172.57 104.673 169.127 102.549 167.004L94.8594 174.694C96.9826 176.818 100.426 176.818 102.549 174.694Z" fill="#ED852F"/>
<path d="M82.6209 107.006C76.6529 107.486 70.3869 107.729 63.9967 107.729C48.7614 107.729 34.5489 106.363 23.9772 103.882C22.9707 103.647 21.9589 104.271 21.7219 105.279C21.4852 106.288 22.1112 107.298 23.1197 107.535C33.9642 110.08 48.4812 111.481 63.9967 111.481C70.4867 111.481 76.8542 111.234 82.9219 110.746C83.9547 110.663 84.7244 109.758 84.6414 108.725C84.5584 107.693 83.6512 106.921 82.6209 107.006Z" fill="black"/>
<path d="M82.6209 139.159C76.6529 139.639 70.3869 139.883 63.9967 139.883C48.7614 139.883 34.5489 138.516 23.9772 136.035C22.9707 135.799 21.9589 136.424 21.7219 137.433C21.4852 138.442 22.1112 139.451 23.1197 139.688C33.9642 142.233 48.4812 143.635 63.9967 143.635C70.4867 143.635 76.8542 143.387 82.9219 142.899C83.9547 142.816 84.7244 141.911 84.6414 140.879C84.5584 139.846 83.6512 139.075 82.6209 139.159Z" fill="black"/>
<path d="M123.009 79.7577C122.614 70.786 98.3441 67.2787 87.8588 66.1832C84.6236 65.8452 81.2328 65.575 77.7801 65.3805C73.2943 65.128 68.6571 65 63.9976 65C52.0753 65 40.6261 65.829 30.8876 67.3977C29.8646 67.5625 29.1688 68.5253 29.3338 69.5483C29.4986 70.571 30.4626 71.2675 31.4843 71.102C41.0291 69.5648 52.2718 68.752 63.9978 68.752C68.5873 68.752 73.1533 68.878 77.5693 69.1267C80.9623 69.3177 84.2931 69.583 87.4693 69.9148C97.1718 70.9285 105.375 72.5385 111.191 74.5708C118.877 77.2568 119.267 79.5472 119.267 79.979C119.267 81.4398 116.048 84.65 103.986 87.4158C103.653 87.4923 103.316 87.5675 102.976 87.6418C92.4376 89.943 78.6518 91.2062 63.9978 91.2062C49.3438 91.2062 35.5581 89.9428 25.0193 87.6418C24.6793 87.5675 24.3428 87.4923 24.0096 87.4158C12.0571 84.6753 8.79031 81.4995 8.73181 80.0208C8.73206 80.0068 8.73381 79.9932 8.73381 79.9795C8.73381 79.9662 8.73206 79.9535 8.73181 79.9403C8.76256 79.0573 9.83156 77.9318 11.6798 76.8435C14.0118 75.4703 17.4313 74.2 21.8438 73.068C22.8473 72.8105 23.4521 71.7882 23.1946 70.7845C22.9371 69.7812 21.9158 69.177 20.9111 69.4338C10.3378 72.1463 4.97656 75.6947 4.97656 79.9797V112.66V145.34V178.021C4.97656 182.614 11.0981 186.347 23.1708 189.115C34.0976 191.62 48.5968 193 63.9976 193C79.3983 193 93.8978 191.62 104.824 189.115C116.897 186.347 123.018 182.614 123.018 178.021V145.34V112.66V80.076C123.02 80.0437 123.023 80.0118 123.023 79.9792C123.023 79.9043 123.018 79.8305 123.009 79.7577ZM119.266 178.021C119.266 179.481 116.048 182.692 103.986 185.457C93.3258 187.902 79.1246 189.248 63.9976 189.248C48.8706 189.248 34.6693 187.902 24.0093 185.457C11.9473 182.691 8.72881 179.481 8.72881 178.021V151.043C8.76981 151.071 8.81506 151.099 8.85681 151.127C8.95856 151.196 9.06281 151.264 9.16856 151.332C9.25406 151.387 9.34031 151.442 9.42831 151.497C9.53856 151.565 9.65206 151.633 9.76656 151.701C9.85656 151.754 9.94581 151.808 10.0383 151.86C10.1591 151.929 10.2838 151.998 10.4088 152.066C10.5013 152.117 10.5921 152.168 10.6868 152.218C10.8231 152.29 10.9643 152.361 11.1053 152.433C11.1948 152.478 11.2818 152.524 11.3733 152.569C11.5481 152.655 11.7288 152.74 11.9106 152.825C11.9741 152.854 12.0343 152.884 12.0986 152.914C12.3453 153.027 12.5988 153.139 12.8583 153.251C12.9393 153.285 13.0246 153.319 13.1071 153.354C13.2903 153.431 13.4738 153.508 13.6633 153.584C13.7711 153.627 13.8828 153.67 13.9926 153.713C14.1626 153.779 14.3326 153.846 14.5073 153.911C14.6283 153.957 14.7526 154.002 14.8758 154.047C15.0458 154.109 15.2166 154.172 15.3908 154.233C15.5206 154.279 15.6533 154.325 15.7856 154.37C15.9603 154.43 16.1363 154.49 16.3156 154.549C16.4518 154.595 16.5901 154.64 16.7288 154.685C16.9103 154.743 17.0938 154.802 17.2796 154.86C17.4216 154.905 17.5646 154.949 17.7091 154.993C17.8991 155.051 18.0921 155.108 18.2863 155.165C18.4321 155.208 18.5776 155.251 18.7258 155.294C18.9273 155.352 19.1326 155.409 19.3386 155.466C19.4853 155.507 19.6311 155.548 19.7801 155.589C19.9988 155.648 20.2223 155.706 20.4461 155.765C20.5878 155.802 20.7281 155.84 20.8718 155.877C21.1231 155.941 21.3798 156.005 21.6368 156.068C21.7591 156.098 21.8786 156.129 22.0021 156.159C22.3856 156.252 22.7746 156.344 23.1708 156.435C34.0978 158.94 48.5968 160.32 63.9976 160.32C79.3983 160.32 93.8976 158.94 104.824 156.435C105.221 156.344 105.61 156.252 105.993 156.159C106.117 156.129 106.237 156.098 106.359 156.068C106.616 156.005 106.872 155.941 107.123 155.877C107.267 155.84 107.408 155.802 107.55 155.765C107.773 155.706 107.996 155.648 108.215 155.589C108.364 155.548 108.51 155.507 108.656 155.466C108.862 155.409 109.068 155.352 109.269 155.294C109.417 155.251 109.563 155.208 109.709 155.165C109.903 155.108 110.096 155.051 110.286 154.993C110.43 154.949 110.573 154.905 110.716 154.86C110.901 154.802 111.084 154.743 111.266 154.685C111.405 154.64 111.543 154.595 111.68 154.549C111.859 154.49 112.035 154.43 112.209 154.37C112.341 154.325 112.474 154.279 112.604 154.233C112.778 154.172 112.949 154.11 113.119 154.047C113.242 154.002 113.366 153.957 113.487 153.912C113.662 153.846 113.832 153.779 114.002 153.713C114.112 153.67 114.224 153.628 114.331 153.584C114.52 153.508 114.703 153.432 114.886 153.355C114.969 153.32 115.055 153.286 115.137 153.251C115.396 153.139 115.649 153.027 115.896 152.914C115.96 152.885 116.021 152.855 116.084 152.825C116.266 152.74 116.447 152.655 116.621 152.569C116.713 152.524 116.8 152.478 116.889 152.433C117.03 152.361 117.172 152.29 117.308 152.218C117.403 152.168 117.494 152.117 117.586 152.066C117.711 151.998 117.836 151.929 117.956 151.86C118.049 151.807 118.138 151.754 118.229 151.701C118.343 151.633 118.456 151.565 118.566 151.497C118.655 151.442 118.741 151.387 118.826 151.332C118.932 151.264 119.036 151.195 119.138 151.127C119.18 151.099 119.225 151.071 119.266 151.043V178.021H119.266ZM119.266 145.34C119.266 145.477 119.238 145.63 119.177 145.796C118.585 147.399 114.917 150.271 103.986 152.777C93.3258 155.222 79.1243 156.568 63.9976 156.568C48.8708 156.568 34.6693 155.222 24.0093 152.777C13.0781 150.271 9.41006 147.399 8.81831 145.796C8.75706 145.63 8.72881 145.477 8.72881 145.34V118.362C8.76856 118.389 8.81206 118.416 8.85231 118.443C8.95681 118.514 9.06381 118.584 9.17256 118.654C9.25606 118.708 9.33981 118.761 9.42581 118.814C9.53806 118.884 9.65356 118.953 9.77006 119.022C9.85831 119.075 9.94606 119.127 10.0368 119.179C10.1588 119.249 10.2848 119.318 10.4111 119.387C10.5026 119.437 10.5926 119.487 10.6863 119.537C10.8221 119.609 10.9628 119.68 11.1036 119.751C11.1941 119.797 11.2821 119.843 11.3743 119.889C11.5463 119.973 11.7243 120.057 11.9031 120.14C11.9691 120.171 12.0323 120.203 12.0993 120.234C12.3456 120.347 12.5986 120.458 12.8573 120.569C12.9428 120.606 13.0331 120.642 13.1201 120.679C13.2986 120.753 13.4771 120.828 13.6613 120.903C13.7731 120.947 13.8891 120.992 14.0028 121.036C14.1686 121.101 14.3343 121.166 14.5048 121.23C14.6291 121.277 14.7571 121.323 14.8838 121.369C15.0503 121.43 15.2171 121.491 15.3878 121.551C15.5206 121.598 15.6563 121.645 15.7916 121.692C15.9633 121.75 16.1361 121.809 16.3118 121.868C16.4508 121.914 16.5918 121.96 16.7333 122.006C16.9126 122.063 17.0936 122.121 17.2768 122.179C17.4206 122.223 17.5653 122.268 17.7116 122.313C17.9001 122.37 18.0911 122.427 18.2836 122.484C18.4306 122.527 18.5776 122.57 18.7268 122.613C18.9273 122.671 19.1313 122.728 19.3363 122.785C19.4841 122.826 19.6311 122.867 19.7811 122.908C19.9981 122.966 20.2196 123.025 20.4413 123.083C20.5851 123.121 20.7271 123.159 20.8728 123.196C21.1228 123.26 21.3786 123.323 21.6346 123.387C21.7576 123.417 21.8778 123.448 22.0021 123.478C22.3856 123.571 22.7746 123.663 23.1708 123.754C34.0978 126.259 48.5971 127.639 63.9976 127.639C79.3981 127.639 93.8976 126.259 104.824 123.754C105.221 123.663 105.61 123.57 105.993 123.478C106.118 123.447 106.238 123.417 106.361 123.387C106.617 123.324 106.872 123.26 107.122 123.196C107.268 123.159 107.41 123.121 107.554 123.083C107.776 123.025 107.997 122.967 108.214 122.908C108.364 122.867 108.511 122.826 108.658 122.785C108.863 122.728 109.067 122.671 109.268 122.613C109.417 122.57 109.564 122.527 109.711 122.484C109.904 122.427 110.095 122.37 110.283 122.313C110.429 122.269 110.574 122.223 110.718 122.179C110.901 122.121 111.082 122.064 111.261 122.006C111.403 121.96 111.544 121.914 111.683 121.868C111.859 121.809 112.031 121.751 112.203 121.692C112.338 121.645 112.474 121.599 112.607 121.552C112.778 121.492 112.944 121.431 113.111 121.369C113.238 121.323 113.366 121.277 113.49 121.23C113.66 121.166 113.826 121.101 113.992 121.036C114.106 120.992 114.222 120.947 114.333 120.903C114.517 120.829 114.695 120.754 114.873 120.68C114.961 120.643 115.051 120.607 115.138 120.57C115.397 120.459 115.649 120.347 115.896 120.234C115.963 120.203 116.026 120.172 116.092 120.141C116.271 120.057 116.449 119.973 116.621 119.889C116.713 119.843 116.801 119.797 116.891 119.751C117.032 119.68 117.173 119.609 117.309 119.537C117.402 119.487 117.493 119.437 117.584 119.387C117.71 119.318 117.836 119.249 117.958 119.179C118.049 119.127 118.137 119.075 118.225 119.022C118.342 118.953 118.457 118.884 118.569 118.814C118.655 118.761 118.739 118.708 118.822 118.654C118.931 118.584 119.038 118.514 119.143 118.443C119.183 118.416 119.226 118.389 119.266 118.362V145.34H119.266ZM119.266 112.66C119.266 114.121 116.048 117.331 103.986 120.097C93.3258 122.541 79.1243 123.887 63.9976 123.887C48.8708 123.887 34.6693 122.541 24.0093 120.097C11.9473 117.331 8.72881 114.121 8.72881 112.66V85.6815C8.76856 85.7087 8.81206 85.7355 8.85231 85.7628C8.95681 85.8333 9.06381 85.9035 9.17256 85.9735C9.25606 86.0272 9.33981 86.0808 9.42581 86.134C9.53806 86.2035 9.65356 86.2727 9.77006 86.3417C9.85831 86.394 9.94606 86.4465 10.0368 86.4982C10.1588 86.568 10.2848 86.637 10.4111 86.7062C10.5026 86.7562 10.5926 86.8065 10.6863 86.8563C10.8221 86.9283 10.9628 86.9995 11.1036 87.0705C11.1941 87.1162 11.2821 87.1625 11.3743 87.208C11.5463 87.2927 11.7243 87.3762 11.9031 87.46C11.9691 87.491 12.0323 87.5222 12.0993 87.553C12.3456 87.666 12.5986 87.778 12.8573 87.889C12.9428 87.9258 13.0331 87.9617 13.1201 87.9982C13.2986 88.073 13.4771 88.148 13.6613 88.222C13.7731 88.2668 13.8891 88.311 14.0028 88.3555C14.1686 88.4202 14.3343 88.4853 14.5048 88.5492C14.6291 88.596 14.7571 88.6423 14.8838 88.6887C15.0503 88.7498 15.2171 88.8105 15.3878 88.871C15.5206 88.918 15.6563 88.9645 15.7916 89.011C15.9633 89.07 16.1361 89.1287 16.3118 89.1873C16.4508 89.2335 16.5918 89.2793 16.7333 89.325C16.9126 89.383 17.0936 89.4405 17.2768 89.498C17.4206 89.543 17.5653 89.5877 17.7116 89.6322C17.9001 89.6898 18.0911 89.7467 18.2836 89.8032C18.4306 89.8465 18.5776 89.89 18.7268 89.9328C18.9273 89.9903 19.1313 90.0475 19.3363 90.1042C19.4841 90.1453 19.6311 90.1865 19.7811 90.2272C19.9981 90.286 20.2196 90.3442 20.4413 90.4025C20.5851 90.4403 20.7271 90.4782 20.8728 90.5155C21.1228 90.5795 21.3786 90.6427 21.6346 90.706C21.7576 90.7362 21.8778 90.7673 22.0021 90.7973C22.3856 90.8903 22.7746 90.9823 23.1708 91.073C34.0976 93.5783 48.5968 94.9583 63.9976 94.9583C79.3983 94.9583 93.8978 93.5783 104.824 91.073C105.221 90.9823 105.61 90.89 105.993 90.7973C106.118 90.767 106.238 90.7362 106.361 90.706C106.617 90.643 106.872 90.5798 107.122 90.5158C107.268 90.4783 107.41 90.4403 107.554 90.4025C107.776 90.3445 107.997 90.2865 108.214 90.2275C108.364 90.1868 108.511 90.1455 108.658 90.1045C108.863 90.0475 109.067 89.9905 109.268 89.933C109.417 89.89 109.564 89.8467 109.711 89.8035C109.904 89.7467 110.095 89.6897 110.283 89.6325C110.429 89.588 110.574 89.543 110.718 89.498C110.901 89.4408 111.082 89.3833 111.261 89.3253C111.403 89.2795 111.544 89.2335 111.683 89.1873C111.859 89.129 112.031 89.0702 112.203 89.0112C112.338 88.9648 112.474 88.9183 112.607 88.8713C112.778 88.811 112.944 88.75 113.111 88.689C113.238 88.6425 113.366 88.5965 113.49 88.5495C113.66 88.4855 113.826 88.4205 113.992 88.3557C114.106 88.3112 114.222 88.267 114.333 88.2222C114.517 88.1485 114.695 88.074 114.873 87.9993C114.961 87.9625 115.051 87.9263 115.138 87.8892C115.397 87.7782 115.649 87.6663 115.896 87.5532C115.963 87.5225 116.026 87.4913 116.092 87.4603C116.271 87.3768 116.449 87.293 116.621 87.2083C116.713 87.1628 116.801 87.1167 116.891 87.0707C117.032 86.9995 117.173 86.9283 117.309 86.8565C117.402 86.8068 117.493 86.7565 117.584 86.7062C117.71 86.6372 117.836 86.5683 117.958 86.4985C118.049 86.4465 118.137 86.394 118.225 86.3415C118.342 86.2725 118.457 86.2035 118.569 86.134C118.655 86.0808 118.739 86.027 118.822 85.9735C118.931 85.9035 119.038 85.8333 119.143 85.7628C119.183 85.7355 119.226 85.7087 119.266 85.6815V112.66H119.266Z" fill="black"/>
<path d="M93.5332 101.128C90.6817 103.979 90.6817 108.619 93.5332 111.471C94.9589 112.896 96.8319 113.61 98.7049 113.61C100.578 113.61 102.451 112.897 103.877 111.471C106.728 108.619 106.728 103.979 103.877 101.128C101.025 98.2764 96.3849 98.2764 93.5332 101.128ZM101.223 108.818C100.551 109.49 99.6562 109.861 98.7049 109.861C97.7537 109.861 96.8592 109.49 96.1867 108.818C95.5139 108.145 95.1434 107.251 95.1434 106.299C95.1434 105.348 95.5139 104.454 96.1867 103.781C96.8592 103.108 97.7537 102.738 98.7049 102.738C99.6562 102.738 100.551 103.108 101.223 103.781C101.896 104.454 102.266 105.348 102.266 106.299C102.266 107.251 101.896 108.145 101.223 108.818Z" fill="black"/>
<path d="M93.5332 133.379C90.6817 136.23 90.6817 140.87 93.5332 143.722C94.9589 145.147 96.8319 145.861 98.7049 145.861C100.578 145.861 102.451 145.148 103.877 143.722C106.728 140.87 106.728 136.23 103.877 133.379C101.025 130.527 96.3849 130.527 93.5332 133.379ZM101.223 141.069C100.551 141.741 99.6562 142.112 98.7049 142.112C97.7537 142.112 96.8592 141.741 96.1867 141.069C95.5139 140.396 95.1434 139.502 95.1434 138.55C95.1434 137.599 95.5139 136.705 96.1867 136.032C96.8592 135.359 97.7537 134.989 98.7049 134.989C99.6562 134.989 100.551 135.359 101.223 136.032C101.896 136.705 102.266 137.599 102.266 138.55C102.266 139.502 101.896 140.396 101.223 141.069Z" fill="black"/>
<path d="M93.5332 165.677C90.6817 168.529 90.6817 173.169 93.5332 176.021C94.9589 177.446 96.8319 178.16 98.7049 178.16C100.578 178.16 102.451 177.447 103.877 176.021C106.728 173.169 106.728 168.529 103.877 165.677C101.025 162.826 96.3849 162.826 93.5332 165.677ZM101.223 173.368C100.551 174.04 99.6562 174.411 98.7049 174.411C97.7537 174.411 96.8592 174.04 96.1867 173.368C95.5139 172.695 95.1434 171.801 95.1434 170.849C95.1434 169.898 95.5139 169.004 96.1867 168.331C96.8592 167.658 97.7537 167.288 98.7049 167.288C99.6562 167.288 100.551 167.658 101.223 168.331C101.896 169.004 102.266 169.898 102.266 170.849C102.267 171.8 101.896 172.695 101.223 173.368Z" fill="black"/>
<path d="M82.6218 171.92C79.9981 172.131 77.2871 172.298 74.5641 172.416C73.5291 172.461 72.7263 173.337 72.7713 174.372C72.8153 175.38 73.6456 176.167 74.6443 176.167C74.6718 176.167 74.6996 176.166 74.7273 176.165C77.4963 176.044 80.2533 175.874 82.9228 175.659C83.9556 175.576 84.7256 174.672 84.6423 173.639C84.5593 172.607 83.6521 171.833 82.6218 171.92Z" fill="black"/>
<path d="M64.5804 172.642C64.5789 172.642 64.5772 172.642 64.5757 172.642L63.9967 172.643C48.7614 172.643 34.5489 171.276 23.9772 168.795C22.9707 168.559 21.9589 169.184 21.7219 170.193C21.4852 171.202 22.1112 172.211 23.1197 172.448C33.9642 174.993 48.4812 176.395 63.9967 176.395L64.5849 176.394C65.6212 176.391 66.4589 175.549 66.4564 174.513C66.4534 173.479 65.6142 172.642 64.5804 172.642Z" fill="black"/>
</svg>
