<svg width="64" height="64" viewBox="0 0 64 64" fill="none" xmlns="http://www.w3.org/2000/svg">
<g clip-path="url(#clip0)">
<path d="M51.0291 24.3243C51.0291 23.7479 51.2622 23.2254 51.6393 22.8482C52.0211 22.4677 52.5483 22.2326 53.1307 22.2368C54.2866 22.245 55.2029 23.2226 55.2029 24.3785V37.5986C55.2029 38.0861 55.7655 38.358 56.1464 38.0547L59.4656 35.4109C59.8603 35.0964 60.3377 34.9385 60.8151 34.9385C61.265 34.9385 61.7135 35.0776 62.0957 35.3583C62.9553 35.9873 63.2284 37.1476 62.7422 38.0948L62.097 39.3504C60.8765 41.7235 59.4431 43.9739 57.8167 46.0752C56.189 48.1753 54.3684 50.1262 52.3761 51.9005V61.743C52.3761 62.4702 51.7866 63.0598 51.0593 63.0598H41.3846C40.6573 63.0598 40.0678 62.4702 40.0678 61.743V50.6074L39.6618 49.5774C38.8988 47.6453 38.5078 45.5866 38.5078 43.5091V33.0139V22.8996C38.5078 22.3232 38.7409 21.802 39.1193 21.4236C39.4964 21.0452 40.0189 20.8121 40.5941 20.8121C41.3672 20.8121 42.0425 21.2331 42.4034 21.8584H45.338C46.2126 22.1065 46.8554 22.9096 46.8554 23.8644V21.7535C46.8554 20.6006 47.768 19.6254 48.9209 19.6144C49.5055 19.6087 50.036 19.8428 50.4177 20.2257C50.7948 20.6029 51.0291 21.1241 51.0291 21.7005V24.3243Z" fill="#FFCFBF"/>
<path d="M42.7112 50.0088L42.3052 48.9789C41.5421 47.0467 41.1512 44.988 41.1512 42.9105V32.4153V22.3011C41.1512 21.8329 41.3068 21.4025 41.5674 21.0541C41.2766 20.9003 40.9457 20.8125 40.5941 20.8125C40.0189 20.8125 39.4964 21.0456 39.1193 21.424C38.7409 21.8024 38.5078 22.3236 38.5078 22.9V33.0143V43.5095C38.5078 45.587 38.8987 47.6457 39.6618 49.5778L40.0678 50.6078V61.7434C40.0678 62.4706 40.6573 63.0602 41.3846 63.0602H42.7113V50.0088H42.7112Z" fill="#FFB09E"/>
<path d="M44.4206 21.8584H42.4023C42.579 22.1654 42.6805 22.52 42.6805 22.8996V33.4262C43.7951 33.4262 44.6987 32.5226 44.6987 31.408V22.8996C44.6987 22.52 44.5972 22.1654 44.4206 21.8584Z" fill="#FFB09E"/>
<path d="M48.9424 21.8917C48.9424 21.0533 49.4384 20.3314 50.1511 19.9998C49.788 19.741 49.3382 19.596 48.8539 19.6161C47.7274 19.6627 46.8555 20.627 46.8555 21.7545V23.8645V33.4262C48.008 33.4262 48.9424 32.4919 48.9424 31.3394V21.8917Z" fill="#FFB09E"/>
<path d="M31.3276 6.47371C31.3276 5.79709 31.6021 5.18311 32.0456 4.7408C32.4892 4.29724 33.1019 4.02283 33.7785 4.02283C35.1318 4.02283 36.2294 5.11921 36.2294 6.47371V22.0649C36.2294 22.6363 36.891 22.9558 37.3383 22.5987L41.2364 19.4937C41.6988 19.1253 42.2601 18.9399 42.8215 18.9399C43.349 18.9399 43.8778 19.1028 44.3263 19.4323C45.335 20.1716 45.6558 21.5349 45.0844 22.6475L44.3263 24.1211C42.8942 26.9078 41.2101 29.5516 39.298 32.0188C37.3884 34.486 35.2508 36.7765 32.9102 38.8615V42.425V45.5863H16.6211V23.67V9.49346C16.6211 8.81684 16.8955 8.20286 17.3391 7.76055C17.7826 7.31699 18.3954 7.04258 19.072 7.04258C20.4265 7.04258 21.5229 8.13896 21.5229 9.49346V5.93366C21.5229 4.58042 22.6205 3.48278 23.975 3.48278C24.6516 3.48278 25.2643 3.75719 25.7079 4.20076C26.1515 4.64432 26.4259 5.25704 26.4259 5.93366V3.39131C26.4259 2.03806 27.5223 0.94043 28.8768 0.94043C29.5534 0.94043 30.1661 1.21484 30.6097 1.6584C31.0532 2.10197 31.3276 2.71469 31.3276 3.39131V6.47371Z" fill="#F1B0A2"/>
<path d="M19.3595 45.0233V23.1069V8.9304C19.3595 8.27458 19.6188 7.67915 20.0385 7.24034C19.742 7.11304 19.4154 7.04199 19.072 7.04199C18.3954 7.04199 17.7826 7.3164 17.3391 7.75997C16.8955 8.20228 16.6211 8.81625 16.6211 9.49288V23.6694V45.5858H32.9102V45.0233H19.3595Z" fill="#EB9C8D"/>
<path d="M42.5647 21.2112C43.0451 20.8364 43.6283 20.6477 44.2116 20.6477C44.5803 20.6477 44.9489 20.7245 45.293 20.8756C45.1545 20.3126 44.8253 19.7964 44.3282 19.4319C43.8796 19.1023 43.3508 18.9395 42.8233 18.9395C42.2619 18.9395 41.7006 19.1249 41.2382 19.4933L37.6797 22.3276C38.3345 23.278 39.6546 23.481 40.5646 22.7712L42.5647 21.2112Z" fill="#EB9C8D"/>
<path d="M32.7538 42.4248H20.6836V48.0383L22.0751 50.2713H33.982L35.3112 48.0383V44.9822C35.3112 43.5701 34.166 42.4248 32.7538 42.4248Z" fill="#C8EFFE"/>
<path d="M35.3112 48.0381V61.4945C35.3112 62.3593 34.6101 63.0604 33.7453 63.0604H20.6836V48.0381H24.7258H35.3112Z" fill="#99E6FC"/>
<path d="M20.6808 29.4155C20.6808 28.2991 21.5868 27.3944 22.702 27.3944C23.2608 27.3944 23.7658 27.6212 24.1316 27.9858C24.4963 28.3517 24.7231 28.8566 24.7231 29.4155V45.5066C24.7231 47.5177 24.3446 49.5125 23.6066 51.3832L23.2119 52.3819V61.1053H11.3635L11.2908 53.6349C9.36118 51.9157 7.59819 50.0262 6.02316 47.9913C4.44688 45.9564 3.05855 43.7775 1.87696 41.4794L1.25171 40.2628C0.780578 39.3456 1.04496 38.2216 1.87696 37.6114C2.24785 37.3408 2.68264 37.2054 3.11869 37.2054C3.58105 37.2054 4.04341 37.3583 4.42558 37.6628L7.63954 40.2227C8.00918 40.5171 8.55424 40.254 8.55424 39.7829V26.9258C8.55424 25.8093 9.45891 24.9047 10.5753 24.9047C11.1342 24.9047 11.6391 25.1302 12.005 25.4961C12.3696 25.862 12.5964 26.3682 12.5964 26.9258V24.3847C12.5964 23.8271 12.8232 23.3209 13.1879 22.955C13.5537 22.5891 14.0587 22.3623 14.6175 22.3623C15.734 22.3623 16.6386 23.2682 16.6386 24.3847V26.4797C16.6386 25.9221 16.8654 25.4171 17.2301 25.0513C17.5959 24.6854 18.1009 24.4586 18.6597 24.4586C19.7762 24.4586 20.6808 25.3645 20.6808 26.4797V29.4155Z" fill="#FFE5C2"/>
<path d="M13.568 60.4426L13.5073 53.6662C13.4999 52.8416 13.1595 52.0541 12.5606 51.4872C10.9932 50.0035 9.54474 48.4036 8.2277 46.7021C6.65142 44.6672 5.26309 42.4883 4.0815 40.1902L3.45625 38.9736C3.16793 38.4123 3.15628 37.7742 3.38032 37.2232C3.29349 37.2123 3.20615 37.2051 3.11869 37.2051C2.68264 37.2051 2.24785 37.3404 1.87696 37.6111C1.04496 38.2213 0.780578 39.3452 1.25171 40.2624L1.87696 41.4791C3.05855 43.7771 4.44688 45.9561 6.02316 47.991C7.59819 50.0259 9.36118 51.9154 11.2908 53.6345L11.3635 61.1049H23.2119V60.4426H13.568Z" fill="#FED2A4"/>
<path d="M14.738 26.9258V24.3847C14.738 23.8271 14.9648 23.3209 15.3295 22.955C15.4375 22.847 15.5568 22.749 15.6868 22.6675C15.3762 22.4728 15.0123 22.3623 14.6188 22.3623C14.0599 22.3623 13.555 22.5891 13.1891 22.955C12.8245 23.3209 12.5977 23.8271 12.5977 24.3847V26.9258V36.312C13.7797 36.312 14.738 35.3537 14.738 34.1716V26.9258Z" fill="#FED2A4"/>
<path d="M19.262 25.0507C19.3852 24.9274 19.5237 24.8182 19.6753 24.7299C19.3769 24.556 19.0327 24.458 18.6624 24.458C18.1035 24.458 17.5986 24.6848 17.2327 25.0507C16.8681 25.4166 16.6413 25.9215 16.6413 26.4791L16.625 36.3115C17.7463 36.3115 18.6557 35.4035 18.6576 34.2822L18.6705 26.4791C18.6705 25.9215 18.8973 25.4166 19.262 25.0507Z" fill="#FED2A4"/>
<path d="M22.7052 29.6638C22.7052 28.8318 23.2078 28.1145 23.9258 27.8046C23.5473 27.5171 23.0672 27.3604 22.5453 27.4008C21.4849 27.483 20.6836 28.4026 20.6836 29.4663V37.3749C21.8002 37.3749 22.7053 36.4697 22.7053 35.3532V29.6638H22.7052Z" fill="#FED2A4"/>
<path d="M11.721 25.259C11.3791 25.0225 10.9647 24.8917 10.5138 24.9053C9.41199 24.9382 8.55469 25.8826 8.55469 26.985V39.2501C9.82273 39.2501 10.8506 38.2221 10.8506 36.9542V26.9255C10.8506 26.2353 11.1935 25.6236 11.721 25.259Z" fill="#FED2A4"/>
<path d="M53.1142 24.3248C53.1142 23.7484 53.3473 23.2259 53.7244 22.8488C53.853 22.7206 53.9945 22.6146 54.1526 22.523C53.8452 22.3449 53.4943 22.2373 53.1136 22.2373C52.5372 22.2373 52.016 22.4716 51.6376 22.8488C51.2604 23.2259 51.0273 23.7484 51.0273 24.3248V34.0168C52.1799 34.0168 53.1142 33.0825 53.1142 31.9299V24.3248Z" fill="#FFB09E"/>
<path d="M62.3617 35.59C62.2796 35.5063 62.191 35.4294 62.0937 35.3582C61.7115 35.0776 61.2629 34.9385 60.8131 34.9385C60.3357 34.9385 59.8583 35.0964 59.4636 35.4109L56.1444 38.0547C56.0197 38.1539 55.8757 38.1907 55.7383 38.1793C56.5363 39.3194 58.1689 39.4658 59.1571 38.486L61.6922 35.9727C61.8837 35.783 62.1157 35.6539 62.3617 35.59Z" fill="#FFB09E"/>
<path d="M23.2581 56.5723H11.249C10.1536 56.5723 9.26562 57.4603 9.26562 58.5557V62.286C9.26562 62.7135 9.61221 63.0602 10.0399 63.0602H24.4674C24.8949 63.0602 25.2416 62.7136 25.2416 62.286V58.5557C25.2415 57.4603 24.3535 56.5723 23.2581 56.5723Z" fill="#91DEB6"/>
<path d="M12.6241 62.6436V58.4633C12.6241 57.6631 13.0027 56.9637 13.5688 56.5723H11.249C10.1536 56.5723 9.26562 57.4603 9.26562 58.5557V62.286C9.26562 62.7135 9.61221 63.0602 10.0399 63.0602H12.7193C12.6586 62.9365 12.6241 62.7947 12.6241 62.6436Z" fill="#6ED5A1"/>
<path d="M33.779 6.47334C33.779 5.79672 34.0534 5.18275 34.497 4.74043C34.6476 4.5897 34.8191 4.45838 35.0047 4.35087C34.6438 4.14187 34.2261 4.02246 33.779 4.02246C33.1024 4.02246 32.4897 4.29687 32.0461 4.74043C31.6025 5.18275 31.3281 5.79672 31.3281 6.47334V17.8557C32.6818 17.8557 33.779 16.7584 33.779 15.4048V6.47334Z" fill="#EB9C8D"/>
<path d="M28.8767 3.39048C28.8767 2.48406 29.3722 1.69278 30.1041 1.26877C29.6788 1.02242 29.1724 0.898878 28.6346 0.951379C27.3703 1.0748 26.4258 2.17619 26.4258 3.44649V17.1622C27.7794 17.1622 28.8767 16.0649 28.8767 14.7113V3.39048Z" fill="#EB9C8D"/>
<path d="M26.4265 11.944V17.1628H21.5234V15.1003V9.4931V5.93331C21.5234 4.58006 22.6211 3.48242 23.9756 3.48242C24.6522 3.48242 25.2649 3.75683 25.7085 4.2004C26.1521 4.64396 26.4265 5.25668 26.4265 5.93331V11.944Z" fill="#F1B0A2"/>
<path d="M24.3138 5.9324C24.3138 5.09753 24.7295 4.35762 25.3675 3.91506C24.9403 3.61847 24.4178 3.45671 23.8522 3.48453C22.5365 3.54956 21.5234 4.67839 21.5234 5.99568V9.4922V17.1619C23.0645 17.1619 24.3138 15.9126 24.3138 14.3715V5.9324Z" fill="#EB9C8D"/>
<path d="M16.6273 16.0998C17.1463 16.0998 17.567 15.679 17.567 15.16V9.49216C17.567 8.65891 18.245 7.98091 19.0783 7.98091C19.9115 7.98091 20.5895 8.65878 20.5895 9.49216V17.1624C20.5895 17.6814 21.0103 18.1022 21.5293 18.1022C22.0483 18.1022 22.469 17.6814 22.469 17.1624V5.93262C22.469 5.09937 23.147 4.42136 23.9803 4.42136C24.8135 4.42136 25.4915 5.09924 25.4915 5.93262V17.1626C25.4915 17.6816 25.9123 18.1023 26.4313 18.1023C26.9503 18.1023 27.371 17.6816 27.371 17.1626V3.39076C27.371 2.55751 28.049 1.87951 28.8823 1.87951C29.7155 1.87951 30.3936 2.55751 30.3936 3.39076V17.855C30.3936 18.374 30.8143 18.7947 31.3333 18.7947C31.8523 18.7947 32.2731 18.374 32.2731 17.855V6.47229C32.2731 5.63904 32.9511 4.96103 33.7843 4.96103C34.6176 4.96103 35.2956 5.63904 35.2956 6.47229V10.322C35.2956 10.841 35.7163 11.2618 36.2353 11.2618C36.7543 11.2618 37.1751 10.841 37.1751 10.322V6.47229C37.1751 4.60267 35.6539 3.08152 33.7843 3.08152C33.2415 3.08152 32.7284 3.21046 32.2731 3.43825V3.39076C32.2731 1.52115 30.7519 0 28.8823 0C27.1738 0 25.7572 1.2703 25.5255 2.91587C25.0618 2.67743 24.5367 2.54185 23.9803 2.54185C22.1107 2.54185 20.5895 4.06288 20.5895 5.93262V6.45825C20.1342 6.23046 19.6211 6.10152 19.0783 6.10152C17.2087 6.10152 15.6875 7.62255 15.6875 9.49228V15.1601C15.6875 15.679 16.1083 16.0998 16.6273 16.0998Z" fill="black"/>
<path d="M54.7839 48.2095C53.8155 49.2645 52.7954 50.2704 51.7523 51.1994C51.552 51.3777 51.4375 51.6331 51.4375 51.9012V63.0603C51.4375 63.5793 51.8583 64.0001 52.3773 64.0001C52.8963 64.0001 53.317 63.5793 53.317 63.0603V52.3198C54.2972 51.4292 55.255 50.4755 56.1684 49.4806C56.5193 49.0983 56.494 48.5038 56.1116 48.1528C55.7292 47.8019 55.135 47.827 54.7839 48.2095Z" fill="black"/>
<path d="M62.6535 34.6007C61.5259 33.7739 59.975 33.8048 58.8813 34.6761L56.1438 36.8568V24.3248C56.1438 22.6559 54.786 21.2982 53.1171 21.2982C52.7091 21.2982 52.3201 21.3798 51.9646 21.5267C51.874 19.9387 50.5537 18.6744 48.9433 18.6744C47.7037 18.6744 46.6364 19.4237 46.1691 20.493C45.9592 19.7854 45.5228 19.1418 44.8847 18.674C43.6202 17.7465 41.8801 17.7814 40.6536 18.7585L37.1722 21.5317V14.3275C37.1722 13.8085 36.7515 13.3877 36.2325 13.3877C35.7135 13.3877 35.2927 13.8085 35.2927 14.3275V22.064C35.2927 22.6929 35.6447 23.2531 36.2112 23.5262C36.7776 23.7991 37.4351 23.7253 37.9269 23.3334L41.8246 20.2285C42.3895 19.7784 43.1908 19.7625 43.7732 20.1896C44.413 20.6588 44.6141 21.5114 44.2513 22.217L43.4935 23.6914C40.67 29.1844 36.8999 34.0522 32.288 38.1597C32.0878 38.338 31.9732 38.5933 31.9732 38.8615V41.4846H25.6652V29.416C25.6652 27.7834 24.3369 26.4551 22.7042 26.4551C22.3226 26.4551 21.9581 26.5284 21.6228 26.6604V26.4806C21.6228 24.848 20.2945 23.5196 18.6618 23.5196C18.2729 23.5196 17.9016 23.5957 17.561 23.7327C17.5624 23.7119 17.5641 23.6911 17.5641 23.6699V19.1654C17.5641 18.6464 17.1434 18.2257 16.6244 18.2257C16.1054 18.2257 15.6846 18.6464 15.6846 19.1654V21.6226C15.3538 21.4945 14.9949 21.4236 14.6193 21.4236C13.0577 21.4236 11.7755 22.639 11.6667 24.1735C11.3292 24.0393 10.9617 23.9647 10.5769 23.9647C8.9442 23.9647 7.61589 25.293 7.61589 26.9256V39.0018L5.01252 36.928C3.94295 36.076 2.42581 36.0457 1.32316 36.8544C0.111879 37.7427 -0.26891 39.357 0.417738 40.693L1.04274 41.9088C3.4034 46.5014 6.53455 50.5854 10.3531 54.0534V55.7749C9.17965 56.155 8.32835 57.2578 8.32835 58.5562V63.0607C8.32835 63.5797 8.74911 64.0004 9.26811 64.0004C9.7871 64.0004 10.2079 63.5797 10.2079 63.0607V58.5562C10.2079 57.9807 10.6761 57.5126 11.2516 57.5126H23.2607C23.8362 57.5126 24.3043 57.9807 24.3043 58.5562V63.0607C24.3043 63.5797 24.7251 64.0004 25.2441 64.0004C25.7631 64.0004 26.1838 63.5797 26.1838 63.0607V58.5562C26.1838 57.2559 25.33 56.1516 24.1538 55.7732V52.5607L24.4821 51.7286C24.8362 50.831 25.1109 49.912 25.3065 48.9774H34.3701V63.0607C34.3701 63.5797 34.7909 64.0004 35.3099 64.0004C35.8289 64.0004 36.2496 63.5797 36.2496 63.0607V44.982C36.2496 43.438 35.2435 42.1253 33.8527 41.6629V39.2806C35.1595 38.0978 36.3974 36.8533 37.5692 35.5543V43.5099C37.5692 45.7143 37.9794 47.8717 38.7883 49.9223L39.1294 50.7868V63.0607C39.1294 63.5797 39.5502 64.0004 40.0692 64.0004C40.5882 64.0004 41.0089 63.5797 41.0089 63.0607V50.6082C41.0089 50.4901 40.9867 50.3731 40.9434 50.2633L40.5367 49.2325C39.8147 47.4025 39.4486 45.477 39.4486 43.5098V33.354C40.2519 32.3561 41.0156 31.327 41.7428 30.2711V33.4268C41.7428 33.9458 42.1636 34.3666 42.6826 34.3666C43.2016 34.3666 43.6223 33.9458 43.6223 33.4268V27.3347C44.1626 26.4245 44.6785 25.4973 45.165 24.5506L45.7873 23.34C45.87 23.4991 45.9165 23.6781 45.9165 23.8652V33.4268C45.9165 33.9458 46.3372 34.3666 46.8562 34.3666C47.3752 34.3666 47.796 33.9458 47.796 33.4268V21.701C47.796 21.0685 48.3106 20.5539 48.9431 20.5539C49.5756 20.5539 50.0902 21.0685 50.0902 21.701V34.0163C50.0902 34.5353 50.511 34.9561 51.03 34.9561C51.549 34.9561 51.9697 34.5353 51.9697 34.0163V24.3248C51.9697 23.6923 52.4843 23.1777 53.1169 23.1777C53.7494 23.1777 54.264 23.6923 54.264 24.3248V37.5997C54.264 38.1892 54.5939 38.7144 55.1251 38.9704C55.6561 39.2262 56.2726 39.1571 56.7335 38.7898L60.0521 36.1461C60.4841 35.8021 61.0965 35.7898 61.5417 36.1164C62.0308 36.475 62.1845 37.1267 61.9072 37.6661L61.262 38.9215C60.1356 41.113 58.8018 43.2268 57.2978 45.2042C56.9835 45.6173 57.0637 46.2069 57.4768 46.5211C57.6469 46.6504 57.8467 46.7129 58.0451 46.7129C58.3286 46.7129 58.6089 46.5851 58.7937 46.3421C60.3643 44.2772 61.7571 42.0698 62.9338 39.7807L63.579 38.5253C64.2812 37.1595 63.8919 35.5089 62.6535 34.6007ZM2.71463 41.0495L2.08963 39.8337C1.82787 39.3242 1.97297 38.7086 2.43483 38.3699C2.85534 38.0617 3.43385 38.0731 3.84171 38.398L7.0558 40.9584C7.51139 41.3214 8.12023 41.3897 8.64499 41.1369C9.16975 40.8841 9.49565 40.3652 9.49565 39.7827V26.9256C9.49565 26.3293 9.98082 25.8442 10.5771 25.8442C11.1734 25.8442 11.6586 26.3294 11.6586 26.9256V36.3122C11.6586 36.8312 12.0794 37.252 12.5984 37.252C13.1173 37.252 13.5381 36.8312 13.5381 36.3122V24.3843C13.5381 23.788 14.0233 23.303 14.6195 23.303C15.2158 23.303 15.7009 23.7882 15.7009 24.3843V35.7412C15.7009 36.2602 16.1217 36.681 16.6407 36.681C17.1597 36.681 17.5804 36.2602 17.5804 35.7412V26.4805C17.5804 25.8842 18.0656 25.399 18.6619 25.399C19.2582 25.399 19.7434 25.8842 19.7434 26.4805V35.7412C19.7434 36.2602 20.1641 36.681 20.6831 36.681C21.2021 36.681 21.6229 36.2602 21.6229 35.7412V29.4159C21.6229 28.8196 22.1081 28.3345 22.7044 28.3345C23.3007 28.3345 23.7858 28.8196 23.7858 29.4159V45.5069C23.7858 47.4085 23.432 49.2697 22.7341 51.0387L22.3401 52.0371C22.2968 52.1469 22.2746 52.2639 22.2746 52.3819V55.633H12.2328V53.6346C12.2328 53.3664 12.1183 53.1111 11.9181 52.9328C8.13013 49.5593 5.03357 45.5611 2.71463 41.0495ZM34.3704 44.982V47.0977H25.5912C25.6405 46.5709 25.6653 46.0403 25.6653 45.5069V43.364H32.7524C33.6445 43.364 34.3704 44.0899 34.3704 44.982Z" fill="black"/>
</g>
<defs>
<clipPath id="clip0">
<rect width="64" height="64" fill="white"/>
</clipPath>
</defs>
</svg>
