<svg width="64" height="64" viewBox="0 0 64 64" fill="none" xmlns="http://www.w3.org/2000/svg">
<path d="M24 52H40V62H24V52Z" fill="#C16B3F"/>
<path d="M24 48H40V52H24V48Z" fill="#E39854"/>
<path d="M34 34V32C34 31.4696 34.2107 30.9609 34.5858 30.5858C34.9609 30.2107 35.4696 30 36 30H40V34" fill="#96CC7F"/>
<path d="M40 24H62V34H40V24Z" fill="#F2C351"/>
<path d="M40 20H62V24H40V20Z" fill="#F7D881"/>
<path d="M42 20V18C42 17.4696 42.2107 16.9609 42.5858 16.5858C42.9609 16.2107 43.4696 16 44 16H46C46.5304 16 47.0391 16.2107 47.4142 16.5858C47.7893 16.9609 48 17.4696 48 18V20" fill="#F7D881"/>
<path d="M32 38H54V48H32V38Z" fill="#78B75B"/>
<path d="M32 34H54V38H32V34Z" fill="#96CC7F"/>
<path d="M10 38H32V48H10V38Z" fill="#C66B60"/>
<path d="M10 34H32V38H10V34Z" fill="#E47C6E"/>
<path d="M12 34V32C12 31.4696 12.2107 30.9609 12.5858 30.5858C12.9609 30.2107 13.4696 30 14 30H16C16.5304 30 17.0391 30.2107 17.4142 30.5858C17.7893 30.9609 18 31.4696 18 32V34" fill="#E47C6E"/>
<path d="M2 52H24V62H2V52Z" fill="#F2C351"/>
<path d="M2 48H24V52H2V48Z" fill="#F7D881"/>
<path d="M40 52H62V62H40V52Z" fill="#F2C351"/>
<path d="M40 48H62V52H40V48Z" fill="#F7D881"/>
<path d="M54 20V18C54 17.4696 54.2107 16.9609 54.5858 16.5858C54.9609 16.2107 55.4696 16 56 16H58C58.5304 16 59.0391 16.2107 59.4142 16.5858C59.7893 16.9609 60 17.4696 60 18V20" fill="#F2C351"/>
<path d="M2 10H24V20H2V10Z" fill="#8892A0"/>
<path d="M2 6H24V10H2V6Z" fill="#A8B0BC"/>
<path d="M4 48V46C4 45.4696 4.21071 44.9609 4.58579 44.5858C4.96086 44.2107 5.46957 44 6 44H10V48" fill="#F7D881"/>
<path d="M24 34V32C24 31.4696 24.2107 30.9609 24.5858 30.5858C24.9609 30.2107 25.4696 30 26 30H28C28.5304 30 29.0391 30.2107 29.4142 30.5858C29.7893 30.9609 30 31.4696 30 32V34" fill="#C66B60"/>
<path d="M4 6V4C4 3.46957 4.21071 2.96086 4.58579 2.58579C4.96086 2.21071 5.46957 2 6 2H8C8.53043 2 9.03914 2.21071 9.41421 2.58579C9.78929 2.96086 10 3.46957 10 4V6" fill="#A8B0BC"/>
<path d="M16 6V4C16 3.46957 16.2107 2.96086 16.5858 2.58579C16.9609 2.21071 17.4696 2 18 2H20C20.5304 2 21.0391 2.21071 21.4142 2.58579C21.7893 2.96086 22 3.46957 22 4V6" fill="#8892A0"/>
<path d="M54 48V44H58C58.5304 44 59.0391 44.2107 59.4142 44.5858C59.7893 44.9609 60 45.4696 60 46V48" fill="#F2C351"/>
<path d="M14.648 6H2V10H13.708C14.1626 8.70385 14.4777 7.36294 14.648 6Z" fill="#C1C8D1"/>
<path d="M2 10V20H5.739C9.44724 17.6609 12.2556 14.1368 13.708 10H2Z" fill="#A8B0BC"/>
<path d="M52.648 20H40V24H51.708C52.1626 22.7039 52.4777 21.3629 52.648 20Z" fill="#FFE6A9"/>
<path d="M40 24V34H43.739C47.4472 31.6609 50.2556 28.1368 51.708 24H40Z" fill="#F7D881"/>
<path d="M14.648 48H2V52H13.708C14.1626 50.7039 14.4777 49.3629 14.648 48Z" fill="#FFE6A9"/>
<path d="M2 52V62H5.739C9.44724 59.6609 12.2556 56.1368 13.708 52H2Z" fill="#F7D881"/>
<path d="M22.648 34H10V38H21.708C22.1626 36.7039 22.4777 35.3629 22.648 34Z" fill="#EF8E84"/>
<path d="M10 38V48H13.739C17.4472 45.6609 20.2556 42.1368 21.708 38H10Z" fill="#E47C6E"/>
<path d="M44.648 34H32V38H43.708C44.1626 36.7039 44.4777 35.3629 44.648 34Z" fill="#ACDD94"/>
<path d="M32 38V48H35.739C39.4472 45.6609 42.2556 42.1368 43.708 38H32Z" fill="#96CC7F"/>
<path d="M52.648 48H40V52H51.708C52.1626 50.7039 52.4777 49.3629 52.648 48Z" fill="#FFE6A9"/>
<path d="M40 52V62H43.739C47.4472 59.6609 50.2556 56.1368 51.708 52H40Z" fill="#F7D881"/>
<path d="M36.648 48H24V52H35.708C36.1626 50.7039 36.4777 49.3629 36.648 48Z" fill="#F2A86B"/>
<path d="M24 52V62H27.739C31.4472 59.6609 34.2556 56.1368 35.708 52H24Z" fill="#D3754C"/>
<path d="M62 35C62.2652 35 62.5196 34.8946 62.7071 34.7071C62.8946 34.5196 63 34.2652 63 34V20C63 19.7348 62.8946 19.4804 62.7071 19.2929C62.5196 19.1054 62.2652 19 62 19H61V18C61 17.2044 60.6839 16.4413 60.1213 15.8787C59.5587 15.3161 58.7957 15 58 15H56C55.2043 15 54.4413 15.3161 53.8787 15.8787C53.3161 16.4413 53 17.2044 53 18V19H49V18C49 17.2044 48.6839 16.4413 48.1213 15.8787C47.5587 15.3161 46.7957 15 46 15H44C43.2043 15 42.4413 15.3161 41.8787 15.8787C41.3161 16.4413 41 17.2044 41 18V19H40C39.7348 19 39.4804 19.1054 39.2929 19.2929C39.1054 19.4804 39 19.7348 39 20V29H36C35.2043 29 34.4413 29.3161 33.8787 29.8787C33.3161 30.4413 33 31.2044 33 32V33H31V32C31 31.2044 30.6839 30.4413 30.1213 29.8787C29.5587 29.3161 28.7956 29 28 29H26C25.2044 29 24.4413 29.3161 23.8787 29.8787C23.3161 30.4413 23 31.2044 23 32V33H19V32C19 31.2044 18.6839 30.4413 18.1213 29.8787C17.5587 29.3161 16.7956 29 16 29H14C13.2044 29 12.4413 29.3161 11.8787 29.8787C11.3161 30.4413 11 31.2044 11 32V33H10C9.73478 33 9.48043 33.1054 9.29289 33.2929C9.10536 33.4804 9 33.7348 9 34V43H6C5.20435 43 4.44129 43.3161 3.87868 43.8787C3.31607 44.4413 3 45.2044 3 46V47H2C1.73478 47 1.48043 47.1054 1.29289 47.2929C1.10536 47.4804 1 47.7348 1 48V62C1 62.2652 1.10536 62.5196 1.29289 62.7071C1.48043 62.8946 1.73478 63 2 63H62C62.2652 63 62.5196 62.8946 62.7071 62.7071C62.8946 62.5196 63 62.2652 63 62V48C63 47.7348 62.8946 47.4804 62.7071 47.2929C62.5196 47.1054 62.2652 47 62 47H61V46C61 45.2044 60.6839 44.4413 60.1213 43.8787C59.5587 43.3161 58.7957 43 58 43H55V35H62ZM25 51V49H39V51H25ZM39 53V61H25V53H39ZM11 39H31V47H11V39ZM33 47V39H53V47H33ZM53 37H33V35H53V37ZM41 33V25H61V33H41ZM55 18C55 17.7348 55.1054 17.4804 55.2929 17.2929C55.4804 17.1054 55.7348 17 56 17H58C58.2652 17 58.5196 17.1054 58.7071 17.2929C58.8946 17.4804 59 17.7348 59 18V19H55V18ZM43 18C43 17.7348 43.1054 17.4804 43.2929 17.2929C43.4804 17.1054 43.7348 17 44 17H46C46.2652 17 46.5196 17.1054 46.7071 17.2929C46.8946 17.4804 47 17.7348 47 18V19H43V18ZM61 21V23H41V21H61ZM35 32C35 31.7348 35.1054 31.4804 35.2929 31.2929C35.4804 31.1054 35.7348 31 36 31H39V33H35V32ZM25 32C25 31.7348 25.1054 31.4804 25.2929 31.2929C25.4804 31.1054 25.7348 31 26 31H28C28.2652 31 28.5196 31.1054 28.7071 31.2929C28.8946 31.4804 29 31.7348 29 32V33H25V32ZM13 32C13 31.7348 13.1054 31.4804 13.2929 31.2929C13.4804 31.1054 13.7348 31 14 31H16C16.2652 31 16.5196 31.1054 16.7071 31.2929C16.8946 31.4804 17 31.7348 17 32V33H13V32ZM31 35V37H11V35H31ZM5 46C5 45.7348 5.10536 45.4804 5.29289 45.2929C5.48043 45.1054 5.73478 45 6 45H9V47H5V46ZM10 49H23V51H3V49H10ZM3 53H23V61H3V53ZM41 61V53H61V61H41ZM61 51H41V49H61V51ZM58 45C58.2652 45 58.5196 45.1054 58.7071 45.2929C58.8946 45.4804 59 45.7348 59 46V47H55V45H58Z" fill="black"/>
<path d="M2 21H24C24.2652 21 24.5196 20.8946 24.7071 20.7071C24.8946 20.5196 25 20.2652 25 20V6C25 5.73478 24.8946 5.48043 24.7071 5.29289C24.5196 5.10536 24.2652 5 24 5H23V4C23 3.20435 22.6839 2.44129 22.1213 1.87868C21.5587 1.31607 20.7956 1 20 1H18C17.2044 1 16.4413 1.31607 15.8787 1.87868C15.3161 2.44129 15 3.20435 15 4V5H11V4C11 3.20435 10.6839 2.44129 10.1213 1.87868C9.55871 1.31607 8.79565 1 8 1H6C5.20435 1 4.44129 1.31607 3.87868 1.87868C3.31607 2.44129 3 3.20435 3 4V5H2C1.73478 5 1.48043 5.10536 1.29289 5.29289C1.10536 5.48043 1 5.73478 1 6V20C1 20.2652 1.10536 20.5196 1.29289 20.7071C1.48043 20.8946 1.73478 21 2 21ZM3 19V11H23V19H3ZM17 4C17 3.73478 17.1054 3.48043 17.2929 3.29289C17.4804 3.10536 17.7348 3 18 3H20C20.2652 3 20.5196 3.10536 20.7071 3.29289C20.8946 3.48043 21 3.73478 21 4V5H17V4ZM5 4C5 3.73478 5.10536 3.48043 5.29289 3.29289C5.48043 3.10536 5.73478 3 6 3H8C8.26522 3 8.51957 3.10536 8.70711 3.29289C8.89464 3.48043 9 3.73478 9 4V5H5V4ZM23 7V9H3V7H23Z" fill="black"/>
</svg>
