<?xml version="1.0" encoding="iso-8859-1"?>
<!-- Generator: Adobe Illustrator 19.0.0, SVG Export Plug-In . SVG Version: 6.00 Build 0)  -->
<svg version="1.1" id="Capa_1" xmlns="http://www.w3.org/2000/svg" xmlns:xlink="http://www.w3.org/1999/xlink" x="0px" y="0px"
	 viewBox="0 0 512 512" style="enable-background:new 0 0 512 512;" xml:space="preserve">
<rect x="8.533" y="315.732" style="fill:#3F51B4;" width="51.2" height="187.733"/>
<path style="fill:#EFC7B0;" d="M59.733,486.399h188.433c5.214,0,10.419-0.401,15.573-1.195l70.059-10.778
	c21.53-3.311,41.438-13.397,56.841-28.8L494.626,341.64c5.658-5.658,8.841-13.329,8.841-21.333l0,0
	c0-16.666-13.508-30.174-30.174-30.174h-0.7c-7.595,0-14.899,2.859-20.48,8.004l-92.459,85.333
	c-6.298,5.82-14.558,9.054-23.134,9.062H206.874c-6.793,0-13.303-2.697-18.099-7.501l0,0c-10.001-9.993-10.001-26.206,0-36.207l0,0
	l0,0c4.804-4.796,11.315-7.492,18.099-7.492h89.719c6.793,0,13.303-2.697,18.099-7.501l0,0c10.001-9.993,10.001-26.206,0-36.207l0,0
	l0,0c-4.804-4.796-11.315-7.492-18.099-7.492H157.372c-19.191,0-37.999,5.393-54.272,15.565l-43.366,27.102V486.399z"/>
<polygon style="fill:#FEC007;" points="221.867,93.866 256,8.532 290.133,93.866 375.467,93.866 307.2,145.066 332.8,238.932 
	256,170.666 170.667,238.932 204.8,145.066 136.533,93.866 "/>
<path d="M472.593,281.599c-9.728-0.017-19.106,3.635-26.249,10.24l-92.45,85.333c-4.719,4.386-10.931,6.827-17.374,6.827H206.874
	c-9.429,0-17.067-7.637-17.067-17.067c0-9.429,7.637-17.067,17.067-17.067h89.719c18.85,0,34.133-15.283,34.133-34.133
	s-15.283-34.133-34.133-34.133h-139.23c-20.796-0.009-41.165,5.837-58.795,16.87l-30.302,18.97v-10.24H0v204.8h68.267v-17.067
	h179.908c5.649,0,11.29-0.435,16.87-1.289l70.059-10.778c23.33-3.541,44.911-14.473,61.568-31.198l103.987-104.004
	c7.287-7.245,11.366-17.092,11.341-27.366c-0.111-21.487-17.621-38.81-39.108-38.699
	C472.798,281.599,472.695,281.599,472.593,281.599z M51.2,494.932H17.067V324.266H51.2V494.932z M488.593,335.598L384.606,439.602
	c-14.097,14.148-32.35,23.407-52.096,26.402l-70.059,10.778c-4.727,0.725-9.498,1.084-14.276,1.084H68.267V337.527l39.356-24.593
	c14.916-9.327,32.154-14.276,49.741-14.268h139.23c9.429,0,17.067,7.637,17.067,17.067s-7.637,17.067-17.067,17.067h-89.719
	c-18.85,0-34.133,15.283-34.133,34.133s15.283,34.133,34.133,34.133h129.647c10.726,0.009,21.069-4.028,28.945-11.315l92.459-85.333
	c4.198-3.814,9.694-5.862,15.36-5.734c11.947-0.009,21.632,9.677,21.641,21.623c0,5.743-2.278,11.247-6.34,15.309L488.593,335.598z"
	/>
<path d="M194.62,148.095l-31.974,87.893c-1.613,4.429,0.674,9.327,5.103,10.94c2.799,1.015,5.922,0.503,8.243-1.357l79.71-63.778
	l71.424,63.479c3.524,3.132,8.917,2.807,12.049-0.717c1.911-2.15,2.611-5.129,1.852-7.902l-24.064-88.235l63.625-47.727
	c3.772-2.825,4.531-8.175,1.707-11.947c-1.613-2.15-4.139-3.413-6.827-3.413H295.91L263.927,5.367
	c-1.749-4.378-6.716-6.502-11.093-4.753c-2.167,0.87-3.891,2.586-4.753,4.753L216.09,85.332h-79.556
	c-4.71,0-8.533,3.823-8.533,8.533c0,2.688,1.263,5.214,3.413,6.827L194.62,148.095z M221.867,102.399c3.49,0,6.63-2.125,7.927-5.367
	L256,31.504l26.206,65.527c1.297,3.243,4.437,5.367,7.927,5.367h59.733l-47.787,35.84c-2.799,2.099-4.036,5.692-3.115,9.071
	l18.048,66.176l-55.339-49.195c-3.106-2.765-7.748-2.884-10.999-0.29l-61.594,49.271l23.748-65.289
	c1.28-3.533,0.102-7.492-2.91-9.745l-47.787-35.84H221.867z"/>
<rect x="170.666" y="18.536" transform="matrix(-0.7071 0.7071 -0.7071 -0.7071 336.0867 -53.8672)" width="17.067" height="48.273"/>
<rect x="308.65" y="34.13" transform="matrix(-0.7071 0.7071 -0.7071 -0.7071 598.2682 -162.4849)" width="48.273" height="17.067"/>
<rect x="110.933" y="153.599" width="51.2" height="17.067"/>
<rect x="349.867" y="153.599" width="51.2" height="17.067"/>
<rect x="247.467" y="204.799" width="17.067" height="51.2"/>
<g>
</g>
<g>
</g>
<g>
</g>
<g>
</g>
<g>
</g>
<g>
</g>
<g>
</g>
<g>
</g>
<g>
</g>
<g>
</g>
<g>
</g>
<g>
</g>
<g>
</g>
<g>
</g>
<g>
</g>
</svg>
