<svg height="512pt" viewBox="0 -18 512 511" width="512pt" xmlns="http://www.w3.org/2000/svg"><path d="m370.773438 367.410156h-342.789063c-11.3125 0-20.484375-9.171875-20.484375-20.484375v-239.097656c0-11.3125 9.171875-20.484375 20.484375-20.484375h342.789063c11.316406 0 20.488281 9.171875 20.488281 20.484375v239.097656c0 11.3125-9.171875 20.484375-20.488281 20.484375zm0 0" fill="#87d1ea"/><path d="m7.5 324.871094v22.054687c0 11.3125 9.171875 20.484375 20.484375 20.484375h342.789063c11.316406 0 20.488281-9.171875 20.488281-20.484375v-22.054687zm0 0" fill="#e6f6fc"/><path d="m173.191406 367.410156h52.375v60.535156h-52.375zm0 0" fill="#c2f4ff"/><path d="m173.191406 367.410156h52.375v22.839844h-52.375zm0 0" fill="#87d1ea"/><path d="m106.546875 453.390625v-10.683594c0-8.152343 6.605469-14.761719 14.761719-14.761719h156.144531c8.152344 0 14.761719 6.609376 14.761719 14.761719v10.683594c0 8.15625-6.609375 14.761719-14.761719 14.761719h-156.144531c-8.15625 0-14.761719-6.605469-14.761719-14.761719zm0 0" fill="#aabfd5"/><path d="m203.570312 219.984375c0 42.953125-34.820312 77.769531-77.769531 77.769531s-77.769531-34.816406-77.769531-77.769531c0-42.949219 34.820312-77.765625 77.769531-77.765625s77.769531 34.816406 77.769531 77.765625zm0 0" fill="#e6f6fc"/><path d="m157.269531 241.726562v25.46875h-62.9375v-25.46875c0-9.445312 4.152344-17.921874 10.738281-23.671874 5.03125 5.824218 12.457032 9.5 20.730469 9.5 8.289063 0 15.714844-3.675782 20.730469-9.5 6.585938 5.75 10.738281 14.226562 10.738281 23.671874zm0 0" fill="#ea6789"/><path d="m153.191406 200.164062c0 6.847657-2.507812 13.089844-6.660156 17.890626-5.015625 5.824218-12.441406 9.5-20.730469 9.5-8.273437 0-15.699219-3.675782-20.730469-9.5-4.152343-4.800782-6.660156-11.042969-6.660156-17.890626 0-15.121093 12.269532-27.390624 27.390625-27.390624 15.136719 0 27.390625 12.269531 27.390625 27.390624zm0 0" fill="#fed89b"/><path d="m321.582031 366.25h146.28125c20.234375 0 36.636719 16.402344 36.636719 36.636719v61.269531c0 2.207031-1.789062 4-4 4h-225.226562c-2.210938 0-4-1.792969-4-4v-47.597656c0-27.785156 22.523437-50.308594 50.308593-50.308594zm0 0" fill="#f27755"/><path d="m467.863281 366.25h-24c20.234375 0 36.636719 16.402344 36.636719 36.636719v61.269531c0 2.207031-1.789062 4-4 4h24c2.210938 0 4-1.792969 4-4v-61.269531c0-20.234375-16.402344-36.636719-36.636719-36.636719zm0 0" fill="#d14a3f"/><path d="m259.230469 133.546875v160.472656c0 21.074219 17.082031 38.152344 38.152343 38.152344h77.574219v-198.625zm0 0" fill="#fed89b"/><path d="m240.945312 190.507812c31.027344 5.304688 65.835938.535157 84.574219-26.375 1.773438-2.550781 5.757813-1.347656 5.757813 1.761719v213.167969c0 12.648438 10.253906 22.90625 22.90625 22.90625h120.574218c12.652344 0 22.90625-10.257812 22.90625-22.90625v-242.042969c0-71.253906-57.761718-129.015625-129.011718-129.015625-71.253906 0-129.015625 57.761719-129.015625 129.015625v51.925781c0 .769532.550781 1.433594 1.308593 1.5625zm0 0" fill="#3a4d7b"/><path d="m368.652344 8.003906c-3.964844 0-7.878906.1875-11.75.539063 65.742187 5.9375 117.261718 61.183593 117.261718 128.476562v242.042969c0 12.652344-10.253906 22.90625-22.90625 22.90625h23.5c12.652344 0 22.90625-10.257812 22.90625-22.90625v-242.042969c0-71.253906-57.761718-129.015625-129.011718-129.015625zm0 0" fill="#242e5b"/><path d="m197.800781 124.160156h3.15625c4.144531 0 7.5-3.359375 7.5-7.5 0-4.144531-3.355469-7.5-7.5-7.5h-3.15625c-4.140625 0-7.5 3.355469-7.5 7.5 0 4.140625 3.359375 7.5 7.5 7.5zm0 0"/><path d="m86.832031 267.195312c0 4.144532 3.355469 7.5 7.5 7.5h62.9375c4.144531 0 7.5-3.355468 7.5-7.5v-25.472656c0-8.953125-3.074219-17.550781-8.589843-24.410156 2.9375-5.199219 4.511718-11.101562 4.511718-17.152344 0-19.238281-15.652344-34.890625-34.890625-34.890625s-34.890625 15.652344-34.890625 34.890625c0 6.050782 1.574219 11.953125 4.511719 17.152344-5.519531 6.859375-8.59375 15.457031-8.59375 24.410156v25.472656zm62.9375-7.5h-47.9375v-17.972656c0-4.6875 1.367188-9.210937 3.863281-13.054687 12.183594 8.585937 28.269532 8.441406 40.214844.003906 2.496094 3.84375 3.859375 8.367187 3.859375 13.050781zm-23.96875-79.421874c10.96875 0 19.890625 8.921874 19.890625 19.886718 0 4.773438-1.714844 9.382813-4.84375 12.996094-7.640625 8.871094-21.25 9.226562-29.371094.792969-.25-.261719-.492187-.527344-.730468-.800781-.003906-.003907-.007813-.007813-.011719-.015626-3.109375-3.601562-4.824219-8.207031-4.824219-12.972656 0-10.964844 8.925782-19.886718 19.890625-19.886718zm0 0"/><path d="m125.800781 134.714844c-14.195312 0-28.25 3.5625-40.648437 10.296875-3.640625 1.976562-4.988282 6.53125-3.007813 10.171875 1.976563 3.640625 6.527344 4.988281 10.167969 3.007812 10.207031-5.542968 21.789062-8.476562 33.488281-8.476562 38.746094 0 70.269531 31.523437 70.269531 70.269531s-31.523437 70.269531-70.269531 70.269531c-38.746093 0-70.269531-31.523437-70.269531-70.269531 0-16.210937 5.363281-31.441406 15.511719-44.039063 2.597656-3.226562 2.089843-7.949218-1.136719-10.546874-3.226562-2.597657-7.949219-2.085938-10.546875 1.136718-12.140625 15.078125-18.828125 34.058594-18.828125 53.449219 0 47.015625 38.253906 85.269531 85.269531 85.269531s85.269531-38.253906 85.269531-85.269531-38.253906-85.269531-85.269531-85.269531zm0 0"/><path d="m505.164062 379.285156c0-.074218 0-.148437 0-.226562v-242.042969c0-22.1875-5.445312-44.21875-15.75-63.710937-1.933593-3.660157-6.472656-5.0625-10.132812-3.125-3.664062 1.933593-5.0625 6.472656-3.128906 10.136718 9.167968 17.339844 14.011718 36.945313 14.011718 56.699219v242.042969c0 .457031-.019531.90625-.058593 1.347656-.019531.152344-.035157.304688-.046875.457031-.898438 7.648438-7.417969 13.601563-15.300782 13.601563h-120.574218c-8.496094 0-15.40625-6.910156-15.40625-15.40625v-12.578125c0-.078125.003906-.15625.003906-.234375s-.003906-.152344-.003906-.230469v-33.617187c0-.078126.003906-.152344.003906-.230469s-.003906-.15625-.003906-.234375v-166.042969c0-4.671875-2.992188-8.753906-7.441406-10.148437-4.476563-1.40625-9.285157.242187-11.972657 4.101562-18.644531 26.78125-53.730469 26.40625-72.226562 24.007812v-46.835937c0-67.003906 54.511719-121.515625 121.515625-121.515625 35.148437 0 68.5625 15.21875 91.667968 41.746094 2.71875 3.121094 7.453126 3.449218 10.578126.730468 3.125-2.722656 3.453124-7.460937.730468-10.582031-25.957031-29.800781-63.488281-46.894531-102.980468-46.894531-54.871094 0-102.285157 32.546875-123.957032 79.347656h-216.710937c-15.429688 0-27.980469 12.550782-27.980469 27.980469v239.097656c0 15.429688 12.550781 27.980469 27.980469 27.980469h137.710937v45.539062h-44.382812c-12.273438 0-22.257813 9.988282-22.257813 22.261719v10.679688c0 12.28125 9.984375 22.269531 22.257813 22.269531h379.191406c6.339844 0 11.5-5.15625 11.5-11.5v-61.269531c0-8.449219-2.355469-16.550781-6.835938-23.601563zm-181.386718-201.472656v146.855469h-26.398438c-16.898437 0-30.648437-13.75-30.648437-30.652344v-94.109375c23.40625-.71875 43.15625-8.316406 57.046875-22.09375zm-105.710938 197.097656v45.535156h-37.375v-45.535156zm15-.003906h30.574219c4.140625 0 7.5-3.355469 7.5-7.5 0-4.140625-3.359375-7.5-7.5-7.5h-235.660156c-7.15625 0-12.980469-5.820312-12.980469-12.980469v-14.558593h224.636719c4.140625 0 7.5-3.355469 7.5-7.5 0-4.140626-3.359375-7.5-7.5-7.5h-224.636719v-209.539063c0-7.15625 5.824219-12.980469 12.980469-12.980469h210.820312c-4.324219 13.285156-6.664062 27.457032-6.664062 42.167969v51.929687c0 4.445313 3.175781 8.210938 7.546875 8.953126 4.089844.699218 8.109375 1.21875 12.046875 1.5625v94.554687c0 25.171875 20.480469 45.652344 45.648437 45.652344h26.398438v19.078125h-2.199219c-31.875 0-57.808594 25.933594-57.808594 57.8125v3.890625h-30.703125zm-119.015625 78.480469v-10.679688c0-4.003906 3.257813-7.261719 7.257813-7.261719h142.460937v25.210938h-142.460937c-4 0-7.257813-3.261719-7.257813-7.269531zm382.949219 7.269531h-218.230469v-44.101562c0-23.605469 19.207031-42.808594 42.8125-42.808594h2.195313v5.3125c0 16.765625 13.640625 30.40625 30.40625 30.40625h120.574218c8.695313 0 16.546876-3.667969 22.09375-9.539063.097657.976563.148438 1.964844.148438 2.960938zm0 0"/><path d="m234.46875 54.378906c1.917969 0 3.839844-.730468 5.304688-2.195312l17.210937-17.214844c2.929687-2.929688 2.929687-7.675781 0-10.605469-2.929687-2.929687-7.675781-2.929687-10.605469 0l-17.214844 17.210938c-2.925781 2.933593-2.925781 7.679687 0 10.609375 1.464844 1.460937 3.386719 2.195312 5.304688 2.195312zm0 0"/><path d="m199.378906 39.84375c4.144532 0 7.5-3.355469 7.5-7.5v-24.34375c0-4.140625-3.355468-7.5-7.5-7.5-4.140625 0-7.5 3.359375-7.5 7.5v24.34375c0 4.144531 3.359375 7.5 7.5 7.5zm0 0"/><path d="m158.988281 52.183594c1.464844 1.464844 3.382813 2.195312 5.300781 2.195312 1.921876 0 3.839844-.730468 5.304688-2.195312 2.929688-2.929688 2.929688-7.679688 0-10.609375l-17.210938-17.210938c-2.929687-2.929687-7.679687-2.929687-10.609374 0-2.925782 2.929688-2.925782 7.675781 0 10.605469zm0 0"/></svg>