<svg width="64" height="64" viewBox="0 0 64 64" fill="none" xmlns="http://www.w3.org/2000/svg">
<path d="M19.0831 32.721L18.9084 32.5462L10.8438 28.0661C24.3815 14.5283 31.6145 16.3848 31.6145 16.3848L31.6154 16.3857C27.3583 21.0462 22.249 27.4871 19.0831 32.721Z" fill="#FF6B6B"/>
<path d="M31.2773 44.9153C36.5113 41.7495 42.9532 36.641 47.6136 32.3838C47.6136 32.3838 49.4712 39.6177 35.9335 53.1554L31.4532 45.0908L31.2773 44.9153Z" fill="#EE5253"/>
<path d="M50.3179 29.8095C49.5159 30.6113 48.6055 31.479 47.6127 32.3838C42.9523 36.6411 36.5104 41.7495 31.2764 44.9153L19.082 32.7208C22.2478 27.487 27.3572 21.0461 31.6144 16.3856C32.5195 15.3927 33.3868 14.4822 34.1888 13.6803C40.0804 7.78872 45.9604 4.27797 51.7615 2.48047L61.5178 12.2367C59.7204 18.038 56.2097 23.9178 50.3179 29.8095Z" fill="#E4E8EB"/>
<path d="M61.5158 12.2372L58.8273 9.54883C57.0298 15.35 53.5189 21.2298 47.6273 27.1215C46.8254 27.9235 45.9151 28.791 44.9221 29.6958C40.2617 33.9532 33.8199 39.0616 28.5859 42.2273L31.2743 44.9158C36.5083 41.7501 42.9502 36.6416 47.6106 32.3843C48.6034 31.4793 49.5138 30.6118 50.3158 29.81C56.2076 23.9182 59.7183 18.0383 61.5158 12.2372Z" fill="#CAD0D7"/>
<path d="M61.518 12.2369L51.7617 2.48065C55.5592 1.30327 59.3226 0.860646 63.0323 0.966271C63.138 4.6759 62.6955 8.4394 61.518 12.2369Z" fill="#FF6B6B"/>
<path d="M63.0309 0.966057C62.13 0.940432 61.2261 0.947682 60.3191 0.989432C60.1892 3.81743 59.7196 6.67306 58.8281 9.54843L61.5165 12.2368C62.6941 8.43931 63.1366 4.67581 63.0309 0.966057Z" fill="#EE5253"/>
<path d="M50.1931 13.8049C51.9251 15.5369 51.9251 18.3453 50.1931 20.0773C48.4611 21.8094 45.6527 21.8094 43.9199 20.0782C42.1877 18.3462 42.1886 15.5369 43.9199 13.8058C45.6527 12.0727 48.461 12.0727 50.1931 13.8049Z" fill="#54A0FF"/>
<path d="M50.1943 13.8046C49.7132 13.3234 49.1488 12.9766 48.5478 12.7627C49.1038 14.3254 48.7568 16.1376 47.5059 17.3886C46.2548 18.6397 44.4423 18.9866 42.8789 18.4306C43.0927 19.0319 43.4397 19.5966 43.921 20.0778C45.6539 21.8091 48.4623 21.8091 50.1943 20.077C51.9263 18.3448 51.9263 15.5364 50.1943 13.8046Z" fill="#2E86DE"/>
<path d="M39.4386 24.5597C41.1706 26.2919 41.1714 29.0992 39.4384 30.8322C37.7064 32.5642 34.8982 32.5642 33.1669 30.8314C31.4341 29.1001 31.4341 26.2919 33.1662 24.5597C34.8982 22.8277 37.7064 22.8277 39.4386 24.5597Z" fill="#54A0FF"/>
<path d="M39.4404 24.5585C38.9592 24.0775 38.3949 23.7305 37.7937 23.5166C38.3499 25.0794 38.0029 26.8915 36.7519 28.1425C35.5008 29.3936 33.6884 29.7406 32.125 29.1846C32.3386 29.7859 32.6857 30.3506 33.167 30.8319C34.9 32.563 37.7084 32.563 39.4404 30.831C41.1725 29.0989 41.1725 26.2907 39.4404 24.5585Z" fill="#2E86DE"/>
<path d="M24.2858 45.0908L21.5975 42.4027L18.9094 39.7146L16.6602 37.4653C17.18 36.0945 18.0222 34.4761 19.0842 32.7207L31.2785 44.9152C29.524 45.9761 27.9049 46.8193 26.5339 47.3391L24.2858 45.0908Z" fill="#576574"/>
<path d="M28.5884 42.2266C26.8338 43.2876 25.2146 44.1307 23.8438 44.6506L24.2841 45.0908L26.5323 47.3391C27.9033 46.8196 29.5225 45.9762 31.2769 44.9152L28.5884 42.2266Z" fill="#222F3E"/>
<path d="M19.8038 44.1947C22.2778 46.6687 22.2777 50.6816 19.8038 53.1554C17.3288 55.6303 3.83129 65.1153 1.35741 62.6413C-1.11746 60.1664 8.36829 46.6698 10.8432 44.1948C13.317 41.7207 17.3287 41.7198 19.8038 44.1947Z" fill="#FF6B6B"/>
<path d="M19.8035 44.1945C19.335 43.7262 18.8114 43.3468 18.2537 43.0557C19.5002 45.4443 19.1207 48.4612 17.115 50.4668C15.1085 52.4733 5.85766 59.0867 1.10916 60.2003C0.849286 61.309 0.888536 62.1728 1.35704 62.6412C3.83091 65.1152 17.3284 55.6303 19.8034 53.1553C22.2775 50.6812 22.2777 46.6685 19.8035 44.1945Z" fill="#EE5253"/>
<path d="M17.1157 46.8829C18.105 47.8722 18.105 49.4779 17.1157 50.4671C16.1255 51.4574 8.00628 57.9726 7.01615 56.9824C6.0259 55.9922 12.5413 47.873 13.5315 46.883C14.5207 45.8936 16.1254 45.8927 17.1157 46.8829Z" fill="#FECA57"/>
<path d="M63.3079 9.04925C63.7666 6.76575 63.9985 4.401 63.996 2.0225C63.996 1.66388 63.9896 1.30025 63.9795 0.939C63.9669 0.435875 63.5614 0.030375 63.057 0.01525C62.6869 0.005125 62.3219 0 61.9734 0H61.9506C60.1259 0 58.3047 0.136875 56.5382 0.40675C54.8478 0.6655 53.162 1.05413 51.518 1.56138C51.4889 1.569 51.4604 1.57788 51.432 1.58825C51.3092 1.6265 51.1861 1.66363 51.0639 1.70325C49.2036 2.30512 47.3484 3.07825 45.5514 4.00075C43.6849 4.95875 41.8257 6.10687 40.0262 7.41213C39.8197 7.56038 39.6854 7.78087 39.6447 8.03175C39.6044 8.2815 39.6638 8.53363 39.8133 8.73888C39.9919 8.98475 40.2797 9.13188 40.5837 9.13188C40.7852 9.13188 40.9768 9.06975 41.1403 8.95187C42.8711 7.69987 44.6491 6.60238 46.4259 5.68875C48.0835 4.83762 49.7876 4.12388 51.4954 3.5615L60.432 12.498C60.1091 13.4818 59.7422 14.4557 59.3275 15.4135C58.3302 17.7199 57.0364 20.0161 55.4827 22.2364C53.8556 24.5641 51.8914 26.8857 49.6434 29.1378C48.2013 30.5799 46.3916 32.245 44.4071 33.9519C42.3505 35.7235 40.1467 37.5051 38.0342 39.1058C35.8927 40.7316 33.8511 42.165 31.9644 43.3676C31.779 43.4859 31.5969 43.6003 31.4161 43.7129L20.2832 32.5801C21.1444 31.1966 22.1481 29.7081 23.2749 28.147C26.7319 23.3455 31.2787 17.9319 34.8586 14.3532C35.9611 13.2495 37.0903 12.2078 38.2118 11.2549C38.6109 10.9151 38.6591 10.3146 38.3208 9.91537C38.1394 9.7025 37.8759 9.5795 37.5957 9.5795C37.3704 9.5795 37.1523 9.66075 36.9811 9.80637C35.8165 10.795 34.6507 11.8721 33.514 13.0087C32.7966 13.7261 32.0355 14.5216 31.2469 15.3766C29.1839 15.2031 21.9314 15.6385 10.1854 27.3779C10.1842 27.3789 10.1832 27.3799 10.1824 27.3809C10.1779 27.3856 10.1732 27.3899 10.1685 27.3945C10.1622 27.4008 10.157 27.4074 10.1509 27.4139C10.1374 27.4283 10.1236 27.4429 10.111 27.4583C10.101 27.4702 10.0919 27.4827 10.0825 27.4951C10.0732 27.5072 10.064 27.5192 10.0552 27.532C10.0439 27.5486 10.0337 27.5658 10.0236 27.5829C10.0192 27.5905 10.014 27.5974 10.0097 27.605C10.0084 27.6075 10.0075 27.61 10.0062 27.6124C9.996 27.6313 9.98687 27.6506 9.97787 27.67C9.9735 27.6796 9.96862 27.6891 9.96462 27.6987C9.95712 27.7165 9.95112 27.7344 9.94475 27.7525C9.9405 27.7646 9.93575 27.7768 9.932 27.7889C9.92762 27.8036 9.92412 27.8184 9.92037 27.8334C9.9165 27.8491 9.91212 27.8646 9.909 27.8805C9.90662 27.8921 9.90537 27.9041 9.90325 27.9158C9.90037 27.9345 9.897 27.9533 9.89525 27.972C9.89412 27.9825 9.89412 27.993 9.89337 28.0034C9.89212 28.0232 9.89075 28.0432 9.89062 28.063C9.89062 28.0755 9.89162 28.0879 9.89212 28.1004C9.89275 28.118 9.893 28.1355 9.89462 28.1531C9.89625 28.1706 9.89912 28.1879 9.90175 28.2054C9.90362 28.2175 9.90475 28.2299 9.90712 28.242C9.91112 28.2636 9.91675 28.2852 9.92237 28.3066C9.92437 28.3144 9.92575 28.3223 9.92812 28.3299C9.93462 28.3525 9.9425 28.3748 9.95075 28.3969C9.95312 28.4032 9.95487 28.4097 9.9575 28.416C9.9655 28.436 9.97475 28.4556 9.984 28.4751C9.988 28.4835 9.99162 28.4924 9.99587 28.5007C10.004 28.5165 10.0134 28.5318 10.0225 28.5473C10.0294 28.559 10.0357 28.5711 10.0432 28.5825C10.0509 28.5941 10.0594 28.6052 10.0674 28.6169C10.0779 28.6316 10.0881 28.6462 10.0994 28.6606C10.1065 28.6693 10.1143 28.6776 10.1215 28.6861C10.1349 28.7019 10.1487 28.7175 10.1634 28.7324C10.1654 28.7345 10.167 28.7366 10.1691 28.7388C10.1756 28.7453 10.1824 28.7505 10.189 28.7568C10.2034 28.7703 10.2176 28.7837 10.2329 28.7965C10.2447 28.8064 10.2571 28.8153 10.2692 28.8246C10.2816 28.834 10.2939 28.8435 10.3069 28.8522C10.3231 28.8634 10.3399 28.8734 10.3566 28.8832C10.3645 28.888 10.3717 28.8931 10.3797 28.8976L17.8 33.0196C16.9 34.5703 16.2189 35.9453 15.7685 37.1305C15.6355 37.479 15.7204 37.8744 15.9852 38.1393L18.2324 40.3864C18.2327 40.3867 18.2331 40.3873 18.2335 40.3876C18.2339 40.388 18.2344 40.3884 18.2347 40.3887L20.9205 43.0745C20.9209 43.0749 20.9213 43.0754 20.9216 43.0757C20.922 43.0761 20.9225 43.0765 20.9229 43.0769L23.6086 45.7627C23.6091 45.7631 23.6095 45.7636 23.6099 45.764C23.6102 45.7644 23.6107 45.7648 23.6111 45.7651L25.8581 48.012C26.0355 48.1894 26.2814 48.2907 26.5322 48.2907C26.6476 48.2907 26.7604 48.2693 26.8667 48.2286C28.0497 47.7784 29.4277 47.0976 30.9781 46.1978L35.0889 53.598C35.0891 53.5984 35.0894 53.5988 35.0895 53.5991L35.0999 53.6177C35.1021 53.6216 35.105 53.6251 35.1073 53.629C35.1239 53.658 35.1421 53.6859 35.1621 53.7134C35.1682 53.7217 35.1743 53.7304 35.1806 53.7385C35.2011 53.765 35.2233 53.7906 35.2469 53.8151C35.2508 53.8191 35.2544 53.8237 35.2584 53.8278C35.2585 53.8279 35.2586 53.8281 35.2588 53.8283C35.2855 53.855 35.3137 53.8792 35.3426 53.9021C35.3516 53.9093 35.3611 53.9156 35.3704 53.9224C35.3932 53.9393 35.4166 53.9549 35.4408 53.9694C35.4496 53.9748 35.4585 53.98 35.4675 53.9851C35.4996 54.0031 35.5324 54.0195 35.5659 54.0335C35.5666 54.0338 35.5674 54.0342 35.5681 54.0345C35.604 54.0494 35.6406 54.0614 35.6776 54.0716C35.6856 54.0739 35.6936 54.0754 35.7015 54.0775C35.7305 54.0848 35.7598 54.0905 35.7892 54.095C35.7995 54.0965 35.8095 54.0981 35.8197 54.0994C35.8554 54.1034 35.8914 54.1064 35.9272 54.1064C35.9287 54.1065 35.9303 54.1068 35.9318 54.1068C35.9355 54.1068 35.9395 54.1061 35.9432 54.106C35.9741 54.1056 36.005 54.1038 36.0356 54.1003C36.0483 54.0989 36.0608 54.0967 36.0734 54.0947C36.0972 54.0912 36.1206 54.0868 36.1442 54.0814C36.1564 54.0786 36.1684 54.0759 36.1804 54.0726C36.2107 54.0645 36.2409 54.0546 36.2702 54.0435C36.2744 54.0419 36.2786 54.0409 36.2829 54.0392C36.3181 54.0251 36.3527 54.0086 36.3862 53.9901C36.3883 53.989 36.3903 53.9884 36.3924 53.9874C36.3999 53.9834 36.4065 53.9784 36.4137 53.9741C36.4314 53.9637 36.4486 53.9534 36.4657 53.9416C36.478 53.9334 36.4896 53.9243 36.5013 53.9155C36.5141 53.9059 36.5271 53.8964 36.5396 53.8859C36.5542 53.8738 36.5679 53.861 36.5816 53.8481C36.5887 53.8414 36.5961 53.8356 36.603 53.8288C36.6083 53.8235 36.6131 53.8185 36.6184 53.8133C36.6185 53.813 36.6187 53.8129 36.6187 53.8129C48.3597 42.0654 48.7941 34.8122 48.6205 32.7492C49.4694 31.9659 50.265 31.2049 50.9871 30.4825C53.31 28.1635 55.3476 25.757 57.0433 23.3265C58.6654 21.0036 60.02 18.5946 61.0705 16.1666C61.5804 14.9892 62.0251 13.7901 62.4035 12.5784C62.42 12.5354 62.4329 12.4914 62.443 12.4469C62.7885 11.322 63.0792 10.1876 63.3079 9.04925ZM29.486 17.3325C28.9077 17.9901 28.3214 18.6709 27.7315 19.3709C25.5936 21.9054 23.5192 24.5551 21.7325 27.035C20.6096 28.5964 19.6254 30.05 18.783 31.3909L12.4134 27.8525C16.1007 24.2824 21.2575 20.005 26.3744 18.133C27.6512 17.6656 28.6906 17.4376 29.486 17.3325ZM26.7584 46.2249L25.6251 45.0916L25.8492 44.8674C26.2204 44.4963 26.2204 43.8944 25.8491 43.5234C25.4779 43.1524 24.8763 43.1522 24.5051 43.5235L24.2811 43.7476L22.9371 42.4036L23.1611 42.1795C23.5323 41.8083 23.5323 41.2065 23.1611 40.8354C22.7899 40.4644 22.1881 40.4644 21.817 40.8354L21.5929 41.0594L20.249 39.7155L20.473 39.4914C20.8441 39.1201 20.8441 38.5184 20.473 38.1473C20.1017 37.7763 19.5 37.7763 19.1289 38.1473L18.9047 38.3714L17.7715 37.2381C18.139 36.3682 18.6444 35.3705 19.2771 34.2624L29.7344 44.7195C28.6264 45.3518 27.6305 45.8559 26.7584 46.2249ZM45.8631 37.6219C43.9912 42.7391 39.7141 47.8957 36.1439 51.5832L32.6047 45.2124C34.5837 43.9707 36.7969 42.4251 39.1823 40.62C41.7379 38.6842 44.3315 36.562 46.6632 34.5109C46.5583 35.3059 46.3301 36.3451 45.8631 37.6219ZM53.5742 2.95187C54.6532 2.67412 55.7465 2.45012 56.8423 2.28362C58.5086 2.0315 60.2359 1.90225 61.9733 1.90075C62.0138 1.90075 62.0545 1.90075 62.0936 1.90075C62.0949 1.94125 62.0949 1.982 62.0949 2.02238C62.0913 4.28813 61.8719 6.52612 61.4424 8.674C61.3259 9.25737 61.1921 9.83975 61.0428 10.42L53.5742 2.95187Z" fill="black"/>
<path d="M15.3216 41.3887C13.3753 41.3887 11.5455 42.1464 10.1695 43.5228C8.79559 44.8965 5.75784 49.0055 3.42571 52.9327C2.07109 55.2135 1.10334 57.1703 0.549465 58.7483C-0.22516 60.9549 -0.18116 62.4481 0.68409 63.3134C1.13959 63.7688 1.78246 63.9997 2.59509 63.9997C7.31634 63.9997 18.4381 55.8633 20.4743 53.8275C23.3151 50.9863 23.3151 46.3637 20.4742 43.5228C19.0978 42.1465 17.2681 41.3887 15.3216 41.3887ZM19.1301 52.4834C18.0866 53.5269 14.8465 55.9783 11.4318 58.1196C7.39896 60.6484 4.17809 62.0988 2.59509 62.0988C2.32121 62.0988 2.10934 62.0503 2.02809 61.9692C1.72121 61.6624 1.66771 59.6153 5.05996 53.9034C7.49221 49.8082 10.4197 45.9608 11.5136 44.8669C12.5307 43.8498 13.8832 43.2895 15.3217 43.2895C16.7603 43.2895 18.1128 43.8498 19.1301 44.867C21.2298 46.9667 21.2297 50.3835 19.1301 52.4834Z" fill="black"/>
<path d="M36.3038 22.3096C34.8653 22.3096 33.5127 22.8699 32.4957 23.8871C31.4783 24.9043 30.918 26.2568 30.918 27.6954C30.918 29.1339 31.4783 30.4864 32.4956 31.5036C33.5128 32.5208 34.8652 33.0811 36.3038 33.0811C37.7423 33.0811 39.0948 32.5208 40.112 31.5037C41.1295 30.4866 41.6897 29.1341 41.6896 27.6953C41.6896 26.2568 41.1294 24.9043 40.1121 23.8872C39.0948 22.8697 37.7423 22.3096 36.3038 22.3096ZM38.7678 30.1593C38.1097 30.8176 37.2345 31.1801 36.3038 31.1801C35.373 31.1801 34.498 30.8177 33.8397 30.1593C33.1815 29.5012 32.8188 28.6259 32.8188 27.6953C32.8188 26.7644 33.1813 25.8893 33.8398 25.2311C34.498 24.5728 35.3732 24.2103 36.3038 24.2103C37.2346 24.2103 38.1097 24.5727 38.7678 25.2312C39.4262 25.8894 39.7887 26.7646 39.7887 27.6953C39.7888 28.6262 39.4263 29.5013 38.7678 30.1593Z" fill="black"/>
<path d="M47.0552 22.3273C48.4937 22.3273 49.8462 21.767 50.8633 20.7498C51.8807 19.7327 52.4409 18.3802 52.4409 16.9415C52.4408 15.5029 51.8805 14.1504 50.8634 13.1333C49.8462 12.1159 48.4937 11.5557 47.0552 11.5557C45.6165 11.5557 44.264 12.1159 43.2467 13.1332C41.1469 15.233 41.1469 18.6498 43.2468 20.7497C44.264 21.767 45.6164 22.3273 47.0552 22.3273ZM44.5908 14.4775C45.2492 13.8193 46.1244 13.4567 47.0552 13.4567C47.9859 13.4567 48.861 13.819 49.5192 14.4775C50.1774 15.1357 50.54 16.0109 50.54 16.9417C50.54 17.8725 50.1777 18.7475 49.5192 19.4058C48.861 20.064 47.9858 20.4265 47.0552 20.4265C46.1243 20.4265 45.2492 20.064 44.5909 19.4057C43.232 18.047 43.232 15.8362 44.5908 14.4775Z" fill="black"/>
<path d="M15.3249 45.1904C14.3941 45.1904 13.5189 45.5528 12.8607 46.2111C12.2958 46.7761 10.3719 49.1258 8.75981 51.3802C7.81481 52.7016 7.10143 53.8117 6.63968 54.6803C6.07844 55.7356 5.60456 56.9142 6.34543 57.6552C6.51906 57.8287 6.83006 58.0354 7.32656 58.0354C7.72843 58.0354 8.79556 58.0354 13.1069 54.8891C15.2458 53.3283 17.2756 51.6533 17.7893 51.1396C19.1481 49.7807 19.1481 47.5699 17.7893 46.2111C17.1311 45.5531 16.2558 45.1903 15.3249 45.1904ZM16.4451 49.7953C16.0678 50.1727 14.1659 51.7606 12.0257 53.3249C10.0769 54.7493 8.89444 55.4516 8.20256 55.7979C8.54894 55.1061 9.25106 53.9236 10.6756 51.9748C12.2399 49.8343 13.8276 47.9324 14.2049 47.5553C14.5041 47.2561 14.9019 47.0914 15.3251 47.0914C15.7482 47.0914 16.1461 47.2562 16.4452 47.5553C17.0627 48.1729 17.0627 49.1778 16.4451 49.7953Z" fill="black"/>
</svg>
