<svg width="24" height="24" viewBox="0 0 24 24" fill="none" xmlns="http://www.w3.org/2000/svg">
<path d="M3.67289 2.83105C3.67225 2.83105 3.67152 2.83105 3.67087 2.83105C3.44388 2.83105 3.23039 2.91954 3.06917 3.08035C2.90618 3.24293 2.81641 3.45942 2.81641 3.68989V16.5679C2.81641 17.0402 3.2021 17.4253 3.67629 17.4265C5.67532 17.4313 9.0245 17.8479 11.335 20.2658V6.78856C11.335 6.62848 11.2941 6.4781 11.2169 6.35365C9.32058 3.29974 5.67645 2.83574 3.67289 2.83105Z" fill="#008FDB"/>
<path d="M21.1826 16.569V3.69086C21.1826 3.4604 21.0928 3.24391 20.9298 3.08132C20.7686 2.92052 20.5549 2.83203 20.3282 2.83203C20.3274 2.83203 20.3267 2.83203 20.3261 2.83203C18.3226 2.8368 14.6785 3.3008 12.782 6.35471C12.7049 6.47915 12.6641 6.62954 12.6641 6.78962V20.2667C14.9745 17.8489 18.3237 17.4322 20.3228 17.4275C20.7969 17.4263 21.1826 17.0411 21.1826 16.569Z" fill="#008FDB"/>
<path d="M23.1396 5.80078H22.5169V16.5678C22.5169 17.7735 21.5345 18.7567 20.3269 18.7597C18.6313 18.7637 15.8355 19.0953 13.8555 20.9693C17.28 20.1308 20.89 20.6759 22.9474 21.1448C23.2043 21.2033 23.4697 21.1428 23.6756 20.9788C23.8806 20.8151 23.9983 20.5705 23.9983 20.308V6.65945C23.9984 6.18599 23.6131 5.80078 23.1396 5.80078Z" fill="#008FDB"/>
<path d="M1.48138 16.5678V5.80078H0.85867C0.385294 5.80078 0 6.18599 0 6.65945V20.3077C0 20.5704 0.117657 20.8149 0.322749 20.9785C0.528406 21.1425 0.793619 21.2032 1.05091 21.1445C3.10829 20.6756 6.71841 20.1306 10.1427 20.9691C8.16278 19.0951 5.36697 18.7637 3.67137 18.7596C2.46385 18.7567 1.48138 17.7735 1.48138 16.5678Z" fill="#008FDB"/>
</svg>
