<svg width="32" height="32" viewBox="0 0 32 32" fill="none" xmlns="http://www.w3.org/2000/svg">
<g clip-path="url(#clip0)">
<path d="M11.8375 9.59734L14.3376 1.82184C14.85 0.228087 17.104 0.225337 17.6204 1.8179L20.1425 9.59734H28.3543C30.026 9.59734 30.7202 11.7372 29.3668 12.7185L22.7369 17.5257L25.2821 25.2837C25.8038 26.8738 23.9829 28.2005 22.6292 27.2166L16.0245 22.4161L9.39642 27.2452C8.04442 28.2303 6.22255 26.9072 6.7408 25.3168L9.28161 17.5196L2.63449 12.7206C1.27767 11.741 1.97061 9.59734 3.64411 9.59734H11.8375Z" fill="#FFCD69"/>
<path d="M8.38139 28.2096C7.90076 28.2096 7.42014 28.0573 7.00058 27.7526C6.16045 27.1425 5.82539 26.1104 6.14714 25.1232L8.5467 17.7596L2.2692 13.2273C1.42701 12.6192 1.08933 11.5877 1.40883 10.5994C1.72833 9.611 2.60595 8.97237 3.6447 8.97237H11.3825L13.7433 1.6305C14.0613 0.641312 14.9383 0.0013125 15.9775 0H15.9805C17.0183 0 17.8954 0.637563 18.2156 1.62513L20.5976 8.97237H21.4365C21.7817 8.97237 22.0615 9.25225 22.0615 9.59737C22.0615 9.9425 21.7817 10.2224 21.4365 10.2224H20.1431C19.8723 10.2224 19.6321 10.0478 19.5486 9.79012L17.0265 2.01062C16.8446 1.44975 16.3671 1.25 15.9803 1.25C15.9798 1.25 15.9794 1.25 15.979 1.25C15.5919 1.2505 15.114 1.45119 14.9333 2.01312L12.4331 9.78869C12.35 10.0471 12.1096 10.2224 11.8381 10.2224H3.6447C3.05464 10.2224 2.7172 10.6158 2.5982 10.9839C2.4792 11.3521 2.52251 11.8684 3.00089 12.2139L9.64802 17.013C9.86827 17.172 9.96058 17.4551 9.87639 17.7134L7.33558 25.5106C7.15283 26.0714 7.42208 26.514 7.73508 26.7412C8.04801 26.9684 8.55233 27.0874 9.02895 26.7402L15.657 21.9111C15.8761 21.7514 16.1732 21.7511 16.3925 21.9106L22.9972 26.7111C23.4745 27.0579 23.9787 26.9381 24.2915 26.7103C24.6041 26.4824 24.8728 26.0393 24.6888 25.4786L22.1436 17.7204C22.059 17.4623 22.1507 17.1791 22.3706 17.0196L29.0005 12.2125C29.4777 11.8665 29.5203 11.3504 29.4011 10.9827C29.2818 10.6151 28.9444 10.2223 28.355 10.2223H27.0616C26.7164 10.2223 26.4366 9.94244 26.4366 9.59731C26.4366 9.25219 26.7164 8.97231 27.0616 8.97231H28.355C29.3926 8.97231 30.27 9.61006 30.5901 10.5971C30.9103 11.5841 30.5743 12.6154 29.7343 13.2244L23.4735 17.7639L25.8766 25.0889C26.2004 26.0759 25.8671 27.1089 25.0276 27.7206C24.1881 28.3322 23.1026 28.3329 22.2623 27.7221L16.0255 23.1891L9.76508 27.7503C9.34495 28.0565 8.8632 28.2096 8.38139 28.2096Z" fill="black"/>
<path d="M16 32.0001C15.6548 32.0001 15.375 31.7203 15.375 31.3751V26.3203C15.375 25.9752 15.6548 25.6953 16 25.6953C16.3452 25.6953 16.625 25.9752 16.625 26.3203V31.3751C16.625 31.7203 16.3452 32.0001 16 32.0001Z" fill="black"/>
<path d="M31.2451 20.9236C31.1811 20.9236 31.1161 20.9137 31.0519 20.8928L26.2445 19.3308C25.9163 19.2242 25.7366 18.8715 25.8433 18.5433C25.9499 18.215 26.3025 18.0356 26.6308 18.142L31.4382 19.704C31.7664 19.8107 31.9461 20.1633 31.8394 20.4915C31.7536 20.7557 31.5086 20.9236 31.2451 20.9236Z" fill="black"/>
<path d="M22.4497 7.09054C22.3224 7.09054 22.1939 7.05172 22.0829 6.9711C21.8036 6.76822 21.7417 6.37735 21.9446 6.0981L24.9157 2.00866C25.1187 1.72941 25.5094 1.66747 25.7887 1.87041C26.068 2.07329 26.1299 2.46416 25.927 2.74341L22.9559 6.83285C22.8336 7.00122 22.643 7.09054 22.4497 7.09054Z" fill="black"/>
<path d="M9.54885 7.0905C9.35554 7.0905 9.16498 7.00112 9.04266 6.83281L6.07154 2.74344C5.86866 2.46419 5.9306 2.07331 6.20979 1.87044C6.4891 1.66744 6.87991 1.72944 7.08279 2.00869L10.0539 6.09812C10.2568 6.37738 10.1949 6.76825 9.91566 6.97113C9.80479 7.05169 9.67623 7.0905 9.54885 7.0905Z" fill="black"/>
<path d="M0.753961 20.9237C0.490461 20.9237 0.245524 20.7558 0.159649 20.4916C0.0530235 20.1634 0.232648 19.8108 0.560898 19.7041L5.36827 18.1421C5.69665 18.0354 6.04915 18.2151 6.15584 18.5434C6.26252 18.8716 6.08284 19.2243 5.75459 19.3309L0.947273 20.8929C0.883086 20.9138 0.817961 20.9237 0.753961 20.9237Z" fill="black"/>
<path d="M24.249 10.2227C24.0846 10.2227 23.9234 10.1558 23.8071 10.0395C23.6909 9.92328 23.624 9.76203 23.624 9.59766C23.624 9.43328 23.6909 9.27203 23.8071 9.15584C23.9234 9.03959 24.084 8.97266 24.249 8.97266C24.4134 8.97266 24.5746 9.03953 24.6909 9.15584C24.8071 9.27203 24.874 9.43328 24.874 9.59766C24.874 9.76203 24.8071 9.92328 24.6909 10.0395C24.5746 10.1558 24.4134 10.2227 24.249 10.2227Z" fill="black"/>
</g>
<defs>
<clipPath id="clip0">
<rect width="32" height="32" fill="white"/>
</clipPath>
</defs>
</svg>
