<svg height="512pt" viewBox="-29 0 512 512" width="512pt" xmlns="http://www.w3.org/2000/svg"><path d="m378.292969 502h66.285156v-137.910156h-434.578125v137.910156h145.289062" fill="#ffd89e"/><path d="m53.460938 220.613281v122.828125h347.660156v-122.828125" fill="#ffd89e"/><path d="m53.460938 216.730469v26.660156c0 24.003906 19.453124 43.460937 43.457031 43.460937 24 0 43.457031-19.457031 43.457031-43.460937 0 24.003906 19.457031 43.460937 43.457031 43.460937 24.003907 0 43.457031-19.457031 43.457031-43.460937 0 24.003906 19.457032 43.460937 43.460938 43.460937 24 0 43.457031-19.457031 43.457031-43.460937 0 24.25 19.859375 43.859375 44.199219 43.453125 23.828125-.398438 42.714844-20.335938 42.714844-44.167969v-25.941406c0-12.578125-10.191406-22.769531-22.769532-22.769531h-302.121093c-12.578125-.003906-22.769531 10.191406-22.769531 22.765625zm0 0" fill="#f6838d"/><path d="m10 366.210938v26.660156c0 24 19.457031 43.457031 43.460938 43.457031 24 0 43.457031-19.457031 43.457031-43.457031 0 24 19.457031 43.457031 43.457031 43.457031s43.457031-19.457031 43.457031-43.457031c0 24 19.457031 43.457031 43.457031 43.457031 24.003907 0 43.460938-19.457031 43.460938-43.457031 0 24 19.457031 43.457031 43.457031 43.457031s43.457031-19.457031 43.457031-43.457031c0 24 19.457032 43.457031 43.457032 43.457031 24.003906 0 43.460937-19.457031 43.460937-43.457031v-26.660156c0-12.578126-10.195312-22.769532-22.769531-22.769532h-389.042969c-12.574219 0-22.769531 10.195313-22.769531 22.769532zm0 0" fill="#ff6977"/><path d="m204.289062 100.007812h46v93.953126h-46zm0 0" fill="#b0e7f8"/><path d="m259.289062 68.007812c0 17.671876-14.324218 32-32 32-17.671874 0-32-14.328124-32-32 0-17.675781 32-58.007812 32-58.007812s32 40.332031 32 58.007812zm0 0" fill="#ffd89e"/><path d="m421.808594 333.441406h-10.6875v-116.710937c0-18.070313-14.699219-32.769531-32.769532-32.769531h-118.0625v-83.953126c0-1.683593-.414062-3.265624-1.148437-4.65625 6.324219-7.351562 10.148437-16.910156 10.148437-27.34375 0-20.140624-28.460937-57.03125-34.164062-64.222656-1.898438-2.390625-4.78125-3.785156-7.835938-3.785156-3.050781 0-5.9375 1.394531-7.832031 3.785156-5.707031 7.191406-34.167969 44.082032-34.167969 64.222656 0 10.433594 3.828126 19.992188 10.148438 27.34375-.734375 1.390626-1.148438 2.972657-1.148438 4.65625v83.953126h-118.058593c-18.070313 0-32.769531 14.699218-32.769531 32.769531v116.710937h-10.691407c-18.070312 0-32.769531 14.699219-32.769531 32.769532v135.789062c0 5.523438 4.476562 10 10 10h249.289062c5.523438 0 10-4.476562 10-10s-4.476562-10-10-10h-239.289062v-57.464844c9.167969 7.375 20.804688 11.792969 33.460938 11.792969 17.886718 0 33.746093-8.828125 43.457031-22.359375 9.707031 13.53125 25.570312 22.359375 43.457031 22.359375s33.75-8.828125 43.457031-22.359375c9.710938 13.53125 25.570313 22.359375 43.457031 22.359375 17.890626 0 33.75-8.828125 43.460938-22.359375 9.707031 13.53125 25.570312 22.359375 43.457031 22.359375s33.746094-8.832031 43.457031-22.359375c9.710938 13.527344 25.574219 22.359375 43.457032 22.359375 12.652344 0 24.292968-4.417969 33.457031-11.792969v57.464844h-85.25c-5.519531 0-10 4.476562-10 10s4.480469 10 10 10h95.25c5.523437 0 10-4.476562 10-10v-135.789062c0-18.070313-14.699219-32.769532-32.769531-32.769532zm-194.515625-306.824218c11.628906 16.214843 21.996093 34.21875 21.996093 41.390624 0 12.128907-9.867187 22-22 22-12.128906 0-22-9.871093-22-22 0-7.160156 10.371094-25.164062 22.003907-41.390624zm-13.003907 83.390624h26v73.953126h-26zm-150.828124 106.722657c0-7.042969 5.726562-12.769531 12.769531-12.769531h302.121093c7.042969 0 12.769532 5.730468 12.769532 12.769531v25.945312c0 18.539063-14.75 33.863281-32.882813 34.167969-.191406.003906-.382812.003906-.574219.003906-8.839843 0-17.148437-3.398437-23.457031-9.601562-6.449219-6.339844-10-14.8125-10-23.855469 0-5.523437-4.476562-10-10-10-5.523437 0-10 4.476563-10 10 0 18.449219-15.007812 33.457031-33.457031 33.457031s-33.460938-15.007812-33.460938-33.457031c0-5.523437-4.476562-10-10-10-5.523437 0-10 4.476563-10 10 0 18.449219-15.007812 33.460937-33.457031 33.460937s-33.457031-15.011718-33.457031-33.460937c0-5.523437-4.476562-10-10-10s-10 4.476563-10 10c0 18.449219-15.011719 33.460937-33.460938 33.460937-18.445312 0-33.457031-15.011718-33.457031-33.460937v-26.660156zm0 68.324219c9.164062 7.375 20.804687 11.792968 33.457031 11.792968 17.886719 0 33.746093-8.828125 43.457031-22.355468 9.710938 13.527343 25.570312 22.355468 43.457031 22.355468s33.75-8.828125 43.457031-22.355468c9.710938 13.527343 25.574219 22.355468 43.460938 22.355468 17.871094 0 33.726562-8.816406 43.4375-22.328125 1.777344 2.46875 3.777344 4.808594 5.996094 6.988281 10.300781 10.128907 23.921875 15.546876 38.390625 15.332032 12.28125-.203125 23.589843-4.6875 32.546875-12.023438v48.621094h-327.660156zm337.660156 141.273437c-18.449219 0-33.457032-15.007813-33.457032-33.457031 0-5.523438-4.476562-10-10-10-5.523437 0-10 4.476562-10 10 0 18.449218-15.007812 33.457031-33.457031 33.457031s-33.460937-15.007813-33.460937-33.457031c0-5.523438-4.476563-10-10-10-5.519532 0-10 4.476562-10 10 0 18.449218-15.007813 33.457031-33.457032 33.457031-18.449218 0-33.457031-15.007813-33.457031-33.457031 0-5.523438-4.476562-10-10-10-5.523437 0-10 4.476562-10 10 0 18.449218-15.007812 33.457031-33.457031 33.457031s-33.460938-15.007813-33.460938-33.457031c0-5.523438-4.476562-10-10-10-5.519531 0-10 4.476562-10 10 0 18.449218-15.007812 33.457031-33.457031 33.457031s-33.457031-15.007813-33.457031-33.457031v-26.660156c0-7.042969 5.730469-12.769532 12.769531-12.769532h389.039063c7.042968 0 12.769531 5.726563 12.769531 12.769532v26.660156c0 18.449218-15.007813 33.457031-33.457031 33.457031zm0 0"/><path d="m304.328125 512c-4.195313 0-7.976563-2.710938-9.40625-6.636719-1.40625-3.859375-.195313-8.332031 2.9375-10.984375 3.292969-2.785156 8.085937-3.125 11.746094-.863281 3.503906 2.164063 5.324219 6.402344 4.523437 10.433594-.914062 4.613281-5.09375 8.050781-9.800781 8.050781zm0 0"/></svg>