<svg width="64" height="64" viewBox="0 0 64 64" fill="none" xmlns="http://www.w3.org/2000/svg">
<path d="M3.42578 40.1709V56.5112C3.42578 60.1295 16.218 63.0628 31.9982 63.0628C47.7783 63.0628 60.5705 60.1295 60.5705 56.5112V40.1709H3.42578Z" fill="#DFEAEF"/>
<path d="M3.42578 23.8301V40.1703C3.42578 43.7887 16.218 46.722 31.9982 46.722C47.7783 46.722 60.5705 43.7887 60.5705 40.1703V23.8301H3.42578Z" fill="#DFEAEF"/>
<path d="M3.42578 7.49023V23.8305C3.42578 27.4489 16.218 30.3821 31.9982 30.3821C47.7783 30.3821 60.5705 27.4489 60.5705 23.8305V7.49023H3.42578Z" fill="#DFEAEF"/>
<path d="M54.0425 7.48926V23.8295C54.0425 27.1946 42.977 29.9668 28.7344 30.3383C29.8059 30.3663 30.8946 30.381 31.9986 30.381C47.7787 30.381 60.571 27.4478 60.571 23.8294V7.48926H54.0425Z" fill="#BFCFD6"/>
<path d="M54.0425 23.8291V40.1693C54.0425 43.5345 42.977 46.3066 28.7344 46.6781C29.8059 46.7061 30.8946 46.7209 31.9986 46.7209C47.7787 46.7209 60.571 43.7876 60.571 40.1692V23.8291H54.0425Z" fill="#BFCFD6"/>
<path d="M54.0425 40.2324V56.5727C54.0425 59.9378 42.977 62.7099 28.7344 63.0814C29.8059 63.1094 30.8946 63.1242 31.9986 63.1242C47.7787 63.1242 60.571 60.1909 60.571 56.5725V40.2324H54.0425Z" fill="#BFCFD6"/>
<path d="M31.9983 14.041C47.7784 14.041 60.5708 11.1079 60.5708 7.48973C60.5708 3.87157 47.7784 0.938477 31.9983 0.938477C16.2181 0.938477 3.42578 3.87157 3.42578 7.48973C3.42578 11.1079 16.2181 14.041 31.9983 14.041Z" fill="#9EBECC"/>
<path d="M31.9986 0.938477C30.8946 0.938477 29.8058 0.953352 28.7344 0.981227C42.9769 1.35273 54.0425 4.12485 54.0425 7.48998C54.0425 10.8551 42.9769 13.6272 28.7344 13.9987C29.8059 14.0267 30.8946 14.0415 31.9986 14.0415C47.7787 14.0415 60.571 11.1082 60.571 7.48985C60.571 3.87173 47.7787 0.938477 31.9986 0.938477Z" fill="#86AEBC"/>
<path d="M61.5045 7.37887C61.3068 2.893 49.172 1.13937 43.9294 0.591625C42.3118 0.422625 40.6164 0.2875 38.89 0.19025C36.6472 0.064 34.3285 0 31.9988 0C26.0377 0 20.313 0.4145 15.4438 1.19887C14.9323 1.28125 14.5844 1.76263 14.6669 2.27413C14.7493 2.7855 15.2313 3.13375 15.7422 3.051C20.5145 2.28238 26.1359 1.876 31.9989 1.876C34.2937 1.876 36.5767 1.939 38.7847 2.06337C40.4812 2.15887 42.1465 2.2915 43.7347 2.45738C48.5859 2.96425 52.6873 3.76925 55.5953 4.78538C59.4385 6.12838 59.6333 7.27362 59.6333 7.4895C59.6333 8.21988 58.024 9.825 51.993 11.2079C51.8264 11.2461 51.6582 11.2838 51.4882 11.3209C46.2188 12.4715 39.3259 13.1031 31.9989 13.1031C24.6719 13.1031 17.779 12.4714 12.5097 11.3209C12.3397 11.2838 12.1714 11.2461 12.0048 11.2079C6.02853 9.83763 4.39516 8.24975 4.36591 7.51038C4.36603 7.50338 4.36691 7.49662 4.36691 7.48975C4.36691 7.48312 4.36603 7.47675 4.36591 7.47013C4.38128 7.02863 4.91578 6.46588 5.83991 5.92175C7.00591 5.23513 8.71566 4.6 10.9219 4.034C11.4237 3.90525 11.726 3.39412 11.5973 2.89225C11.4685 2.39062 10.9579 2.0885 10.4555 2.21688C5.16891 3.57313 2.48828 5.34737 2.48828 7.48987V23.8301V40.1702V56.5105C2.48828 58.8071 5.54903 60.6734 11.5854 62.0575C17.0488 63.3101 24.2984 64 31.9988 64C39.6992 64 46.9489 63.3101 52.412 62.0574C58.4484 60.6733 61.5092 58.807 61.5092 56.5104V40.1701V23.8299V7.538C61.51 7.52187 61.5117 7.50588 61.5117 7.48962C61.5117 7.45213 61.509 7.41525 61.5045 7.37887ZM59.6332 56.5104C59.6332 57.2407 58.0239 58.8459 51.9929 60.2287C46.6629 61.4509 39.5623 62.1239 31.9988 62.1239C24.4353 62.1239 17.3347 61.4509 12.0047 60.2287C5.97366 58.8457 4.36441 57.2407 4.36441 56.5104V43.0214C4.38491 43.0355 4.40753 43.0494 4.42841 43.0635C4.47928 43.0979 4.53141 43.132 4.58428 43.166C4.62703 43.1935 4.67016 43.221 4.71416 43.2484C4.76928 43.2826 4.82603 43.3165 4.88328 43.3504C4.92828 43.377 4.97291 43.4038 5.01916 43.4301C5.07953 43.4646 5.14191 43.4989 5.20441 43.5331C5.25066 43.5584 5.29603 43.5838 5.34341 43.6089C5.41153 43.645 5.48216 43.6806 5.55266 43.7164C5.59741 43.739 5.64091 43.7619 5.68666 43.7844C5.77403 43.8274 5.86441 43.8699 5.95528 43.9124C5.98703 43.9271 6.01716 43.9422 6.04928 43.957C6.17266 44.0136 6.29941 44.0697 6.42916 44.1254C6.46966 44.1427 6.51228 44.1597 6.55353 44.1771C6.64516 44.2156 6.73691 44.254 6.83166 44.292C6.88553 44.3136 6.94141 44.3349 6.99628 44.3564C7.08128 44.3896 7.16628 44.4229 7.25366 44.4557C7.31416 44.4785 7.37628 44.501 7.43791 44.5235C7.52291 44.5546 7.60828 44.5858 7.69541 44.6166C7.76028 44.6395 7.82666 44.6623 7.89278 44.685C7.98016 44.715 8.06816 44.745 8.15778 44.7747C8.22591 44.7974 8.29503 44.8199 8.36441 44.8424C8.45516 44.8717 8.54691 44.901 8.63978 44.93C8.71078 44.9523 8.78228 44.9744 8.85453 44.9964C8.94953 45.0254 9.04603 45.0541 9.14316 45.0827C9.21603 45.1042 9.28878 45.1256 9.36291 45.147C9.46366 45.176 9.56628 45.2046 9.66928 45.2332C9.74266 45.2536 9.81553 45.2741 9.89003 45.2943C9.99941 45.3239 10.1112 45.3532 10.223 45.3825C10.2939 45.4011 10.364 45.4199 10.4359 45.4383C10.5615 45.4705 10.6899 45.5023 10.8184 45.534C10.8795 45.5491 10.9393 45.5644 11.001 45.5794C11.1928 45.6259 11.3873 45.6719 11.5854 45.7173C17.0489 46.9699 24.2984 47.6599 31.9988 47.6599C39.6992 47.6599 46.9488 46.9699 52.4122 45.7173C52.6103 45.6719 52.8048 45.6258 52.9965 45.5794C53.0584 45.5644 53.1183 45.5491 53.1794 45.534C53.3078 45.5023 53.436 45.4706 53.5615 45.4384C53.6337 45.4199 53.7038 45.4011 53.7749 45.3825C53.8865 45.3532 53.9982 45.3239 54.1074 45.2943C54.1819 45.274 54.2548 45.2536 54.3282 45.2332C54.4312 45.2046 54.5338 45.176 54.6345 45.147C54.7085 45.1257 54.7814 45.1042 54.8543 45.0827C54.9514 45.0541 55.0479 45.0254 55.1429 44.9964C55.2152 44.9744 55.2867 44.9523 55.3578 44.93C55.4505 44.901 55.5422 44.8717 55.6329 44.8425C55.7024 44.82 55.7717 44.7975 55.8399 44.7747C55.9293 44.745 56.0173 44.7151 56.1045 44.6851C56.1707 44.6624 56.237 44.6396 56.3019 44.6167C56.3892 44.586 56.4744 44.5549 56.5594 44.5236C56.621 44.501 56.6832 44.4786 56.7437 44.4559C56.831 44.423 56.916 44.3897 57.001 44.3565C57.0559 44.335 57.1118 44.3138 57.1657 44.2921C57.26 44.2542 57.3517 44.2159 57.443 44.1775C57.4845 44.1601 57.5274 44.1429 57.5683 44.1254C57.698 44.0697 57.8247 44.0136 57.948 43.9571C57.9802 43.9424 58.0104 43.9274 58.042 43.9125C58.1329 43.87 58.2233 43.8275 58.3107 43.7845C58.3564 43.762 58.3999 43.7391 58.4447 43.7165C58.5152 43.6807 58.5858 43.6451 58.6539 43.609C58.7013 43.5839 58.7468 43.5585 58.793 43.5331C58.8554 43.499 58.9178 43.4647 58.978 43.4302C59.0244 43.4037 59.0692 43.377 59.1143 43.3503C59.1714 43.3164 59.228 43.2825 59.2832 43.2484C59.3273 43.221 59.3703 43.1935 59.4132 43.166C59.466 43.132 59.5182 43.0977 59.569 43.0635C59.5899 43.0494 59.6124 43.0355 59.633 43.0214V56.5104H59.6332ZM59.6332 40.1701C59.6332 40.2386 59.619 40.3148 59.5884 40.3978C59.2925 41.1996 57.4585 42.6353 51.9929 43.8886C46.6629 45.1108 39.5622 45.7839 31.9988 45.7839C24.4354 45.7839 17.3347 45.1108 12.0047 43.8886C6.53903 42.6353 4.70503 41.1996 4.40916 40.3978C4.37853 40.3149 4.36441 40.2386 4.36441 40.1701V26.681C4.38428 26.6946 4.40603 26.708 4.42616 26.7216C4.47841 26.7569 4.53191 26.792 4.58628 26.827C4.62803 26.8539 4.66991 26.8806 4.71291 26.9072C4.76903 26.942 4.82678 26.9766 4.88503 27.0111C4.92916 27.0373 4.97303 27.0635 5.01841 27.0894C5.07941 27.1243 5.14241 27.1588 5.20553 27.1934C5.25128 27.2184 5.29628 27.2435 5.34316 27.2684C5.41103 27.3044 5.48141 27.34 5.55178 27.3755C5.59703 27.3984 5.64103 27.4215 5.68716 27.4443C5.77316 27.4866 5.86216 27.5284 5.95153 27.5702C5.98453 27.5857 6.01616 27.6014 6.04966 27.6168C6.17278 27.6733 6.29928 27.7292 6.42866 27.7847C6.47141 27.8031 6.51653 27.8211 6.56003 27.8394C6.64928 27.8767 6.73853 27.9142 6.83066 27.9513C6.88653 27.9736 6.94453 27.9958 7.00141 28.018C7.08428 28.0504 7.16716 28.0829 7.25241 28.1149C7.31453 28.1383 7.37853 28.1614 7.44191 28.1846C7.52516 28.2151 7.60853 28.2455 7.69391 28.2757C7.76028 28.2992 7.82816 28.3225 7.89578 28.3458C7.98166 28.3752 8.06803 28.4046 8.15591 28.4339C8.22541 28.457 8.29591 28.4799 8.36666 28.5028C8.45628 28.5317 8.54678 28.5605 8.63841 28.5893C8.71028 28.6117 8.78266 28.6341 8.85578 28.6564C8.95003 28.6851 9.04553 28.7136 9.14178 28.7419C9.21528 28.7635 9.28878 28.7852 9.36341 28.8066C9.46366 28.8354 9.56566 28.864 9.66816 28.8924C9.74203 28.9129 9.81553 28.9335 9.89053 28.9539C9.99903 28.9832 10.1098 29.0124 10.2207 29.0415C10.2925 29.0604 10.3635 29.0794 10.4364 29.098C10.5614 29.1301 10.6893 29.1616 10.8173 29.1933C10.8788 29.2084 10.9389 29.2239 11.001 29.2389C11.1928 29.2854 11.3873 29.3314 11.5854 29.3768C17.0489 30.6294 24.2985 31.3194 31.9988 31.3194C39.699 31.3194 46.9488 30.6294 52.4122 29.3768C52.6103 29.3314 52.8048 29.2852 52.9965 29.2389C53.0588 29.2237 53.119 29.2084 53.1805 29.1933C53.3084 29.1618 53.436 29.1301 53.5609 29.0981C53.6339 29.0794 53.7052 29.0604 53.7772 29.0415C53.8878 29.0125 53.9984 28.9835 54.1068 28.954C54.1818 28.9336 54.2553 28.913 54.3292 28.8925C54.4315 28.864 54.5337 28.8355 54.6339 28.8067C54.7087 28.7852 54.7822 28.7636 54.8555 28.742C54.9518 28.7136 55.0474 28.6851 55.1415 28.6565C55.2147 28.6343 55.287 28.6117 55.359 28.5893C55.4505 28.5606 55.541 28.5319 55.6305 28.5029C55.7014 28.48 55.772 28.457 55.8417 28.4339C55.9294 28.4047 56.0157 28.3754 56.1014 28.3459C56.1692 28.3226 56.2369 28.2994 56.3034 28.2759C56.3888 28.2458 56.4722 28.2153 56.5554 28.1847C56.6188 28.1615 56.6828 28.1385 56.7449 28.115C56.8302 28.083 56.9129 28.0505 56.9959 28.0181C57.0528 27.9959 57.1108 27.9737 57.1667 27.9514C57.2585 27.9145 57.3475 27.8772 57.4365 27.8399C57.4804 27.8215 57.5257 27.8034 57.5688 27.7849C57.6983 27.7294 57.8247 27.6734 57.9478 27.6169C57.9813 27.6015 58.0128 27.5859 58.0459 27.5704C58.1353 27.5286 58.2243 27.4867 58.3103 27.4444C58.3564 27.4216 58.4004 27.3986 58.4457 27.3756C58.5159 27.34 58.5864 27.3044 58.6543 27.2685C58.7012 27.2436 58.7463 27.2185 58.792 27.1934C58.855 27.1589 58.918 27.1244 58.9789 27.0895C59.0244 27.0635 59.0684 27.0373 59.1127 27.011C59.1708 26.9765 59.2285 26.942 59.2845 26.9072C59.3275 26.8806 59.3694 26.8538 59.4112 26.827C59.4655 26.792 59.519 26.7569 59.5713 26.7216C59.5914 26.708 59.6132 26.6946 59.633 26.681V40.1701H59.6332ZM59.6332 23.8299C59.6332 24.5603 58.0239 26.1654 51.9929 27.5483C46.6629 28.7704 39.5622 29.4435 31.9988 29.4435C24.4354 29.4435 17.3347 28.7704 12.0047 27.5483C5.97366 26.1654 4.36441 24.5604 4.36441 23.8299V10.3407C4.38428 10.3544 4.40603 10.3678 4.42616 10.3814C4.47841 10.4166 4.53191 10.4517 4.58628 10.4867C4.62803 10.5136 4.66991 10.5404 4.71291 10.567C4.76903 10.6018 4.82678 10.6364 4.88503 10.6709C4.92916 10.697 4.97303 10.7232 5.01841 10.7491C5.07941 10.784 5.14241 10.8185 5.20553 10.8531C5.25128 10.8781 5.29628 10.9033 5.34316 10.9281C5.41103 10.9641 5.48141 10.9998 5.55178 11.0352C5.59703 11.0581 5.64103 11.0813 5.68716 11.104C5.77316 11.1464 5.86216 11.1881 5.95153 11.23C5.98453 11.2455 6.01616 11.2611 6.04966 11.2765C6.17278 11.333 6.29928 11.389 6.42866 11.4445C6.47141 11.4629 6.51653 11.4809 6.56003 11.4991C6.64928 11.5365 6.73853 11.574 6.83066 11.611C6.88653 11.6334 6.94453 11.6555 7.00141 11.6777C7.08428 11.7101 7.16716 11.7426 7.25241 11.7746C7.31453 11.798 7.37853 11.8211 7.44191 11.8444C7.52516 11.8749 7.60853 11.9053 7.69391 11.9355C7.76028 11.959 7.82816 11.9823 7.89578 12.0055C7.98166 12.035 8.06803 12.0644 8.15591 12.0936C8.22541 12.1167 8.29591 12.1396 8.36666 12.1625C8.45628 12.1915 8.54678 12.2202 8.63841 12.249C8.71028 12.2715 8.78266 12.2939 8.85578 12.3161C8.95003 12.3449 9.04553 12.3734 9.14178 12.4016C9.21528 12.4232 9.28878 12.445 9.36341 12.4664C9.46366 12.4951 9.56566 12.5238 9.66816 12.5521C9.74203 12.5726 9.81553 12.5932 9.89053 12.6136C9.99903 12.643 10.1098 12.6721 10.2207 12.7013C10.2925 12.7201 10.3635 12.7391 10.4364 12.7577C10.5614 12.7897 10.6893 12.8214 10.8173 12.853C10.8788 12.8681 10.9389 12.8836 11.001 12.8986C11.1928 12.9451 11.3873 12.9911 11.5854 13.0365C17.0488 14.2891 24.2984 14.9791 31.9988 14.9791C39.6992 14.9791 46.9489 14.2891 52.4122 13.0365C52.6103 12.9911 52.8048 12.945 52.9965 12.8986C53.0588 12.8835 53.119 12.8681 53.1805 12.853C53.3084 12.8215 53.436 12.7899 53.5609 12.7579C53.6339 12.7391 53.7052 12.7201 53.7772 12.7013C53.8878 12.6722 53.9984 12.6433 54.1068 12.6138C54.1818 12.5934 54.2553 12.5728 54.3292 12.5522C54.4315 12.5238 54.5337 12.4953 54.6339 12.4665C54.7087 12.445 54.7822 12.4234 54.8555 12.4017C54.9518 12.3734 55.0474 12.3449 55.1415 12.3162C55.2147 12.294 55.287 12.2715 55.359 12.249C55.4505 12.2204 55.541 12.1916 55.6305 12.1626C55.7014 12.1398 55.772 12.1167 55.8417 12.0936C55.9294 12.0645 56.0157 12.0351 56.1014 12.0056C56.1692 11.9824 56.2369 11.9591 56.3034 11.9356C56.3888 11.9055 56.4722 11.875 56.5554 11.8445C56.6188 11.8212 56.6828 11.7983 56.7449 11.7747C56.8302 11.7428 56.9129 11.7102 56.9959 11.6779C57.0528 11.6556 57.1108 11.6335 57.1667 11.6111C57.2585 11.5743 57.3475 11.537 57.4365 11.4996C57.4804 11.4812 57.5257 11.4631 57.5688 11.4446C57.6983 11.3891 57.8247 11.3331 57.9478 11.2766C57.9813 11.2612 58.0128 11.2456 58.0459 11.2301C58.1353 11.1884 58.2243 11.1465 58.3103 11.1041C58.3564 11.0814 58.4004 11.0584 58.4457 11.0354C58.5159 10.9997 58.5864 10.9641 58.6543 10.9283C58.7012 10.9034 58.7463 10.8782 58.792 10.8531C58.855 10.8186 58.918 10.7841 58.9789 10.7493C59.0244 10.7233 59.0684 10.697 59.1127 10.6707C59.1708 10.6362 59.2285 10.6018 59.2845 10.567C59.3275 10.5404 59.3694 10.5135 59.4112 10.4867C59.4655 10.4517 59.519 10.4166 59.5713 10.3814C59.5914 10.3678 59.6132 10.3544 59.633 10.3407V23.8299H59.6332Z" fill="black"/>
<path d="M38.7789 23.625C38.5795 23.625 38.3814 23.6319 38.1852 23.645L32.0039 52.3713C32.3595 52.1644 47.527 43.2587 47.5289 32.3762C47.5289 27.5437 43.6114 23.625 38.7789 23.625Z" fill="#E0230D"/>
<path d="M38.1875 23.645C42.01 23.95 45.0312 27.7431 45.0312 32.3762C45.0294 43.2475 32.3294 52.1462 32.0063 52.3713C32.0019 52.3738 32 52.375 32 52.375C32 52.375 16.4688 43.3875 16.4688 32.375C16.4688 27.5425 20.3863 23.625 25.2188 23.625C27.9537 23.625 30.3956 24.88 32 26.8456C33.4875 25.0231 35.6944 23.8119 38.1875 23.645Z" fill="#FF5D7D"/>
<path d="M31.4985 53.2402C31.4989 53.2404 31.4991 53.2405 32 52.375L31.4991 53.2405L32.0373 53.552L32.5279 53.2249L32.541 53.2175L32.5585 53.2053C33.0768 52.8991 36.9219 50.5799 40.6979 46.9981C44.5344 43.3589 48.5279 38.2021 48.5289 32.3764V32.3762C48.5289 26.9917 44.1639 22.625 38.7789 22.625C38.556 22.625 38.3356 22.6329 38.1184 22.6474L38.1181 22.6474C35.7447 22.8069 33.6051 23.8156 32 25.37C30.2462 23.6718 27.8544 22.625 25.2188 22.625C19.834 22.625 15.4688 26.9902 15.4688 32.375C15.4688 38.3256 19.6347 43.5801 23.5521 47.2358C25.5375 49.0886 27.5186 50.5857 29.0015 51.6191C29.7439 52.1364 30.3638 52.5391 30.8 52.8137C31.0182 52.951 31.1906 53.0563 31.3096 53.128C31.3691 53.1638 31.4153 53.1913 31.4472 53.2101L31.4843 53.2319L31.4945 53.2378L31.4975 53.2396L31.4985 53.2402Z" stroke="black" stroke-width="2"/>
</svg>
