<svg width="24" height="24" viewBox="0 0 24 24" fill="none" xmlns="http://www.w3.org/2000/svg">
<g clip-path="url(#clip0)">
<path d="M8.84326 12.6514C7.45126 12.6514 6.32227 13.7804 6.32227 15.1724V21.4784C6.32227 22.8704 7.45126 23.9994 8.84326 23.9994C10.2353 23.9994 11.3643 22.8704 11.3643 21.4784V15.1724C11.3633 13.7804 10.2343 12.6514 8.84326 12.6514Z" fill="#E91E63"/>
<path d="M0.0175781 15.1714C0.0175781 16.5644 1.14758 17.6944 2.54058 17.6944C3.93358 17.6944 5.06358 16.5644 5.06358 15.1714V12.6484H2.54258C2.54158 12.6484 2.54158 12.6484 2.54058 12.6484C1.14758 12.6484 0.0175781 13.7784 0.0175781 15.1714Z" fill="#E91E63"/>
<path d="M8.84631 -0.000976562C8.84531 -0.000976562 8.84431 -0.000976562 8.84331 -0.000976562C7.45031 -0.000976562 6.32031 1.12902 6.32031 2.52202C6.32031 3.91502 7.45031 5.04502 8.84331 5.04502H11.3643V2.52202C11.3643 2.52102 11.3643 2.51902 11.3643 2.51702C11.3633 1.12602 10.2363 -0.000976562 8.84631 -0.000976562Z" fill="#00BCD4"/>
<path d="M2.52495 11.3702H8.84295C10.236 11.3702 11.366 10.2402 11.366 8.84722C11.366 7.45422 10.236 6.32422 8.84295 6.32422H2.52495C1.13195 6.32422 0.00195312 7.45422 0.00195312 8.84722C0.00195312 10.2402 1.13195 11.3702 2.52495 11.3702Z" fill="#00BCD4"/>
<path d="M21.4575 6.32324C20.0665 6.32324 18.9395 7.45024 18.9395 8.84124V8.84624V11.3692H21.4605C22.8535 11.3692 23.9835 10.2392 23.9835 8.84624C23.9835 7.45324 22.8535 6.32324 21.4605 6.32324C21.4595 6.32324 21.4585 6.32324 21.4575 6.32324Z" fill="#4CAF50"/>
<path d="M12.6426 2.52198V8.84698C12.6426 10.239 13.7716 11.368 15.1636 11.368C16.5556 11.368 17.6846 10.239 17.6846 8.84698V2.52198C17.6846 1.12998 16.5556 0.000976562 15.1636 0.000976562C13.7716 0.000976562 12.6426 1.12998 12.6426 2.52198Z" fill="#4CAF50"/>
<path d="M17.6807 21.4751C17.6807 20.0831 16.5517 18.9541 15.1597 18.9541H12.6387V21.4771C12.6397 22.8681 13.7677 23.9961 15.1597 23.9961C16.5517 23.9961 17.6807 22.8671 17.6807 21.4751Z" fill="#FF9800"/>
<path d="M21.4777 12.6484H15.1597C13.7667 12.6484 12.6367 13.7784 12.6367 15.1714C12.6367 16.5644 13.7667 17.6944 15.1597 17.6944H21.4777C22.8707 17.6944 24.0007 16.5644 24.0007 15.1714C24.0007 13.7784 22.8707 12.6484 21.4777 12.6484Z" fill="#FF9800"/>
</g>
<defs>
<clipPath id="clip0">
<rect width="24" height="24" fill="white"/>
</clipPath>
</defs>
</svg>
