<svg width="24" height="24" viewBox="0 0 24 24" fill="none" xmlns="http://www.w3.org/2000/svg">
<path fill-rule="evenodd" clip-rule="evenodd" d="M8.5969 0H12.8498C14.3547 0 15.5745 1.24626 15.5745 2.78415V9.78329C15.5745 10.4315 15.0602 10.9569 14.4258 10.9569H9.51146C7.78351 10.9569 6.38288 12.388 6.38288 14.1536V16.4807C6.38288 16.8878 6.05989 17.2178 5.6615 17.2178H2.72465C1.21997 17.2178 0 15.9713 0 14.4339V9.82759C0 8.28994 1.21997 7.04368 2.72465 7.04368H5.87225V2.7839C5.87225 1.24626 7.09223 0 8.5969 0ZM10.5959 3.52173C10.5959 4.17006 10.0815 4.69563 9.44695 4.69563C8.81242 4.69563 8.29803 4.17006 8.29803 3.52173C8.29803 2.8734 8.81242 2.34782 9.44695 2.34782C10.0815 2.34782 10.5959 2.8734 10.5959 3.52173Z" fill="#008FDB"/>
<path fill-rule="evenodd" clip-rule="evenodd" d="M18.3385 6.78246H21.2754C22.78 6.78246 24 8.02897 24 9.56612V14.1724C24 15.7101 22.78 16.9563 21.2754 16.9563H18.1277V21.2161C18.1277 22.7537 16.9078 24 15.4031 24H11.1502C9.64549 24 8.42552 22.7535 8.42552 21.2161V14.217C8.42552 13.5687 8.93976 13.0433 9.5742 13.0433H14.4885C16.2165 13.0433 17.6171 11.6122 17.6171 9.84668V7.51954C17.6171 7.11248 17.9401 6.78246 18.3385 6.78246ZM15.7025 20.4785C15.7025 21.1268 15.1881 21.6524 14.5535 21.6524C13.919 21.6524 13.4046 21.1268 13.4046 20.4785C13.4046 19.8302 13.919 19.3046 14.5535 19.3046C15.1881 19.3046 15.7025 19.8302 15.7025 20.4785Z" fill="#008FDB"/>
</svg>
