<svg width="64" height="64" viewBox="0 0 64 64" fill="none" xmlns="http://www.w3.org/2000/svg">
<g clip-path="url(#clip0)">
<path d="M27.8707 35.6485L15.8707 40.149C13.9986 40.8511 11.9117 39.9029 11.2101 38.0308L4.41902 19.9234C3.71687 18.0518 4.66561 15.9649 6.53719 15.2632L18.5377 10.7627L27.8707 35.6485Z" fill="#FEF5E3"/>
<path d="M5.63281 23.1465L10.4834 21.3271L11.5171 24.0835L6.66651 25.9028L5.63281 23.1465Z" fill="#898EC9"/>
<path d="M43.8848 14.6865L42.1724 21.4756C41.5068 24.1133 38.8281 25.7129 36.1909 25.0474L34.437 24.6045L27.918 22.9605L29.3193 17.4067L31.9902 18.0801L36.8145 19.2974L38.3306 13.2852L43.8848 14.6865Z" fill="#6163AA"/>
<path d="M31.9902 18.0806L34.437 24.605L27.918 22.9614L29.3193 17.4072L31.9902 18.0806Z" fill="#4E5093"/>
<path d="M38.812 50.3218C38.6074 50.5576 38.3809 50.7803 38.1314 50.9859L30.5064 57.2745L26.2852 52.1553L33.1934 46.458L31.2388 44.0884L27.4956 39.5483L32.6152 35.3271L37.9746 41.8247L38.6724 42.6714L38.9038 42.9522C40.7031 45.1343 40.6089 48.2564 38.812 50.3218Z" fill="#6163AA"/>
<path d="M32.6157 35.3271L37.9746 41.8247L37.4502 41.7593L31.2393 44.0884L27.4961 39.5483L32.6157 35.3271Z" fill="#4E5093"/>
<path d="M38.8136 50.3223C37.882 49.8472 37.1178 49.0371 36.7223 47.9819C35.9586 45.9453 36.8273 43.6963 38.674 42.6719L38.9054 42.9526C40.7047 45.1348 40.6105 48.2568 38.8136 50.3223Z" fill="#00C2CC"/>
<path d="M55.6514 35.8936L54.8267 42.4771L37.2808 40.2813L30.6172 42.7803C27.4688 43.961 24 42.6792 22.3301 39.8955C22.1167 39.5435 21.9341 39.1656 21.7847 38.7666L15.9414 23.187L30.3389 17.7871L36.2168 33.4605L40.7999 34.0342L49.295 35.0977L55.6514 35.8936Z" fill="#898EC9"/>
<path d="M28.2812 23.9297L32.104 22.4961L33.0845 25.1104L29.2617 26.5444L28.2812 23.9297Z" fill="#FF5C3C"/>
<path d="M30.3355 17.7871L31.3242 20.4238C30.1402 21.5659 28.728 22.4556 27.1421 23.0503C23.8823 24.273 20.4214 24.0088 17.5117 22.5967L30.3355 17.7871Z" fill="#6163AA"/>
<path d="M31.1392 37.6221L30.1704 40.0928C30.0318 40.4458 29.8213 40.7622 29.5567 41.0235C29.292 41.2847 28.9722 41.4908 28.6172 41.6241C27.9971 41.8565 27.315 41.8516 26.6988 41.6094L22.3301 39.896C22.1167 39.544 21.9341 39.166 21.7847 38.7671L15.9414 23.187L21.2109 21.2109L23.2925 22.0269L20.4707 29.2232L22.8711 30.1655C22.9214 30.1426 22.9717 30.1226 23.0235 30.103C23.8174 29.8057 24.6885 29.812 25.4785 30.1211L27.2964 30.8345C27.9614 31.0957 28.4864 31.6006 28.773 32.2554C29 32.7749 29.0557 33.3389 28.939 33.8814L29.6236 34.1494C30.2901 34.4112 30.8145 34.9151 31.1006 35.5718C31.3877 36.2276 31.4009 36.9556 31.1392 37.6221Z" fill="#6163AA"/>
<path d="M49.292 35.0981C48.9219 36.3648 47.9815 37.4463 46.6514 37.9453C44.4107 38.7857 41.9121 37.6499 41.0718 35.4092C40.9019 34.9561 40.813 34.4932 40.7969 34.0352L49.292 35.0981Z" fill="#2DE0C7"/>
<path d="M18.5952 30.042L24.3682 32.3052L22.2773 37.6382L15.7578 35.083C13.2251 34.0889 11.977 31.2305 12.9702 28.6983L15.7324 21.541L17.1201 17.9424L22.4526 20.0327L21.042 23.6924L18.5952 30.042Z" fill="#898EC9"/>
<path d="M22.4546 20.0322L21.044 23.6924C19.1279 23.4038 17.3047 22.6631 15.7344 21.541L17.1221 17.9424L22.4546 20.0322Z" fill="#6163AA"/>
<path d="M29.0955 35.4953L27.1003 34.7131L27.4666 33.78C27.7156 33.1452 27.4026 32.4289 26.7678 32.1799L24.9504 31.4675C23.9304 31.0676 22.7795 31.5701 22.3796 32.5901L21.1413 35.7493C20.7414 36.7693 21.2439 37.9202 22.2639 38.3201L27.2253 40.2649C27.8601 40.5139 28.5764 40.2009 28.8254 39.5662L29.7942 37.095C30.0427 36.4607 29.7302 35.7444 29.0955 35.4953Z" fill="#2DE0C7"/>
<path d="M60.0583 34.2394L58.9968 42.7203C58.9142 43.3805 58.3122 43.8483 57.6525 43.7658L54.1637 43.3287C53.5041 43.2462 53.0363 42.6447 53.1188 41.985L53.8571 36.0856C54.1183 34.0001 56.0207 32.5206 58.1066 32.7819L59.0134 32.8956C59.673 32.9781 60.1408 33.5797 60.0583 34.2394Z" fill="#2DE0C7"/>
<path d="M27.6271 62.5001L22.1891 55.9064C21.7662 55.3932 21.839 54.6344 22.3522 54.2116L25.0646 51.9742C25.5778 51.5514 26.3366 51.6241 26.7594 52.1373L30.5421 56.7238C31.8795 58.3454 31.6491 60.7443 30.0275 62.0817L29.3224 62.6632C28.8092 63.0861 28.0504 63.0133 27.6271 62.5001Z" fill="#2DE0C7"/>
<path d="M32.9452 7.8127C34.1513 11.0285 33.723 14.4563 32.0741 17.1828C30.8651 19.1872 28.9955 20.8127 26.6342 21.698C21.057 23.7898 14.8402 20.9641 12.7484 15.3869C10.6566 9.80977 13.4823 3.59296 19.0595 1.50116C20.287 1.04071 21.5448 0.818545 22.7846 0.812686C27.1732 0.786807 31.3144 3.46259 32.9452 7.8127Z" fill="#898EC9"/>
<path d="M32.9483 7.8122C34.1543 11.028 33.7261 14.4558 32.0772 17.1828L27.7783 16.0432L26.0405 15.5817L25.1055 15.3332L21.7622 14.448L20.6484 14.1521L22.7876 0.812672C24.4273 0.803395 26.0318 1.16961 27.4839 1.85955C28.5264 2.35662 29.4912 3.01971 30.334 3.82977C30.5811 4.06756 30.8174 4.31707 31.041 4.58026C31.4839 5.09588 31.8809 5.6579 32.2237 6.26337C32.502 6.75214 32.7447 7.26923 32.9483 7.8122Z" fill="#2DE0C7"/>
<path d="M32.2222 6.26367L27.7769 16.044L26.0391 15.582L31.0396 4.58105C31.482 5.09619 31.8794 5.6582 32.2222 6.26367Z" fill="#9BF2E5"/>
<path d="M30.3335 3.83008L25.105 15.3335L21.7617 14.4483L27.4829 1.85938C28.5259 2.35693 29.4907 3.02002 30.3335 3.83008Z" fill="#9BF2E5"/>
<path d="M22.3315 14.4111C22.3315 15.7505 21.2456 16.8369 19.9063 16.8369C18.5664 16.8369 17.4805 15.7505 17.4805 14.4111C17.4805 13.0713 18.5664 11.9854 19.9063 11.9854C21.2456 11.9854 22.3315 13.0713 22.3315 14.4111Z" fill="#4E5093"/>
<path d="M41.1662 7.52941L40.6423 9.60705L39.6701 9.36194C39.009 9.19494 38.3381 9.59582 38.1711 10.257L37.6936 12.1495C37.4255 13.212 38.0695 14.2902 39.1316 14.5582L42.4221 15.3878C43.4841 15.6559 44.5622 15.0123 44.8303 13.9498L46.134 8.78234C46.301 8.1217 45.9001 7.45031 45.239 7.28381L42.6653 6.63439C42.0041 6.46789 41.3332 6.86828 41.1662 7.52941Z" fill="#2DE0C7"/>
<path d="M59.129 31.9644L58.2218 31.8511C56.965 31.6939 55.7213 32.0352 54.7213 32.813C54.087 33.3062 53.5992 33.9376 53.2867 34.6534L36.8941 32.6016L34.2393 25.523L35.9605 25.9571C36.44 26.0782 36.9205 26.1358 37.3941 26.1358C40.0162 26.1358 42.4103 24.3614 43.0802 21.7056L44.5504 15.8775C45.1432 15.4751 45.5646 14.8799 45.7413 14.1797L47.045 9.01222C47.338 7.8506 46.6315 6.66749 45.4703 6.37452L42.8966 5.7256C42.3341 5.58351 41.7496 5.66944 41.2516 5.96681C40.7535 6.26417 40.401 6.73781 40.2594 7.30031L39.9645 8.46877L39.9015 8.45314C38.7398 8.16017 37.5572 8.86672 37.2642 10.0279L36.7867 11.9209C36.5958 12.6773 36.711 13.4629 37.1109 14.1328C37.1197 14.147 37.13 14.1602 37.1392 14.1748L36.1339 18.1597L33.0445 17.3804C34.2989 15.1656 34.8072 12.5825 34.4732 10.0669C34.4049 9.55324 33.9342 9.1924 33.4205 9.26076C32.9073 9.32912 32.5465 9.80031 32.6143 10.3135C32.8765 12.2881 32.5201 14.313 31.6109 16.0899L23.2261 13.8662C23.191 13.6529 23.1353 13.44 23.0562 13.2295C22.8311 12.6294 22.4517 12.1314 21.98 11.7637L23.5816 1.77832C26.8155 2.01905 29.7584 3.85059 31.3858 6.68849C31.5592 6.99025 31.8751 7.15968 32.2003 7.15968C32.3585 7.15968 32.5186 7.11964 32.6656 7.03517C33.1148 6.77736 33.2701 6.2046 33.0123 5.75538C30.9288 2.12354 27.0401 -0.125 22.8516 -0.125C22.8287 -0.125 22.8052 -0.125 22.7823 -0.124512C22.7735 -0.124512 22.7642 -0.124023 22.7554 -0.124023C22.7505 -0.124023 22.7452 -0.124023 22.7403 -0.123535C21.3741 -0.112305 20.0259 0.138672 18.7325 0.623537C17.0054 1.27149 15.4971 2.28223 14.251 3.62891C13.899 4.0088 13.9219 4.60206 14.3018 4.95362C14.6822 5.30567 15.2749 5.28273 15.627 4.90284C16.6729 3.77247 17.9395 2.92335 19.3912 2.37891C20.1343 2.10059 20.8995 1.91553 21.6754 1.82227L20.1939 11.0601C19.71 11.0181 19.21 11.0796 18.7261 11.2613C17.8848 11.5767 17.2168 12.2012 16.8453 13.0191C16.4732 13.8369 16.4424 14.7505 16.7579 15.5918C17.2637 16.9405 18.5484 17.774 19.9107 17.774C20.3023 17.774 20.7003 17.7051 21.0879 17.5596C21.9771 17.2261 22.6417 16.5537 22.9918 15.7437L30.5455 17.7466C29.4449 19.1338 27.9996 20.1856 26.3072 20.8204C21.2227 22.7266 15.5352 20.1421 13.6285 15.0576C12.7969 12.8399 12.7915 10.397 13.6143 8.1797C13.794 7.69435 13.5464 7.1548 13.0611 6.97462C12.5757 6.79494 12.0362 7.04201 11.856 7.52736C11.2598 9.13527 11.0313 10.8418 11.1651 12.5269L8.54837 13.5083L6.12991 7.05958C5.94827 6.57472 5.40774 6.3296 4.92287 6.51076C4.43801 6.69288 4.1924 7.23292 4.37453 7.71779L6.793 14.167L6.2095 14.3858C5.06985 14.813 4.16457 15.6587 3.66067 16.7671C3.15725 17.8755 3.11525 19.1133 3.5425 20.2535L10.3335 38.3604C10.7608 39.5001 11.6065 40.4053 12.7149 40.9093C13.3169 41.1827 13.9566 41.3199 14.5987 41.3199C15.1387 41.3199 15.6802 41.2227 16.2012 41.0274L20.9625 39.2418C21.7105 41.1226 23.1299 42.6168 24.9786 43.4571C26.0084 43.9249 27.1031 44.1602 28.2017 44.1602C28.7784 44.1602 29.356 44.0948 29.9254 43.9649L31.8761 46.3307L26.4058 50.8419C25.754 50.6607 25.0269 50.7882 24.4664 51.2501L21.754 53.4874C20.8428 54.2384 20.7129 55.5904 21.4644 56.5016L26.9024 63.0958C27.2662 63.5372 27.7803 63.8102 28.3497 63.8649C28.4195 63.8717 28.4893 63.8751 28.5582 63.8751C29.0538 63.8751 29.5299 63.7047 29.9171 63.3854L30.6221 62.8038C31.5997 61.9977 32.2047 60.859 32.3258 59.5978C32.4029 58.796 32.2774 58.0055 31.9693 57.2848L33.2325 56.2433C33.6319 55.9137 33.689 55.3229 33.3595 54.9234C33.0304 54.524 32.4395 54.4674 32.0396 54.7965L30.9254 55.7159L27.8961 52.0431L33.5435 47.3858L35.5846 47.3311C35.6388 47.6607 35.7247 47.9889 35.8453 48.3111C36.1563 49.1402 36.6666 49.8678 37.3243 50.4386L35.2037 52.1871C34.8043 52.5167 34.7476 53.1075 35.0772 53.5069C35.2623 53.7315 35.5304 53.8482 35.8009 53.8482C36.0108 53.8482 36.2223 53.7779 36.3971 53.6339L38.7306 51.7091C41.5572 49.378 41.9601 45.1822 39.6295 42.356L38.8614 41.4249L52.4132 43.1212C52.4723 43.2349 52.5411 43.3448 52.6217 43.4483C52.9728 43.8995 53.4786 44.1876 54.046 44.2584C54.046 44.2584 57.714 44.712 57.8024 44.712C58.8654 44.712 59.7907 43.9181 59.9259 42.8365L60.9874 34.3555C61.1344 33.1841 60.3004 32.1114 59.129 31.9644ZM30.4595 59.4186C30.3863 60.1813 30.0201 60.8697 29.4293 61.3575L28.7237 61.9391C28.6539 61.9972 28.5792 62.003 28.5289 61.9987C28.4791 61.9938 28.4068 61.9733 28.3492 61.903L22.9107 55.3087C22.8174 55.1954 22.8336 55.0275 22.9468 54.9337L23.4297 54.5357L25.7257 57.3151C25.9107 57.5397 26.1788 57.6559 26.4488 57.6559C26.6592 57.6559 26.8707 57.5856 27.0455 57.441C27.4444 57.1114 27.501 56.5206 27.1715 56.1212L24.8765 53.3424L25.6597 52.6969C25.73 52.6388 25.8048 52.6319 25.8546 52.6368C25.9049 52.6417 25.9766 52.6622 26.0347 52.7325L29.8175 57.3194C30.3048 57.9103 30.5328 58.6559 30.4595 59.4186ZM44.8595 40.2857L45.0807 39.1578C45.0992 39.1583 45.1173 39.1588 45.1358 39.1588C45.7496 39.1588 46.3736 39.0509 46.9811 38.8228C48.295 38.3302 49.3273 37.3653 49.9054 36.1197L52.8605 36.4898L52.2692 41.2135L44.8595 40.2857ZM41.9688 35.1265L47.8922 35.8677C47.5065 36.4078 46.9674 36.8258 46.3229 37.0675C44.5851 37.7193 42.6437 36.8487 41.9688 35.1265ZM31.877 24.5635L29.8101 25.3389L29.4879 24.4795L31.5548 23.7046L31.877 24.5635ZM38.6046 12.3789L39.0821 10.4859C39.1158 10.3516 39.2369 10.2617 39.3697 10.2617C39.3936 10.2617 39.4181 10.2647 39.4425 10.2705L40.4146 10.5161C40.9166 10.6426 41.4264 10.3384 41.5528 9.83644L42.0772 7.7588C42.0772 7.75832 42.0772 7.75832 42.0772 7.75832C42.1031 7.6548 42.1734 7.59962 42.2125 7.57619C42.2521 7.55275 42.3336 7.51662 42.4376 7.54347L45.0113 8.1924C45.17 8.23244 45.2667 8.39406 45.2267 8.55275L43.923 13.7202C43.8546 13.9912 43.6847 14.2193 43.4449 14.3628C43.2052 14.5059 42.9239 14.5474 42.6529 14.479L39.3629 13.649C39.0919 13.5806 38.8639 13.4107 38.7203 13.1709C38.5772 12.9312 38.5362 12.6499 38.6046 12.3789ZM36.8141 20.2354C37.233 20.2354 37.6148 19.9522 37.7223 19.5269L38.7574 15.4224C38.8067 15.4375 38.8541 15.4546 38.9044 15.4673L42.1944 16.2974C42.2945 16.3223 42.3951 16.3409 42.4962 16.3555L41.2623 21.2471C40.7242 23.3794 38.5514 24.6768 36.419 24.1387L33.4386 23.3873L31.8399 19.125C31.8663 19.0933 31.8922 19.0616 31.918 19.0298C31.918 19.0298 36.7379 20.2354 36.8141 20.2354ZM20.4297 15.8037C19.6612 16.0918 18.8013 15.7017 18.5132 14.9331C18.3736 14.5611 18.3877 14.1568 18.5523 13.7949C18.7164 13.4326 19.0123 13.1568 19.3843 13.0171C19.5557 12.9527 19.732 12.9224 19.9053 12.9224C20.5079 12.9224 21.0767 13.291 21.3003 13.8882C21.5884 14.6563 21.1978 15.5157 20.4297 15.8037ZM18.254 30.9146L21.5259 32.1973C21.5191 32.2139 21.5118 32.23 21.5049 32.2471L20.2667 35.4063C20.2164 35.5342 20.1793 35.6641 20.1475 35.7955L16.1011 34.209C15.1094 33.8199 14.3282 33.0684 13.9019 32.0919C13.4751 31.1153 13.4546 30.0313 13.8453 29.0347L16.7198 21.585C17.8209 22.2593 19.0284 22.751 20.2911 23.0357L17.7212 29.7042C17.5357 30.1856 17.774 30.7261 18.254 30.9146ZM26.7569 35.5855L28.7515 36.3677C28.8511 36.4068 28.897 36.483 28.9151 36.525C28.9337 36.5675 28.9586 36.6529 28.9195 36.7525L27.9508 39.2237C27.9117 39.3233 27.8355 39.3692 27.793 39.3878C27.751 39.4058 27.6656 39.4307 27.566 39.3917L22.6041 37.4464C22.3443 37.3443 22.1392 37.1475 22.0274 36.8912C21.9156 36.6353 21.9102 36.3511 22.0123 36.0909L23.251 32.9317C23.4127 32.5196 23.8082 32.2676 24.2261 32.2676C24.3526 32.2676 24.4815 32.2906 24.6065 32.3399L26.4239 33.0523C26.5235 33.0914 26.5694 33.168 26.588 33.21C26.606 33.252 26.6309 33.3375 26.5924 33.4371L26.2261 34.3707C26.0372 34.8526 26.2745 35.3966 26.7569 35.5855ZM6.83645 23.6958L9.93119 22.5357L10.3067 23.5362L7.21145 24.6968L6.83645 23.6958ZM15.5425 39.2716C14.8721 39.5235 14.1431 39.4986 13.4908 39.2022C12.8384 38.9058 12.3409 38.3731 12.0889 37.7017L9.73929 31.4361L10.5518 31.1314C11.0367 30.9493 11.2823 30.4092 11.1006 29.9244C10.919 29.4395 10.3785 29.1939 9.89359 29.3755L9.0806 29.6802L9.00198 29.4712L9.81497 29.1666C10.2998 28.9844 10.5454 28.4444 10.3638 27.9595C10.1822 27.4747 9.64163 27.2291 9.15677 27.4107L8.34378 27.7154L7.87015 26.4527L11.8428 24.9625C12.0757 24.875 12.2642 24.6988 12.3672 24.4727C12.4703 24.2461 12.479 23.9883 12.3916 23.7554L11.3579 20.9991C11.1758 20.5142 10.6358 20.2686 10.1509 20.4502L6.17825 21.9405L5.897 21.191L9.18948 19.9561C9.67435 19.7745 9.91995 19.2339 9.73831 18.7491C9.55667 18.2642 9.01614 18.0186 8.53128 18.2002L5.24612 19.4322C5.05569 18.8072 5.09524 18.1426 5.36819 17.543C5.66458 16.8907 6.19729 16.3926 6.86819 16.1411L11.4722 14.4146C11.5811 14.8535 11.7124 15.2886 11.8731 15.7159C12.5811 17.604 13.7271 19.2012 15.1524 20.438L12.0977 28.355C10.9175 31.3653 12.4063 34.7745 15.4165 35.9547L19.8028 37.6739L15.5425 39.2716ZM25.7545 41.7501C24.773 41.3038 23.9503 40.6148 23.3492 39.7525L26.8814 41.1373C27.1387 41.2384 27.4068 41.2887 27.6749 41.2887C27.9703 41.2882 28.2647 41.2276 28.5435 41.1055C29.0753 40.8736 29.4844 40.4478 29.6964 39.9078L30.6651 37.4366C30.877 36.8966 30.8658 36.3062 30.6339 35.7745C30.4014 35.2427 29.9761 34.8336 29.4361 34.6216L28.314 34.1817L28.3375 34.1212C28.5494 33.5811 28.5382 32.9908 28.3062 32.459C28.0738 31.9273 27.6485 31.5181 27.1085 31.3062L25.2906 30.5938C24.4791 30.2754 23.6094 30.3472 22.8892 30.7178L19.8062 29.5088L22.1983 23.3018C22.4185 23.3145 22.6397 23.3228 22.8619 23.3228C24.2266 23.3228 25.6143 23.0826 26.9659 22.5757C28.2315 22.1011 29.3809 21.4297 30.3858 20.587L30.8966 21.9488L27.9512 23.0533C27.4669 23.2354 27.2213 23.7754 27.4029 24.2603L28.3834 26.8751C28.4708 27.1075 28.647 27.2964 28.8731 27.399C28.9962 27.4551 29.1285 27.483 29.2613 27.483C29.3726 27.483 29.484 27.4634 29.5904 27.4234L32.5352 26.3189L35.3375 33.7906C35.46 34.1168 35.753 34.3482 36.0987 34.3917L39.9522 34.8741C40.0084 35.1675 40.089 35.4566 40.1944 35.7383C40.7447 37.2047 41.8819 38.2818 43.2394 38.8048L42.9947 40.0523L37.3956 39.3516C37.2447 39.3331 37.0924 39.3507 36.9498 39.4039C36.9498 39.4039 29.9947 42.004 29.9918 42.005C28.5933 42.4488 27.1002 42.3614 25.7545 41.7501ZM31.8292 43.3272L36.5426 41.5597L37.3121 42.4928C36.4283 43.2706 35.8394 44.3214 35.6158 45.4547L33.628 45.5079L31.8292 43.3272ZM37.6012 47.6524C37.11 46.3429 37.4913 44.8756 38.485 43.9581C39.5113 45.5123 39.5167 47.502 38.586 49.047C38.1476 48.6754 37.8062 48.1993 37.6012 47.6524ZM59.1271 34.1226L58.0656 42.6036C58.047 42.7491 57.9147 42.8531 57.7682 42.8346L57.2037 42.7642L57.6564 38.8741C57.7164 38.3594 57.3483 37.8941 56.8336 37.8341C56.3185 37.7745 55.8541 38.1431 55.7941 38.6573L55.3434 42.5313L54.2789 42.398C54.1886 42.3868 54.1329 42.337 54.1017 42.2974C54.0709 42.2579 54.0363 42.1915 54.048 42.1012L54.7863 36.2017C54.8815 35.4415 55.2672 34.7637 55.8717 34.2935C56.3805 33.898 56.9928 33.689 57.6266 33.689C57.7467 33.689 57.8678 33.6964 57.9889 33.712L58.8956 33.8253C59.0416 33.8433 59.1452 33.9766 59.1271 34.1226Z" fill="black"/>
<path d="M30.509 29.8385C30.9939 29.6559 31.2385 29.1154 31.0559 28.6305C30.8733 28.1462 30.3318 27.901 29.8479 28.0841L29.8362 28.0885C29.3518 28.2712 29.113 28.8097 29.2957 29.2941C29.4368 29.6696 29.7966 29.8996 30.1765 29.8996C30.2874 29.8991 30.3997 29.8796 30.509 29.8385Z" fill="black"/>
<path d="M31.2539 31.8525C31.7403 31.6753 31.9908 31.1372 31.8135 30.6509C31.6363 30.1645 31.0982 29.9136 30.6118 30.0913L30.6001 30.0957C30.1133 30.2729 29.8687 30.8086 30.0459 31.2954C30.1846 31.6753 30.5469 31.9102 30.9307 31.9102C31.0381 31.9102 31.1475 31.8916 31.2539 31.8525Z" fill="black"/>
<path d="M47.0547 26.4214C47.0523 26.9395 47.4697 27.3608 47.9878 27.3633H47.9922C48.5078 27.3633 48.9273 26.9468 48.9297 26.4307L48.9312 26.0903C48.9336 25.5728 48.5161 25.1509 47.9981 25.1484C47.9966 25.1484 47.9951 25.1484 47.9937 25.1484C47.478 25.1484 47.0586 25.5649 47.0562 26.0811L47.0547 26.4214Z" fill="black"/>
<path d="M47.98 30.8267H47.9844C48.5 30.8267 48.9195 30.4097 48.9219 29.8936L48.9234 29.5532C48.9258 29.0352 48.5078 28.6138 47.9903 28.6113C47.9888 28.6113 47.9873 28.6113 47.9859 28.6113C47.4702 28.6113 47.0508 29.0283 47.0484 29.5444L47.0469 29.8848C47.0444 30.4028 47.4619 30.8242 47.98 30.8267Z" fill="black"/>
<path d="M48.6133 27.9878C48.6109 28.5054 49.0288 28.9272 49.5464 28.9297L49.8867 28.9312H49.8911C50.4068 28.9312 50.8262 28.5142 50.8286 27.998C50.8311 27.48 50.4131 27.0586 49.8955 27.0562L49.5552 27.0547C49.5537 27.0547 49.5523 27.0547 49.5508 27.0547C49.0352 27.0547 48.6157 27.4712 48.6133 27.9878Z" fill="black"/>
<path d="M47.3677 27.9873C47.3696 27.4692 46.9521 27.0479 46.4346 27.0454L46.0942 27.0439C46.0928 27.0439 46.0913 27.0439 46.0898 27.0439C45.5742 27.0439 45.1548 27.4605 45.1524 27.9771C45.1499 28.4946 45.5674 28.9165 46.0855 28.9189L46.4258 28.9204H46.4302C46.9458 28.9204 47.3652 28.5034 47.3677 27.9873Z" fill="black"/>
<path d="M53.7691 22.9917H53.7734C54.2891 22.9917 54.7085 22.5747 54.7109 22.0586L54.7124 21.7183C54.7148 21.2007 54.2974 20.7788 53.7798 20.7764C53.7778 20.7764 53.7764 20.7764 53.7749 20.7764C53.2593 20.7764 52.8399 21.1929 52.8374 21.7095L52.8359 22.0493C52.8335 22.5674 53.251 22.9888 53.7691 22.9917Z" fill="black"/>
<path d="M53.7715 24.2393C53.77 24.2393 53.7686 24.2393 53.7671 24.2393C53.2515 24.2393 52.832 24.6563 52.8296 25.1724L52.8281 25.5127C52.8257 26.0308 53.2437 26.4522 53.7612 26.4546H53.7656C54.2813 26.4546 54.7007 26.0376 54.7031 25.5215L54.7046 25.1812C54.707 24.6636 54.2896 24.2417 53.7715 24.2393Z" fill="black"/>
<path d="M54.3984 23.6167C54.3965 24.1343 54.814 24.5562 55.332 24.5586L55.6719 24.5601H55.6768C56.1924 24.5601 56.6114 24.1431 56.6138 23.627C56.6162 23.1094 56.1988 22.6875 55.6807 22.6851L55.3403 22.6836C55.3389 22.6836 55.3374 22.6836 55.336 22.6836C54.8203 22.6836 54.4009 23.1006 54.3984 23.6167Z" fill="black"/>
<path d="M51.8667 24.5469L52.2066 24.5483H52.2114C52.7271 24.5483 53.1465 24.1318 53.149 23.6157C53.1514 23.0981 52.7339 22.6763 52.2163 22.6733L51.876 22.6719C51.8745 22.6719 51.8731 22.6719 51.8711 22.6719C51.3555 22.6719 50.9365 23.0884 50.9336 23.6045C50.9312 24.1221 51.3486 24.5439 51.8667 24.5469Z" fill="black"/>
<path d="M7.99952 45.6773H8.00392C8.51954 45.6773 8.93897 45.2603 8.94142 44.7441L8.94288 44.4038C8.94532 43.8857 8.52784 43.4644 8.00978 43.4619C7.49513 43.4644 7.07032 43.877 7.06788 44.395L7.06642 44.7354C7.06398 45.2529 7.48194 45.6748 7.99952 45.6773Z" fill="black"/>
<path d="M7.99806 46.9248C7.99659 46.9248 7.99513 46.9248 7.99366 46.9248C7.47804 46.9248 7.0586 47.3418 7.05616 47.8579L7.0547 48.1982C7.05226 48.7163 7.47023 49.1377 7.9878 49.1401H7.9922C8.50782 49.1401 8.92726 48.7232 8.9297 48.207L8.93116 47.8667C8.9336 47.3491 8.51612 46.9272 7.99806 46.9248Z" fill="black"/>
<path d="M9.90675 45.3687L9.56642 45.3672C9.56496 45.3672 9.56349 45.3672 9.56203 45.3672C9.0464 45.3672 8.62745 45.7842 8.62501 46.3003C8.62257 46.8179 9.04005 47.2397 9.55812 47.2422L9.89797 47.2437H9.90285C10.4185 47.2437 10.8374 46.8267 10.8399 46.3105C10.8423 45.793 10.4248 45.3711 9.90675 45.3687Z" fill="black"/>
<path d="M7.3755 46.3008C7.37794 45.7827 6.95997 45.3613 6.44239 45.3589L6.10206 45.3574C6.1006 45.3574 6.09913 45.3574 6.09767 45.3574C5.58204 45.3574 5.16261 45.7744 5.16017 46.2905C5.15773 46.8081 5.57569 47.23 6.09327 47.2324L6.43361 47.2339H6.438C6.95363 47.2339 7.37306 46.8169 7.3755 46.3008Z" fill="black"/>
<path d="M41.6401 56.4409H41.645C42.1607 56.4409 42.5796 56.0244 42.582 55.5078L42.584 55.168C42.5864 54.6499 42.1685 54.2285 41.6509 54.2256C41.6494 54.2256 41.648 54.2256 41.646 54.2256C41.1304 54.2256 40.7114 54.6426 40.709 55.1587L40.707 55.499C40.7046 56.0166 41.1226 56.4385 41.6401 56.4409Z" fill="black"/>
<path d="M41.6426 57.6885C41.6411 57.6885 41.6397 57.6885 41.6382 57.6885C41.1226 57.6885 40.7031 58.105 40.7007 58.6216L40.6992 58.9614C40.6963 59.4795 41.1143 59.9014 41.6319 59.9038H41.6367C42.1524 59.9038 42.5713 59.4868 42.5742 58.9707L42.5757 58.6304C42.5781 58.1128 42.1602 57.6909 41.6426 57.6885Z" fill="black"/>
<path d="M43.5479 56.1323L43.2075 56.1309C43.2061 56.1309 43.2046 56.1309 43.2027 56.1309C42.687 56.1309 42.2681 56.5479 42.2656 57.064C42.2632 57.582 42.6807 58.0034 43.1987 58.0059L43.5391 58.0073H43.5435C44.0591 58.0073 44.4781 57.5908 44.481 57.0742C44.4829 56.5566 44.0655 56.1353 43.5479 56.1323Z" fill="black"/>
<path d="M41.0161 57.0654C41.0186 56.5474 40.6011 56.1255 40.0835 56.123L39.7432 56.1211C39.7417 56.1211 39.7402 56.1211 39.7383 56.1211C39.2227 56.1211 38.8037 56.5381 38.8008 57.0542C38.7984 57.5718 39.2158 57.9937 39.7339 57.9961L40.0737 57.9981H40.0786C40.5942 57.9981 41.0137 57.5811 41.0161 57.0654Z" fill="black"/>
<path d="M37.1323 2.73194H37.1367C37.6524 2.73194 38.0718 2.31495 38.0742 1.79884L38.0757 1.4585C38.0781 0.940437 37.6607 0.51905 37.1426 0.516608C36.627 0.514655 36.2036 0.931648 36.2007 1.44972L36.1992 1.79005C36.1968 2.30763 36.6148 2.72901 37.1323 2.73194Z" fill="black"/>
<path d="M37.1309 3.97949C37.1294 3.97949 37.1279 3.97949 37.1265 3.97949C36.6109 3.97949 36.1919 4.39649 36.189 4.9126L36.1875 5.25293C36.1851 5.771 36.603 6.19239 37.1206 6.19483H37.125C37.6406 6.19483 38.0601 5.77784 38.0625 5.26172L38.064 4.92139C38.0664 4.40381 37.6489 3.98193 37.1309 3.97949Z" fill="black"/>
<path d="M37.7539 3.35596C37.7515 3.87354 38.169 4.29541 38.687 4.29786L39.0269 4.29932H39.0317C39.5474 4.29932 39.9663 3.88233 39.9688 3.36621C39.9712 2.84815 39.5537 2.42676 39.0357 2.42432L38.6958 2.42285C38.6939 2.42285 38.6924 2.42285 38.6909 2.42285C38.1753 2.42285 37.7564 2.83984 37.7539 3.35596Z" fill="black"/>
<path d="M35.2222 4.28711L35.5625 4.28858H35.5669C36.0825 4.28858 36.502 3.87158 36.5044 3.35547C36.5068 2.8374 36.0889 2.41602 35.5713 2.41357L35.231 2.41211C35.2295 2.41211 35.228 2.41211 35.2266 2.41211C34.7109 2.41211 34.2915 2.8291 34.2891 3.34522C34.2866 3.8628 34.7046 4.28467 35.2222 4.28711Z" fill="black"/>
</g>
<defs>
<clipPath id="clip0">
<rect width="64" height="64" fill="white"/>
</clipPath>
</defs>
</svg>
