<svg width="24" height="25" viewBox="0 0 24 25" fill="none" xmlns="http://www.w3.org/2000/svg">
<g clip-path="url(#clip0)">
<path d="M11.9985 0.75C5.373 0.75 0 6.144 0 12.798C0 18.12 3.438 22.635 8.208 24.2295C8.808 24.3405 9.027 23.9685 9.027 23.649C9.027 23.3625 9.0165 22.605 9.0105 21.6C5.673 22.3275 4.968 19.9845 4.968 19.9845C4.4235 18.5925 3.636 18.222 3.636 18.222C2.5455 17.475 3.717 17.49 3.717 17.49C4.9215 17.5755 5.5545 18.732 5.5545 18.732C6.6255 20.5725 8.364 20.0415 9.048 19.7325C9.156 18.954 9.4665 18.423 9.81 18.1215C7.146 17.817 4.344 16.7835 4.344 12.168C4.344 10.8525 4.812 9.777 5.58 8.934C5.4555 8.6295 5.0445 7.404 5.697 5.7465C5.697 5.7465 6.705 5.4225 8.997 6.981C9.954 6.714 10.98 6.5805 12.0015 6.576C13.02 6.582 14.0475 6.714 15.006 6.9825C17.2965 5.424 18.303 5.748 18.303 5.748C18.957 7.407 18.546 8.631 18.423 8.9355C19.1925 9.7785 19.656 10.854 19.656 12.1695C19.656 16.797 16.851 17.8155 14.178 18.114C14.6085 18.486 14.9925 19.221 14.9925 20.3445C14.9925 21.9555 14.9775 23.2545 14.9775 23.649C14.9775 23.9715 15.1935 24.3465 15.8025 24.228C20.565 22.632 24 18.1185 24 12.798C24 6.144 18.627 0.75 11.9985 0.75Z" fill="#008FDB"/>
</g>
<defs>
<clipPath id="clip0">
<rect width="24" height="24" fill="white" transform="translate(0 0.5)"/>
</clipPath>
</defs>
</svg>
