<svg width="96" height="96" viewBox="0 0 96 96" fill="none" xmlns="http://www.w3.org/2000/svg">
<g clip-path="url(#clip0)">
<path d="M52.9312 31.4268H7.99194C6.94751 31.4268 6.10156 32.2727 6.10156 33.3164V79.9432H82.5504V38.7825" fill="#D7D6D8"/>
<path d="M11.3284 87.4365H7.125C6.49512 87.4365 5.91431 87.093 5.61109 86.5401L1.99219 79.9453H86.6639L83.0435 86.5401C82.7403 87.093 82.1602 87.4365 81.5296 87.4365H26.6397" fill="#D7D6D8"/>
<path d="M55.4915 38.7832H13.5742V79.9438H75.5335V38.7832" fill="#79B2FF"/>
<path d="M21.5742 46.1562H67.2371V72.9461H21.5742V46.1562Z" fill="#F9F9F9"/>
<path d="M33.8516 54.801L29.301 62.8753C28.7539 63.8457 29.4556 65.0454 30.5689 65.0454H39.67C40.7832 65.0454 41.4842 63.8457 40.9378 62.8753L36.3872 54.801C35.8306 53.8137 34.4082 53.8137 33.8516 54.801Z" fill="#FF6977"/>
<path d="M94.2188 38.606H66.6951L62.2573 44.3145L58.3945 38.606H53.3848V8.82715H94.2188V38.606Z" fill="#FF6977"/>
<path d="M30.4638 66.9329H39.5641C40.7667 66.9329 41.8463 66.3132 42.4528 65.2754C43.0592 64.2368 43.0695 62.9917 42.4791 61.9451L37.9286 53.8709C37.3361 52.8206 36.2199 52.168 35.0136 52.168C33.808 52.168 32.6918 52.8206 32.0993 53.8709L27.5487 61.9451C26.9591 62.9924 26.9686 64.2376 27.5751 65.2754C28.1815 66.3132 29.2619 66.9329 30.4638 66.9329ZM35.0143 56.3992L38.8207 63.1528H31.2079L35.0143 56.3992Z" fill="black"/>
<path d="M48.1396 57.7009H58.2214C60.648 57.7009 60.6516 53.9209 58.2214 53.9209H48.1396C45.7131 53.9209 45.7094 57.7009 48.1396 57.7009Z" fill="black"/>
<path d="M48.1396 64.2586H58.2214C60.648 64.2586 60.6516 60.4785 58.2214 60.4785H48.1396C45.7131 60.4785 45.7094 64.2586 48.1396 64.2586Z" fill="black"/>
<path d="M83.3591 81.8343L81.323 85.5447H26.529C24.1018 85.5447 24.0981 89.3248 26.529 89.3248H81.4196C82.7402 89.3248 83.9546 88.6063 84.5903 87.4483L88.2099 80.8536C88.8816 79.6304 87.958 78.0535 86.5532 78.0535H84.3318V40.4964H94.1096C95.1533 40.4964 96 39.6504 96 38.6067V8.82788C96 7.78418 95.1533 6.9375 94.1096 6.9375H53.2756C52.2319 6.9375 51.3852 7.78418 51.3852 8.82788V29.5371H7.88301C5.79854 29.5371 4.10225 31.2334 4.10225 33.3179V78.0535H1.88154C0.486279 78.0535 -0.451221 79.6216 0.224072 80.8536L3.8437 87.4483C4.47871 88.6063 5.6938 89.3255 7.01436 89.3255H11.2177C13.645 89.3255 13.6479 85.5447 11.2177 85.5447H7.11177L5.0749 81.8343H83.3591ZM7.88301 33.3172H51.3852V36.8928H13.4692C12.4255 36.8928 11.5788 37.7395 11.5788 38.7832V78.0535H7.88301V33.3172ZM57.427 40.6736L59.8322 44.2661H21.465C20.4213 44.2661 19.5747 45.1128 19.5747 46.1565V72.9463C19.5747 73.99 20.4213 74.8367 21.465 74.8367H67.1286C68.1723 74.8367 69.019 73.99 69.019 72.9463V46.1565C69.019 45.1128 68.1723 44.2661 67.1286 44.2661H64.5805L67.5109 40.4964H73.5373V78.0535H15.3588V40.6736H57.427ZM65.2382 48.0469V71.056H23.3554V48.0469H65.2382ZM80.551 78.0535H77.3181V40.4964H80.551V78.0535ZM92.2199 36.7163H66.5866C64.7849 36.7163 63.2175 39.8606 62.2544 41.0991C61.4055 39.8452 60.0732 36.7163 58.2854 36.7163H55.166V10.7175H92.2199V36.7163Z" fill="black"/>
<path d="M73.6521 26.9663C74.6958 26.9663 75.5417 26.1203 75.5417 25.0766V16.8838C75.5417 14.4572 71.7617 14.4536 71.7617 16.8838V25.0766C71.7617 26.1203 72.6077 26.9663 73.6521 26.9663Z" fill="black"/>
<path d="M73.651 33.0242C74.661 33.0242 75.5246 32.1775 75.5378 31.1668C75.5509 30.1179 74.6918 29.2515 73.6459 29.25C72.6029 29.2493 71.7402 30.1362 71.7621 31.1792C71.7826 32.1826 72.6484 33.0242 73.651 33.0242Z" fill="black"/>
<path d="M18.9201 85.5439C17.9093 85.5439 17.0466 86.3906 17.0334 87.4021C17.0195 88.4502 17.8786 89.3167 18.9245 89.3181C19.9675 89.3196 20.831 88.4319 20.809 87.3897C20.7878 86.3862 19.9221 85.5439 18.9201 85.5439Z" fill="black"/>
</g>
<defs>
<clipPath id="clip0">
<rect width="96" height="96" fill="white"/>
</clipPath>
</defs>
</svg>
