<svg width="24" height="24" viewBox="0 0 24 24" fill="none" xmlns="http://www.w3.org/2000/svg">
<path d="M8.78639 12.7031C7.4018 12.7031 6.27539 13.8295 6.27539 15.2141V21.489C6.27539 22.8736 7.4018 24 8.78639 24C10.171 24 11.2974 22.8736 11.2974 21.489V15.2141C11.2974 13.8295 10.171 12.7031 8.78639 12.7031Z" fill="#AAAAAA"/>
<path d="M4.86773 12.7031H2.4368C1.09636 12.7031 0.00585938 13.7937 0.00585938 15.1341C0.00585938 16.4745 1.09641 17.565 2.4368 17.565C3.77719 17.565 4.86773 16.4745 4.86773 15.1341V12.7031Z" fill="#AAAAAA"/>
<path d="M0 8.78542C0 10.17 1.12641 11.2964 2.511 11.2964H8.78583C10.1705 11.2964 11.2969 10.17 11.2969 8.78542C11.2969 7.40082 10.1705 6.27441 8.78588 6.27441H2.511C1.12641 6.27437 0 7.40082 0 8.78542H0Z" fill="#AAAAAA"/>
<path d="M8.86648 4.86872H11.2974V2.43778C11.2974 1.09734 10.2069 0.00683594 8.86648 0.00683594C7.52605 0.00683594 6.43555 1.09738 6.43555 2.43778C6.43555 3.77817 7.52605 4.86872 8.86648 4.86872Z" fill="#AAAAAA"/>
<path d="M15.2141 11.2969C16.5987 11.2969 17.7251 10.1705 17.7251 8.78589V2.511C17.7252 1.12641 16.5987 0 15.2141 0C13.8295 0 12.7031 1.12641 12.7031 2.511V8.78584C12.7031 10.1705 13.8295 11.2969 15.2141 11.2969Z" fill="#AAAAAA"/>
<path d="M19.1309 11.2965H21.5618C22.9022 11.2965 23.9927 10.2059 23.9927 8.86551C23.9927 7.52507 22.9022 6.43457 21.5618 6.43457C20.2214 6.43457 19.1309 7.52512 19.1309 8.86551V11.2965Z" fill="#AAAAAA"/>
<path d="M24 15.2141C24 13.8295 22.8736 12.7031 21.489 12.7031H15.2141C13.8295 12.7031 12.7031 13.8295 12.7031 15.2141C12.7031 16.5987 13.8295 17.7251 15.2141 17.7251H21.489C22.8736 17.7252 24 16.5987 24 15.2141Z" fill="#AAAAAA"/>
<path d="M15.1341 19.1318H12.7031V21.5628C12.7031 22.9032 13.7937 23.9937 15.1341 23.9937C16.4745 23.9937 17.565 22.9032 17.565 21.5628C17.565 20.2224 16.4745 19.1318 15.1341 19.1318Z" fill="#AAAAAA"/>
</svg>
