<?xml version="1.0" encoding="iso-8859-1"?>
<!-- Generator: Adobe Illustrator 19.0.0, SVG Export Plug-In . SVG Version: 6.00 Build 0)  -->
<svg version="1.1" id="Capa_1" xmlns="http://www.w3.org/2000/svg" xmlns:xlink="http://www.w3.org/1999/xlink" x="0px" y="0px"
	 viewBox="0 0 512 512" style="enable-background:new 0 0 512 512;" xml:space="preserve">
<path style="fill:#EFEFEF;" d="M5.673,439.015l2.853-3.317c0.386-0.447,39.532-44.98,131.299-67.701
	c35.158-8.711,73.781-13.179,114.794-13.281c42.144,0.1,81.73,4.81,117.67,13.997c89.546,22.881,128.052,66.544,128.431,66.982
	l2.866,3.32L5.673,439.015L5.673,439.015z"/>
<path style="fill:#8CE0FF;" d="M8.031,439.015v-2.008c0-66.009,25.643-128.128,72.205-174.913
	c46.546-46.771,108.507-72.712,174.469-73.044l0.053,4.016c-25.746,0.555-50.181,18.028-70.667,50.532
	c-20.067,31.841-34.91,76.811-41.794,126.624l-0.187,1.347l-1.32,0.327C50.251,394.313,11.947,437.88,11.571,438.318l-0.601,0.699
	H8.031V439.015z"/>
<path style="fill:#FF4F4F;" d="M371.295,372.603c-35.618-9.105-74.872-13.772-116.676-13.871
	c-40.681,0.1-78.983,4.529-113.829,13.162l-2.878,0.713l0.406-2.936c6.96-50.366,22.009-95.9,42.376-128.215
	c21.238-33.699,46.82-51.821,73.977-52.407c0.432-0.011,0.88-0.011,1.328-0.011c0.447,0,0.897,0,1.343,0.011
	c27.21,0.585,52.836,18.784,74.103,52.629c20.397,32.46,35.431,78.166,42.336,128.699l0.019,0.135v2.723L371.295,372.603z"/>
<path style="fill:#44C973;" d="M498.282,439.015l-0.601-0.695c-0.371-0.43-38.167-43.175-126.387-65.717l-1.511-0.385v-1.433
	c-6.838-49.924-21.659-95.014-41.739-126.971c-20.513-32.647-44.993-50.195-70.794-50.75l0.053-4.016
	c65.963,0.337,127.922,26.281,174.465,73.048c46.559,46.784,72.2,108.901,72.2,174.91v2.008H498.282z"/>
<path style="fill:#FBC640;" d="M354.053,158.71c-22.814,0-95.899-39.423-98.999-41.102l-3.262-1.766l3.262-1.766
	c3.1-1.678,76.186-41.092,98.999-41.092c23.632,0,42.857,19.225,42.857,42.857C396.91,139.48,377.685,158.71,354.053,158.71z"/>
<path style="fill:#30C9B0;" d="M157.957,158.71c-23.631,0-42.856-19.23-42.856-42.867c0-23.632,19.225-42.857,42.856-42.857
	c23.106,0,98.245,40.682,99.002,41.094l1.049,0.57v2.397l-1.173,0.636C249.021,121.882,179.852,158.71,157.957,158.71z"/>
<path d="M266.039,181.224v-48.743c24.626,12.687,69.261,34.261,88.014,34.261c28.061,0,50.889-22.833,50.889-50.899
	c0-28.061-22.828-50.889-50.889-50.889c-21.731,0-78.216,28.962-98.045,39.499c-18.141-9.643-76.087-39.499-98.051-39.499
	c-28.06,0-50.888,22.828-50.888,50.889c0,28.066,22.828,50.899,50.888,50.899c18.426,0,62.232-21.025,88.004-34.274v48.756
	c-64.83,2.484-125.417,28.982-171.418,75.204C26.473,304.729,0,368.86,0,437.007c0,5.545,4.496,10.039,10.039,10.039
	c0.002,0,0.003,0,0.005,0s0.003,0,0.005,0h491.912c5.544,0,10.039-4.495,10.039-10.039c0-68.146-26.471-132.276-74.538-180.575
	C391.463,210.209,330.875,183.71,266.039,181.224z M490.971,415.853c-18.501-14.867-53.933-37.816-110.191-53.197
	c-7.493-49.604-22.143-92.801-42.533-125.252c-6.989-11.123-14.465-20.662-22.337-28.57
	C410.41,233.735,482.02,316.062,490.971,415.853z M254.96,201.093c0.34-0.008,0.691-0.007,1.04-0.007
	c0.354,0.002,0.704-0.001,1.079,0.008c29.02,0.624,50.912,25.9,64.166,46.994c17.55,27.93,30.978,66.362,38.359,109.386
	c-32.081-6.963-66.737-10.579-103.282-10.773c-0.104-0.003-0.206-0.016-0.311-0.016h-1.385h-0.024h-1.36
	c-0.101,0-0.201,0.012-0.301,0.015c-35.451,0.189-69.155,3.603-100.434,10.169c7.419-42.888,20.857-81.182,38.382-108.99
	C204.119,226.88,225.975,201.718,254.96,201.093z M142.723,379.69c0.037-0.009,0.076-0.018,0.113-0.027
	c0.032-0.008,0.065-0.015,0.098-0.023c34.162-8.444,71.742-12.777,111.678-12.876c41.134,0.099,79.722,4.681,114.694,13.621
	c50.624,12.936,84.102,32.621,103.036,46.583H36.887C56.144,412.763,90.479,392.625,142.723,379.69z M354.053,85.032
	c16.989,0,30.81,13.822,30.81,30.81c0,16.994-13.822,30.82-30.81,30.82c-11.99,0-48.186-16.45-76.417-30.819
	C305.863,101.477,342.056,85.032,354.053,85.032z M157.957,146.663c-16.988,0-30.809-13.826-30.809-30.82
	c0-16.988,13.822-30.81,30.809-30.81c12.358,0,49.848,17.314,76.407,30.808C202.13,132.254,168.844,146.663,157.957,146.663z
	 M196.182,208.795c-30.734,30.649-54.413,84.8-64.841,153.092c-55.065,14.607-90.557,36.485-110.088,51.598
	C31.117,314.719,102.38,233.464,196.182,208.795z"/>
<path d="M378.834,277.131c21.419,15.779,38.242,35.959,48.653,58.36c1.7,3.659,5.325,5.811,9.111,5.811
	c1.416,0,2.855-0.301,4.225-0.938c5.028-2.337,7.21-8.306,4.873-13.335c-11.826-25.448-30.828-48.293-54.951-66.064
	c-4.464-3.287-10.749-2.336-14.037,2.128C373.417,267.557,374.369,273.842,378.834,277.131z"/>
<path d="M447.463,368.79c12.919,0,12.942-20.078,0-20.078C434.543,348.711,434.522,368.79,447.463,368.79z"/>
<g>
</g>
<g>
</g>
<g>
</g>
<g>
</g>
<g>
</g>
<g>
</g>
<g>
</g>
<g>
</g>
<g>
</g>
<g>
</g>
<g>
</g>
<g>
</g>
<g>
</g>
<g>
</g>
<g>
</g>
</svg>
